<svg width="580" height="580" viewBox="0 0 580 580" fill="none" xmlns="http://www.w3.org/2000/svg">
<path d="M290 0L350.046 65.9052L435 38.8526L454.049 125.951L541.147 145L514.095 229.954L580 290L514.095 350.046L541.147 435L454.049 454.049L435 541.147L350.046 514.095L290 580L229.954 514.095L145 541.147L125.951 454.049L38.8526 435L65.9052 350.046L0 290L65.9052 229.954L38.8526 145L125.951 125.951L145 38.8526L229.954 65.9052L290 0Z" fill="#A30000"/>
<path d="M289.912 43.4119L342.452 101.079L416.787 77.4079L433.455 153.619L509.666 170.287L485.995 244.622L543.662 297.162L485.995 349.702L509.666 424.037L433.455 440.705L416.787 516.916L342.452 493.245L289.912 550.912L237.372 493.245L163.037 516.916L146.369 440.705L70.1582 424.037L93.8292 349.702L36.1621 297.162L93.8292 244.622L70.1582 170.287L146.369 153.619L163.037 77.4079L237.372 101.079L289.912 43.4119Z" fill="#0003A3"/>
<path d="M289.26 93.507L331.292 139.641L390.76 120.704L404.094 181.673L465.063 195.007L446.127 254.475L492.26 296.507L446.127 338.539L465.063 398.007L404.094 411.341L390.76 472.31L331.292 453.373L289.26 499.507L247.228 453.373L187.76 472.31L174.426 411.341L113.457 398.007L132.394 338.539L86.2603 296.507L132.394 254.475L113.457 195.007L174.426 181.673L187.76 120.704L247.228 139.641L289.26 93.507Z" fill="#F6C24A"/>
</svg>
