<svg width="1612" height="259" viewBox="0 0 1612 259" fill="none" xmlns="http://www.w3.org/2000/svg">
<path d="M201.57 249.45C199.2 249.45 197.07 248.91 195.18 247.83C193.29 246.75 191.79 245.28 190.68 243.42C189.6 241.53 189.06 239.4 189.06 237.03V217.5H194.235V236.985C194.235 238.515 194.55 239.85 195.18 240.99C195.84 242.1 196.725 242.97 197.835 243.6C198.945 244.2 200.19 244.5 201.57 244.5C202.98 244.5 204.225 244.2 205.305 243.6C206.385 242.97 207.24 242.1 207.87 240.99C208.5 239.85 208.815 238.53 208.815 237.03V217.5H213.99V237.075C213.99 239.445 213.45 241.56 212.37 243.42C211.29 245.28 209.82 246.75 207.96 247.83C206.1 248.91 203.97 249.45 201.57 249.45Z" fill="#FDF9EE"/>
<path d="M218.239 249V217.5H223.414V249H218.239Z" fill="#FDF9EE"/>
<path d="M233.261 254.85V214.35H237.761V254.85H233.261Z" fill="#FDF9EE"/>
<path d="M257.787 249.45C255.417 249.45 253.287 248.91 251.397 247.83C249.507 246.75 248.007 245.28 246.897 243.42C245.817 241.53 245.277 239.4 245.277 237.03V217.5H250.452V236.985C250.452 238.515 250.767 239.85 251.397 240.99C252.057 242.1 252.942 242.97 254.052 243.6C255.162 244.2 256.407 244.5 257.787 244.5C259.197 244.5 260.442 244.2 261.522 243.6C262.602 242.97 263.457 242.1 264.087 240.99C264.717 239.85 265.032 238.53 265.032 237.03V217.5H270.207V237.075C270.207 239.445 269.667 241.56 268.587 243.42C267.507 245.28 266.037 246.75 264.177 247.83C262.317 248.91 260.187 249.45 257.787 249.45Z" fill="#FDF9EE"/>
<path d="M294.545 249L285.275 234.96H284.33L271.865 217.5H277.985L287.3 230.73H288.245L300.575 249H294.545ZM271.325 249L283.295 232.17L286.85 235.185L277.13 249H271.325ZM288.605 233.925L285.05 230.91L294.23 217.5H300.035L288.605 233.925Z" fill="#FDF9EE"/>
<path d="M317.97 249.45C315.99 249.45 314.22 248.97 312.66 248.01C311.1 247.02 309.855 245.685 308.925 244.005C308.025 242.325 307.575 240.435 307.575 238.335C307.575 236.235 308.025 234.345 308.925 232.665C309.855 230.985 311.1 229.65 312.66 228.66C314.22 227.67 315.99 227.175 317.97 227.175C319.56 227.175 321 227.52 322.29 228.21C323.58 228.87 324.615 229.8 325.395 231C326.205 232.17 326.655 233.535 326.745 235.095V241.53C326.655 243.06 326.22 244.425 325.44 245.625C324.66 246.825 323.625 247.77 322.335 248.46C321.045 249.12 319.59 249.45 317.97 249.45ZM318.645 245.625C319.995 245.625 321.165 245.31 322.155 244.68C323.175 244.05 323.97 243.195 324.54 242.115C325.11 241.005 325.395 239.745 325.395 238.335C325.395 236.865 325.095 235.59 324.495 234.51C323.925 233.43 323.13 232.575 322.11 231.945C321.12 231.315 319.95 231 318.6 231C317.25 231 316.065 231.315 315.045 231.945C314.025 232.575 313.215 233.445 312.615 234.555C312.045 235.635 311.76 236.88 311.76 238.29C311.76 239.73 312.045 241.005 312.615 242.115C313.215 243.195 314.025 244.05 315.045 244.68C316.095 245.31 317.295 245.625 318.645 245.625ZM329.22 249H325.125V243.24L325.89 238.02L325.125 232.845V216.87H329.22V249Z" fill="#FDF9EE"/>
<path d="M342.766 249.45C340.636 249.45 338.716 248.97 337.006 248.01C335.296 247.02 333.946 245.685 332.956 244.005C331.966 242.325 331.471 240.42 331.471 238.29C331.471 236.19 331.951 234.3 332.911 232.62C333.901 230.94 335.221 229.62 336.871 228.66C338.551 227.67 340.426 227.175 342.496 227.175C344.476 227.175 346.216 227.625 347.716 228.525C349.246 229.425 350.431 230.67 351.271 232.26C352.141 233.85 352.576 235.65 352.576 237.66C352.576 237.96 352.561 238.29 352.531 238.65C352.501 238.98 352.441 239.37 352.351 239.82H334.306V236.445H350.191L348.706 237.75C348.706 236.31 348.451 235.095 347.941 234.105C347.431 233.085 346.711 232.305 345.781 231.765C344.851 231.195 343.726 230.91 342.406 230.91C341.026 230.91 339.811 231.21 338.761 231.81C337.711 232.41 336.901 233.25 336.331 234.33C335.761 235.41 335.476 236.685 335.476 238.155C335.476 239.655 335.776 240.975 336.376 242.115C336.976 243.225 337.831 244.095 338.941 244.725C340.051 245.325 341.326 245.625 342.766 245.625C343.966 245.625 345.061 245.415 346.051 244.995C347.071 244.575 347.941 243.945 348.661 243.105L351.271 245.76C350.251 246.96 348.991 247.875 347.491 248.505C346.021 249.135 344.446 249.45 342.766 249.45Z" fill="#FDF9EE"/>
<path d="M361.537 249.45C360.337 249.45 359.197 249.3 358.117 249C357.067 248.67 356.092 248.22 355.192 247.65C354.292 247.05 353.512 246.345 352.852 245.535L355.462 242.925C356.242 243.885 357.142 244.605 358.162 245.085C359.182 245.535 360.322 245.76 361.582 245.76C362.842 245.76 363.817 245.55 364.507 245.13C365.197 244.68 365.542 244.065 365.542 243.285C365.542 242.505 365.257 241.905 364.687 241.485C364.147 241.035 363.442 240.675 362.572 240.405C361.702 240.105 360.772 239.82 359.782 239.55C358.822 239.25 357.907 238.875 357.037 238.425C356.167 237.975 355.447 237.36 354.877 236.58C354.337 235.8 354.067 234.765 354.067 233.475C354.067 232.185 354.382 231.075 355.012 230.145C355.642 229.185 356.512 228.45 357.622 227.94C358.762 227.43 360.127 227.175 361.717 227.175C363.397 227.175 364.882 227.475 366.172 228.075C367.492 228.645 368.572 229.515 369.412 230.685L366.802 233.295C366.202 232.515 365.452 231.915 364.552 231.495C363.682 231.075 362.692 230.865 361.582 230.865C360.412 230.865 359.512 231.075 358.882 231.495C358.282 231.885 357.982 232.44 357.982 233.16C357.982 233.88 358.252 234.435 358.792 234.825C359.332 235.215 360.037 235.545 360.907 235.815C361.807 236.085 362.737 236.37 363.697 236.67C364.657 236.94 365.572 237.315 366.442 237.795C367.312 238.275 368.017 238.92 368.557 239.73C369.127 240.54 369.412 241.605 369.412 242.925C369.412 244.935 368.692 246.525 367.252 247.695C365.842 248.865 363.937 249.45 361.537 249.45Z" fill="#FDF9EE"/>
<path d="M371.741 249V227.625H375.791V249H371.741ZM373.766 223.35C373.016 223.35 372.401 223.11 371.921 222.63C371.441 222.12 371.201 221.49 371.201 220.74C371.201 220.02 371.441 219.42 371.921 218.94C372.401 218.43 373.016 218.175 373.766 218.175C374.516 218.175 375.131 218.43 375.611 218.94C376.091 219.42 376.331 220.02 376.331 220.74C376.331 221.49 376.091 222.12 375.611 222.63C375.131 223.11 374.516 223.35 373.766 223.35Z" fill="#FDF9EE"/>
<path d="M388.375 258.405C386.185 258.405 384.235 258 382.525 257.19C380.845 256.38 379.495 255.24 378.475 253.77L381.085 251.115C381.955 252.225 382.99 253.065 384.19 253.635C385.39 254.235 386.815 254.535 388.465 254.535C390.655 254.535 392.38 253.95 393.64 252.78C394.93 251.64 395.575 250.095 395.575 248.145V242.835L396.295 238.02L395.575 233.25V227.625H399.625V248.145C399.625 250.185 399.145 251.97 398.185 253.5C397.255 255.03 395.935 256.23 394.225 257.1C392.545 257.97 390.595 258.405 388.375 258.405ZM388.375 248.64C386.425 248.64 384.67 248.175 383.11 247.245C381.58 246.315 380.365 245.04 379.465 243.42C378.565 241.77 378.115 239.925 378.115 237.885C378.115 235.845 378.565 234.03 379.465 232.44C380.365 230.82 381.58 229.545 383.11 228.615C384.67 227.655 386.425 227.175 388.375 227.175C390.055 227.175 391.54 227.505 392.83 228.165C394.12 228.825 395.14 229.755 395.89 230.955C396.67 232.125 397.09 233.505 397.15 235.095V240.765C397.06 242.325 396.625 243.705 395.845 244.905C395.095 246.075 394.075 246.99 392.785 247.65C391.495 248.31 390.025 248.64 388.375 248.64ZM389.185 244.815C390.505 244.815 391.66 244.53 392.65 243.96C393.67 243.39 394.45 242.595 394.99 241.575C395.53 240.525 395.8 239.31 395.8 237.93C395.8 236.55 395.515 235.35 394.945 234.33C394.405 233.28 393.64 232.47 392.65 231.9C391.66 231.3 390.49 231 389.14 231C387.79 231 386.605 231.3 385.585 231.9C384.565 232.47 383.755 233.28 383.155 234.33C382.585 235.35 382.3 236.535 382.3 237.885C382.3 239.235 382.585 240.435 383.155 241.485C383.755 242.535 384.565 243.36 385.585 243.96C386.635 244.53 387.835 244.815 389.185 244.815Z" fill="#FDF9EE"/>
<path d="M418.439 249V236.535C418.439 234.915 417.929 233.58 416.909 232.53C415.889 231.48 414.569 230.955 412.949 230.955C411.869 230.955 410.909 231.195 410.069 231.675C409.229 232.155 408.569 232.815 408.089 233.655C407.609 234.495 407.369 235.455 407.369 236.535L405.704 235.59C405.704 233.97 406.064 232.53 406.784 231.27C407.504 230.01 408.509 229.02 409.799 228.3C411.089 227.55 412.544 227.175 414.164 227.175C415.784 227.175 417.209 227.58 418.439 228.39C419.699 229.2 420.689 230.265 421.409 231.585C422.129 232.875 422.489 234.255 422.489 235.725V249H418.439ZM403.319 249V227.625H407.369V249H403.319Z" fill="#FDF9EE"/>
<path d="M435.623 249.45C433.493 249.45 431.573 248.97 429.863 248.01C428.153 247.02 426.803 245.685 425.813 244.005C424.823 242.325 424.328 240.42 424.328 238.29C424.328 236.19 424.808 234.3 425.768 232.62C426.758 230.94 428.078 229.62 429.728 228.66C431.408 227.67 433.283 227.175 435.353 227.175C437.333 227.175 439.073 227.625 440.573 228.525C442.103 229.425 443.288 230.67 444.128 232.26C444.998 233.85 445.433 235.65 445.433 237.66C445.433 237.96 445.418 238.29 445.388 238.65C445.358 238.98 445.298 239.37 445.208 239.82H427.163V236.445H443.048L441.563 237.75C441.563 236.31 441.308 235.095 440.798 234.105C440.288 233.085 439.568 232.305 438.638 231.765C437.708 231.195 436.583 230.91 435.263 230.91C433.883 230.91 432.668 231.21 431.618 231.81C430.568 232.41 429.758 233.25 429.188 234.33C428.618 235.41 428.333 236.685 428.333 238.155C428.333 239.655 428.633 240.975 429.233 242.115C429.833 243.225 430.688 244.095 431.798 244.725C432.908 245.325 434.183 245.625 435.623 245.625C436.823 245.625 437.918 245.415 438.908 244.995C439.928 244.575 440.798 243.945 441.518 243.105L444.128 245.76C443.108 246.96 441.848 247.875 440.348 248.505C438.878 249.135 437.303 249.45 435.623 249.45Z" fill="#FDF9EE"/>
<path d="M447.599 249V227.625H451.649V249H447.599ZM451.649 236.805L450.119 236.13C450.119 233.4 450.749 231.225 452.009 229.605C453.269 227.985 455.084 227.175 457.454 227.175C458.534 227.175 459.509 227.37 460.379 227.76C461.249 228.12 462.059 228.735 462.809 229.605L460.154 232.35C459.704 231.87 459.209 231.525 458.669 231.315C458.129 231.105 457.499 231 456.779 231C455.279 231 454.049 231.48 453.089 232.44C452.129 233.4 451.649 234.855 451.649 236.805Z" fill="#FDF9EE"/>
<path d="M1347.3 0L1353.86 7.20085L1363.14 4.24507L1365.22 13.7615L1374.74 15.8428L1371.79 25.1249L1378.99 31.6856L1371.79 38.2463L1374.74 47.5284L1365.22 49.6097L1363.14 59.1261L1353.86 56.1704L1347.3 63.3712L1340.74 56.1704L1331.46 59.1261L1329.38 49.6097L1319.86 47.5284L1322.82 38.2463L1315.61 31.6856L1322.82 25.1249L1319.86 15.8428L1329.38 13.7615L1331.46 4.24507L1340.74 7.20085L1347.3 0Z" fill="#A30000"/>
<path d="M134.696 250C125.798 250 117.972 248.352 111.216 245.057C104.626 241.762 99.5182 236.901 95.8933 230.475C92.4333 224.214 90.7032 216.717 90.7032 207.985C90.7032 205.843 90.7856 203.619 90.9504 201.312C91.1151 199.17 91.3623 196.946 91.6918 194.639C78.1811 195.133 65.8237 193.238 54.6196 188.955C43.4156 184.671 33.6945 178.574 25.4562 170.666C17.3827 162.757 11.1216 153.448 6.67299 142.738C2.22433 131.863 0 120.083 0 107.396C0 95.3679 2.05956 84.0815 6.17869 73.5365C10.2978 62.9915 16.2294 53.6823 23.9733 45.6088C31.7173 37.5353 41.0265 31.2742 51.901 26.8256C62.7755 22.2122 74.8858 19.9054 88.2317 19.9054C101.742 19.9054 113.935 22.1298 124.81 26.5784C135.684 30.8623 144.993 36.9586 152.737 44.8674C160.481 52.7761 166.413 61.9206 170.532 72.3008C174.651 82.5162 176.711 93.5555 176.711 105.419V204.278C176.711 213.01 175.063 220.837 171.768 227.757C168.637 234.677 163.941 240.114 157.68 244.068C151.419 248.023 143.758 250 134.696 250ZM132.718 223.555C137.167 223.555 140.627 221.908 143.099 218.612C145.735 215.317 147.053 210.786 147.053 205.019V153.612C141.616 157.402 137.002 161.356 133.213 165.475C129.588 169.43 126.704 173.549 124.562 177.833C122.421 182.117 120.855 186.565 119.867 191.179C118.878 195.627 118.384 200.159 118.384 204.772C118.384 208.726 119.043 212.104 120.361 214.905C121.679 217.706 123.409 219.848 125.551 221.331C127.858 222.814 130.247 223.555 132.718 223.555ZM88.2317 168.936C90.868 168.936 93.2571 168.853 95.399 168.688C97.541 168.359 99.8477 167.947 102.319 167.453C104.955 162.51 108.251 157.484 112.205 152.377C116.159 147.269 121.02 142.326 126.787 137.548C132.554 132.605 139.309 127.909 147.053 123.46V105.419C147.053 97.0155 145.57 89.1892 142.604 81.9395C139.803 74.6899 135.684 68.4288 130.247 63.1563C124.974 57.719 118.796 53.5175 111.711 50.5518C104.626 47.4212 96.7995 45.8559 88.2317 45.8559C79.8287 45.8559 72.0024 47.4212 64.7527 50.5518C57.6678 53.6823 51.4891 58.0486 46.2166 63.6506C40.9441 69.0878 36.825 75.5961 33.8592 83.1753C30.8935 90.5897 29.4106 98.6632 29.4106 107.396C29.4106 116.128 30.8935 124.284 33.8592 131.863C36.825 139.278 40.9441 145.786 46.2166 151.388C51.4891 156.825 57.6678 161.109 64.7527 164.24C72.0024 167.37 79.8287 168.936 88.2317 168.936Z" fill="#FDF9EE"/>
<path d="M246.806 198.346C236.92 198.346 228.27 196.039 220.855 191.426C213.606 186.648 208.004 179.892 204.049 171.16C200.095 162.427 198.118 152.212 198.118 140.514V72.3008H224.316L224.563 136.559C224.563 148.093 227.611 157.237 233.707 163.993C239.968 170.748 248.289 174.126 258.669 174.126C265.095 174.126 270.944 172.478 276.217 169.183C281.489 165.887 285.608 161.439 288.574 155.837C291.704 150.07 293.27 143.644 293.27 136.559V72.3008H319.22V195.875H293.27V155.342C290.469 168.359 284.867 178.821 276.464 186.73C268.225 194.474 258.34 198.346 246.806 198.346Z" fill="#FDF9EE"/>
<path d="M346.428 199.331V167.07H450.126V148.058H372.352V122.422H346.428V90.448H372.352V64.5234H482.1V96.7851H378.113V115.508H455.887V141.145H482.1V173.695H455.887V199.331H346.428Z" fill="#FDF9EE"/>
<path d="M565.039 198.346C549.551 198.346 538.017 194.886 530.438 187.966C523.024 181.046 519.316 170.913 519.316 157.567V95.7798H490.153V72.3008H510.419C514.209 72.3008 517.092 71.3122 519.069 69.335C521.046 67.193 522.035 64.2273 522.035 60.4377V42.643H545.514L545.267 72.3008H594.696V95.7798H545.267V151.388C545.267 159.297 547.244 165.064 551.198 168.688C555.317 172.313 561.743 174.126 570.476 174.126C577.231 174.126 585.305 173.137 594.696 171.16V194.639C590.083 195.627 584.975 196.451 579.373 197.11C573.936 197.934 569.158 198.346 565.039 198.346Z" fill="#FDF9EE"/>
<path d="M639.781 198.84C628.248 198.84 619.104 196.122 612.348 190.685C605.593 185.083 602.215 177.421 602.215 167.7C602.215 158.143 605.346 150.729 611.607 145.456C618.033 140.184 625.612 136.559 634.344 134.582C643.077 132.44 652.963 130.957 664.002 130.133C673.394 129.474 680.561 128.321 685.504 126.673C690.612 125.026 693.165 121.977 693.165 117.529C693.165 109.291 690.364 102.782 684.762 98.0041C679.16 93.2259 672.158 90.8368 663.755 90.8368C654.693 90.8368 647.196 93.3907 641.264 98.4984C635.498 103.441 632.038 110.362 630.884 119.259H606.664C607.488 108.879 610.453 99.9813 615.561 92.5669C620.834 85.1524 627.671 79.5504 636.074 75.7608C644.642 71.8065 654.034 69.8293 664.249 69.8293C674.629 69.8293 683.774 71.8065 691.683 75.7608C699.756 79.7152 706.017 85.482 710.466 93.0612C714.914 100.64 717.139 109.538 717.139 119.753V172.89H732.956V195.875H693.413V153.86C690.117 167.041 683.774 177.833 674.382 186.236C664.991 194.639 653.457 198.84 639.781 198.84ZM651.892 178.327C659.471 178.327 666.391 176.432 672.652 172.643C679.078 168.688 684.103 163.581 687.728 157.32C691.353 150.894 693.165 143.974 693.165 136.559L693.413 127.662C691.271 129.639 688.387 131.122 684.762 132.111C681.302 132.934 676.524 133.676 670.428 134.335C670.098 134.335 669.686 134.417 669.192 134.582C668.863 134.582 668.533 134.582 668.203 134.582C654.858 135.735 644.889 138.207 638.299 141.996C631.873 145.786 628.66 151.388 628.66 158.802C628.66 165.228 630.719 170.089 634.839 173.384C639.122 176.68 644.807 178.327 651.892 178.327Z" fill="#FDF9EE"/>
<path d="M777.674 195.875L726.515 72.3008H753.948L794.975 173.384H796.458L837.731 72.3008H864.67L813.264 195.875H777.674Z" fill="#FDF9EE"/>
<path d="M897.593 199.331V173.407H871.38V92.4643H897.593V66.2517H978.823V92.4643H1005.32V173.407H978.823V199.331H897.593ZM900.473 170.526H975.943V95.0568H900.473V170.526Z" fill="#FDF9EE"/>
<path d="M1131.68 195.875C1122.29 195.875 1114.13 193.897 1107.21 189.943C1100.46 185.824 1095.18 180.304 1091.39 173.384C1087.77 166.299 1085.96 158.391 1085.96 149.658V22.8712H1109.68V152.624C1109.68 159.05 1111.66 164.404 1115.61 168.688C1119.73 172.808 1125.09 174.867 1131.68 174.867H1178.14V195.875H1131.68Z" fill="#FDF9EE"/>
<path d="M1249.49 198.346C1237.13 198.346 1225.93 195.627 1215.88 190.19C1205.99 184.588 1198.17 177.009 1192.4 167.453C1186.63 157.732 1183.75 146.857 1183.75 134.829C1183.75 122.307 1186.63 111.103 1192.4 101.217C1198.33 91.3311 1206.32 83.6696 1216.37 78.2323C1226.42 72.6303 1237.54 69.8293 1249.74 69.8293C1261.93 69.8293 1272.97 72.6303 1282.85 78.2323C1292.74 83.6696 1300.48 91.3311 1306.09 101.217C1311.85 110.938 1314.74 121.895 1314.74 134.088C1314.74 134.417 1314.74 134.829 1314.74 135.323C1314.74 135.818 1314.74 136.23 1314.74 136.559H1209.45C1209.78 143.809 1211.76 150.399 1215.38 156.331C1219.01 162.098 1223.79 166.711 1229.72 170.171C1235.81 173.467 1242.49 175.114 1249.74 175.114C1257.48 175.114 1264.32 173.384 1270.25 169.924C1276.35 166.464 1280.55 162.015 1282.85 156.578H1310.78C1309.46 163.828 1306.09 170.666 1300.65 177.091C1295.21 183.352 1288.04 188.46 1279.15 192.415C1270.42 196.369 1260.53 198.346 1249.49 198.346ZM1290.27 131.616C1289.94 124.367 1287.96 117.858 1284.34 112.092C1280.71 106.16 1275.85 101.547 1269.76 98.2513C1263.82 94.7912 1257.23 93.0612 1249.98 93.0612C1242.73 93.0612 1236.06 94.7912 1229.97 98.2513C1224.03 101.547 1219.17 106.16 1215.38 112.092C1211.76 117.858 1209.78 124.367 1209.45 131.616H1290.27Z" fill="#FDF9EE"/>
<path d="M1334.1 195.875V72.3008H1360.05V195.875H1334.1Z" fill="#FDF9EE"/>
<path d="M1449.8 198.346C1434.31 198.346 1422.78 194.886 1415.2 187.966C1407.78 181.046 1404.08 170.913 1404.08 157.567V95.7798H1374.91V72.3008H1395.18C1398.97 72.3008 1401.85 71.3122 1403.83 69.335C1405.81 67.193 1406.8 64.2273 1406.8 60.4377V42.643H1430.27L1430.03 72.3008H1479.46V95.7798H1430.03V151.388C1430.03 159.297 1432 165.064 1435.96 168.688C1440.08 172.313 1446.5 174.126 1455.24 174.126C1461.99 174.126 1470.07 173.137 1479.46 171.16V194.639C1474.84 195.627 1469.74 196.451 1464.13 197.11C1458.7 197.934 1453.92 198.346 1449.8 198.346Z" fill="#FDF9EE"/>
<path d="M1611.82 181.576C1605.94 186.538 1598.24 190.455 1588.7 193.328C1579.17 196.071 1568.79 197.442 1557.56 197.442C1545.02 197.442 1534.38 195.809 1525.63 192.545C1516.88 189.15 1510.29 184.514 1505.85 178.638C1501.41 172.761 1499.19 165.971 1499.19 158.267C1499.19 150.432 1501.41 143.707 1505.85 138.092C1510.42 132.346 1516.3 128.233 1523.48 125.752C1517.73 123.14 1513.23 119.222 1509.96 113.999C1506.7 108.645 1505.07 102.508 1505.07 95.5868C1505.07 88.4047 1507.09 81.9409 1511.14 76.1952C1515.32 70.4496 1521.58 65.8792 1529.94 62.484C1538.3 58.9583 1548.48 57.1954 1560.5 57.1954C1568.99 57.1954 1577.21 58.1095 1585.18 59.9376C1593.27 61.7658 1600.26 64.3775 1606.14 67.7726L1600.46 83.4426C1588.7 77.1746 1575.65 74.0406 1561.28 74.0406C1549.4 74.0406 1540.32 76.1952 1534.06 80.5045C1527.79 84.6831 1524.65 90.1676 1524.65 96.9579C1524.65 103.748 1527.07 108.972 1531.9 112.628C1536.73 116.284 1543.65 118.112 1552.66 118.112H1587.92V134.958H1551.88C1541.56 134.958 1533.47 136.786 1527.59 140.442C1521.72 144.098 1518.78 149.583 1518.78 156.896C1518.78 164.339 1522.11 170.15 1528.77 174.328C1535.43 178.507 1545.35 180.596 1558.54 180.596C1567.68 180.596 1576.36 179.356 1584.59 176.875C1592.95 174.263 1599.8 170.737 1605.16 166.298L1611.82 181.576Z" fill="#FDF9EE"/>
<path d="M594.696 171.16V194.639L612.348 190.685C605.593 185.083 602.215 177.421 602.215 167.7L594.696 171.16Z" fill="#FDF9EE"/>
</svg>
