<svg width="63" height="45" viewBox="0 0 63 45" fill="none" xmlns="http://www.w3.org/2000/svg">
<path d="M18.2503 0.466414C19.9613 0.466414 21.6723 0.638991 23.3018 0.984145C24.6868 1.3293 25.9904 1.93332 27.2126 2.79621C28.2717 3.65909 29.168 4.78085 29.7383 6.07518C30.3901 7.71467 30.716 9.44044 30.6345 11.1662C30.716 13.0646 30.2271 14.9629 29.3309 16.6024C28.3532 18.1556 26.9681 19.3636 25.4201 20.1402C27.6199 20.7443 29.4939 22.2112 30.716 24.1095C31.9381 26.1805 32.5084 28.5965 32.5084 31.0126C32.5084 32.9973 32.1825 34.8956 31.3678 36.6214C30.6345 38.1746 29.5753 39.4689 28.3532 40.5907C27.0496 41.6261 25.5016 42.4027 23.9536 42.8342C22.3241 43.3519 20.6131 43.5245 18.9021 43.5245H0V0.380127H18.2503V0.466414ZM17.1097 17.8967C18.4133 17.983 19.7984 17.5516 20.8575 16.6887C21.9167 15.7395 22.487 14.2726 22.3241 12.7194C22.3241 11.8565 22.1611 10.9936 21.8352 10.217C21.5093 9.61302 21.102 9.09529 20.5316 8.75013C19.9613 8.40498 19.3095 8.05982 18.6577 7.97353C17.9244 7.80095 17.1912 7.80096 16.4579 7.80096H8.47338V17.8967H17.1097ZM17.5985 36.3625C18.4133 36.3625 19.228 36.2762 19.9613 36.1037C20.6946 35.9311 21.3464 35.5859 21.9982 35.1545C22.5685 34.723 23.0574 34.119 23.3833 33.4287C23.7906 32.5658 23.9536 31.6166 23.8721 30.6675C24.0351 28.8554 23.3833 27.1296 22.1611 25.9216C20.8575 24.8861 19.3095 24.4547 17.68 24.541H8.47338V36.4488H17.5985V36.3625Z" fill="#F6C24A"/>
<path d="M44.5667 36.1899C45.9518 37.4843 47.7442 38.1746 49.5367 38.0883C51.0032 38.0883 52.3883 37.6569 53.5289 36.794C54.5066 36.1037 55.1584 35.1545 55.5658 34.0327H62.3282C61.5949 37.2254 59.8025 40.0729 57.3582 42.0576C54.9955 43.7834 52.1438 44.56 49.2108 44.4737C47.1739 44.4737 45.137 44.1285 43.1816 43.2656C41.4707 42.489 39.9226 41.3673 38.7005 39.9004C37.4784 38.3472 36.5007 36.6214 35.8489 34.723C35.1156 32.5658 34.7897 30.3223 34.8712 28.0788C34.8712 25.8353 35.1971 23.6781 35.9304 21.5209C37.8858 15.4807 43.2631 11.4251 49.2922 11.5114C51.4921 11.4251 53.6104 12.0291 55.5658 13.0646C57.2768 14.1 58.8248 15.4807 59.9654 17.2064C61.1061 19.0185 62.0023 21.0031 62.4097 23.1604C62.8985 25.4039 63.0615 27.8199 62.98 30.1497H42.7743C42.5298 32.3069 43.1816 34.4642 44.5667 36.1899ZM53.366 19.7088C52.2253 18.5008 50.6773 17.8967 49.0478 17.983C47.9886 17.983 46.9295 18.1556 46.0332 18.6733C45.3 19.1048 44.6482 19.7088 44.0778 20.3991C43.589 21.0894 43.2631 21.7797 43.0187 22.6426C42.8557 23.3329 42.6928 24.0232 42.6928 24.7136H55.2399C55.0769 22.9015 54.4251 21.1757 53.366 19.7088Z" fill="#F6C24A"/>
<path d="M56.7064 3.31395H41.0633V7.54209H56.7064V3.31395Z" fill="#F6C24A"/>
</svg>
