<svg width="63" height="45" viewBox="0 0 63 45" fill="none" xmlns="http://www.w3.org/2000/svg">
<g clip-path="url(#clip0_516_417)">
<path d="M18.2503 0.466414C19.9613 0.466414 21.6723 0.638991 23.3018 0.984145C24.6868 1.3293 25.9904 1.93332 27.2126 2.79621C28.2717 3.65909 29.168 4.78085 29.7383 6.07518C30.3901 7.71467 30.716 9.44044 30.6345 11.1662C30.716 13.0646 30.2271 14.9629 29.3309 16.6024C28.3532 18.1556 26.9681 19.3636 25.4201 20.1402C27.6199 20.7443 29.4939 22.2112 30.716 24.1095C31.9381 26.1805 32.5084 28.5965 32.5084 31.0126C32.5084 32.9973 32.1825 34.8956 31.3678 36.6214C30.6345 38.1746 29.5753 39.4689 28.3532 40.5907C27.0496 41.6261 25.5016 42.4027 23.9536 42.8342C22.3241 43.3519 20.6131 43.5245 18.9021 43.5245H0V0.380127H18.2503V0.466414ZM17.1097 17.8967C18.4133 17.983 19.7984 17.5516 20.8575 16.6887C21.9167 15.7395 22.487 14.2726 22.3241 12.7194C22.3241 11.8565 22.1611 10.9936 21.8352 10.217C21.5093 9.61302 21.102 9.09529 20.5316 8.75013C19.9613 8.40498 19.3095 8.05982 18.6577 7.97353C17.9244 7.80095 17.1912 7.80096 16.4579 7.80096H8.47338V17.8967H17.1097ZM17.5985 36.3625C18.4133 36.3625 19.228 36.2762 19.9613 36.1037C20.6946 35.9311 21.3464 35.5859 21.9982 35.1545C22.5685 34.723 23.0574 34.119 23.3833 33.4287C23.7906 32.5658 23.9536 31.6166 23.8721 30.6675C24.0351 28.8554 23.3833 27.1296 22.1611 25.9216C20.8575 24.8861 19.3095 24.4547 17.68 24.541H8.47338V36.4488H17.5985V36.3625Z" fill="#FFF2DC"/>
<path d="M44.5666 36.1899C45.9517 37.4843 47.7441 38.1746 49.5366 38.0883C51.0031 38.0883 52.3882 37.6569 53.5288 36.794C54.5065 36.1037 55.1583 35.1545 55.5657 34.0327H62.3281C61.5948 37.2254 59.8024 40.0729 57.3581 42.0576C54.9954 43.7834 52.1437 44.56 49.2107 44.4737C47.1738 44.4737 45.1369 44.1285 43.1815 43.2656C41.4706 42.489 39.9225 41.3673 38.7004 39.9004C37.4783 38.3472 36.5006 36.6214 35.8488 34.723C35.1155 32.5658 34.7896 30.3223 34.8711 28.0788C34.8711 25.8353 35.197 23.6781 35.9303 21.5209C37.8857 15.4807 43.263 11.4251 49.2921 11.5114C51.492 11.4251 53.6103 12.0291 55.5657 13.0646C57.2767 14.1 58.8247 15.4807 59.9653 17.2064C61.106 19.0185 62.0022 21.0031 62.4096 23.1604C62.8984 25.4039 63.0614 27.8199 62.9799 30.1497H42.7742C42.5297 32.3069 43.1815 34.4642 44.5666 36.1899ZM53.3659 19.7088C52.2252 18.5008 50.6772 17.8967 49.0477 17.983C47.9885 17.983 46.9294 18.1556 46.0331 18.6733C45.2999 19.1048 44.6481 19.7088 44.0777 20.3991C43.5889 21.0894 43.263 21.7797 43.0186 22.6426C42.8556 23.3329 42.6927 24.0232 42.6927 24.7136H55.2398C55.0768 22.9015 54.425 21.1757 53.3659 19.7088Z" fill="#FFF2DC"/>
<path d="M56.7063 3.31395H41.0632V7.54209H56.7063V3.31395Z" fill="#FFF2DC"/>
</g>
<defs>
<clipPath id="clip0_516_417">
<rect width="63" height="45" fill="white"/>
</clipPath>
</defs>
</svg>
