<svg width="64" height="63" viewBox="0 0 64 63" fill="none" xmlns="http://www.w3.org/2000/svg">
<path fill-rule="evenodd" clip-rule="evenodd" d="M32.0261 0C14.593 0 0.5 14.4374 0.5 32.2985C0.5 46.5758 9.52985 58.6613 22.0566 62.9387C23.6228 63.2603 24.1965 62.2437 24.1965 61.3887C24.1965 60.6399 24.1449 58.0733 24.1449 55.3991C15.3751 57.3245 13.5489 51.5489 13.5489 51.5489C12.1395 47.8056 10.0513 46.8436 10.0513 46.8436C7.18091 44.865 10.2603 44.865 10.2603 44.865C13.4443 45.0789 15.115 48.1804 15.115 48.1804C17.9331 53.0996 22.4742 51.7097 24.301 50.8539C24.5617 48.7684 25.3974 47.3246 26.2847 46.5227C19.2902 45.7739 11.9311 42.9934 11.9311 30.587C11.9311 27.0577 13.183 24.1702 15.1666 21.9246C14.8537 21.1226 13.7573 17.8066 15.4803 13.3684C15.4803 13.3684 18.1422 12.5127 24.1442 16.6838C26.7139 15.9768 29.364 15.6171 32.0261 15.6141C34.688 15.6141 37.4015 15.9888 39.9073 16.6838C45.91 12.5127 48.5719 13.3684 48.5719 13.3684C50.2948 17.8066 49.1978 21.1226 48.8848 21.9246C50.9208 24.1702 52.1211 27.0577 52.1211 30.587C52.1211 42.9934 44.7619 45.7201 37.7151 46.5227C38.8638 47.5386 39.855 49.4633 39.855 52.5116C39.855 56.8428 39.8034 60.319 39.8034 61.388C39.8034 62.2437 40.3777 63.2603 41.9432 62.9394C54.47 58.6606 63.4999 46.5758 63.4999 32.2985C63.5515 14.4374 49.4069 0 32.0261 0Z" fill="#F6C24A"/>
</svg>
