<svg width="63" height="63" viewBox="0 0 63 63" fill="none" xmlns="http://www.w3.org/2000/svg">
<path d="M53.679 53.6802H44.3444V39.0613C44.3444 35.5753 44.2822 31.0877 39.4894 31.0877C34.6276 31.0877 33.8837 34.8859 33.8837 38.8075V53.6793H24.5491V23.6168H33.5103V27.7252H33.6358C34.5326 26.1918 35.8285 24.9303 37.3855 24.0752C38.9425 23.22 40.7023 22.8032 42.4775 22.8691C51.9385 22.8691 53.6829 29.0924 53.6829 37.1885L53.679 53.6802ZM14.0165 19.5075C12.9451 19.5077 11.8977 19.1902 11.0068 18.5951C10.1159 18 9.42146 17.1541 9.01128 16.1643C8.60111 15.1745 8.49361 14.0853 8.70244 13.0345C8.91127 11.9836 9.42703 11.0182 10.1845 10.2605C10.9419 9.50276 11.9071 8.98664 12.9578 8.77743C14.0086 8.56822 15.0977 8.6753 16.0876 9.08514C17.0775 9.49498 17.9237 10.1892 18.5191 11.0799C19.1145 11.9706 19.4324 13.018 19.4326 14.0894C19.4327 14.8008 19.2927 15.5052 19.0206 16.1625C18.7485 16.8198 18.3496 17.4171 17.8467 17.9202C17.3437 18.4233 16.7466 18.8224 16.0894 19.0948C15.4323 19.3671 14.7279 19.5074 14.0165 19.5075ZM18.6838 53.6802H9.33948V23.6168H18.6838V53.6802ZM58.3327 0.00429229H4.64885C3.43038 -0.00945862 2.25623 0.461117 1.38453 1.31261C0.512826 2.16411 0.0148708 3.32685 0 4.54535V58.4537C0.0143618 59.6728 0.512024 60.8364 1.3837 61.6887C2.25537 62.5411 3.42977 63.0126 4.64885 62.9996H58.3327C59.5542 63.015 60.7319 62.5448 61.607 61.6924C62.4821 60.8401 62.9831 59.6752 63 58.4537V4.54147C62.9826 3.32055 62.4812 2.15648 61.6061 1.305C60.7309 0.453529 59.5536 -0.0157013 58.3327 0.000401157" fill="#F6C24A"/>
</svg>
