<svg width="400" height="400" viewBox="0 0 400 400" fill="none" xmlns="http://www.w3.org/2000/svg">
<path d="M200 0L241.411 45.4519L300 26.7949L313.137 86.8629L373.205 100L354.548 158.589L400 200L354.548 241.411L373.205 300L313.137 313.137L300 373.205L241.411 354.548L200 400L158.589 354.548L100 373.205L86.8629 313.137L26.7949 300L45.4519 241.411L0 200L45.4519 158.589L26.7949 100L86.8629 86.8629L100 26.7949L158.589 45.4519L200 0Z" fill="#A30000"/>
<path d="M199.939 29.9392L236.174 69.7096L287.439 53.3848L298.934 105.944L351.494 117.439L335.169 168.705L374.939 204.939L335.169 241.174L351.494 292.439L298.934 303.934L287.439 356.494L236.174 340.169L199.939 379.939L163.705 340.169L112.439 356.494L100.944 303.934L48.3848 292.439L64.7096 241.174L24.9392 204.939L64.7096 168.705L48.3848 117.439L100.944 105.944L112.439 53.3848L163.705 69.7096L199.939 29.9392Z" fill="#0003A3"/>
<path d="M199.489 64.4877L228.477 96.304L269.489 83.2441L278.685 125.292L320.733 134.488L307.673 175.5L339.489 204.488L307.673 233.475L320.733 274.488L278.685 283.684L269.489 325.731L228.477 312.671L199.489 344.488L170.501 312.671L129.489 325.731L120.293 283.684L78.2455 274.488L91.3053 233.475L59.489 204.488L91.3053 175.5L78.2455 134.488L120.293 125.292L129.489 83.2441L170.501 96.304L199.489 64.4877Z" fill="#F6C24A"/>
</svg>
