<svg width="1006" height="360" viewBox="0 0 1006 360" fill="none" xmlns="http://www.w3.org/2000/svg">
<path d="M900 64H976V142H900V64Z" fill="#A30000"/>
<path d="M134.696 230.107C125.798 230.107 117.972 228.459 111.216 225.164C104.626 221.868 99.5181 217.008 95.8933 210.582C92.4332 204.321 90.7032 196.824 90.7032 188.091C90.7032 185.95 90.7856 183.725 90.9504 181.419C91.1151 179.277 91.3623 177.052 91.6918 174.745C78.1811 175.24 65.8237 173.345 54.6196 169.061C43.4156 164.777 33.6945 158.681 25.4562 150.772C17.3827 142.863 11.1216 133.554 6.67297 122.845C2.22431 111.97 0 100.189 0 87.5024C0 75.4745 2.05958 64.1881 6.17871 53.6431C10.2978 43.0982 16.2294 33.7889 23.9733 25.7154C31.7173 17.642 41.0265 11.3809 51.901 6.93223C62.7755 2.3188 74.8858 0.012085 88.2318 0.012085C101.742 0.012085 113.935 2.23642 124.81 6.68507C135.684 10.969 144.993 17.0653 152.737 24.974C160.481 32.8827 166.413 42.0272 170.532 52.4074C174.651 62.6228 176.711 73.6621 176.711 85.5252V184.384C176.711 193.117 175.063 200.943 171.768 207.863C168.637 214.783 163.941 220.221 157.68 224.175C151.419 228.129 143.758 230.107 134.696 230.107ZM132.718 203.662C137.167 203.662 140.627 202.014 143.099 198.719C145.735 195.424 147.053 190.892 147.053 185.126V133.719C141.616 137.509 137.002 141.463 133.213 145.582C129.588 149.536 126.704 153.656 124.562 157.939C122.421 162.223 120.855 166.672 119.867 171.285C118.878 175.734 118.384 180.265 118.384 184.879C118.384 188.833 119.043 192.211 120.361 195.012C121.679 197.813 123.409 199.955 125.551 201.437C127.858 202.92 130.247 203.662 132.718 203.662ZM88.2318 149.042C90.868 149.042 93.2571 148.96 95.399 148.795C97.541 148.465 99.8477 148.054 102.319 147.559C104.955 142.616 108.251 137.591 112.205 132.483C116.159 127.376 121.02 122.433 126.787 117.654C132.554 112.711 139.309 108.016 147.053 103.567V85.5252C147.053 77.1222 145.57 69.2958 142.604 62.0462C139.803 54.7965 135.684 48.5354 130.247 43.2629C124.974 37.8257 118.796 33.6242 111.711 30.6584C104.626 27.5278 96.7995 25.9626 88.2318 25.9626C79.8287 25.9626 72.0024 27.5278 64.7527 30.6584C57.6678 33.7889 51.4891 38.1552 46.2166 43.7572C40.9441 49.1945 36.825 55.7027 33.8593 63.2819C30.8935 70.6963 29.4106 78.7698 29.4106 87.5024C29.4106 96.2349 30.8935 104.391 33.8593 111.97C36.825 119.384 40.9441 125.893 46.2166 131.495C51.4891 136.932 57.6678 141.216 64.7527 144.346C72.0024 147.477 79.8287 149.042 88.2318 149.042Z" fill="#FDF9EE"/>
<path d="M246.688 168.015C236.802 168.015 228.152 165.708 220.738 161.095C213.488 156.317 207.886 149.561 203.932 140.829C199.977 132.096 198 121.881 198 110.182V41.9696H224.198L224.445 106.228C224.445 117.762 227.493 126.906 233.589 133.661C239.85 140.417 248.171 143.794 258.551 143.794C264.977 143.794 270.826 142.147 276.099 138.852C281.371 135.556 285.49 131.108 288.456 125.506C291.587 119.739 293.152 113.313 293.152 106.228V41.9696H319.102V165.543H293.152V125.011C290.351 138.028 284.749 148.49 276.346 156.399C268.108 164.143 258.222 168.015 246.688 168.015Z" fill="#FDF9EE"/>
<path d="M346.31 169V136.738H450.008V117.727H372.235V92.0905H346.31V60.1168H372.235V34.1922H481.982V66.4539H377.996V85.1772H455.769V110.814H481.982V143.364H455.769V169H346.31Z" fill="#FDF9EE"/>
<path d="M564.921 168.015C549.433 168.015 537.899 164.555 530.32 157.635C522.906 150.715 519.198 140.582 519.198 127.236V65.4486H490.035V41.9696H510.301C514.091 41.9696 516.974 40.981 518.951 39.0038C520.928 36.8619 521.917 33.8961 521.917 30.1065V12.3119H545.396L545.149 41.9696H594.578V65.4486H545.149V121.057C545.149 128.966 547.126 134.732 551.081 138.357C555.2 141.982 561.625 143.794 570.358 143.794C577.113 143.794 585.187 142.806 594.578 140.829V164.308C589.965 165.296 584.857 166.12 579.255 166.779C573.818 167.603 569.04 168.015 564.921 168.015Z" fill="#FDF9EE"/>
<path d="M639.664 168.509C628.13 168.509 618.986 165.791 612.23 160.353C605.475 154.751 602.097 147.09 602.097 137.369C602.097 127.812 605.228 120.398 611.489 115.125C617.915 109.853 625.494 106.228 634.226 104.251C642.959 102.109 652.845 100.626 663.884 99.8022C673.276 99.1431 680.443 97.9898 685.386 96.3421C690.494 94.6944 693.048 91.6463 693.048 87.1976C693.048 78.9594 690.247 72.4511 684.645 67.673C679.043 62.8948 672.04 60.5057 663.637 60.5057C654.575 60.5057 647.078 63.0595 641.147 68.1673C635.38 73.1102 631.92 80.0304 630.766 88.9277H606.546C607.37 78.5475 610.335 69.6501 615.443 62.2357C620.716 54.8213 627.553 49.2192 635.956 45.4296C644.524 41.4753 653.916 39.4981 664.131 39.4981C674.511 39.4981 683.656 41.4753 691.565 45.4296C699.638 49.384 705.899 55.1508 710.348 62.73C714.797 70.3092 717.021 79.2065 717.021 89.422V142.559H732.838V165.543H693.295V123.528C689.999 136.71 683.656 147.502 674.264 155.905C664.873 164.308 653.339 168.509 639.664 168.509ZM651.774 147.996C659.353 147.996 666.273 146.101 672.534 142.312C678.96 138.357 683.985 133.249 687.61 126.988C691.235 120.563 693.048 113.642 693.048 106.228L693.295 97.3307C691.153 99.3079 688.269 100.791 684.645 101.779C681.185 102.603 676.406 103.345 670.31 104.004C669.98 104.004 669.569 104.086 669.074 104.251C668.745 104.251 668.415 104.251 668.086 104.251C654.74 105.404 644.771 107.876 638.181 111.665C631.755 115.455 628.542 121.057 628.542 128.471C628.542 134.897 630.602 139.758 634.721 143.053C639.005 146.348 644.689 147.996 651.774 147.996Z" fill="#FDF9EE"/>
<path d="M777.557 165.543L726.397 41.9696H753.831L794.857 143.053H796.34L837.614 41.9696H864.552L813.146 165.543H777.557Z" fill="#FDF9EE"/>
<path d="M897.475 169V143.075H871.262V62.1332H897.475V35.9205H978.706V62.1332H1005.21V143.075H978.706V169H897.475ZM900.355 140.195H975.825V64.7256H900.355V140.195Z" fill="#FDF9EE"/>
<path d="M90.3375 356.151C80.9458 356.151 72.79 354.174 65.8698 350.22C59.1144 346.101 53.8419 340.581 50.0523 333.661C46.4275 326.576 44.6151 318.667 44.6151 309.935V183.148H68.3412V312.901C68.3412 319.326 70.3184 324.681 74.2728 328.965C78.3919 333.084 83.7469 335.144 90.3375 335.144H136.801V356.151H90.3375Z" fill="#FDF9EE"/>
<path d="M208.148 358.623C195.79 358.623 184.586 355.904 174.536 350.467C164.65 344.865 156.823 337.286 151.057 327.73C145.29 318.008 142.406 307.134 142.406 295.106C142.406 282.584 145.29 271.38 151.057 261.494C156.988 251.608 164.979 243.946 175.03 238.509C185.081 232.907 196.202 230.106 208.395 230.106C220.587 230.106 231.627 232.907 241.513 238.509C251.399 243.946 259.142 251.608 264.744 261.494C270.511 271.215 273.395 282.172 273.395 294.365C273.395 294.694 273.395 295.106 273.395 295.6C273.395 296.095 273.395 296.507 273.395 296.836H168.11C168.439 304.086 170.416 310.676 174.041 316.608C177.666 322.375 182.444 326.988 188.376 330.448C194.472 333.743 201.145 335.391 208.395 335.391C216.139 335.391 222.977 333.661 228.908 330.201C235.004 326.741 239.206 322.292 241.513 316.855H269.44C268.122 324.105 264.745 330.942 259.307 337.368C253.87 343.629 246.703 348.737 237.805 352.691C229.073 356.646 219.187 358.623 208.148 358.623ZM248.927 291.893C248.598 284.643 246.62 278.135 242.996 272.368C239.371 266.437 234.51 261.823 228.414 258.528C222.482 255.068 215.892 253.338 208.642 253.338C201.392 253.338 194.719 255.068 188.623 258.528C182.691 261.823 177.831 266.437 174.041 272.368C170.416 278.135 168.439 284.643 168.11 291.893H248.927Z" fill="#FDF9EE"/>
<path d="M292.753 356.151V232.578H318.704V356.151H292.753Z" fill="#FDF9EE"/>
<path d="M408.457 358.623C392.969 358.623 381.436 355.163 373.856 348.243C366.442 341.323 362.735 331.19 362.735 317.844V256.057H333.571V232.578H353.837C357.627 232.578 360.51 231.589 362.488 229.612C364.465 227.47 365.453 224.504 365.453 220.715V202.92H388.932L388.685 232.578H438.115V256.057H388.685V311.665C388.685 319.574 390.662 325.34 394.617 328.965C398.736 332.59 405.162 334.403 413.894 334.403C420.65 334.403 428.723 333.414 438.115 331.437V354.916C433.501 355.904 428.394 356.728 422.792 357.387C417.354 358.211 412.576 358.623 408.457 358.623Z" fill="#FDF9EE"/>
<path d="M570.475 341.853C564.599 346.815 556.895 350.732 547.362 353.605C537.83 356.347 527.448 357.718 516.218 357.718C503.682 357.718 493.04 356.086 484.291 352.822C475.542 349.426 468.947 344.791 464.507 338.914C460.067 333.038 457.847 326.248 457.847 318.544C457.847 310.709 460.067 303.984 464.507 298.368C469.078 292.623 474.954 288.509 482.136 286.028C476.39 283.417 471.885 279.499 468.621 274.276C465.356 268.922 463.724 262.785 463.724 255.864C463.724 248.682 465.748 242.218 469.796 236.472C473.975 230.726 480.242 226.156 488.6 222.761C496.957 219.235 507.143 217.472 519.156 217.472C527.644 217.472 535.871 218.386 543.836 220.214C551.933 222.043 558.919 224.654 564.795 228.049L559.115 243.719C547.362 237.451 534.304 234.317 519.94 234.317C508.057 234.317 498.981 236.472 492.713 240.781C486.445 244.96 483.311 250.444 483.311 257.235C483.311 264.025 485.727 269.248 490.559 272.905C495.39 276.561 502.311 278.389 511.321 278.389H546.579V295.234H510.538C500.222 295.234 492.126 297.063 486.249 300.719C480.373 304.375 477.435 309.86 477.435 317.172C477.435 324.616 480.765 330.427 487.425 334.605C494.084 338.784 504.009 340.873 517.198 340.873C526.338 340.873 535.022 339.633 543.249 337.152C551.606 334.54 558.462 331.014 563.816 326.574L570.475 341.853Z" fill="#FDF9EE"/>
<path d="M594.578 140.829V164.308L612.23 160.353C605.475 154.751 602.097 147.09 602.097 137.369L594.578 140.829Z" fill="#FDF9EE"/>
<path d="M305.348 176L310.597 181.761L318.023 179.396L319.688 187.009L327.301 188.674L324.936 196.1L330.697 201.348L324.936 206.597L327.301 214.023L319.688 215.688L318.023 223.301L310.597 220.936L305.348 226.697L300.1 220.936L292.674 223.301L291.009 215.688L283.396 214.023L285.761 206.597L280 201.348L285.761 196.1L283.396 188.674L291.009 187.009L292.674 179.396L300.1 181.761L305.348 176Z" fill="#A30000"/>
<path d="M695.339 301.08C693.443 301.08 691.739 300.648 690.227 299.784C688.715 298.92 687.515 297.744 686.627 296.256C685.763 294.744 685.331 293.04 685.331 291.144V275.52H689.471V291.108C689.471 292.332 689.723 293.4 690.227 294.312C690.755 295.2 691.463 295.896 692.351 296.4C693.239 296.88 694.235 297.12 695.339 297.12C696.467 297.12 697.463 296.88 698.327 296.4C699.191 295.896 699.875 295.2 700.379 294.312C700.883 293.4 701.135 292.344 701.135 291.144V275.52H705.275V291.18C705.275 293.076 704.843 294.768 703.979 296.256C703.115 297.744 701.939 298.92 700.451 299.784C698.963 300.648 697.259 301.08 695.339 301.08Z" fill="#FDF9EE"/>
<path d="M708.674 300.72V275.52H712.814V300.72H708.674Z" fill="#FDF9EE"/>
<path d="M720.692 305.4V273H724.292V305.4H720.692Z" fill="#FDF9EE"/>
<path d="M740.312 301.08C738.416 301.08 736.712 300.648 735.2 299.784C733.688 298.92 732.488 297.744 731.6 296.256C730.736 294.744 730.304 293.04 730.304 291.144V275.52H734.444V291.108C734.444 292.332 734.696 293.4 735.2 294.312C735.728 295.2 736.436 295.896 737.324 296.4C738.212 296.88 739.208 297.12 740.312 297.12C741.44 297.12 742.436 296.88 743.3 296.4C744.164 295.896 744.848 295.2 745.352 294.312C745.856 293.4 746.108 292.344 746.108 291.144V275.52H750.248V291.18C750.248 293.076 749.816 294.768 748.952 296.256C748.088 297.744 746.912 298.92 745.424 299.784C743.936 300.648 742.232 301.08 740.312 301.08Z" fill="#FDF9EE"/>
<path d="M769.719 300.72L762.303 289.488H761.547L751.575 275.52H756.471L763.923 286.104H764.679L774.543 300.72H769.719ZM751.143 300.72L760.719 287.256L763.563 289.668L755.786 300.72H751.143ZM764.967 288.66L762.123 286.248L769.467 275.52H774.111L764.967 288.66Z" fill="#FDF9EE"/>
<path d="M788.458 301.08C786.874 301.08 785.459 300.696 784.211 299.928C782.963 299.136 781.967 298.068 781.223 296.724C780.503 295.38 780.142 293.868 780.142 292.188C780.142 290.508 780.503 288.996 781.223 287.652C781.967 286.308 782.963 285.24 784.211 284.448C785.459 283.656 786.874 283.26 788.458 283.26C789.73 283.26 790.883 283.536 791.915 284.088C792.947 284.616 793.775 285.36 794.399 286.32C795.047 287.256 795.407 288.348 795.479 289.596V294.744C795.407 295.968 795.058 297.06 794.434 298.02C793.81 298.98 792.983 299.736 791.951 300.288C790.919 300.816 789.754 301.08 788.458 301.08ZM788.999 298.02C790.079 298.02 791.015 297.768 791.807 297.264C792.623 296.76 793.259 296.076 793.715 295.212C794.171 294.324 794.399 293.316 794.399 292.188C794.399 291.012 794.159 289.992 793.679 289.128C793.223 288.264 792.587 287.58 791.771 287.076C790.979 286.572 790.043 286.32 788.963 286.32C787.883 286.32 786.935 286.572 786.119 287.076C785.303 287.58 784.654 288.276 784.174 289.164C783.718 290.028 783.491 291.024 783.491 292.152C783.491 293.304 783.718 294.324 784.174 295.212C784.654 296.076 785.303 296.76 786.119 297.264C786.959 297.768 787.919 298.02 788.999 298.02ZM797.458 300.72H794.182V296.112L794.795 291.936L794.182 287.796V275.016H797.458V300.72Z" fill="#FDF9EE"/>
<path d="M808.296 301.08C806.592 301.08 805.056 300.696 803.688 299.928C802.32 299.136 801.24 298.068 800.448 296.724C799.656 295.38 799.26 293.856 799.26 292.152C799.26 290.472 799.644 288.96 800.412 287.616C801.204 286.272 802.26 285.216 803.58 284.448C804.924 283.656 806.424 283.26 808.08 283.26C809.664 283.26 811.056 283.62 812.256 284.34C813.48 285.06 814.428 286.056 815.1 287.328C815.796 288.6 816.144 290.04 816.144 291.648C816.144 291.888 816.132 292.152 816.108 292.44C816.084 292.704 816.036 293.016 815.964 293.376H801.528V290.676H814.236L813.048 291.72C813.048 290.568 812.844 289.596 812.436 288.804C812.028 287.988 811.452 287.364 810.708 286.932C809.964 286.476 809.064 286.248 808.008 286.248C806.904 286.248 805.932 286.488 805.092 286.968C804.252 287.448 803.604 288.12 803.148 288.984C802.692 289.848 802.464 290.868 802.464 292.044C802.464 293.244 802.704 294.3 803.184 295.212C803.664 296.1 804.348 296.796 805.236 297.3C806.124 297.78 807.144 298.02 808.296 298.02C809.256 298.02 810.132 297.852 810.924 297.516C811.74 297.18 812.436 296.676 813.012 296.004L815.1 298.128C814.284 299.088 813.276 299.82 812.076 300.324C810.9 300.828 809.64 301.08 808.296 301.08Z" fill="#FDF9EE"/>
<path d="M823.312 301.08C822.352 301.08 821.44 300.96 820.576 300.72C819.736 300.456 818.956 300.096 818.236 299.64C817.516 299.16 816.892 298.596 816.364 297.948L818.452 295.86C819.076 296.628 819.796 297.204 820.612 297.588C821.428 297.948 822.34 298.128 823.348 298.128C824.356 298.128 825.136 297.96 825.688 297.624C826.24 297.264 826.516 296.772 826.516 296.148C826.516 295.524 826.288 295.044 825.832 294.708C825.4 294.348 824.836 294.06 824.14 293.844C823.444 293.604 822.7 293.376 821.908 293.16C821.14 292.92 820.408 292.62 819.712 292.26C819.016 291.9 818.44 291.408 817.984 290.784C817.552 290.16 817.336 289.332 817.336 288.3C817.336 287.268 817.588 286.38 818.092 285.636C818.596 284.868 819.292 284.28 820.18 283.872C821.092 283.464 822.184 283.26 823.456 283.26C824.8 283.26 825.988 283.5 827.02 283.98C828.076 284.436 828.94 285.132 829.612 286.068L827.524 288.156C827.044 287.532 826.444 287.052 825.724 286.716C825.028 286.38 824.236 286.212 823.348 286.212C822.412 286.212 821.692 286.38 821.188 286.716C820.708 287.028 820.468 287.472 820.468 288.048C820.468 288.624 820.684 289.068 821.116 289.38C821.548 289.692 822.112 289.956 822.808 290.172C823.528 290.388 824.272 290.616 825.04 290.856C825.808 291.072 826.54 291.372 827.236 291.756C827.932 292.14 828.496 292.656 828.928 293.304C829.384 293.952 829.612 294.804 829.612 295.86C829.612 297.468 829.036 298.74 827.884 299.676C826.756 300.612 825.232 301.08 823.312 301.08Z" fill="#FDF9EE"/>
<path d="M831.476 300.72V283.62H834.716V300.72H831.476ZM833.096 280.2C832.496 280.2 832.004 280.008 831.62 279.624C831.236 279.216 831.044 278.712 831.044 278.112C831.044 277.536 831.236 277.056 831.62 276.672C832.004 276.264 832.496 276.06 833.096 276.06C833.696 276.06 834.188 276.264 834.572 276.672C834.956 277.056 835.148 277.536 835.148 278.112C835.148 278.712 834.956 279.216 834.572 279.624C834.188 280.008 833.696 280.2 833.096 280.2Z" fill="#FDF9EE"/>
<path d="M844.783 308.244C843.031 308.244 841.47 307.92 840.102 307.272C838.758 306.624 837.678 305.712 836.862 304.536L838.951 302.412C839.647 303.3 840.474 303.972 841.434 304.428C842.394 304.908 843.534 305.148 844.854 305.148C846.606 305.148 847.986 304.68 848.994 303.744C850.026 302.832 850.542 301.596 850.542 300.036V295.788L851.118 291.936L850.542 288.12V283.62H853.783V300.036C853.783 301.668 853.398 303.096 852.63 304.32C851.886 305.544 850.831 306.504 849.463 307.2C848.119 307.896 846.559 308.244 844.783 308.244ZM844.783 300.432C843.223 300.432 841.818 300.06 840.57 299.316C839.346 298.572 838.374 297.552 837.654 296.256C836.934 294.936 836.575 293.46 836.575 291.828C836.575 290.196 836.934 288.744 837.654 287.472C838.374 286.176 839.346 285.156 840.57 284.412C841.818 283.644 843.223 283.26 844.783 283.26C846.127 283.26 847.314 283.524 848.346 284.052C849.378 284.58 850.194 285.324 850.794 286.284C851.418 287.22 851.754 288.324 851.802 289.596V294.132C851.73 295.38 851.382 296.484 850.758 297.444C850.158 298.38 849.342 299.112 848.31 299.64C847.278 300.168 846.103 300.432 844.783 300.432ZM845.43 297.372C846.486 297.372 847.41 297.144 848.202 296.688C849.018 296.232 849.643 295.596 850.075 294.78C850.507 293.94 850.722 292.968 850.722 291.864C850.722 290.76 850.494 289.8 850.038 288.984C849.606 288.144 848.994 287.496 848.202 287.04C847.41 286.56 846.474 286.32 845.394 286.32C844.314 286.32 843.366 286.56 842.55 287.04C841.734 287.496 841.087 288.144 840.607 288.984C840.151 289.8 839.922 290.748 839.922 291.828C839.922 292.908 840.151 293.868 840.607 294.708C841.087 295.548 841.734 296.208 842.55 296.688C843.39 297.144 844.35 297.372 845.43 297.372Z" fill="#FDF9EE"/>
<path d="M868.834 300.72V290.748C868.834 289.452 868.426 288.384 867.61 287.544C866.794 286.704 865.738 286.284 864.442 286.284C863.578 286.284 862.81 286.476 862.138 286.86C861.466 287.244 860.938 287.772 860.554 288.444C860.17 289.116 859.978 289.884 859.978 290.748L858.646 289.992C858.646 288.696 858.934 287.544 859.51 286.536C860.086 285.528 860.89 284.736 861.922 284.16C862.954 283.56 864.118 283.26 865.414 283.26C866.71 283.26 867.85 283.584 868.834 284.232C869.842 284.88 870.634 285.732 871.21 286.788C871.786 287.82 872.074 288.924 872.074 290.1V300.72H868.834ZM856.738 300.72V283.62H859.978V300.72H856.738Z" fill="#FDF9EE"/>
<path d="M882.581 301.08C880.877 301.08 879.341 300.696 877.973 299.928C876.605 299.136 875.525 298.068 874.733 296.724C873.941 295.38 873.545 293.856 873.545 292.152C873.545 290.472 873.929 288.96 874.697 287.616C875.489 286.272 876.545 285.216 877.865 284.448C879.209 283.656 880.709 283.26 882.365 283.26C883.949 283.26 885.341 283.62 886.541 284.34C887.765 285.06 888.713 286.056 889.385 287.328C890.081 288.6 890.429 290.04 890.429 291.648C890.429 291.888 890.417 292.152 890.393 292.44C890.369 292.704 890.321 293.016 890.249 293.376H875.813V290.676H888.521L887.333 291.72C887.333 290.568 887.129 289.596 886.721 288.804C886.313 287.988 885.737 287.364 884.993 286.932C884.249 286.476 883.349 286.248 882.293 286.248C881.189 286.248 880.217 286.488 879.377 286.968C878.537 287.448 877.889 288.12 877.433 288.984C876.977 289.848 876.749 290.868 876.749 292.044C876.749 293.244 876.989 294.3 877.469 295.212C877.949 296.1 878.633 296.796 879.521 297.3C880.409 297.78 881.429 298.02 882.581 298.02C883.541 298.02 884.417 297.852 885.209 297.516C886.025 297.18 886.721 296.676 887.297 296.004L889.385 298.128C888.569 299.088 887.561 299.82 886.361 300.324C885.185 300.828 883.925 301.08 882.581 301.08Z" fill="#FDF9EE"/>
<path d="M892.162 300.72V283.62H895.402V300.72H892.162ZM895.402 290.964L894.178 290.424C894.178 288.24 894.682 286.5 895.69 285.204C896.698 283.908 898.15 283.26 900.046 283.26C900.91 283.26 901.69 283.416 902.386 283.728C903.082 284.016 903.73 284.508 904.33 285.204L902.206 287.4C901.846 287.016 901.45 286.74 901.018 286.572C900.586 286.404 900.082 286.32 899.506 286.32C898.306 286.32 897.322 286.704 896.554 287.472C895.786 288.24 895.402 289.404 895.402 290.964Z" fill="#FDF9EE"/>
<path d="M970.47 324.314C970.47 327.09 968.352 329.34 965.739 329.34C963.126 329.34 961.008 327.09 961.008 324.314C961.008 321.538 963.126 319.287 965.739 319.287C968.352 319.287 970.47 321.538 970.47 324.314Z" fill="#A30000"/>
<path d="M998.855 347.968C998.855 350.744 996.737 352.995 994.124 352.995C991.511 352.995 989.393 350.744 989.393 347.968C989.393 345.192 991.511 342.941 994.124 342.941C996.737 342.941 998.855 345.192 998.855 347.968Z" fill="#A30000"/>
<path d="M690.679 330.789C689.42 330.789 688.284 330.505 687.273 329.937C686.262 329.352 685.464 328.563 684.878 327.569C684.293 326.576 684 325.449 684 324.189C684 322.948 684.284 321.83 684.852 320.836C685.437 319.843 686.218 319.062 687.193 318.495C688.187 317.909 689.296 317.617 690.52 317.617C691.691 317.617 692.72 317.883 693.607 318.415C694.511 318.947 695.212 319.683 695.709 320.624C696.223 321.564 696.481 322.628 696.481 323.817C696.481 323.994 696.472 324.189 696.454 324.402C696.436 324.598 696.401 324.828 696.348 325.094H685.677V323.098H695.07L694.192 323.87C694.192 323.019 694.041 322.3 693.74 321.715C693.438 321.111 693.012 320.65 692.462 320.331C691.912 319.994 691.247 319.825 690.467 319.825C689.65 319.825 688.932 320.003 688.311 320.357C687.69 320.712 687.211 321.209 686.874 321.848C686.537 322.486 686.368 323.24 686.368 324.11C686.368 324.997 686.546 325.777 686.901 326.451C687.255 327.108 687.761 327.622 688.418 327.995C689.074 328.35 689.828 328.527 690.679 328.527C691.389 328.527 692.037 328.403 692.622 328.155C693.225 327.906 693.74 327.534 694.166 327.037L695.709 328.607C695.106 329.317 694.361 329.858 693.474 330.23C692.604 330.603 691.673 330.789 690.679 330.789Z" fill="#FDF9EE"/>
<path d="M701.78 330.789C701.07 330.789 700.396 330.7 699.757 330.523C699.136 330.328 698.56 330.062 698.028 329.725C697.495 329.37 697.034 328.953 696.644 328.474L698.187 326.93C698.649 327.498 699.181 327.924 699.784 328.208C700.387 328.474 701.061 328.607 701.807 328.607C702.552 328.607 703.128 328.483 703.536 328.234C703.944 327.968 704.148 327.605 704.148 327.143C704.148 326.682 703.98 326.327 703.643 326.079C703.323 325.813 702.906 325.6 702.392 325.44C701.877 325.263 701.327 325.094 700.742 324.935C700.174 324.757 699.633 324.535 699.119 324.269C698.604 324.003 698.178 323.64 697.841 323.178C697.522 322.717 697.362 322.105 697.362 321.342C697.362 320.579 697.549 319.923 697.921 319.373C698.294 318.805 698.808 318.37 699.465 318.069C700.139 317.767 700.946 317.617 701.886 317.617C702.88 317.617 703.758 317.794 704.521 318.149C705.301 318.486 705.94 319 706.437 319.692L704.893 321.236C704.539 320.774 704.095 320.42 703.563 320.171C703.048 319.923 702.463 319.799 701.807 319.799C701.115 319.799 700.582 319.923 700.21 320.171C699.855 320.402 699.678 320.73 699.678 321.156C699.678 321.582 699.837 321.91 700.157 322.14C700.476 322.371 700.893 322.566 701.407 322.726C701.94 322.885 702.49 323.054 703.057 323.231C703.625 323.391 704.166 323.613 704.68 323.897C705.195 324.181 705.612 324.562 705.931 325.041C706.268 325.52 706.437 326.15 706.437 326.93C706.437 328.119 706.011 329.059 705.159 329.751C704.326 330.443 703.199 330.789 701.78 330.789Z" fill="#FDF9EE"/>
<path d="M709.73 330.523V312.587H712.125V330.523H709.73ZM706.617 320.065V317.883H715.239V320.065H706.617Z" fill="#FDF9EE"/>
<path d="M721.337 330.789C720.308 330.789 719.377 330.558 718.543 330.097C717.727 329.618 717.088 328.962 716.627 328.128C716.166 327.294 715.935 326.327 715.935 325.227V317.883H718.33V325.121C718.33 325.813 718.445 326.416 718.676 326.93C718.924 327.427 719.279 327.809 719.74 328.075C720.202 328.341 720.743 328.474 721.364 328.474C722.304 328.474 723.04 328.181 723.572 327.596C724.105 326.993 724.371 326.168 724.371 325.121V317.883H726.766V325.227C726.766 326.327 726.535 327.294 726.074 328.128C725.613 328.962 724.974 329.618 724.158 330.097C723.359 330.558 722.419 330.789 721.337 330.789Z" fill="#FDF9EE"/>
<path d="M733.994 330.789C732.823 330.789 731.776 330.505 730.854 329.937C729.931 329.352 729.195 328.563 728.645 327.569C728.113 326.576 727.847 325.458 727.847 324.216C727.847 322.974 728.113 321.857 728.645 320.863C729.195 319.87 729.931 319.08 730.854 318.495C731.776 317.909 732.823 317.617 733.994 317.617C734.934 317.617 735.786 317.821 736.549 318.229C737.311 318.619 737.924 319.169 738.385 319.878C738.864 320.57 739.13 321.378 739.183 322.3V326.105C739.13 327.01 738.873 327.817 738.411 328.527C737.95 329.237 737.338 329.796 736.575 330.204C735.812 330.594 734.952 330.789 733.994 330.789ZM734.393 328.527C735.191 328.527 735.883 328.341 736.469 327.968C737.072 327.596 737.542 327.09 737.879 326.451C738.216 325.795 738.385 325.05 738.385 324.216C738.385 323.347 738.207 322.593 737.853 321.954C737.516 321.315 737.045 320.81 736.442 320.437C735.857 320.065 735.165 319.878 734.367 319.878C733.568 319.878 732.867 320.065 732.264 320.437C731.661 320.81 731.182 321.324 730.827 321.981C730.49 322.619 730.322 323.356 730.322 324.189C730.322 325.041 730.49 325.795 730.827 326.451C731.182 327.09 731.661 327.596 732.264 327.968C732.885 328.341 733.595 328.527 734.393 328.527ZM740.647 330.523H738.225V327.117L738.678 324.03L738.225 320.97V311.523H740.647V330.523Z" fill="#FDF9EE"/>
<path d="M748.179 330.789C747.025 330.789 745.979 330.505 745.038 329.937C744.098 329.352 743.353 328.563 742.803 327.569C742.271 326.576 742.005 325.458 742.005 324.216C742.005 322.974 742.271 321.857 742.803 320.863C743.353 319.87 744.089 319.08 745.012 318.495C745.952 317.909 747.008 317.617 748.179 317.617C749.137 317.617 749.988 317.821 750.733 318.229C751.496 318.619 752.108 319.169 752.569 319.878C753.031 320.57 753.288 321.378 753.341 322.3V326.105C753.288 327.01 753.031 327.817 752.569 328.527C752.126 329.237 751.523 329.796 750.76 330.204C750.015 330.594 749.154 330.789 748.179 330.789ZM748.578 328.527C749.766 328.527 750.724 328.128 751.452 327.33C752.179 326.514 752.543 325.476 752.543 324.216C752.543 323.347 752.374 322.593 752.037 321.954C751.718 321.298 751.257 320.792 750.653 320.437C750.05 320.065 749.349 319.878 748.551 319.878C747.753 319.878 747.043 320.065 746.422 320.437C745.819 320.81 745.34 321.324 744.985 321.981C744.648 322.619 744.48 323.356 744.48 324.189C744.48 325.041 744.648 325.795 744.985 326.451C745.34 327.09 745.828 327.596 746.449 327.968C747.07 328.341 747.779 328.527 748.578 328.527ZM752.383 330.523V327.117L752.836 324.03L752.383 320.97V317.883H754.805V330.523H752.383Z" fill="#FDF9EE"/>
<path d="M765.902 330.523V323.152C765.902 322.194 765.601 321.404 764.998 320.783C764.394 320.162 763.614 319.852 762.656 319.852C762.017 319.852 761.45 319.994 760.953 320.278C760.456 320.562 760.066 320.952 759.782 321.449C759.498 321.945 759.356 322.513 759.356 323.152L758.371 322.593C758.371 321.635 758.584 320.783 759.01 320.038C759.436 319.293 760.03 318.708 760.793 318.282C761.556 317.838 762.416 317.617 763.374 317.617C764.332 317.617 765.175 317.856 765.902 318.335C766.648 318.814 767.233 319.444 767.659 320.224C768.085 320.987 768.297 321.803 768.297 322.673V330.523H765.902ZM756.961 330.523V317.883H759.356V330.523H756.961Z" fill="#FDF9EE"/>
<path d="M771.996 330.523V312.587H774.391V330.523H771.996ZM768.883 320.065V317.883H777.505V320.065H768.883Z" fill="#FDF9EE"/>
<path d="M783.985 330.789C782.725 330.789 781.59 330.505 780.579 329.937C779.568 329.352 778.769 328.563 778.184 327.569C777.598 326.576 777.306 325.449 777.306 324.189C777.306 322.948 777.589 321.83 778.157 320.836C778.743 319.843 779.523 319.062 780.499 318.495C781.492 317.909 782.601 317.617 783.825 317.617C784.996 317.617 786.025 317.883 786.912 318.415C787.817 318.947 788.518 319.683 789.015 320.624C789.529 321.564 789.786 322.628 789.786 323.817C789.786 323.994 789.777 324.189 789.76 324.402C789.742 324.598 789.706 324.828 789.653 325.094H778.982V323.098H788.376L787.498 323.87C787.498 323.019 787.347 322.3 787.045 321.715C786.744 321.111 786.318 320.65 785.768 320.331C785.218 319.994 784.553 319.825 783.772 319.825C782.956 319.825 782.238 320.003 781.617 320.357C780.996 320.712 780.517 321.209 780.18 321.848C779.842 322.486 779.674 323.24 779.674 324.11C779.674 324.997 779.851 325.777 780.206 326.451C780.561 327.108 781.067 327.622 781.723 327.995C782.379 328.35 783.133 328.527 783.985 328.527C784.695 328.527 785.342 328.403 785.928 328.155C786.531 327.906 787.045 327.534 787.471 327.037L789.015 328.607C788.411 329.317 787.666 329.858 786.779 330.23C785.91 330.603 784.978 330.789 783.985 330.789Z" fill="#FDF9EE"/>
<path d="M800.621 330.789C799.45 330.789 798.403 330.505 797.481 329.937C796.558 329.352 795.822 328.563 795.272 327.569C794.74 326.576 794.474 325.458 794.474 324.216C794.474 322.974 794.74 321.857 795.272 320.863C795.822 319.87 796.558 319.08 797.481 318.495C798.403 317.909 799.45 317.617 800.621 317.617C801.561 317.617 802.412 317.821 803.175 318.229C803.938 318.619 804.55 319.169 805.012 319.878C805.491 320.57 805.757 321.378 805.81 322.3V326.105C805.757 327.01 805.499 327.817 805.038 328.527C804.577 329.237 803.965 329.796 803.202 330.204C802.439 330.594 801.579 330.789 800.621 330.789ZM801.02 328.527C801.818 328.527 802.51 328.341 803.096 327.968C803.699 327.596 804.169 327.09 804.506 326.451C804.843 325.795 805.012 325.05 805.012 324.216C805.012 323.347 804.834 322.593 804.479 321.954C804.142 321.315 803.672 320.81 803.069 320.437C802.484 320.065 801.792 319.878 800.993 319.878C800.195 319.878 799.494 320.065 798.891 320.437C798.288 320.81 797.809 321.324 797.454 321.981C797.117 322.619 796.948 323.356 796.948 324.189C796.948 325.041 797.117 325.795 797.454 326.451C797.809 327.09 798.288 327.596 798.891 327.968C799.512 328.341 800.222 328.527 801.02 328.527ZM807.274 330.523H804.852V327.117L805.304 324.03L804.852 320.97V311.523H807.274V330.523Z" fill="#FDF9EE"/>
<path d="M815.284 330.789C814.025 330.789 812.889 330.505 811.878 329.937C810.867 329.352 810.069 328.563 809.483 327.569C808.898 326.576 808.605 325.449 808.605 324.189C808.605 322.948 808.889 321.83 809.456 320.836C810.042 319.843 810.822 319.062 811.798 318.495C812.792 317.909 813.901 317.617 815.125 317.617C816.296 317.617 817.325 317.883 818.212 318.415C819.116 318.947 819.817 319.683 820.314 320.624C820.828 321.564 821.086 322.628 821.086 323.817C821.086 323.994 821.077 324.189 821.059 324.402C821.041 324.598 821.006 324.828 820.953 325.094H810.281V323.098H819.675L818.797 323.87C818.797 323.019 818.646 322.3 818.345 321.715C818.043 321.111 817.617 320.65 817.067 320.331C816.517 319.994 815.852 319.825 815.071 319.825C814.255 319.825 813.537 320.003 812.916 320.357C812.295 320.712 811.816 321.209 811.479 321.848C811.142 322.486 810.973 323.24 810.973 324.11C810.973 324.997 811.151 325.777 811.505 326.451C811.86 327.108 812.366 327.622 813.022 327.995C813.679 328.35 814.433 328.527 815.284 328.527C815.994 328.527 816.641 328.403 817.227 328.155C817.83 327.906 818.345 327.534 818.77 327.037L820.314 328.607C819.711 329.317 818.966 329.858 818.078 330.23C817.209 330.603 816.278 330.789 815.284 330.789Z" fill="#FDF9EE"/>
<path d="M831.947 330.789C830.794 330.789 829.747 330.505 828.807 329.937C827.866 329.352 827.121 328.563 826.571 327.569C826.039 326.576 825.773 325.458 825.773 324.216C825.773 322.974 826.039 321.857 826.571 320.863C827.121 319.87 827.857 319.08 828.78 318.495C829.72 317.909 830.776 317.617 831.947 317.617C832.905 317.617 833.756 317.821 834.501 318.229C835.264 318.619 835.876 319.169 836.338 319.878C836.799 320.57 837.056 321.378 837.109 322.3V326.105C837.056 327.01 836.799 327.817 836.338 328.527C835.894 329.237 835.291 329.796 834.528 330.204C833.783 330.594 832.922 330.789 831.947 330.789ZM832.346 328.527C833.534 328.527 834.492 328.128 835.22 327.33C835.947 326.514 836.311 325.476 836.311 324.216C836.311 323.347 836.142 322.593 835.805 321.954C835.486 321.298 835.025 320.792 834.422 320.437C833.818 320.065 833.118 319.878 832.319 319.878C831.521 319.878 830.811 320.065 830.19 320.437C829.587 320.81 829.108 321.324 828.753 321.981C828.416 322.619 828.248 323.356 828.248 324.189C828.248 325.041 828.416 325.795 828.753 326.451C829.108 327.09 829.596 327.596 830.217 327.968C830.838 328.341 831.547 328.527 832.346 328.527ZM836.151 330.523V327.117L836.604 324.03L836.151 320.97V317.883H838.573V330.523H836.151Z" fill="#FDF9EE"/>
<path d="M846.078 330.789C844.907 330.789 843.86 330.505 842.938 329.937C842.015 329.352 841.279 328.563 840.729 327.569C840.197 326.576 839.931 325.458 839.931 324.216C839.931 322.974 840.197 321.857 840.729 320.863C841.279 319.87 842.015 319.08 842.938 318.495C843.86 317.909 844.907 317.617 846.078 317.617C847.018 317.617 847.87 317.821 848.633 318.229C849.396 318.619 850.008 319.169 850.469 319.878C850.948 320.57 851.214 321.378 851.267 322.3V326.105C851.214 327.01 850.957 327.817 850.495 328.527C850.034 329.237 849.422 329.796 848.659 330.204C847.896 330.594 847.036 330.789 846.078 330.789ZM846.477 328.527C847.276 328.527 847.967 328.341 848.553 327.968C849.156 327.596 849.626 327.09 849.963 326.451C850.3 325.795 850.469 325.05 850.469 324.216C850.469 323.347 850.292 322.593 849.937 321.954C849.6 321.315 849.129 320.81 848.526 320.437C847.941 320.065 847.249 319.878 846.451 319.878C845.652 319.878 844.951 320.065 844.348 320.437C843.745 320.81 843.266 321.324 842.911 321.981C842.574 322.619 842.406 323.356 842.406 324.189C842.406 325.041 842.574 325.795 842.911 326.451C843.266 327.09 843.745 327.596 844.348 327.968C844.969 328.341 845.679 328.527 846.477 328.527ZM852.731 330.523H850.309V327.117L850.762 324.03L850.309 320.97V311.523H852.731V330.523Z" fill="#FDF9EE"/>
<path d="M858.905 330.789C858.196 330.789 857.522 330.7 856.883 330.523C856.262 330.328 855.686 330.062 855.153 329.725C854.621 329.37 854.16 328.953 853.769 328.474L855.313 326.93C855.774 327.498 856.306 327.924 856.91 328.208C857.513 328.474 858.187 328.607 858.932 328.607C859.677 328.607 860.254 328.483 860.662 328.234C861.07 327.968 861.274 327.605 861.274 327.143C861.274 326.682 861.105 326.327 860.768 326.079C860.449 325.813 860.032 325.6 859.518 325.44C859.003 325.263 858.453 325.094 857.868 324.935C857.3 324.757 856.759 324.535 856.244 324.269C855.73 324.003 855.304 323.64 854.967 323.178C854.648 322.717 854.488 322.105 854.488 321.342C854.488 320.579 854.674 319.923 855.047 319.373C855.419 318.805 855.934 318.37 856.59 318.069C857.264 317.767 858.072 317.617 859.012 317.617C860.005 317.617 860.884 317.794 861.646 318.149C862.427 318.486 863.066 319 863.562 319.692L862.019 321.236C861.664 320.774 861.221 320.42 860.688 320.171C860.174 319.923 859.589 319.799 858.932 319.799C858.24 319.799 857.708 319.923 857.335 320.171C856.981 320.402 856.803 320.73 856.803 321.156C856.803 321.582 856.963 321.91 857.282 322.14C857.602 322.371 858.018 322.566 858.533 322.726C859.065 322.885 859.615 323.054 860.183 323.231C860.751 323.391 861.292 323.613 861.806 323.897C862.321 324.181 862.737 324.562 863.057 325.041C863.394 325.52 863.562 326.15 863.562 326.93C863.562 328.119 863.137 329.059 862.285 329.751C861.451 330.443 860.325 330.789 858.905 330.789Z" fill="#FDF9EE"/>
<path d="M870.928 330.523V315.993C870.928 315.053 871.132 314.237 871.54 313.545C871.948 312.835 872.506 312.277 873.216 311.868C873.943 311.46 874.786 311.256 875.744 311.256C876.472 311.256 877.101 311.381 877.634 311.629C878.166 311.877 878.654 312.241 879.097 312.72L877.527 314.263C877.296 314.015 877.039 313.829 876.755 313.705C876.472 313.563 876.126 313.492 875.718 313.492C874.955 313.492 874.36 313.714 873.935 314.157C873.527 314.601 873.323 315.213 873.323 315.993V330.523H870.928ZM867.814 320.065V317.883H877.341V320.065H867.814Z" fill="#FDF9EE"/>
<path d="M883.064 330.789C881.911 330.789 880.864 330.505 879.924 329.937C878.984 329.352 878.239 328.563 877.689 327.569C877.156 326.576 876.89 325.458 876.89 324.216C876.89 322.974 877.156 321.857 877.689 320.863C878.239 319.87 878.975 319.08 879.897 318.495C880.838 317.909 881.893 317.617 883.064 317.617C884.022 317.617 884.874 317.821 885.619 318.229C886.382 318.619 886.994 319.169 887.455 319.878C887.916 320.57 888.173 321.378 888.227 322.3V326.105C888.173 327.01 887.916 327.817 887.455 328.527C887.011 329.237 886.408 329.796 885.645 330.204C884.9 330.594 884.04 330.789 883.064 330.789ZM883.463 328.527C884.652 328.527 885.61 328.128 886.337 327.33C887.065 326.514 887.428 325.476 887.428 324.216C887.428 323.347 887.26 322.593 886.923 321.954C886.603 321.298 886.142 320.792 885.539 320.437C884.936 320.065 884.235 319.878 883.437 319.878C882.638 319.878 881.929 320.065 881.308 320.437C880.705 320.81 880.226 321.324 879.871 321.981C879.534 322.619 879.365 323.356 879.365 324.189C879.365 325.041 879.534 325.795 879.871 326.451C880.226 327.09 880.713 327.596 881.334 327.968C881.955 328.341 882.665 328.527 883.463 328.527ZM887.269 330.523V327.117L887.721 324.03L887.269 320.97V317.883H889.69V330.523H887.269Z" fill="#FDF9EE"/>
<path d="M895.865 330.789C895.155 330.789 894.481 330.7 893.842 330.523C893.221 330.328 892.645 330.062 892.113 329.725C891.581 329.37 891.119 328.953 890.729 328.474L892.272 326.93C892.734 327.498 893.266 327.924 893.869 328.208C894.472 328.474 895.146 328.607 895.892 328.607C896.637 328.607 897.213 328.483 897.621 328.234C898.029 327.968 898.233 327.605 898.233 327.143C898.233 326.682 898.065 326.327 897.728 326.079C897.408 325.813 896.991 325.6 896.477 325.44C895.963 325.263 895.412 325.094 894.827 324.935C894.259 324.757 893.718 324.535 893.204 324.269C892.689 324.003 892.263 323.64 891.926 323.178C891.607 322.717 891.447 322.105 891.447 321.342C891.447 320.579 891.634 319.923 892.006 319.373C892.379 318.805 892.893 318.37 893.55 318.069C894.224 317.767 895.031 317.617 895.971 317.617C896.965 317.617 897.843 317.794 898.606 318.149C899.386 318.486 900.025 319 900.522 319.692L898.978 321.236C898.624 320.774 898.18 320.42 897.648 320.171C897.133 319.923 896.548 319.799 895.892 319.799C895.2 319.799 894.667 319.923 894.295 320.171C893.94 320.402 893.763 320.73 893.763 321.156C893.763 321.582 893.922 321.91 894.242 322.14C894.561 322.371 894.978 322.566 895.492 322.726C896.025 322.885 896.575 323.054 897.142 323.231C897.71 323.391 898.251 323.613 898.766 323.897C899.28 324.181 899.697 324.562 900.016 325.041C900.353 325.52 900.522 326.15 900.522 326.93C900.522 328.119 900.096 329.059 899.245 329.751C898.411 330.443 897.284 330.789 895.865 330.789Z" fill="#FDF9EE"/>
<path d="M907.647 330.789C906.405 330.789 905.279 330.496 904.268 329.911C903.274 329.325 902.485 328.536 901.899 327.542C901.332 326.531 901.048 325.414 901.048 324.189C901.048 322.948 901.332 321.83 901.899 320.836C902.485 319.843 903.274 319.062 904.268 318.495C905.279 317.909 906.405 317.617 907.647 317.617C908.623 317.617 909.528 317.803 910.362 318.175C911.195 318.53 911.914 319.054 912.517 319.745L910.92 321.342C910.53 320.881 910.051 320.535 909.483 320.304C908.933 320.056 908.321 319.932 907.647 319.932C906.849 319.932 906.139 320.118 905.518 320.491C904.897 320.845 904.41 321.342 904.055 321.981C903.7 322.619 903.523 323.356 903.523 324.189C903.523 325.023 903.7 325.76 904.055 326.398C904.41 327.037 904.897 327.542 905.518 327.915C906.139 328.288 906.849 328.474 907.647 328.474C908.321 328.474 908.933 328.359 909.483 328.128C910.051 327.88 910.539 327.525 910.947 327.063L912.517 328.66C911.932 329.334 911.213 329.858 910.362 330.23C909.528 330.603 908.623 330.789 907.647 330.789Z" fill="#FDF9EE"/>
<path d="M913.588 330.523V317.883H915.983V330.523H913.588ZM914.786 315.355C914.342 315.355 913.979 315.213 913.695 314.929C913.411 314.627 913.269 314.255 913.269 313.811C913.269 313.385 913.411 313.03 913.695 312.747C913.979 312.445 914.342 312.294 914.786 312.294C915.229 312.294 915.593 312.445 915.877 312.747C916.161 313.03 916.303 313.385 916.303 313.811C916.303 314.255 916.161 314.627 915.877 314.929C915.593 315.213 915.229 315.355 914.786 315.355Z" fill="#FDF9EE"/>
<path d="M927.124 330.523V323.152C927.124 322.194 926.822 321.404 926.219 320.783C925.616 320.162 924.835 319.852 923.877 319.852C923.238 319.852 922.671 319.994 922.174 320.278C921.677 320.562 921.287 320.952 921.003 321.449C920.719 321.945 920.577 322.513 920.577 323.152L919.593 322.593C919.593 321.635 919.806 320.783 920.231 320.038C920.657 319.293 921.251 318.708 922.014 318.282C922.777 317.838 923.638 317.617 924.596 317.617C925.554 317.617 926.396 317.856 927.124 318.335C927.869 318.814 928.454 319.444 928.88 320.224C929.306 320.987 929.519 321.803 929.519 322.673V330.523H927.124ZM918.182 330.523V317.883H920.577V330.523H918.182Z" fill="#FDF9EE"/>
<path d="M936.806 330.789C935.653 330.789 934.606 330.505 933.666 329.937C932.726 329.352 931.981 328.563 931.431 327.569C930.899 326.576 930.632 325.458 930.632 324.216C930.632 322.974 930.899 321.857 931.431 320.863C931.981 319.87 932.717 319.08 933.64 318.495C934.58 317.909 935.635 317.617 936.806 317.617C937.764 317.617 938.616 317.821 939.361 318.229C940.124 318.619 940.736 319.169 941.197 319.878C941.658 320.57 941.916 321.378 941.969 322.3V326.105C941.916 327.01 941.658 327.817 941.197 328.527C940.754 329.237 940.15 329.796 939.388 330.204C938.642 330.594 937.782 330.789 936.806 330.789ZM937.205 328.527C938.394 328.527 939.352 328.128 940.079 327.33C940.807 326.514 941.17 325.476 941.17 324.216C941.17 323.347 941.002 322.593 940.665 321.954C940.346 321.298 939.884 320.792 939.281 320.437C938.678 320.065 937.977 319.878 937.179 319.878C936.38 319.878 935.671 320.065 935.05 320.437C934.447 320.81 933.968 321.324 933.613 321.981C933.276 322.619 933.107 323.356 933.107 324.189C933.107 325.041 933.276 325.795 933.613 326.451C933.968 327.09 934.456 327.596 935.077 327.968C935.697 328.341 936.407 328.527 937.205 328.527ZM941.011 330.523V327.117L941.463 324.03L941.011 320.97V317.883H943.432V330.523H941.011Z" fill="#FDF9EE"/>
<path d="M950.938 330.789C949.767 330.789 948.72 330.505 947.797 329.937C946.875 329.352 946.139 328.563 945.589 327.569C945.057 326.576 944.79 325.458 944.79 324.216C944.79 322.974 945.057 321.857 945.589 320.863C946.139 319.87 946.875 319.08 947.797 318.495C948.72 317.909 949.767 317.617 950.938 317.617C951.878 317.617 952.729 317.821 953.492 318.229C954.255 318.619 954.867 319.169 955.328 319.878C955.807 320.57 956.074 321.378 956.127 322.3V326.105C956.074 327.01 955.816 327.817 955.355 328.527C954.894 329.237 954.282 329.796 953.519 330.204C952.756 330.594 951.896 330.789 950.938 330.789ZM951.337 328.527C952.135 328.527 952.827 328.341 953.412 327.968C954.016 327.596 954.486 327.09 954.823 326.451C955.16 325.795 955.328 325.05 955.328 324.216C955.328 323.347 955.151 322.593 954.796 321.954C954.459 321.315 953.989 320.81 953.386 320.437C952.8 320.065 952.109 319.878 951.31 319.878C950.512 319.878 949.811 320.065 949.208 320.437C948.605 320.81 948.126 321.324 947.771 321.981C947.434 322.619 947.265 323.356 947.265 324.189C947.265 325.041 947.434 325.795 947.771 326.451C948.126 327.09 948.605 327.596 949.208 327.968C949.829 328.341 950.538 328.527 951.337 328.527ZM957.59 330.523H955.169V327.117L955.621 324.03L955.169 320.97V311.523H957.59V330.523Z" fill="#FDF9EE"/>
<path d="M965.521 330.789C964.28 330.789 963.162 330.496 962.168 329.911C961.175 329.325 960.385 328.536 959.8 327.542C959.215 326.531 958.922 325.405 958.922 324.163C958.922 322.939 959.215 321.839 959.8 320.863C960.385 319.87 961.175 319.08 962.168 318.495C963.162 317.909 964.28 317.617 965.521 317.617C966.746 317.617 967.854 317.909 968.848 318.495C969.859 319.062 970.657 319.843 971.243 320.836C971.828 321.83 972.121 322.939 972.121 324.163C972.121 325.405 971.828 326.531 971.243 327.542C970.657 328.536 969.859 329.325 968.848 329.911C967.854 330.496 966.746 330.789 965.521 330.789ZM965.521 328.474C966.32 328.474 967.029 328.288 967.65 327.915C968.271 327.542 968.759 327.037 969.114 326.398C969.469 325.742 969.646 324.997 969.646 324.163C969.646 323.347 969.46 322.619 969.087 321.981C968.733 321.342 968.245 320.845 967.624 320.491C967.02 320.118 966.32 319.932 965.521 319.932C964.723 319.932 964.013 320.118 963.392 320.491C962.772 320.845 962.284 321.342 961.929 321.981C961.574 322.619 961.397 323.347 961.397 324.163C961.397 324.997 961.574 325.742 961.929 326.398C962.284 327.037 962.772 327.542 963.392 327.915C964.013 328.288 964.723 328.474 965.521 328.474Z" fill="#FDF9EE"/>
<path d="M691.478 354.443C690.52 354.443 689.651 354.248 688.87 353.858C688.107 353.45 687.495 352.891 687.034 352.181C686.572 351.472 686.315 350.665 686.262 349.76V345.954C686.315 345.032 686.572 344.225 687.034 343.533C687.513 342.823 688.134 342.273 688.896 341.883C689.677 341.475 690.538 341.271 691.478 341.271C692.631 341.271 693.669 341.564 694.591 342.149C695.532 342.735 696.268 343.524 696.8 344.517C697.332 345.511 697.598 346.629 697.598 347.87C697.598 349.112 697.332 350.23 696.8 351.223C696.268 352.217 695.532 353.006 694.591 353.592C693.669 354.16 692.631 354.443 691.478 354.443ZM684.825 359.473V341.537H687.22V344.863L686.768 347.924L687.22 351.011V359.473H684.825ZM691.079 352.181C691.877 352.181 692.578 351.995 693.181 351.623C693.784 351.25 694.263 350.744 694.618 350.106C694.973 349.449 695.15 348.695 695.15 347.844C695.15 347.01 694.973 346.265 694.618 345.609C694.263 344.952 693.784 344.446 693.181 344.092C692.578 343.719 691.886 343.533 691.105 343.533C690.307 343.533 689.606 343.719 689.003 344.092C688.4 344.446 687.93 344.952 687.593 345.609C687.256 346.265 687.087 347.019 687.087 347.87C687.087 348.704 687.247 349.449 687.566 350.106C687.903 350.744 688.373 351.25 688.976 351.623C689.597 351.995 690.298 352.181 691.079 352.181Z" fill="#FDF9EE"/>
<path d="M704.758 354.443C703.516 354.443 702.398 354.151 701.405 353.565C700.411 352.98 699.622 352.19 699.036 351.197C698.451 350.186 698.158 349.059 698.158 347.817C698.158 346.593 698.451 345.493 699.036 344.517C699.622 343.524 700.411 342.735 701.405 342.149C702.398 341.564 703.516 341.271 704.758 341.271C705.982 341.271 707.09 341.564 708.084 342.149C709.095 342.717 709.894 343.497 710.479 344.491C711.064 345.484 711.357 346.593 711.357 347.817C711.357 349.059 711.064 350.186 710.479 351.197C709.894 352.19 709.095 352.98 708.084 353.565C707.09 354.151 705.982 354.443 704.758 354.443ZM704.758 352.128C705.556 352.128 706.266 351.942 706.886 351.569C707.507 351.197 707.995 350.691 708.35 350.053C708.705 349.396 708.882 348.651 708.882 347.817C708.882 347.001 708.696 346.274 708.323 345.635C707.969 344.996 707.481 344.5 706.86 344.145C706.257 343.772 705.556 343.586 704.758 343.586C703.959 343.586 703.25 343.772 702.629 344.145C702.008 344.5 701.52 344.996 701.165 345.635C700.81 346.274 700.633 347.001 700.633 347.817C700.633 348.651 700.81 349.396 701.165 350.053C701.52 350.691 702.008 351.197 702.629 351.569C703.25 351.942 703.959 352.128 704.758 352.128Z" fill="#FDF9EE"/>
<path d="M712.725 354.177V341.537H715.12V354.177H712.725ZM715.12 346.966L714.215 346.567C714.215 344.952 714.588 343.666 715.333 342.708C716.078 341.75 717.151 341.271 718.553 341.271C719.192 341.271 719.768 341.386 720.283 341.617C720.797 341.83 721.276 342.193 721.72 342.708L720.15 344.331C719.884 344.047 719.591 343.843 719.272 343.719C718.952 343.595 718.58 343.533 718.154 343.533C717.267 343.533 716.539 343.817 715.972 344.384C715.404 344.952 715.12 345.813 715.12 346.966Z" fill="#FDF9EE"/>
<path d="M731.831 354.443C730.802 354.443 729.87 354.213 729.037 353.752C728.22 353.273 727.582 352.616 727.121 351.782C726.659 350.949 726.429 349.982 726.429 348.882V341.537H728.824V348.775C728.824 349.467 728.939 350.07 729.17 350.585C729.418 351.082 729.773 351.463 730.234 351.729C730.695 351.995 731.236 352.128 731.857 352.128C732.798 352.128 733.534 351.836 734.066 351.25C734.598 350.647 734.864 349.822 734.864 348.775V341.537H737.259V348.882C737.259 349.982 737.029 350.949 736.568 351.782C736.106 352.616 735.468 353.273 734.651 353.752C733.853 354.213 732.913 354.443 731.831 354.443Z" fill="#FDF9EE"/>
<path d="M747.442 354.177L743.503 348.642L743.051 348.216L738.074 341.537H740.975L744.568 346.46L745.02 346.833L750.342 354.177H747.442ZM737.835 354.177L743.051 347.152L744.408 348.908L740.656 354.177H737.835ZM745.206 348.19L743.822 346.487L747.308 341.537H750.103L745.206 348.19Z" fill="#FDF9EE"/>
<path d="M761.277 354.443C760.018 354.443 758.882 354.16 757.871 353.592C756.86 353.006 756.061 352.217 755.476 351.223C754.89 350.23 754.598 349.103 754.598 347.844C754.598 346.602 754.882 345.484 755.449 344.491C756.035 343.497 756.815 342.717 757.791 342.149C758.785 341.564 759.893 341.271 761.117 341.271C762.288 341.271 763.317 341.537 764.204 342.069C765.109 342.601 765.81 343.338 766.307 344.278C766.821 345.218 767.078 346.283 767.078 347.471C767.078 347.649 767.069 347.844 767.052 348.057C767.034 348.252 766.998 348.483 766.945 348.749H756.274V346.753H765.668L764.79 347.525C764.79 346.673 764.639 345.954 764.337 345.369C764.036 344.766 763.61 344.305 763.06 343.985C762.51 343.648 761.845 343.48 761.064 343.48C760.248 343.48 759.53 343.657 758.909 344.012C758.288 344.367 757.809 344.863 757.472 345.502C757.135 346.141 756.966 346.895 756.966 347.764C756.966 348.651 757.143 349.432 757.498 350.106C757.853 350.762 758.359 351.277 759.015 351.649C759.672 352.004 760.426 352.181 761.277 352.181C761.987 352.181 762.634 352.057 763.22 351.809C763.823 351.561 764.337 351.188 764.763 350.691L766.307 352.261C765.703 352.971 764.958 353.512 764.071 353.885C763.202 354.257 762.271 354.443 761.277 354.443Z" fill="#FDF9EE"/>
<path d="M777.913 354.443C776.742 354.443 775.695 354.16 774.773 353.592C773.85 353.006 773.114 352.217 772.564 351.223C772.032 350.23 771.766 349.112 771.766 347.87C771.766 346.629 772.032 345.511 772.564 344.517C773.114 343.524 773.85 342.735 774.773 342.149C775.695 341.564 776.742 341.271 777.913 341.271C778.853 341.271 779.705 341.475 780.467 341.883C781.23 342.273 781.842 342.823 782.304 343.533C782.783 344.225 783.049 345.032 783.102 345.954V349.76C783.049 350.665 782.792 351.472 782.33 352.181C781.869 352.891 781.257 353.45 780.494 353.858C779.731 354.248 778.871 354.443 777.913 354.443ZM778.312 352.181C779.11 352.181 779.802 351.995 780.388 351.623C780.991 351.25 781.461 350.744 781.798 350.106C782.135 349.449 782.304 348.704 782.304 347.87C782.304 347.001 782.126 346.247 781.771 345.609C781.434 344.97 780.964 344.464 780.361 344.092C779.776 343.719 779.084 343.533 778.285 343.533C777.487 343.533 776.786 343.719 776.183 344.092C775.58 344.464 775.101 344.979 774.746 345.635C774.409 346.274 774.241 347.01 774.241 347.844C774.241 348.695 774.409 349.449 774.746 350.106C775.101 350.744 775.58 351.25 776.183 351.623C776.804 351.995 777.514 352.181 778.312 352.181ZM784.566 354.177H782.144V350.771L782.596 347.684L782.144 344.624V335.177H784.566V354.177Z" fill="#FDF9EE"/>
<path d="M792.576 354.443C791.317 354.443 790.181 354.16 789.17 353.592C788.159 353.006 787.361 352.217 786.775 351.223C786.19 350.23 785.897 349.103 785.897 347.844C785.897 346.602 786.181 345.484 786.749 344.491C787.334 343.497 788.115 342.717 789.09 342.149C790.084 341.564 791.193 341.271 792.417 341.271C793.588 341.271 794.617 341.537 795.504 342.069C796.408 342.601 797.109 343.338 797.606 344.278C798.12 345.218 798.378 346.283 798.378 347.471C798.378 347.649 798.369 347.844 798.351 348.057C798.333 348.252 798.298 348.483 798.245 348.749H787.574V346.753H796.967L796.089 347.525C796.089 346.673 795.938 345.954 795.637 345.369C795.335 344.766 794.909 344.305 794.359 343.985C793.809 343.648 793.144 343.48 792.364 343.48C791.548 343.48 790.829 343.657 790.208 344.012C789.587 344.367 789.108 344.863 788.771 345.502C788.434 346.141 788.265 346.895 788.265 347.764C788.265 348.651 788.443 349.432 788.798 350.106C789.152 350.762 789.658 351.277 790.315 351.649C790.971 352.004 791.725 352.181 792.576 352.181C793.286 352.181 793.934 352.057 794.519 351.809C795.122 351.561 795.637 351.188 796.062 350.691L797.606 352.261C797.003 352.971 796.258 353.512 795.371 353.885C794.501 354.257 793.57 354.443 792.576 354.443Z" fill="#FDF9EE"/>
<path d="M803.677 354.443C802.967 354.443 802.293 354.355 801.654 354.177C801.033 353.982 800.457 353.716 799.925 353.379C799.392 353.024 798.931 352.607 798.541 352.128L800.084 350.585C800.546 351.153 801.078 351.578 801.681 351.862C802.284 352.128 802.958 352.261 803.703 352.261C804.449 352.261 805.025 352.137 805.433 351.889C805.841 351.623 806.045 351.259 806.045 350.798C806.045 350.336 805.877 349.982 805.54 349.733C805.22 349.467 804.803 349.254 804.289 349.095C803.774 348.917 803.224 348.749 802.639 348.589C802.071 348.412 801.53 348.19 801.016 347.924C800.501 347.658 800.075 347.294 799.738 346.833C799.419 346.371 799.259 345.759 799.259 344.996C799.259 344.234 799.446 343.577 799.818 343.027C800.191 342.46 800.705 342.025 801.362 341.723C802.036 341.422 802.843 341.271 803.783 341.271C804.777 341.271 805.655 341.448 806.418 341.803C807.198 342.14 807.837 342.655 808.334 343.347L806.79 344.89C806.436 344.429 805.992 344.074 805.46 343.826C804.945 343.577 804.36 343.453 803.703 343.453C803.012 343.453 802.479 343.577 802.107 343.826C801.752 344.056 801.575 344.384 801.575 344.81C801.575 345.236 801.734 345.564 802.054 345.795C802.373 346.025 802.79 346.221 803.304 346.38C803.837 346.54 804.387 346.708 804.954 346.886C805.522 347.046 806.063 347.267 806.578 347.551C807.092 347.835 807.509 348.216 807.828 348.695C808.165 349.174 808.334 349.804 808.334 350.585C808.334 351.773 807.908 352.714 807.056 353.406C806.223 354.097 805.096 354.443 803.677 354.443Z" fill="#FDF9EE"/>
<path d="M815.539 354.443C814.279 354.443 813.144 354.16 812.133 353.592C811.122 353.006 810.323 352.217 809.738 351.223C809.152 350.23 808.86 349.103 808.86 347.844C808.86 346.602 809.143 345.484 809.711 344.491C810.297 343.497 811.077 342.717 812.053 342.149C813.046 341.564 814.155 341.271 815.379 341.271C816.55 341.271 817.579 341.537 818.466 342.069C819.371 342.601 820.072 343.338 820.568 344.278C821.083 345.218 821.34 346.283 821.34 347.471C821.34 347.649 821.331 347.844 821.314 348.057C821.296 348.252 821.26 348.483 821.207 348.749H810.536V346.753H819.93L819.052 347.525C819.052 346.673 818.901 345.954 818.599 345.369C818.298 344.766 817.872 344.305 817.322 343.985C816.772 343.648 816.107 343.48 815.326 343.48C814.51 343.48 813.792 343.657 813.171 344.012C812.55 344.367 812.071 344.863 811.734 345.502C811.397 346.141 811.228 346.895 811.228 347.764C811.228 348.651 811.405 349.432 811.76 350.106C812.115 350.762 812.621 351.277 813.277 351.649C813.933 352.004 814.687 352.181 815.539 352.181C816.249 352.181 816.896 352.057 817.482 351.809C818.085 351.561 818.599 351.188 819.025 350.691L820.568 352.261C819.965 352.971 819.22 353.512 818.333 353.885C817.464 354.257 816.532 354.443 815.539 354.443Z" fill="#FDF9EE"/>
<path d="M831.562 354.177V346.806C831.562 345.848 831.261 345.059 830.658 344.438C830.055 343.817 829.274 343.506 828.316 343.506C827.677 343.506 827.11 343.648 826.613 343.932C826.116 344.216 825.726 344.606 825.442 345.103C825.158 345.6 825.016 346.167 825.016 346.806L824.031 346.247C824.031 345.289 824.244 344.438 824.67 343.693C825.096 342.947 825.69 342.362 826.453 341.936C827.216 341.493 828.076 341.271 829.034 341.271C829.992 341.271 830.835 341.51 831.562 341.989C832.308 342.468 832.893 343.098 833.319 343.879C833.745 344.642 833.957 345.458 833.957 346.327V354.177H831.562ZM822.621 354.177V341.537H825.016V354.177H822.621Z" fill="#FDF9EE"/>
<path d="M840.207 354.177L834.406 341.537H837.067L841.724 352.208H840.181L844.864 341.537H847.419L841.618 354.177H840.207Z" fill="#FDF9EE"/>
<path d="M853.411 354.443C852.169 354.443 851.052 354.151 850.058 353.565C849.065 352.98 848.275 352.19 847.69 351.197C847.104 350.186 846.812 349.059 846.812 347.817C846.812 346.593 847.104 345.493 847.69 344.517C848.275 343.524 849.065 342.735 850.058 342.149C851.052 341.564 852.169 341.271 853.411 341.271C854.635 341.271 855.744 341.564 856.738 342.149C857.749 342.717 858.547 343.497 859.133 344.491C859.718 345.484 860.011 346.593 860.011 347.817C860.011 349.059 859.718 350.186 859.133 351.197C858.547 352.19 857.749 352.98 856.738 353.565C855.744 354.151 854.635 354.443 853.411 354.443ZM853.411 352.128C854.21 352.128 854.919 351.942 855.54 351.569C856.161 351.197 856.649 350.691 857.004 350.053C857.359 349.396 857.536 348.651 857.536 347.817C857.536 347.001 857.35 346.274 856.977 345.635C856.622 344.996 856.135 344.5 855.514 344.145C854.91 343.772 854.21 343.586 853.411 343.586C852.613 343.586 851.903 343.772 851.282 344.145C850.661 344.5 850.174 344.996 849.819 345.635C849.464 346.274 849.287 347.001 849.287 347.817C849.287 348.651 849.464 349.396 849.819 350.053C850.174 350.691 850.661 351.197 851.282 351.569C851.903 351.942 852.613 352.128 853.411 352.128Z" fill="#FDF9EE"/>
<path d="M861.379 354.177V335.177H863.774V354.177H861.379Z" fill="#FDF9EE"/>
<path d="M870.285 354.177L864.484 341.537H867.145L871.802 352.208H870.258L874.942 341.537H877.497L871.695 354.177H870.285Z" fill="#FDF9EE"/>
<path d="M878.235 354.177V341.537H880.63V354.177H878.235ZM879.432 339.009C878.989 339.009 878.625 338.867 878.341 338.583C878.058 338.282 877.916 337.909 877.916 337.465C877.916 337.04 878.058 336.685 878.341 336.401C878.625 336.099 878.989 335.949 879.432 335.949C879.876 335.949 880.24 336.099 880.524 336.401C880.807 336.685 880.949 337.04 880.949 337.465C880.949 337.909 880.807 338.282 880.524 338.583C880.24 338.867 879.876 339.009 879.432 339.009Z" fill="#FDF9EE"/>
<path d="M882.829 354.177V341.537H885.224V354.177H882.829ZM891.371 354.177V346.54C891.371 345.6 891.078 344.863 890.493 344.331C889.925 343.781 889.207 343.506 888.338 343.506C887.752 343.506 887.229 343.63 886.767 343.879C886.306 344.127 885.934 344.473 885.65 344.917C885.366 345.36 885.224 345.892 885.224 346.513L884.239 346.034C884.239 345.076 884.443 344.242 884.851 343.533C885.277 342.823 885.854 342.273 886.581 341.883C887.308 341.475 888.125 341.271 889.029 341.271C889.916 341.271 890.715 341.466 891.424 341.856C892.152 342.247 892.719 342.797 893.128 343.506C893.553 344.216 893.766 345.059 893.766 346.034V354.177H891.371ZM899.913 354.177V346.54C899.913 345.6 899.621 344.863 899.035 344.331C898.467 343.781 897.758 343.506 896.906 343.506C896.321 343.506 895.789 343.63 895.31 343.879C894.848 344.127 894.476 344.473 894.192 344.917C893.908 345.36 893.766 345.892 893.766 346.513L892.409 346.034C892.462 345.059 892.719 344.225 893.181 343.533C893.66 342.823 894.272 342.273 895.017 341.883C895.762 341.475 896.578 341.271 897.465 341.271C898.388 341.271 899.213 341.466 899.94 341.856C900.667 342.247 901.244 342.797 901.67 343.506C902.113 344.216 902.335 345.067 902.335 346.061V354.177H899.913Z" fill="#FDF9EE"/>
<path d="M910.118 354.443C908.858 354.443 907.723 354.16 906.712 353.592C905.7 353.006 904.902 352.217 904.317 351.223C903.731 350.23 903.438 349.103 903.438 347.844C903.438 346.602 903.722 345.484 904.29 344.491C904.875 343.497 905.656 342.717 906.632 342.149C907.625 341.564 908.734 341.271 909.958 341.271C911.129 341.271 912.158 341.537 913.045 342.069C913.95 342.601 914.651 343.338 915.147 344.278C915.662 345.218 915.919 346.283 915.919 347.471C915.919 347.649 915.91 347.844 915.893 348.057C915.875 348.252 915.839 348.483 915.786 348.749H905.115V346.753H914.509L913.631 347.525C913.631 346.673 913.48 345.954 913.178 345.369C912.877 344.766 912.451 344.305 911.901 343.985C911.351 343.648 910.686 343.48 909.905 343.48C909.089 343.48 908.37 343.657 907.75 344.012C907.129 344.367 906.65 344.863 906.313 345.502C905.975 346.141 905.807 346.895 905.807 347.764C905.807 348.651 905.984 349.432 906.339 350.106C906.694 350.762 907.2 351.277 907.856 351.649C908.512 352.004 909.266 352.181 910.118 352.181C910.828 352.181 911.475 352.057 912.061 351.809C912.664 351.561 913.178 351.188 913.604 350.691L915.147 352.261C914.544 352.971 913.799 353.512 912.912 353.885C912.043 354.257 911.111 354.443 910.118 354.443Z" fill="#FDF9EE"/>
<path d="M926.141 354.177V346.806C926.141 345.848 925.84 345.059 925.237 344.438C924.633 343.817 923.853 343.506 922.895 343.506C922.256 343.506 921.688 343.648 921.192 343.932C920.695 344.216 920.305 344.606 920.021 345.103C919.737 345.6 919.595 346.167 919.595 346.806L918.61 346.247C918.61 345.289 918.823 344.438 919.249 343.693C919.675 342.947 920.269 342.362 921.032 341.936C921.795 341.493 922.655 341.271 923.613 341.271C924.571 341.271 925.414 341.51 926.141 341.989C926.886 342.468 927.472 343.098 927.898 343.879C928.324 344.642 928.536 345.458 928.536 346.327V354.177H926.141ZM917.2 354.177V341.537H919.595V354.177H917.2Z" fill="#FDF9EE"/>
<path d="M932.235 354.177V336.241H934.63V354.177H932.235ZM929.122 343.719V341.537H937.744V343.719H929.122Z" fill="#FDF9EE"/>
<path d="M944.144 354.443C942.902 354.443 941.785 354.151 940.791 353.565C939.798 352.98 939.008 352.19 938.423 351.197C937.837 350.186 937.544 349.059 937.544 347.817C937.544 346.593 937.837 345.493 938.423 344.517C939.008 343.524 939.798 342.735 940.791 342.149C941.785 341.564 942.902 341.271 944.144 341.271C945.368 341.271 946.477 341.564 947.47 342.149C948.482 342.717 949.28 343.497 949.865 344.491C950.451 345.484 950.744 346.593 950.744 347.817C950.744 349.059 950.451 350.186 949.865 351.197C949.28 352.19 948.482 352.98 947.47 353.565C946.477 354.151 945.368 354.443 944.144 354.443ZM944.144 352.128C944.942 352.128 945.652 351.942 946.273 351.569C946.894 351.197 947.382 350.691 947.737 350.053C948.091 349.396 948.269 348.651 948.269 347.817C948.269 347.001 948.083 346.274 947.71 345.635C947.355 344.996 946.867 344.5 946.246 344.145C945.643 343.772 944.942 343.586 944.144 343.586C943.346 343.586 942.636 343.772 942.015 344.145C941.394 344.5 940.906 344.996 940.552 345.635C940.197 346.274 940.019 347.001 940.019 347.817C940.019 348.651 940.197 349.396 940.552 350.053C940.906 350.691 941.394 351.197 942.015 351.569C942.636 351.942 943.346 352.128 944.144 352.128Z" fill="#FDF9EE"/>
<path d="M959.936 354.177L954.933 341.537H957.434L961.053 351.383H960.255L963.847 341.537H965.231L968.824 351.383H968.025L971.644 341.537H974.146L969.17 354.177H967.759L964.113 344.624H964.992L961.319 354.177H959.936Z" fill="#FDF9EE"/>
<path d="M980.435 354.443C979.175 354.443 978.04 354.16 977.029 353.592C976.017 353.006 975.219 352.217 974.634 351.223C974.048 350.23 973.755 349.103 973.755 347.844C973.755 346.602 974.039 345.484 974.607 344.491C975.193 343.497 975.973 342.717 976.949 342.149C977.942 341.564 979.051 341.271 980.275 341.271C981.446 341.271 982.475 341.537 983.362 342.069C984.267 342.601 984.968 343.338 985.464 344.278C985.979 345.218 986.236 346.283 986.236 347.471C986.236 347.649 986.227 347.844 986.209 348.057C986.192 348.252 986.156 348.483 986.103 348.749H975.432V346.753H984.826L983.948 347.525C983.948 346.673 983.797 345.954 983.495 345.369C983.194 344.766 982.768 344.305 982.218 343.985C981.668 343.648 981.003 343.48 980.222 343.48C979.406 343.48 978.687 343.657 978.066 344.012C977.446 344.367 976.967 344.863 976.63 345.502C976.292 346.141 976.124 346.895 976.124 347.764C976.124 348.651 976.301 349.432 976.656 350.106C977.011 350.762 977.517 351.277 978.173 351.649C978.829 352.004 979.583 352.181 980.435 352.181C981.145 352.181 981.792 352.057 982.378 351.809C982.981 351.561 983.495 351.188 983.921 350.691L985.464 352.261C984.861 352.971 984.116 353.512 983.229 353.885C982.36 354.257 981.428 354.443 980.435 354.443Z" fill="#FDF9EE"/>
<path d="M994.17 354.443C993.212 354.443 992.342 354.248 991.562 353.858C990.799 353.45 990.187 352.891 989.726 352.181C989.264 351.472 989.007 350.665 988.954 349.76V345.954C989.007 345.032 989.264 344.225 989.726 343.533C990.205 342.823 990.826 342.273 991.589 341.883C992.369 341.475 993.23 341.271 994.17 341.271C995.323 341.271 996.361 341.564 997.283 342.149C998.224 342.735 998.96 343.524 999.492 344.517C1000.02 345.511 1000.29 346.629 1000.29 347.87C1000.29 349.112 1000.02 350.23 999.492 351.223C998.96 352.217 998.224 353.006 997.283 353.592C996.361 354.16 995.323 354.443 994.17 354.443ZM987.517 354.177V335.177H989.912V344.624L989.46 347.684L989.912 350.771V354.177H987.517ZM993.771 352.181C994.569 352.181 995.27 351.995 995.873 351.623C996.476 351.25 996.955 350.744 997.31 350.106C997.665 349.449 997.842 348.695 997.842 347.844C997.842 347.01 997.665 346.265 997.31 345.609C996.955 344.952 996.476 344.446 995.873 344.092C995.27 343.719 994.578 343.533 993.797 343.533C992.999 343.533 992.298 343.719 991.695 344.092C991.092 344.446 990.622 344.952 990.285 345.609C989.948 346.265 989.779 347.019 989.779 347.87C989.779 348.704 989.939 349.449 990.258 350.106C990.595 350.744 991.065 351.25 991.668 351.623C992.289 351.995 992.99 352.181 993.771 352.181Z" fill="#FDF9EE"/>
<path d="M1003.26 354.443C1002.76 354.443 1002.34 354.275 1002.01 353.938C1001.69 353.583 1001.53 353.166 1001.53 352.687C1001.53 352.19 1001.69 351.782 1002.01 351.463C1002.34 351.126 1002.76 350.957 1003.26 350.957C1003.75 350.957 1004.16 351.126 1004.48 351.463C1004.82 351.782 1004.99 352.19 1004.99 352.687C1004.99 353.166 1004.82 353.583 1004.48 353.938C1004.16 354.275 1003.75 354.443 1003.26 354.443Z" fill="#FDF9EE"/>
</svg>
