<svg width="1006" height="359" viewBox="0 0 1006 359" fill="none" xmlns="http://www.w3.org/2000/svg">
<path d="M900 63.9879H976V141.988H900V63.9879Z" fill="#A30000"/>
<path d="M134.696 230.094C125.798 230.094 117.972 228.447 111.216 225.152C104.626 221.856 99.5181 216.996 95.8933 210.57C92.4332 204.309 90.7032 196.812 90.7032 188.079C90.7032 185.937 90.7856 183.713 90.9504 181.406C91.1151 179.264 91.3623 177.04 91.6918 174.733C78.1811 175.228 65.8237 173.333 54.6196 169.049C43.4156 164.765 33.6945 158.669 25.4562 150.76C17.3827 142.851 11.1216 133.542 6.67297 122.832C2.22431 111.958 0 100.177 0 87.4903C0 75.4624 2.05958 64.176 6.17871 53.6311C10.2978 43.0861 16.2294 33.7769 23.9733 25.7034C31.7173 17.6299 41.0265 11.3688 51.901 6.92014C62.7755 2.30672 74.8858 0 88.2318 0C101.742 0 113.935 2.22433 124.81 6.67298C135.684 10.9569 144.993 17.0532 152.737 24.9619C160.481 32.8706 166.413 42.0151 170.532 52.3953C174.651 62.6108 176.711 73.65 176.711 85.5131V184.372C176.711 193.105 175.063 200.931 171.768 207.851C168.637 214.771 163.941 220.209 157.68 224.163C151.419 228.117 143.758 230.094 134.696 230.094ZM132.718 203.65C137.167 203.65 140.627 202.002 143.099 198.707C145.735 195.411 147.053 190.88 147.053 185.114V133.707C141.616 137.497 137.002 141.451 133.213 145.57C129.588 149.524 126.704 153.644 124.562 157.927C122.421 162.211 120.855 166.66 119.867 171.273C118.878 175.722 118.384 180.253 118.384 184.866C118.384 188.821 119.043 192.199 120.361 195C121.679 197.801 123.409 199.942 125.551 201.425C127.858 202.908 130.247 203.65 132.718 203.65ZM88.2318 149.03C90.868 149.03 93.2571 148.948 95.399 148.783C97.541 148.453 99.8477 148.042 102.319 147.547C104.955 142.604 108.251 137.579 112.205 132.471C116.159 127.363 121.02 122.421 126.787 117.642C132.554 112.699 139.309 108.004 147.053 103.555V85.5131C147.053 77.1101 145.57 69.2837 142.604 62.0341C139.803 54.7844 135.684 48.5233 130.247 43.2509C124.974 37.8136 118.796 33.6121 111.711 30.6463C104.626 27.5158 96.7995 25.9505 88.2318 25.9505C79.8287 25.9505 72.0024 27.5158 64.7527 30.6463C57.6678 33.7768 51.4891 38.1431 46.2166 43.7451C40.9441 49.1824 36.825 55.6906 33.8593 63.2698C30.8935 70.6842 29.4106 78.7577 29.4106 87.4903C29.4106 96.2228 30.8935 104.379 33.8593 111.958C36.825 119.372 40.9441 125.881 46.2166 131.483C51.4891 136.92 57.6678 141.204 64.7527 144.334C72.0024 147.465 79.8287 149.03 88.2318 149.03Z" fill="#FDF9EE"/>
<path d="M246.688 168.003C236.802 168.003 228.152 165.696 220.738 161.083C213.488 156.305 207.886 149.549 203.932 140.817C199.977 132.084 198 121.869 198 110.17V41.9575H224.198L224.445 106.216C224.445 117.749 227.493 126.894 233.589 133.649C239.85 140.405 248.171 143.782 258.551 143.782C264.977 143.782 270.826 142.135 276.099 138.839C281.371 135.544 285.49 131.095 288.456 125.493C291.587 119.727 293.152 113.301 293.152 106.216V41.9575H319.102V165.531H293.152V124.999C290.351 138.016 284.749 148.478 276.346 156.387C268.108 164.131 258.222 168.003 246.688 168.003Z" fill="#FDF9EE"/>
<path d="M346.31 168.988V136.726H450.008V117.715H372.235V92.0784H346.31V60.1047H372.235V34.1801H481.982V66.4418H377.996V85.1652H455.769V110.802H481.982V143.351H455.769V168.988H346.31Z" fill="#FDF9EE"/>
<path d="M564.921 168.003C549.433 168.003 537.899 164.543 530.32 157.623C522.906 150.702 519.198 140.569 519.198 127.223V65.4365H490.035V41.9575H510.301C514.091 41.9575 516.974 40.9689 518.951 38.9917C520.928 36.8498 521.917 33.884 521.917 30.0944V12.2998H545.396L545.149 41.9575H594.578V65.4365H545.149V121.045C545.149 128.953 547.126 134.72 551.081 138.345C555.2 141.97 561.625 143.782 570.358 143.782C577.113 143.782 585.187 142.794 594.578 140.817V164.296C589.965 165.284 584.857 166.108 579.255 166.767C573.818 167.591 569.04 168.003 564.921 168.003Z" fill="#FDF9EE"/>
<path d="M639.664 168.497C628.13 168.497 618.986 165.778 612.23 160.341C605.475 154.739 602.097 147.078 602.097 137.357C602.097 127.8 605.228 120.386 611.489 115.113C617.915 109.841 625.494 106.216 634.226 104.239C642.959 102.097 652.845 100.614 663.884 99.7901C673.276 99.131 680.443 97.9777 685.386 96.33C690.494 94.6824 693.048 91.6342 693.048 87.1855C693.048 78.9473 690.247 72.4391 684.645 67.6609C679.043 62.8827 672.04 60.4936 663.637 60.4936C654.575 60.4936 647.078 63.0474 641.147 68.1552C635.38 73.0981 631.92 80.0183 630.766 88.9156H606.546C607.37 78.5354 610.335 69.638 615.443 62.2236C620.716 54.8092 627.553 49.2072 635.956 45.4176C644.524 41.4632 653.916 39.486 664.131 39.486C674.511 39.486 683.656 41.4632 691.565 45.4176C699.638 49.3719 705.899 55.1387 710.348 62.7179C714.797 70.2971 717.021 79.1944 717.021 89.4099V142.547H732.838V165.531H693.295V123.516C689.999 136.697 683.656 147.49 674.264 155.893C664.873 164.296 653.339 168.497 639.664 168.497ZM651.774 147.984C659.353 147.984 666.273 146.089 672.534 142.299C678.96 138.345 683.985 133.237 687.61 126.976C691.235 120.55 693.048 113.63 693.048 106.216L693.295 97.3186C691.153 99.2958 688.269 100.779 684.645 101.767C681.185 102.591 676.406 103.333 670.31 103.992C669.98 103.992 669.569 104.074 669.074 104.239C668.745 104.239 668.415 104.239 668.086 104.239C654.74 105.392 644.771 107.864 638.181 111.653C631.755 115.443 628.542 121.045 628.542 128.459C628.542 134.885 630.602 139.746 634.721 143.041C639.005 146.336 644.689 147.984 651.774 147.984Z" fill="#FDF9EE"/>
<path d="M777.557 165.531L726.397 41.9575H753.831L794.857 143.041H796.34L837.614 41.9575H864.552L813.146 165.531H777.557Z" fill="#FDF9EE"/>
<path d="M897.475 168.988V143.063H871.262V62.1211H897.475V35.9084H978.706V62.1211H1005.21V143.063H978.706V168.988H897.475ZM900.355 140.183H975.825V64.7135H900.355V140.183Z" fill="#FDF9EE"/>
<path d="M90.3375 356.139C80.9458 356.139 72.79 354.162 65.8698 350.208C59.1144 346.089 53.8419 340.569 50.0523 333.649C46.4275 326.564 44.6151 318.655 44.6151 309.923V183.136H68.3412V312.889C68.3412 319.314 70.3184 324.669 74.2728 328.953C78.3919 333.072 83.7469 335.132 90.3375 335.132H136.801V356.139H90.3375Z" fill="#FDF9EE"/>
<path d="M208.148 358.611C195.79 358.611 184.586 355.892 174.536 350.455C164.65 344.853 156.823 337.274 151.057 327.717C145.29 317.996 142.406 307.122 142.406 295.094C142.406 282.572 145.29 271.368 151.057 261.482C156.988 251.596 164.979 243.934 175.03 238.497C185.081 232.895 196.202 230.094 208.395 230.094C220.587 230.094 231.627 232.895 241.513 238.497C251.399 243.934 259.142 251.596 264.744 261.482C270.511 271.203 273.395 282.16 273.395 294.352C273.395 294.682 273.395 295.094 273.395 295.588C273.395 296.082 273.395 296.494 273.395 296.824H168.11C168.439 304.074 170.416 310.664 174.041 316.596C177.666 322.363 182.444 326.976 188.376 330.436C194.472 333.731 201.145 335.379 208.395 335.379C216.139 335.379 222.977 333.649 228.908 330.189C235.004 326.729 239.206 322.28 241.513 316.843H269.44C268.122 324.093 264.745 330.93 259.307 337.356C253.87 343.617 246.703 348.725 237.805 352.679C229.073 356.634 219.187 358.611 208.148 358.611ZM248.927 291.881C248.598 284.631 246.62 278.123 242.996 272.356C239.371 266.425 234.51 261.811 228.414 258.516C222.482 255.056 215.892 253.326 208.642 253.326C201.392 253.326 194.719 255.056 188.623 258.516C182.691 261.811 177.831 266.425 174.041 272.356C170.416 278.123 168.439 284.631 168.11 291.881H248.927Z" fill="#FDF9EE"/>
<path d="M292.753 356.139V232.566H318.704V356.139H292.753Z" fill="#FDF9EE"/>
<path d="M408.457 358.611C392.969 358.611 381.436 355.151 373.856 348.231C366.442 341.311 362.735 331.178 362.735 317.832V256.045H333.571V232.566H353.837C357.627 232.566 360.51 231.577 362.488 229.6C364.465 227.458 365.453 224.492 365.453 220.702V202.908H388.932L388.685 232.566H438.115V256.045H388.685V311.653C388.685 319.562 390.662 325.328 394.617 328.953C398.736 332.578 405.162 334.39 413.894 334.39C420.65 334.39 428.723 333.402 438.115 331.425V354.904C433.501 355.892 428.394 356.716 422.792 357.375C417.354 358.199 412.576 358.611 408.457 358.611Z" fill="#FDF9EE"/>
<path d="M570.475 341.841C564.599 346.803 556.895 350.72 547.362 353.593C537.83 356.335 527.448 357.706 516.218 357.706C503.682 357.706 493.04 356.074 484.291 352.81C475.542 349.414 468.947 344.779 464.507 338.902C460.067 333.026 457.847 326.236 457.847 318.531C457.847 310.697 460.067 303.971 464.507 298.356C469.078 292.611 474.954 288.497 482.136 286.016C476.39 283.405 471.885 279.487 468.621 274.264C465.356 268.91 463.724 262.772 463.724 255.852C463.724 248.669 465.748 242.206 469.796 236.46C473.975 230.714 480.242 226.144 488.6 222.749C496.957 219.223 507.143 217.46 519.156 217.46C527.644 217.46 535.871 218.374 543.836 220.202C551.933 222.031 558.919 224.642 564.795 228.037L559.115 243.707C547.362 237.439 534.304 234.305 519.94 234.305C508.057 234.305 498.981 236.46 492.713 240.769C486.445 244.948 483.311 250.432 483.311 257.223C483.311 264.013 485.727 269.236 490.559 272.893C495.39 276.549 502.311 278.377 511.321 278.377H546.579V295.222H510.538C500.222 295.222 492.126 297.051 486.249 300.707C480.373 304.363 477.435 309.848 477.435 317.16C477.435 324.604 480.765 330.415 487.425 334.593C494.084 338.772 504.009 340.861 517.198 340.861C526.338 340.861 535.022 339.621 543.249 337.14C551.606 334.528 558.462 331.002 563.816 326.562L570.475 341.841Z" fill="#FDF9EE"/>
<path d="M594.578 140.817V164.296L612.23 160.341C605.475 154.739 602.097 147.078 602.097 137.357L594.578 140.817Z" fill="#FDF9EE"/>
<path d="M305.348 175.988L310.597 181.749L318.023 179.384L319.688 186.997L327.301 188.662L324.936 196.088L330.697 201.336L324.936 206.585L327.301 214.011L319.688 215.676L318.023 223.289L310.597 220.924L305.348 226.685L300.1 220.924L292.674 223.289L291.009 215.676L283.396 214.011L285.761 206.585L280 201.336L285.761 196.088L283.396 188.662L291.009 186.997L292.674 179.384L300.1 181.749L305.348 175.988Z" fill="#A30000"/>
<path d="M794.339 220.068C792.443 220.068 790.739 219.636 789.227 218.772C787.715 217.908 786.515 216.732 785.627 215.244C784.763 213.732 784.331 212.028 784.331 210.132V194.508H788.471V210.096C788.471 211.32 788.723 212.388 789.227 213.3C789.755 214.188 790.463 214.884 791.351 215.388C792.239 215.868 793.235 216.108 794.339 216.108C795.467 216.108 796.463 215.868 797.327 215.388C798.191 214.884 798.875 214.188 799.379 213.3C799.883 212.388 800.135 211.332 800.135 210.132V194.508H804.275V210.168C804.275 212.064 803.843 213.756 802.979 215.244C802.115 216.732 800.939 217.908 799.451 218.772C797.963 219.636 796.259 220.068 794.339 220.068Z" fill="#FDF9EE"/>
<path d="M807.674 219.708V194.508H811.814V219.708H807.674Z" fill="#FDF9EE"/>
<path d="M819.692 224.388V191.988H823.292V224.388H819.692Z" fill="#FDF9EE"/>
<path d="M839.312 220.068C837.416 220.068 835.712 219.636 834.2 218.772C832.688 217.908 831.488 216.732 830.6 215.244C829.736 213.732 829.304 212.028 829.304 210.132V194.508H833.444V210.096C833.444 211.32 833.696 212.388 834.2 213.3C834.728 214.188 835.436 214.884 836.324 215.388C837.212 215.868 838.208 216.108 839.312 216.108C840.44 216.108 841.436 215.868 842.3 215.388C843.164 214.884 843.848 214.188 844.352 213.3C844.856 212.388 845.108 211.332 845.108 210.132V194.508H849.248V210.168C849.248 212.064 848.816 213.756 847.952 215.244C847.088 216.732 845.912 217.908 844.424 218.772C842.936 219.636 841.232 220.068 839.312 220.068Z" fill="#FDF9EE"/>
<path d="M868.719 219.708L861.303 208.476H860.547L850.575 194.508H855.471L862.923 205.092H863.679L873.543 219.708H868.719ZM850.143 219.708L859.719 206.244L862.563 208.656L854.786 219.708H850.143ZM863.967 207.648L861.123 205.236L868.467 194.508H873.111L863.967 207.648Z" fill="#FDF9EE"/>
<path d="M887.458 220.068C885.874 220.068 884.459 219.684 883.211 218.916C881.963 218.124 880.967 217.056 880.223 215.712C879.503 214.368 879.142 212.856 879.142 211.176C879.142 209.496 879.503 207.984 880.223 206.64C880.967 205.296 881.963 204.228 883.211 203.436C884.459 202.644 885.874 202.248 887.458 202.248C888.73 202.248 889.883 202.524 890.915 203.076C891.947 203.604 892.775 204.348 893.399 205.308C894.047 206.244 894.407 207.336 894.479 208.584V213.732C894.407 214.956 894.058 216.048 893.434 217.008C892.81 217.968 891.983 218.724 890.951 219.276C889.919 219.804 888.754 220.068 887.458 220.068ZM887.999 217.008C889.079 217.008 890.015 216.756 890.807 216.252C891.623 215.748 892.259 215.064 892.715 214.2C893.171 213.312 893.399 212.304 893.399 211.176C893.399 210 893.159 208.98 892.679 208.116C892.223 207.252 891.587 206.568 890.771 206.064C889.979 205.56 889.043 205.308 887.963 205.308C886.883 205.308 885.935 205.56 885.119 206.064C884.303 206.568 883.654 207.264 883.174 208.152C882.718 209.016 882.491 210.012 882.491 211.14C882.491 212.292 882.718 213.312 883.174 214.2C883.654 215.064 884.303 215.748 885.119 216.252C885.959 216.756 886.919 217.008 887.999 217.008ZM896.458 219.708H893.182V215.1L893.795 210.924L893.182 206.784V194.004H896.458V219.708Z" fill="#FDF9EE"/>
<path d="M907.296 220.068C905.592 220.068 904.056 219.684 902.688 218.916C901.32 218.124 900.24 217.056 899.448 215.712C898.656 214.368 898.26 212.844 898.26 211.14C898.26 209.46 898.644 207.948 899.412 206.604C900.204 205.26 901.26 204.204 902.58 203.436C903.924 202.644 905.424 202.248 907.08 202.248C908.664 202.248 910.056 202.608 911.256 203.328C912.48 204.048 913.428 205.044 914.1 206.316C914.796 207.588 915.144 209.028 915.144 210.636C915.144 210.876 915.132 211.14 915.108 211.428C915.084 211.692 915.036 212.004 914.964 212.364H900.528V209.664H913.236L912.048 210.708C912.048 209.556 911.844 208.584 911.436 207.792C911.028 206.976 910.452 206.352 909.708 205.92C908.964 205.464 908.064 205.236 907.008 205.236C905.904 205.236 904.932 205.476 904.092 205.956C903.252 206.436 902.604 207.108 902.148 207.972C901.692 208.836 901.464 209.856 901.464 211.032C901.464 212.232 901.704 213.288 902.184 214.2C902.664 215.088 903.348 215.784 904.236 216.288C905.124 216.768 906.144 217.008 907.296 217.008C908.256 217.008 909.132 216.84 909.924 216.504C910.74 216.168 911.436 215.664 912.012 214.992L914.1 217.116C913.284 218.076 912.276 218.808 911.076 219.312C909.9 219.816 908.64 220.068 907.296 220.068Z" fill="#FDF9EE"/>
<path d="M922.312 220.068C921.352 220.068 920.44 219.948 919.576 219.708C918.736 219.444 917.956 219.084 917.236 218.628C916.516 218.148 915.892 217.584 915.364 216.936L917.452 214.848C918.076 215.616 918.796 216.192 919.612 216.576C920.428 216.936 921.34 217.116 922.348 217.116C923.356 217.116 924.136 216.948 924.688 216.612C925.24 216.252 925.516 215.76 925.516 215.136C925.516 214.512 925.288 214.032 924.832 213.696C924.4 213.336 923.836 213.048 923.14 212.832C922.444 212.592 921.7 212.364 920.908 212.148C920.14 211.908 919.408 211.608 918.712 211.248C918.016 210.888 917.44 210.396 916.984 209.772C916.552 209.148 916.336 208.32 916.336 207.288C916.336 206.256 916.588 205.368 917.092 204.624C917.596 203.856 918.292 203.268 919.18 202.86C920.092 202.452 921.184 202.248 922.456 202.248C923.8 202.248 924.988 202.488 926.02 202.968C927.076 203.424 927.94 204.12 928.612 205.056L926.524 207.144C926.044 206.52 925.444 206.04 924.724 205.704C924.028 205.368 923.236 205.2 922.348 205.2C921.412 205.2 920.692 205.368 920.188 205.704C919.708 206.016 919.468 206.46 919.468 207.036C919.468 207.612 919.684 208.056 920.116 208.368C920.548 208.68 921.112 208.944 921.808 209.16C922.528 209.376 923.272 209.604 924.04 209.844C924.808 210.06 925.54 210.36 926.236 210.744C926.932 211.128 927.496 211.644 927.928 212.292C928.384 212.94 928.612 213.792 928.612 214.848C928.612 216.456 928.036 217.728 926.884 218.664C925.756 219.6 924.232 220.068 922.312 220.068Z" fill="#FDF9EE"/>
<path d="M930.476 219.708V202.608H933.716V219.708H930.476ZM932.096 199.188C931.496 199.188 931.004 198.996 930.62 198.612C930.236 198.204 930.044 197.7 930.044 197.1C930.044 196.524 930.236 196.044 930.62 195.66C931.004 195.252 931.496 195.048 932.096 195.048C932.696 195.048 933.188 195.252 933.572 195.66C933.956 196.044 934.148 196.524 934.148 197.1C934.148 197.7 933.956 198.204 933.572 198.612C933.188 198.996 932.696 199.188 932.096 199.188Z" fill="#FDF9EE"/>
<path d="M943.783 227.232C942.031 227.232 940.47 226.908 939.102 226.26C937.758 225.612 936.678 224.7 935.862 223.524L937.951 221.4C938.647 222.288 939.474 222.96 940.434 223.416C941.394 223.896 942.534 224.136 943.854 224.136C945.606 224.136 946.986 223.668 947.994 222.732C949.026 221.82 949.542 220.584 949.542 219.024V214.776L950.118 210.924L949.542 207.108V202.608H952.783V219.024C952.783 220.656 952.398 222.084 951.63 223.308C950.886 224.532 949.831 225.492 948.463 226.188C947.119 226.884 945.559 227.232 943.783 227.232ZM943.783 219.42C942.223 219.42 940.818 219.048 939.57 218.304C938.346 217.56 937.374 216.54 936.654 215.244C935.934 213.924 935.575 212.448 935.575 210.816C935.575 209.184 935.934 207.732 936.654 206.46C937.374 205.164 938.346 204.144 939.57 203.4C940.818 202.632 942.223 202.248 943.783 202.248C945.127 202.248 946.314 202.512 947.346 203.04C948.378 203.568 949.194 204.312 949.794 205.272C950.418 206.208 950.754 207.312 950.802 208.584V213.12C950.73 214.368 950.382 215.472 949.758 216.432C949.158 217.368 948.342 218.1 947.31 218.628C946.278 219.156 945.103 219.42 943.783 219.42ZM944.43 216.36C945.486 216.36 946.41 216.132 947.202 215.676C948.018 215.22 948.643 214.584 949.075 213.768C949.507 212.928 949.722 211.956 949.722 210.852C949.722 209.748 949.494 208.788 949.038 207.972C948.606 207.132 947.994 206.484 947.202 206.028C946.41 205.548 945.474 205.308 944.394 205.308C943.314 205.308 942.366 205.548 941.55 206.028C940.734 206.484 940.087 207.132 939.607 207.972C939.151 208.788 938.922 209.736 938.922 210.816C938.922 211.896 939.151 212.856 939.607 213.696C940.087 214.536 940.734 215.196 941.55 215.676C942.39 216.132 943.35 216.36 944.43 216.36Z" fill="#FDF9EE"/>
<path d="M967.834 219.708V209.736C967.834 208.44 967.426 207.372 966.61 206.532C965.794 205.692 964.738 205.272 963.442 205.272C962.578 205.272 961.81 205.464 961.138 205.848C960.466 206.232 959.938 206.76 959.554 207.432C959.17 208.104 958.978 208.872 958.978 209.736L957.646 208.98C957.646 207.684 957.934 206.532 958.51 205.524C959.086 204.516 959.89 203.724 960.922 203.148C961.954 202.548 963.118 202.248 964.414 202.248C965.71 202.248 966.85 202.572 967.834 203.22C968.842 203.868 969.634 204.72 970.21 205.776C970.786 206.808 971.074 207.912 971.074 209.088V219.708H967.834ZM955.738 219.708V202.608H958.978V219.708H955.738Z" fill="#FDF9EE"/>
<path d="M981.581 220.068C979.877 220.068 978.341 219.684 976.973 218.916C975.605 218.124 974.525 217.056 973.733 215.712C972.941 214.368 972.545 212.844 972.545 211.14C972.545 209.46 972.929 207.948 973.697 206.604C974.489 205.26 975.545 204.204 976.865 203.436C978.209 202.644 979.709 202.248 981.365 202.248C982.949 202.248 984.341 202.608 985.541 203.328C986.765 204.048 987.713 205.044 988.385 206.316C989.081 207.588 989.429 209.028 989.429 210.636C989.429 210.876 989.417 211.14 989.393 211.428C989.369 211.692 989.321 212.004 989.249 212.364H974.813V209.664H987.521L986.333 210.708C986.333 209.556 986.129 208.584 985.721 207.792C985.313 206.976 984.737 206.352 983.993 205.92C983.249 205.464 982.349 205.236 981.293 205.236C980.189 205.236 979.217 205.476 978.377 205.956C977.537 206.436 976.889 207.108 976.433 207.972C975.977 208.836 975.749 209.856 975.749 211.032C975.749 212.232 975.989 213.288 976.469 214.2C976.949 215.088 977.633 215.784 978.521 216.288C979.409 216.768 980.429 217.008 981.581 217.008C982.541 217.008 983.417 216.84 984.209 216.504C985.025 216.168 985.721 215.664 986.297 214.992L988.385 217.116C987.569 218.076 986.561 218.808 985.361 219.312C984.185 219.816 982.925 220.068 981.581 220.068Z" fill="#FDF9EE"/>
<path d="M991.162 219.708V202.608H994.402V219.708H991.162ZM994.402 209.952L993.178 209.412C993.178 207.228 993.682 205.488 994.69 204.192C995.698 202.896 997.15 202.248 999.046 202.248C999.91 202.248 1000.69 202.404 1001.39 202.716C1002.08 203.004 1002.73 203.496 1003.33 204.192L1001.21 206.388C1000.85 206.004 1000.45 205.728 1000.02 205.56C999.586 205.392 999.082 205.308 998.506 205.308C997.306 205.308 996.322 205.692 995.554 206.46C994.786 207.228 994.402 208.392 994.402 209.952Z" fill="#FDF9EE"/>
</svg>
