<svg width="1167" height="416" viewBox="0 0 1167 416" fill="none" xmlns="http://www.w3.org/2000/svg">
<path d="M270.425 440.738C298.516 438.869 324.792 433.145 349.246 423.56C373.71 413.96 394.115 401.463 410.449 386.067L420.947 391.723C378.915 409.359 356.778 471.163 327.308 483.033C297.848 494.91 360.23 448.332 313.961 503.498C241.888 505.278 212.173 503.132 183.763 496.25C155.346 489.356 130.161 478.926 108.196 464.948C86.2302 450.956 68.6773 434.077 55.5483 414.311C42.4303 394.545 35.0713 372.695 33.4708 348.755C31.8695 324.802 36.2539 302.157 46.6245 280.828C57.006 259.498 72.1576 240.456 92.0673 223.692C111.976 206.914 135.55 193.239 162.798 182.655C190.04 172.057 219.741 165.688 251.894 163.549C285.115 161.339 317.115 164.171 347.894 172.033C378.685 179.9 405.484 192.016 428.305 208.385L420.57 223.95C410.741 243.731 385.276 249.714 364.754 241.529C355.82 237.965 346.327 234.974 336.278 232.554C310.906 226.43 284.171 224.299 256.081 226.168C234.995 227.571 214.16 231.564 193.568 238.133C172.977 244.71 154.358 253.351 137.71 264.051C121.061 274.737 107.968 286.987 98.4372 300.798C88.9161 314.596 84.688 329.418 85.7483 345.277C86.8076 361.122 92.9712 375.253 104.245 387.68C115.53 400.093 130.137 410.5 148.062 418.899C165.986 427.285 185.59 433.377 206.874 437.16C228.158 440.95 249.34 442.141 270.425 440.738Z" fill="#FDFFFC"/>
<path d="M493.119 161.665H569.459L814.202 504.022H736.853L686.831 439.358C680.09 430.644 669.695 425.543 658.679 425.543H399.873C388.416 425.543 377.659 431.059 370.972 440.363L325.22 504.022H248.88L493.119 161.665ZM418.718 372.961H643.381L531.289 216.446L418.718 372.961Z" fill="#FDFFFC"/>
<path fill-rule="evenodd" clip-rule="evenodd" d="M882.287 328.451L1067.32 161.665H986.532C977.717 161.665 969.216 164.936 962.674 170.845L835.298 285.905L707.922 170.845C701.381 164.936 692.879 161.665 684.064 161.665H603.782L788.31 328.451L691.159 416.236L679.015 427.21L682.731 428.091L683.369 428.728L717.794 477.104L835.298 370.997L972.477 494.848C979.018 500.753 987.516 504.022 996.328 504.022H1076.62L882.287 328.451Z" fill="#FDFFFC"/>
<path d="M1035.94 249.971C1035.94 242.895 1041.68 237.158 1048.75 237.158H1153.42V503.894H1035.94V249.971ZM1035.94 206.953V111.314H1153.42V146.953C1153.42 180.09 1126.56 206.953 1093.42 206.953H1035.94Z" fill="#FDFFFC"/>
<mask id="mask0_107_34" style="mask-type:luminance" maskUnits="userSpaceOnUse" x="1034" y="12" width="121" height="104">
<path d="M1034.59 12.0485H1154.44V115.241H1034.59V12.0485Z" fill="white"/>
</mask>
<g mask="url(#mask0_107_34)">
<path d="M1034.59 115.494L1094.36 12.0551L1154.12 115.494H1034.59Z" fill="#FDFFFC"/>
</g>
<mask id="mask1_107_34" style="mask-type:luminance" maskUnits="userSpaceOnUse" x="1055" y="57" width="112" height="120">
<path d="M1055.88 57.8738H1166.37V176.779H1055.88V57.8738Z" fill="white"/>
</mask>
<g mask="url(#mask1_107_34)">
<mask id="mask2_107_34" style="mask-type:luminance" maskUnits="userSpaceOnUse" x="1056" y="23" width="158" height="154">
<path d="M1116.54 23.0316L1213.85 92.935L1153.57 176.72L1056.25 106.816L1116.54 23.0316Z" fill="white"/>
</mask>
<g mask="url(#mask2_107_34)">
<mask id="mask3_107_34" style="mask-type:luminance" maskUnits="userSpaceOnUse" x="1056" y="23" width="158" height="154">
<path d="M1116.54 23.0316L1213.85 92.935L1153.57 176.72L1056.25 106.816L1116.54 23.0316Z" fill="white"/>
</mask>
<g mask="url(#mask3_107_34)">
<path d="M1056.12 107.022L1165.06 57.8936L1153 156L1056.12 107.022Z" fill="#FDFFFC"/>
</g>
</g>
</g>
<mask id="mask4_107_34" style="mask-type:luminance" maskUnits="userSpaceOnUse" x="1025" y="57" width="111" height="120">
<path d="M1025.28 57.8738H1135.78V176.779H1025.28V57.8738Z" fill="white"/>
</mask>
<g mask="url(#mask4_107_34)">
<mask id="mask5_107_34" style="mask-type:luminance" maskUnits="userSpaceOnUse" x="977" y="22" width="158" height="155">
<path d="M977.312 93.2999L1074.12 22.7131L1135 106.08L1038.18 176.666L977.312 93.2999Z" fill="white"/>
</mask>
<g mask="url(#mask5_107_34)">
<mask id="mask6_107_34" style="mask-type:luminance" maskUnits="userSpaceOnUse" x="977" y="22" width="158" height="155">
<path d="M977.312 93.2999L1074.12 22.7131L1135 106.08L1038.18 176.666L977.312 93.2999Z" fill="white"/>
</mask>
<g mask="url(#mask6_107_34)">
<path d="M1038.33 176.866L1025.6 58.1127L1134.89 106.464L1038.33 176.866Z" fill="#FDFFFC"/>
</g>
</g>
</g>
<mask id="mask7_107_34" style="mask-type:luminance" maskUnits="userSpaceOnUse" x="1047" y="28" width="82" height="90">
<path d="M1047.38 28.9966H1128.98V117.326H1047.38V28.9966Z" fill="white"/>
</mask>
<g mask="url(#mask7_107_34)">
<mask id="mask8_107_34" style="mask-type:luminance" maskUnits="userSpaceOnUse" x="1017" y="12" width="112" height="106">
<path d="M1017.47 47.6884L1097.89 12.0565L1128.9 81.9334L1048.47 117.565L1017.47 47.6884Z" fill="white"/>
</mask>
<g mask="url(#mask8_107_34)">
<mask id="mask9_107_34" style="mask-type:luminance" maskUnits="userSpaceOnUse" x="1017" y="12" width="112" height="106">
<path d="M1017.47 47.6884L1097.89 12.0565L1128.9 81.9334L1048.47 117.565L1017.47 47.6884Z" fill="white"/>
</mask>
<g mask="url(#mask9_107_34)">
<path d="M1048.21 116.975L1057.5 29.9587L1128.27 81.5021L1048.21 116.975Z" fill="#FDFFFC"/>
</g>
</g>
</g>
<mask id="mask10_107_34" style="mask-type:luminance" maskUnits="userSpaceOnUse" x="1067" y="27" width="86" height="89">
<path d="M1067.78 27.298H1152.78V115.628H1067.78V27.298Z" fill="white"/>
</mask>
<g mask="url(#mask10_107_34)">
<mask id="mask11_107_34" style="mask-type:luminance" maskUnits="userSpaceOnUse" x="1068" y="14" width="109" height="102">
<path d="M1093.59 14.6112L1176.86 42.9641L1152.19 115.316L1068.92 86.9697L1093.59 14.6112Z" fill="white"/>
</mask>
<g mask="url(#mask11_107_34)">
<mask id="mask12_107_34" style="mask-type:luminance" maskUnits="userSpaceOnUse" x="1068" y="14" width="109" height="102">
<path d="M1093.59 14.6112L1176.86 42.9641L1152.19 115.316L1068.92 86.9697L1093.59 14.6112Z" fill="white"/>
</mask>
<g mask="url(#mask12_107_34)">
<path d="M1069.13 86.3592L1135.03 28.7312L1152.02 114.579L1069.13 86.3592Z" fill="#FDFFFC"/>
</g>
</g>
</g>
<mask id="mask13_107_34" style="mask-type:luminance" maskUnits="userSpaceOnUse" x="1050" y="0" width="89" height="78">
<path d="M1050.57 0.769775H1138.54V77.209H1050.57V0.769775Z" fill="white"/>
</mask>
<g mask="url(#mask13_107_34)">
<path d="M1050.57 76.5658L1094.36 0.783478L1138.15 76.5658H1050.57Z" fill="#FDFFFC"/>
</g>
<rect width="79.9019" height="79.9019" rx="39.951" transform="matrix(0.707182 -0.707032 0.707182 0.707032 475.734 309.298)" fill="#FDFFFC"/>
<path d="M979.22 154.3C977.92 154.3 976.73 153.94 975.65 153.22C974.59 152.5 973.74 151.52 973.1 150.28C972.46 149.04 972.14 147.64 972.14 146.08C972.14 144.5 972.46 143.1 973.1 141.88C973.76 140.64 974.64 139.67 975.74 138.97C976.86 138.27 978.11 137.92 979.49 137.92C980.31 137.92 981.06 138.04 981.74 138.28C982.42 138.52 983.01 138.86 983.51 139.3C984.03 139.72 984.45 140.21 984.77 140.77C985.11 141.33 985.32 141.93 985.4 142.57L984.71 142.33V138.25H987.83V154H984.71V150.25L985.43 150.04C985.31 150.58 985.06 151.11 984.68 151.63C984.32 152.13 983.85 152.58 983.27 152.98C982.71 153.38 982.08 153.7 981.38 153.94C980.7 154.18 979.98 154.3 979.22 154.3ZM980.03 151.45C980.97 151.45 981.8 151.22 982.52 150.76C983.24 150.3 983.8 149.67 984.2 148.87C984.62 148.05 984.83 147.12 984.83 146.08C984.83 145.06 984.62 144.15 984.2 143.35C983.8 142.55 983.24 141.92 982.52 141.46C981.8 141 980.97 140.77 980.03 140.77C979.11 140.77 978.29 141 977.57 141.46C976.87 141.92 976.31 142.55 975.89 143.35C975.49 144.15 975.29 145.06 975.29 146.08C975.29 147.12 975.49 148.05 975.89 148.87C976.31 149.67 976.87 150.3 977.57 150.76C978.29 151.22 979.11 151.45 980.03 151.45ZM994.964 149.08L994.814 145.72L1002.34 138.25H1006.51L994.964 149.08ZM992.144 154V131.8H995.234V154H992.144ZM1002.76 154L996.824 147.07L999.014 145.06L1006.72 154H1002.76ZM1014.58 154.3C1013.28 154.3 1012.09 153.94 1011.01 153.22C1009.95 152.5 1009.1 151.52 1008.46 150.28C1007.82 149.04 1007.5 147.64 1007.5 146.08C1007.5 144.5 1007.82 143.1 1008.46 141.88C1009.12 140.64 1010 139.67 1011.1 138.97C1012.22 138.27 1013.47 137.92 1014.85 137.92C1015.67 137.92 1016.42 138.04 1017.1 138.28C1017.78 138.52 1018.37 138.86 1018.87 139.3C1019.39 139.72 1019.81 140.21 1020.13 140.77C1020.47 141.33 1020.68 141.93 1020.76 142.57L1020.07 142.33V138.25H1023.19V154H1020.07V150.25L1020.79 150.04C1020.67 150.58 1020.42 151.11 1020.04 151.63C1019.68 152.13 1019.21 152.58 1018.63 152.98C1018.07 153.38 1017.44 153.7 1016.74 153.94C1016.06 154.18 1015.34 154.3 1014.58 154.3ZM1015.39 151.45C1016.33 151.45 1017.16 151.22 1017.88 150.76C1018.6 150.3 1019.16 149.67 1019.56 148.87C1019.98 148.05 1020.19 147.12 1020.19 146.08C1020.19 145.06 1019.98 144.15 1019.56 143.35C1019.16 142.55 1018.6 141.92 1017.88 141.46C1017.16 141 1016.33 140.77 1015.39 140.77C1014.47 140.77 1013.65 141 1012.93 141.46C1012.23 141.92 1011.67 142.55 1011.25 143.35C1010.85 144.15 1010.65 145.06 1010.65 146.08C1010.65 147.12 1010.85 148.05 1011.25 148.87C1011.67 149.67 1012.23 150.3 1012.93 150.76C1013.65 151.22 1014.47 151.45 1015.39 151.45ZM1028.77 154.3C1028.11 154.3 1027.6 154.11 1027.24 153.73C1026.88 153.33 1026.7 152.77 1026.7 152.05C1026.7 151.39 1026.89 150.85 1027.27 150.43C1027.65 150.01 1028.15 149.8 1028.77 149.8C1029.43 149.8 1029.94 150 1030.3 150.4C1030.66 150.78 1030.84 151.33 1030.84 152.05C1030.84 152.71 1030.65 153.25 1030.27 153.67C1029.89 154.09 1029.39 154.3 1028.77 154.3ZM1028.77 142.45C1028.11 142.45 1027.6 142.26 1027.24 141.88C1026.88 141.48 1026.7 140.92 1026.7 140.2C1026.7 139.54 1026.89 139 1027.27 138.58C1027.65 138.16 1028.15 137.95 1028.77 137.95C1029.43 137.95 1029.94 138.15 1030.3 138.55C1030.66 138.93 1030.84 139.48 1030.84 140.2C1030.84 140.86 1030.65 141.4 1030.27 141.82C1029.89 142.24 1029.39 142.45 1028.77 142.45Z" fill="#FDFFFC"/>
</svg>
