<svg width="1006" height="359" viewBox="0 0 1006 359" fill="none" xmlns="http://www.w3.org/2000/svg">
<path d="M900 63.9879H976V141.988H900V63.9879Z" fill="#A30000"/>
<path d="M134.696 230.094C125.798 230.094 117.972 228.447 111.216 225.152C104.626 221.856 99.5181 216.996 95.8933 210.57C92.4332 204.309 90.7032 196.812 90.7032 188.079C90.7032 185.937 90.7856 183.713 90.9504 181.406C91.1151 179.264 91.3623 177.04 91.6918 174.733C78.1811 175.228 65.8237 173.333 54.6196 169.049C43.4156 164.765 33.6945 158.669 25.4562 150.76C17.3827 142.851 11.1216 133.542 6.67297 122.832C2.22431 111.958 0 100.177 0 87.4903C0 75.4624 2.05958 64.176 6.17871 53.6311C10.2978 43.0861 16.2294 33.7769 23.9733 25.7034C31.7173 17.6299 41.0265 11.3688 51.901 6.92014C62.7755 2.30672 74.8858 0 88.2318 0C101.742 0 113.935 2.22433 124.81 6.67298C135.684 10.9569 144.993 17.0532 152.737 24.9619C160.481 32.8706 166.413 42.0151 170.532 52.3953C174.651 62.6108 176.711 73.65 176.711 85.5131V184.372C176.711 193.105 175.063 200.931 171.768 207.851C168.637 214.771 163.941 220.209 157.68 224.163C151.419 228.117 143.758 230.094 134.696 230.094ZM132.718 203.65C137.167 203.65 140.627 202.002 143.099 198.707C145.735 195.411 147.053 190.88 147.053 185.114V133.707C141.616 137.497 137.002 141.451 133.213 145.57C129.588 149.524 126.704 153.644 124.562 157.927C122.421 162.211 120.855 166.66 119.867 171.273C118.878 175.722 118.384 180.253 118.384 184.866C118.384 188.821 119.043 192.199 120.361 195C121.679 197.801 123.409 199.942 125.551 201.425C127.858 202.908 130.247 203.65 132.718 203.65ZM88.2318 149.03C90.868 149.03 93.2571 148.948 95.399 148.783C97.541 148.453 99.8477 148.042 102.319 147.547C104.955 142.604 108.251 137.579 112.205 132.471C116.159 127.363 121.02 122.421 126.787 117.642C132.554 112.699 139.309 108.004 147.053 103.555V85.5131C147.053 77.1101 145.57 69.2837 142.604 62.0341C139.803 54.7844 135.684 48.5233 130.247 43.2509C124.974 37.8136 118.796 33.6121 111.711 30.6463C104.626 27.5158 96.7995 25.9505 88.2318 25.9505C79.8287 25.9505 72.0024 27.5158 64.7527 30.6463C57.6678 33.7768 51.4891 38.1431 46.2166 43.7451C40.9441 49.1824 36.825 55.6906 33.8593 63.2698C30.8935 70.6842 29.4106 78.7577 29.4106 87.4903C29.4106 96.2228 30.8935 104.379 33.8593 111.958C36.825 119.372 40.9441 125.881 46.2166 131.483C51.4891 136.92 57.6678 141.204 64.7527 144.334C72.0024 147.465 79.8287 149.03 88.2318 149.03Z" fill="#FDF9EE"/>
<path d="M246.688 168.003C236.802 168.003 228.152 165.696 220.738 161.083C213.488 156.305 207.886 149.549 203.932 140.817C199.977 132.084 198 121.869 198 110.17V41.9575H224.198L224.445 106.216C224.445 117.749 227.493 126.894 233.589 133.649C239.85 140.405 248.171 143.782 258.551 143.782C264.977 143.782 270.826 142.135 276.099 138.839C281.371 135.544 285.49 131.095 288.456 125.493C291.587 119.727 293.152 113.301 293.152 106.216V41.9575H319.102V165.531H293.152V124.999C290.351 138.016 284.749 148.478 276.346 156.387C268.108 164.131 258.222 168.003 246.688 168.003Z" fill="#FDF9EE"/>
<path d="M346.31 168.988V136.726H450.008V117.715H372.235V92.0784H346.31V60.1047H372.235V34.1801H481.982V66.4418H377.996V85.1652H455.769V110.802H481.982V143.351H455.769V168.988H346.31Z" fill="#FDF9EE"/>
<path d="M564.921 168.003C549.433 168.003 537.899 164.543 530.32 157.623C522.906 150.702 519.198 140.569 519.198 127.223V65.4365H490.035V41.9575H510.301C514.091 41.9575 516.974 40.9689 518.951 38.9917C520.928 36.8498 521.917 33.884 521.917 30.0944V12.2998H545.396L545.149 41.9575H594.578V65.4365H545.149V121.045C545.149 128.953 547.126 134.72 551.081 138.345C555.2 141.97 561.625 143.782 570.358 143.782C577.113 143.782 585.187 142.794 594.578 140.817V164.296C589.965 165.284 584.857 166.108 579.255 166.767C573.818 167.591 569.04 168.003 564.921 168.003Z" fill="#FDF9EE"/>
<path d="M639.664 168.497C628.13 168.497 618.986 165.778 612.23 160.341C605.475 154.739 602.097 147.078 602.097 137.357C602.097 127.8 605.228 120.386 611.489 115.113C617.915 109.841 625.494 106.216 634.226 104.239C642.959 102.097 652.845 100.614 663.884 99.7901C673.276 99.131 680.443 97.9777 685.386 96.33C690.494 94.6824 693.048 91.6342 693.048 87.1855C693.048 78.9473 690.247 72.4391 684.645 67.6609C679.043 62.8827 672.04 60.4936 663.637 60.4936C654.575 60.4936 647.078 63.0474 641.147 68.1552C635.38 73.0981 631.92 80.0183 630.766 88.9156H606.546C607.37 78.5354 610.335 69.638 615.443 62.2236C620.716 54.8092 627.553 49.2072 635.956 45.4176C644.524 41.4632 653.916 39.486 664.131 39.486C674.511 39.486 683.656 41.4632 691.565 45.4176C699.638 49.3719 705.899 55.1387 710.348 62.7179C714.797 70.2971 717.021 79.1944 717.021 89.4099V142.547H732.838V165.531H693.295V123.516C689.999 136.697 683.656 147.49 674.264 155.893C664.873 164.296 653.339 168.497 639.664 168.497ZM651.774 147.984C659.353 147.984 666.273 146.089 672.534 142.299C678.96 138.345 683.985 133.237 687.61 126.976C691.235 120.55 693.048 113.63 693.048 106.216L693.295 97.3186C691.153 99.2958 688.269 100.779 684.645 101.767C681.185 102.591 676.406 103.333 670.31 103.992C669.98 103.992 669.569 104.074 669.074 104.239C668.745 104.239 668.415 104.239 668.086 104.239C654.74 105.392 644.771 107.864 638.181 111.653C631.755 115.443 628.542 121.045 628.542 128.459C628.542 134.885 630.602 139.746 634.721 143.041C639.005 146.336 644.689 147.984 651.774 147.984Z" fill="#FDF9EE"/>
<path d="M777.557 165.531L726.397 41.9575H753.831L794.857 143.041H796.34L837.614 41.9575H864.552L813.146 165.531H777.557Z" fill="#FDF9EE"/>
<path d="M897.475 168.988V143.063H871.262V62.1211H897.475V35.9084H978.706V62.1211H1005.21V143.063H978.706V168.988H897.475ZM900.355 140.183H975.825V64.7135H900.355V140.183Z" fill="#FDF9EE"/>
<path d="M90.3375 356.139C80.9458 356.139 72.79 354.162 65.8698 350.208C59.1144 346.089 53.8419 340.569 50.0523 333.649C46.4275 326.564 44.6151 318.655 44.6151 309.923V183.136H68.3412V312.889C68.3412 319.314 70.3184 324.669 74.2728 328.953C78.3919 333.072 83.7469 335.132 90.3375 335.132H136.801V356.139H90.3375Z" fill="#FDF9EE"/>
<path d="M208.148 358.611C195.79 358.611 184.586 355.892 174.536 350.455C164.65 344.853 156.823 337.274 151.057 327.717C145.29 317.996 142.406 307.122 142.406 295.094C142.406 282.572 145.29 271.368 151.057 261.482C156.988 251.596 164.979 243.934 175.03 238.497C185.081 232.895 196.202 230.094 208.395 230.094C220.587 230.094 231.627 232.895 241.513 238.497C251.399 243.934 259.142 251.596 264.744 261.482C270.511 271.203 273.395 282.16 273.395 294.352C273.395 294.682 273.395 295.094 273.395 295.588C273.395 296.082 273.395 296.494 273.395 296.824H168.11C168.439 304.074 170.416 310.664 174.041 316.596C177.666 322.363 182.444 326.976 188.376 330.436C194.472 333.731 201.145 335.379 208.395 335.379C216.139 335.379 222.977 333.649 228.908 330.189C235.004 326.729 239.206 322.28 241.513 316.843H269.44C268.122 324.093 264.745 330.93 259.307 337.356C253.87 343.617 246.703 348.725 237.805 352.679C229.073 356.634 219.187 358.611 208.148 358.611ZM248.927 291.881C248.598 284.631 246.62 278.123 242.996 272.356C239.371 266.425 234.51 261.811 228.414 258.516C222.482 255.056 215.892 253.326 208.642 253.326C201.392 253.326 194.719 255.056 188.623 258.516C182.691 261.811 177.831 266.425 174.041 272.356C170.416 278.123 168.439 284.631 168.11 291.881H248.927Z" fill="#FDF9EE"/>
<path d="M292.753 356.139V232.566H318.704V356.139H292.753Z" fill="#FDF9EE"/>
<path d="M408.457 358.611C392.969 358.611 381.436 355.151 373.856 348.231C366.442 341.311 362.735 331.178 362.735 317.832V256.045H333.571V232.566H353.837C357.627 232.566 360.51 231.577 362.488 229.6C364.465 227.458 365.453 224.492 365.453 220.702V202.908H388.932L388.685 232.566H438.115V256.045H388.685V311.653C388.685 319.562 390.662 325.328 394.617 328.953C398.736 332.578 405.162 334.39 413.894 334.39C420.65 334.39 428.723 333.402 438.115 331.425V354.904C433.501 355.892 428.394 356.716 422.792 357.375C417.354 358.199 412.576 358.611 408.457 358.611Z" fill="#FDF9EE"/>
<path d="M570.475 341.841C564.599 346.803 556.895 350.72 547.362 353.593C537.83 356.335 527.448 357.706 516.218 357.706C503.682 357.706 493.04 356.074 484.291 352.81C475.542 349.414 468.947 344.779 464.507 338.902C460.067 333.026 457.847 326.236 457.847 318.531C457.847 310.697 460.067 303.971 464.507 298.356C469.078 292.611 474.954 288.497 482.136 286.016C476.39 283.405 471.885 279.487 468.621 274.264C465.356 268.91 463.724 262.772 463.724 255.852C463.724 248.669 465.748 242.206 469.796 236.46C473.975 230.714 480.242 226.144 488.6 222.749C496.957 219.223 507.143 217.46 519.156 217.46C527.644 217.46 535.871 218.374 543.836 220.202C551.933 222.031 558.919 224.642 564.795 228.037L559.115 243.707C547.362 237.439 534.304 234.305 519.94 234.305C508.057 234.305 498.981 236.46 492.713 240.769C486.445 244.948 483.311 250.432 483.311 257.223C483.311 264.013 485.727 269.236 490.559 272.893C495.39 276.549 502.311 278.377 511.321 278.377H546.579V295.222H510.538C500.222 295.222 492.126 297.051 486.249 300.707C480.373 304.363 477.435 309.848 477.435 317.16C477.435 324.604 480.765 330.415 487.425 334.593C494.084 338.772 504.009 340.861 517.198 340.861C526.338 340.861 535.022 339.621 543.249 337.14C551.606 334.528 558.462 331.002 563.816 326.562L570.475 341.841Z" fill="#FDF9EE"/>
<path d="M594.578 140.817V164.296L612.23 160.341C605.475 154.739 602.097 147.078 602.097 137.357L594.578 140.817Z" fill="#FDF9EE"/>
<path d="M305.348 175.988L310.597 181.749L318.023 179.384L319.688 186.997L327.301 188.662L324.936 196.088L330.697 201.336L324.936 206.585L327.301 214.011L319.688 215.676L318.023 223.289L310.597 220.924L305.348 226.685L300.1 220.924L292.674 223.289L291.009 215.676L283.396 214.011L285.761 206.585L280 201.336L285.761 196.088L283.396 188.662L291.009 186.997L292.674 179.384L300.1 181.749L305.348 175.988Z" fill="#A30000"/>
</svg>
