<svg width="1619" height="167" viewBox="0 0 1619 167" fill="none" xmlns="http://www.w3.org/2000/svg">
<path d="M891 94H982V167H891V94Z" fill="#A30000"/>
<path d="M1354.3 0L1360.86 7.20085L1370.14 4.24507L1372.22 13.7615L1381.74 15.8428L1378.79 25.1249L1385.99 31.6856L1378.79 38.2463L1381.74 47.5284L1372.22 49.6097L1370.14 59.1261L1360.86 56.1704L1354.3 63.3712L1347.74 56.1704L1338.46 59.1261L1336.38 49.6097L1326.86 47.5284L1329.82 38.2463L1322.61 31.6856L1329.82 25.1249L1326.86 15.8428L1336.38 13.7615L1338.46 4.24507L1347.74 7.20085L1354.3 0Z" fill="#A30000"/>
<path d="M134.696 250C125.798 250 117.972 248.352 111.216 245.057C104.626 241.762 99.5182 236.901 95.8933 230.475C92.4333 224.214 90.7032 216.717 90.7032 207.985C90.7032 205.843 90.7856 203.619 90.9504 201.312C91.1151 199.17 91.3623 196.946 91.6918 194.639C78.1811 195.133 65.8237 193.238 54.6196 188.955C43.4156 184.671 33.6945 178.574 25.4562 170.666C17.3827 162.757 11.1216 153.448 6.67299 142.738C2.22433 131.863 0 120.083 0 107.396C0 95.3679 2.05956 84.0815 6.17869 73.5365C10.2978 62.9915 16.2294 53.6823 23.9733 45.6088C31.7173 37.5353 41.0265 31.2742 51.901 26.8256C62.7755 22.2122 74.8858 19.9054 88.2317 19.9054C101.742 19.9054 113.935 22.1298 124.81 26.5784C135.684 30.8623 144.993 36.9586 152.737 44.8674C160.481 52.7761 166.413 61.9206 170.532 72.3008C174.651 82.5162 176.711 93.5555 176.711 105.419V204.278C176.711 213.01 175.063 220.837 171.768 227.757C168.637 234.677 163.941 240.114 157.68 244.068C151.419 248.023 143.758 250 134.696 250ZM132.718 223.555C137.167 223.555 140.627 221.908 143.099 218.612C145.735 215.317 147.053 210.786 147.053 205.019V153.612C141.616 157.402 137.002 161.356 133.213 165.475C129.588 169.43 126.704 173.549 124.562 177.833C122.421 182.117 120.855 186.565 119.867 191.179C118.878 195.627 118.384 200.159 118.384 204.772C118.384 208.726 119.043 212.104 120.361 214.905C121.679 217.706 123.409 219.848 125.551 221.331C127.858 222.814 130.247 223.555 132.718 223.555ZM88.2317 168.936C90.868 168.936 93.2571 168.853 95.399 168.688C97.541 168.359 99.8477 167.947 102.319 167.453C104.955 162.51 108.251 157.484 112.205 152.377C116.159 147.269 121.02 142.326 126.787 137.548C132.554 132.605 139.309 127.909 147.053 123.46V105.419C147.053 97.0155 145.57 89.1892 142.604 81.9395C139.803 74.6899 135.684 68.4288 130.247 63.1563C124.974 57.719 118.796 53.5175 111.711 50.5518C104.626 47.4212 96.7995 45.8559 88.2317 45.8559C79.8287 45.8559 72.0024 47.4212 64.7527 50.5518C57.6678 53.6823 51.4891 58.0486 46.2166 63.6506C40.9441 69.0878 36.825 75.5961 33.8592 83.1753C30.8935 90.5897 29.4106 98.6632 29.4106 107.396C29.4106 116.128 30.8935 124.284 33.8592 131.863C36.825 139.278 40.9441 145.786 46.2166 151.388C51.4891 156.825 57.6678 161.109 64.7527 164.24C72.0024 167.37 79.8287 168.936 88.2317 168.936Z" fill="#FFF2DC"/>
<path d="M246.806 198.346C236.92 198.346 228.27 196.039 220.855 191.426C213.606 186.648 208.004 179.892 204.049 171.16C200.095 162.427 198.118 152.212 198.118 140.514V72.3008H224.316L224.563 136.559C224.563 148.093 227.611 157.237 233.707 163.993C239.968 170.748 248.289 174.126 258.669 174.126C265.095 174.126 270.944 172.478 276.217 169.183C281.489 165.887 285.608 161.439 288.574 155.837C291.704 150.07 293.27 143.644 293.27 136.559V72.3008H319.22V195.875H293.27V155.342C290.469 168.359 284.867 178.821 276.464 186.73C268.225 194.474 258.34 198.346 246.806 198.346Z" fill="#FFF2DC"/>
<path d="M346.428 199.331V167.07H450.126V148.058H372.352V122.422H346.428V90.448H372.352V64.5234H482.1V96.7851H378.113V115.508H455.887V141.145H482.1V173.695H455.887V199.331H346.428Z" fill="#FFF2DC"/>
<path d="M565.039 198.346C549.551 198.346 538.017 194.886 530.438 187.966C523.024 181.046 519.316 170.913 519.316 157.567V95.7798H490.153V72.3008H510.419C514.209 72.3008 517.092 71.3122 519.069 69.335C521.046 67.193 522.035 64.2273 522.035 60.4377V42.643H545.514L545.267 72.3008H594.696V95.7798H545.267V151.388C545.267 159.297 547.244 165.064 551.198 168.688C555.318 172.313 561.743 174.126 570.476 174.126C577.231 174.126 585.305 173.137 594.696 171.16V194.639C590.083 195.627 584.975 196.451 579.373 197.11C573.936 197.934 569.158 198.346 565.039 198.346Z" fill="#FFF2DC"/>
<path d="M639.781 198.84C628.248 198.84 619.104 196.122 612.348 190.685C605.593 185.083 602.215 177.421 602.215 167.7C602.215 158.143 605.346 150.729 611.607 145.456C618.033 140.184 625.612 136.559 634.344 134.582C643.077 132.44 652.963 130.957 664.002 130.133C673.394 129.474 680.561 128.321 685.504 126.673C690.612 125.026 693.165 121.977 693.165 117.529C693.165 109.291 690.364 102.782 684.762 98.0041C679.16 93.2259 672.158 90.8368 663.755 90.8368C654.693 90.8368 647.196 93.3907 641.264 98.4984C635.498 103.441 632.038 110.362 630.884 119.259H606.664C607.488 108.879 610.453 99.9813 615.561 92.5669C620.833 85.1524 627.671 79.5504 636.074 75.7608C644.642 71.8065 654.034 69.8293 664.249 69.8293C674.629 69.8293 683.774 71.8065 691.683 75.7608C699.756 79.7152 706.017 85.482 710.466 93.0612C714.914 100.64 717.139 109.538 717.139 119.753V172.89H732.956V195.875H693.413V153.86C690.117 167.041 683.774 177.833 674.382 186.236C664.991 194.639 653.457 198.84 639.781 198.84ZM651.892 178.327C659.471 178.327 666.391 176.432 672.652 172.643C679.078 168.688 684.103 163.581 687.728 157.32C691.353 150.894 693.165 143.974 693.165 136.559L693.413 127.662C691.271 129.639 688.387 131.122 684.762 132.111C681.302 132.934 676.524 133.676 670.428 134.335C670.098 134.335 669.686 134.417 669.192 134.582C668.863 134.582 668.533 134.582 668.203 134.582C654.857 135.735 644.889 138.207 638.299 141.996C631.873 145.786 628.66 151.388 628.66 158.802C628.66 165.228 630.719 170.089 634.839 173.384C639.122 176.68 644.807 178.327 651.892 178.327Z" fill="#FFF2DC"/>
<path d="M777.674 195.875L726.515 72.3008H753.948L794.975 173.384H796.458L837.731 72.3008H864.67L813.264 195.875H777.674Z" fill="#FFF2DC"/>
<path d="M897.593 199.331V173.407H871.38V92.4643H897.593V66.2517H978.823V92.4643H1005.32V173.407H978.823V199.331H897.593ZM900.473 170.526H975.943V95.0568H900.473V170.526Z" fill="#FFF2DC"/>
<path d="M1138.68 195.875C1129.29 195.875 1121.13 193.897 1114.21 189.943C1107.46 185.824 1102.18 180.304 1098.39 173.384C1094.77 166.299 1092.96 158.391 1092.96 149.658V22.8712H1116.68V152.624C1116.68 159.05 1118.66 164.404 1122.61 168.688C1126.73 172.808 1132.09 174.867 1138.68 174.867H1185.14V195.875H1138.68Z" fill="#FFF2DC"/>
<path d="M1256.49 198.346C1244.13 198.346 1232.93 195.627 1222.88 190.19C1212.99 184.588 1205.17 177.009 1199.4 167.453C1193.63 157.732 1190.75 146.857 1190.75 134.829C1190.75 122.307 1193.63 111.103 1199.4 101.217C1205.33 91.3311 1213.32 83.6696 1223.37 78.2323C1233.42 72.6303 1244.54 69.8293 1256.74 69.8293C1268.93 69.8293 1279.97 72.6303 1289.85 78.2323C1299.74 83.6696 1307.48 91.3311 1313.09 101.217C1318.85 110.938 1321.74 121.895 1321.74 134.088C1321.74 134.417 1321.74 134.829 1321.74 135.323C1321.74 135.818 1321.74 136.23 1321.74 136.559H1216.45C1216.78 143.809 1218.76 150.399 1222.38 156.331C1226.01 162.098 1230.79 166.711 1236.72 170.171C1242.81 173.467 1249.49 175.114 1256.74 175.114C1264.48 175.114 1271.32 173.384 1277.25 169.924C1283.35 166.464 1287.55 162.015 1289.85 156.578H1317.78C1316.46 163.828 1313.09 170.666 1307.65 177.091C1302.21 183.352 1295.04 188.46 1286.15 192.415C1277.42 196.369 1267.53 198.346 1256.49 198.346ZM1297.27 131.616C1296.94 124.367 1294.96 117.858 1291.34 112.092C1287.71 106.16 1282.85 101.547 1276.76 98.2513C1270.82 94.7912 1264.23 93.0612 1256.98 93.0612C1249.73 93.0612 1243.06 94.7912 1236.97 98.2513C1231.03 101.547 1226.17 106.16 1222.38 112.092C1218.76 117.858 1216.78 124.367 1216.45 131.616H1297.27Z" fill="#FFF2DC"/>
<path d="M1341.1 195.875V72.3008H1367.05V195.875H1341.1Z" fill="#FFF2DC"/>
<path d="M1456.8 198.346C1441.31 198.346 1429.78 194.886 1422.2 187.966C1414.78 181.046 1411.08 170.913 1411.08 157.567V95.7798H1381.91V72.3008H1402.18C1405.97 72.3008 1408.85 71.3122 1410.83 69.335C1412.81 67.193 1413.8 64.2273 1413.8 60.4377V42.643H1437.27L1437.03 72.3008H1486.46V95.7798H1437.03V151.388C1437.03 159.297 1439 165.064 1442.96 168.688C1447.08 172.313 1453.5 174.126 1462.24 174.126C1468.99 174.126 1477.07 173.137 1486.46 171.16V194.639C1481.84 195.627 1476.74 196.451 1471.13 197.11C1465.7 197.934 1460.92 198.346 1456.8 198.346Z" fill="#FFF2DC"/>
<path d="M1618.82 181.576C1612.94 186.538 1605.24 190.455 1595.7 193.328C1586.17 196.071 1575.79 197.442 1564.56 197.442C1552.02 197.442 1541.38 195.809 1532.63 192.545C1523.88 189.15 1517.29 184.514 1512.85 178.638C1508.41 172.761 1506.19 165.971 1506.19 158.267C1506.19 150.432 1508.41 143.707 1512.85 138.092C1517.42 132.346 1523.3 128.233 1530.48 125.752C1524.73 123.14 1520.23 119.222 1516.96 113.999C1513.7 108.645 1512.07 102.508 1512.07 95.5868C1512.07 88.4047 1514.09 81.9409 1518.14 76.1952C1522.32 70.4496 1528.58 65.8792 1536.94 62.484C1545.3 58.9583 1555.48 57.1954 1567.5 57.1954C1575.99 57.1954 1584.21 58.1095 1592.18 59.9376C1600.27 61.7658 1607.26 64.3775 1613.14 67.7726L1607.46 83.4426C1595.7 77.1746 1582.65 74.0406 1568.28 74.0406C1556.4 74.0406 1547.32 76.1952 1541.06 80.5045C1534.79 84.6831 1531.65 90.1676 1531.65 96.9579C1531.65 103.748 1534.07 108.972 1538.9 112.628C1543.73 116.284 1550.65 118.112 1559.66 118.112H1594.92V134.958H1558.88C1548.56 134.958 1540.47 136.786 1534.59 140.442C1528.72 144.098 1525.78 149.583 1525.78 156.896C1525.78 164.339 1529.11 170.15 1535.77 174.328C1542.43 178.507 1552.35 180.596 1565.54 180.596C1574.68 180.596 1583.36 179.356 1591.59 176.875C1599.95 174.263 1606.8 170.737 1612.16 166.298L1618.82 181.576Z" fill="#FFF2DC"/>
</svg>
