<svg width="313" height="99" viewBox="0 0 313 99" fill="none" xmlns="http://www.w3.org/2000/svg">
<path d="M0.04 24.264V7.164H3.28V24.264H0.04ZM3.28 14.508L2.056 13.968C2.056 11.784 2.56 10.044 3.568 8.748C4.576 7.452 6.028 6.804 7.924 6.804C8.788 6.804 9.568 6.96 10.264 7.272C10.96 7.56 11.608 8.052 12.208 8.748L10.084 10.944C9.724 10.56 9.328 10.284 8.896 10.116C8.464 9.948 7.96 9.864 7.384 9.864C6.184 9.864 5.2 10.248 4.432 11.016C3.664 11.784 3.28 12.948 3.28 14.508Z" fill="#FFF2DC"/>
<path d="M20.7667 24.624C19.0627 24.624 17.5267 24.24 16.1587 23.472C14.7907 22.68 13.7107 21.612 12.9187 20.268C12.1267 18.924 11.7307 17.4 11.7307 15.696C11.7307 14.016 12.1147 12.504 12.8827 11.16C13.6747 9.816 14.7307 8.76 16.0507 7.992C17.3947 7.2 18.8947 6.804 20.5507 6.804C22.1347 6.804 23.5267 7.164 24.7267 7.884C25.9507 8.604 26.8987 9.6 27.5707 10.872C28.2667 12.144 28.6147 13.584 28.6147 15.192C28.6147 15.432 28.6027 15.696 28.5787 15.984C28.5547 16.248 28.5067 16.56 28.4347 16.92H13.9987V14.22H26.7067L25.5187 15.264C25.5187 14.112 25.3147 13.14 24.9067 12.348C24.4987 11.532 23.9227 10.908 23.1787 10.476C22.4347 10.02 21.5347 9.792 20.4787 9.792C19.3747 9.792 18.4027 10.032 17.5627 10.512C16.7227 10.992 16.0747 11.664 15.6187 12.528C15.1627 13.392 14.9347 14.412 14.9347 15.588C14.9347 16.788 15.1747 17.844 15.6547 18.756C16.1347 19.644 16.8187 20.34 17.7067 20.844C18.5947 21.324 19.6147 21.564 20.7667 21.564C21.7267 21.564 22.6027 21.396 23.3947 21.06C24.2107 20.724 24.9067 20.22 25.4827 19.548L27.5707 21.672C26.7547 22.632 25.7467 23.364 24.5467 23.868C23.3707 24.372 22.1107 24.624 20.7667 24.624Z" fill="#FFF2DC"/>
<path d="M38.8795 24.624C37.1995 24.624 35.6755 24.228 34.3075 23.436C32.9635 22.644 31.8955 21.576 31.1035 20.232C30.3355 18.864 29.9515 17.352 29.9515 15.696C29.9515 14.016 30.3355 12.504 31.1035 11.16C31.8955 9.816 32.9635 8.76 34.3075 7.992C35.6755 7.2 37.1995 6.804 38.8795 6.804C40.1995 6.804 41.4235 7.056 42.5515 7.56C43.6795 8.04 44.6515 8.748 45.4675 9.684L43.3075 11.844C42.7795 11.22 42.1315 10.752 41.3635 10.44C40.6195 10.104 39.7915 9.936 38.8795 9.936C37.7995 9.936 36.8395 10.188 35.9995 10.692C35.1595 11.172 34.4995 11.844 34.0195 12.708C33.5395 13.572 33.2995 14.568 33.2995 15.696C33.2995 16.824 33.5395 17.82 34.0195 18.684C34.4995 19.548 35.1595 20.232 35.9995 20.736C36.8395 21.24 37.7995 21.492 38.8795 21.492C39.7915 21.492 40.6195 21.336 41.3635 21.024C42.1315 20.688 42.7915 20.208 43.3435 19.584L45.4675 21.744C44.6755 22.656 43.7035 23.364 42.5515 23.868C41.4235 24.372 40.1995 24.624 38.8795 24.624Z" fill="#FFF2DC"/>
<path d="M55.1692 24.624C53.4652 24.624 51.9292 24.24 50.5612 23.472C49.1932 22.68 48.1132 21.612 47.3212 20.268C46.5292 18.924 46.1332 17.4 46.1332 15.696C46.1332 14.016 46.5172 12.504 47.2852 11.16C48.0772 9.816 49.1332 8.76 50.4532 7.992C51.7972 7.2 53.2972 6.804 54.9532 6.804C56.5372 6.804 57.9292 7.164 59.1292 7.884C60.3532 8.604 61.3012 9.6 61.9732 10.872C62.6692 12.144 63.0172 13.584 63.0172 15.192C63.0172 15.432 63.0052 15.696 62.9812 15.984C62.9572 16.248 62.9092 16.56 62.8372 16.92H48.4012V14.22H61.1092L59.9212 15.264C59.9212 14.112 59.7172 13.14 59.3092 12.348C58.9012 11.532 58.3252 10.908 57.5812 10.476C56.8372 10.02 55.9372 9.792 54.8812 9.792C53.7772 9.792 52.8052 10.032 51.9652 10.512C51.1252 10.992 50.4772 11.664 50.0212 12.528C49.5652 13.392 49.3372 14.412 49.3372 15.588C49.3372 16.788 49.5772 17.844 50.0572 18.756C50.5372 19.644 51.2212 20.34 52.1092 20.844C52.9972 21.324 54.0172 21.564 55.1692 21.564C56.1292 21.564 57.0052 21.396 57.7972 21.06C58.6132 20.724 59.3092 20.22 59.8852 19.548L61.9732 21.672C61.1572 22.632 60.1492 23.364 58.9492 23.868C57.7732 24.372 56.5132 24.624 55.1692 24.624Z" fill="#FFF2DC"/>
<path d="M77.566 24.264V14.292C77.566 12.996 77.158 11.928 76.342 11.088C75.526 10.248 74.47 9.828 73.174 9.828C72.31 9.828 71.542 10.02 70.87 10.404C70.198 10.788 69.67 11.316 69.286 11.988C68.902 12.66 68.71 13.428 68.71 14.292L67.378 13.536C67.378 12.24 67.666 11.088 68.242 10.08C68.818 9.072 69.622 8.28 70.654 7.704C71.686 7.104 72.85 6.804 74.146 6.804C75.442 6.804 76.582 7.128 77.566 7.776C78.574 8.424 79.366 9.276 79.942 10.332C80.518 11.364 80.806 12.468 80.806 13.644V24.264H77.566ZM65.47 24.264V7.164H68.71V24.264H65.47Z" fill="#FFF2DC"/>
<path d="M86.5297 24.264V0H89.7697V24.264H86.5297ZM82.3177 10.116V7.164H93.9817V10.116H82.3177Z" fill="#FFF2DC"/>
<path d="M124.664 55.264C124.664 64.6528 117.053 72.264 107.664 72.264C98.2752 72.264 90.664 64.6528 90.664 55.264C90.664 45.8752 98.2752 38.264 107.664 38.264C117.053 38.264 124.664 45.8752 124.664 55.264Z" fill="#A30000"/>
<path d="M24 79.224C20.544 79.224 17.408 78.52 14.592 77.112C11.84 75.64 9.632 73.624 7.968 71.064C6.304 68.504 5.376 65.592 5.184 62.328V48.6C5.376 45.272 6.304 42.36 7.968 39.864C9.696 37.304 11.936 35.32 14.688 33.912C17.504 32.44 20.608 31.704 24 31.704C28.16 31.704 31.904 32.76 35.232 34.872C38.624 36.984 41.28 39.832 43.2 43.416C45.12 47 46.08 51.032 46.08 55.512C46.08 59.992 45.12 64.024 43.2 67.608C41.28 71.192 38.624 74.04 35.232 76.152C31.904 78.2 28.16 79.224 24 79.224ZM0 97.368V32.664H8.64V44.664L7.008 55.704L8.64 66.84V97.368H0ZM22.56 71.064C25.44 71.064 27.968 70.392 30.144 69.048C32.32 67.704 34.048 65.88 35.328 63.576C36.608 61.208 37.248 58.488 37.248 55.416C37.248 52.408 36.608 49.72 35.328 47.352C34.048 44.984 32.32 43.16 30.144 41.88C27.968 40.536 25.472 39.864 22.656 39.864C19.776 39.864 17.248 40.536 15.072 41.88C12.896 43.16 11.2 44.984 9.984 47.352C8.768 49.72 8.16 52.44 8.16 55.512C8.16 58.52 8.736 61.208 9.888 63.576C11.104 65.88 12.8 67.704 14.976 69.048C17.216 70.392 19.744 71.064 22.56 71.064Z" fill="#FFF2DC"/>
<path d="M52.995 78.264V32.664H61.635V78.264H52.995ZM61.635 52.248L58.371 50.808C58.371 44.984 59.715 40.344 62.403 36.888C65.091 33.432 68.963 31.704 74.019 31.704C76.323 31.704 78.403 32.12 80.259 32.952C82.115 33.72 83.843 35.032 85.443 36.888L79.779 42.744C78.819 41.72 77.763 40.984 76.611 40.536C75.459 40.088 74.115 39.864 72.579 39.864C69.379 39.864 66.755 40.888 64.707 42.936C62.659 44.984 61.635 48.088 61.635 52.248Z" fill="#FFF2DC"/>
<path d="M107.978 79.224C103.498 79.224 99.4662 78.168 95.8822 76.056C92.2982 73.944 89.4502 71.096 87.3382 67.512C85.2262 63.864 84.1702 59.8 84.1702 55.32C84.1702 50.904 85.2262 46.936 87.3382 43.416C89.4502 39.832 92.2982 36.984 95.8822 34.872C99.4662 32.76 103.498 31.704 107.978 31.704C112.394 31.704 116.394 32.76 119.978 34.872C123.626 36.92 126.506 39.736 128.618 43.32C130.73 46.904 131.786 50.904 131.786 55.32C131.786 59.8 130.73 63.864 128.618 67.512C126.506 71.096 123.626 73.944 119.978 76.056C116.394 78.168 112.394 79.224 107.978 79.224ZM107.978 70.872C110.858 70.872 113.418 70.2 115.658 68.856C117.898 67.512 119.658 65.688 120.938 63.384C122.218 61.016 122.858 58.328 122.858 55.32C122.858 52.376 122.186 49.752 120.842 47.448C119.562 45.144 117.802 43.352 115.562 42.072C113.386 40.728 110.858 40.056 107.978 40.056C105.098 40.056 102.538 40.728 100.298 42.072C98.0582 43.352 96.2983 45.144 95.0182 47.448C93.7382 49.752 93.0983 52.376 93.0983 55.32C93.0983 58.328 93.7382 61.016 95.0182 63.384C96.2983 65.688 98.0582 67.512 100.298 68.856C102.538 70.2 105.098 70.872 107.978 70.872Z" fill="#FFF2DC"/>
<path d="M132.881 98.328C129.937 98.328 127.473 97.848 125.489 96.888C123.441 95.928 121.617 94.552 120.017 92.76L125.585 87.096C126.481 88.184 127.473 88.984 128.561 89.496C129.585 90.008 130.833 90.264 132.305 90.264C134.225 90.264 135.889 89.656 137.297 88.44C138.705 87.288 139.409 85.528 139.409 83.16V32.664H148.049V83.064C148.049 86.392 147.345 89.176 145.937 91.416C144.529 93.656 142.673 95.352 140.369 96.504C138.065 97.72 135.569 98.328 132.881 98.328ZM143.825 23.544C142.289 23.544 141.009 23.032 139.985 22.008C138.961 20.92 138.449 19.576 138.449 17.976C138.449 16.44 138.961 15.16 139.985 14.136C141.009 13.048 142.289 12.504 143.825 12.504C145.425 12.504 146.737 13.048 147.761 14.136C148.785 15.16 149.297 16.44 149.297 17.976C149.297 19.576 148.785 20.92 147.761 22.008C146.737 23.032 145.425 23.544 143.825 23.544Z" fill="#FFF2DC"/>
<path d="M179.006 79.224C174.462 79.224 170.366 78.2 166.718 76.152C163.07 74.04 160.19 71.192 158.078 67.608C155.966 64.024 154.91 59.96 154.91 55.416C154.91 50.936 155.934 46.904 157.982 43.32C160.094 39.736 162.91 36.92 166.43 34.872C170.014 32.76 174.014 31.704 178.43 31.704C182.654 31.704 186.366 32.664 189.566 34.584C192.83 36.504 195.358 39.16 197.15 42.552C199.006 45.944 199.934 49.784 199.934 54.072C199.934 54.712 199.902 55.416 199.838 56.184C199.774 56.888 199.646 57.72 199.454 58.68H160.958V51.48H194.846L191.678 54.264C191.678 51.192 191.134 48.6 190.046 46.488C188.958 44.312 187.422 42.648 185.438 41.496C183.454 40.28 181.054 39.672 178.238 39.672C175.294 39.672 172.702 40.312 170.462 41.592C168.222 42.872 166.494 44.664 165.278 46.968C164.062 49.272 163.454 51.992 163.454 55.128C163.454 58.328 164.094 61.144 165.374 63.576C166.654 65.944 168.478 67.8 170.846 69.144C173.214 70.424 175.934 71.064 179.006 71.064C181.566 71.064 183.902 70.616 186.014 69.72C188.19 68.824 190.046 67.48 191.582 65.688L197.15 71.352C194.974 73.912 192.286 75.864 189.086 77.208C185.95 78.552 182.59 79.224 179.006 79.224Z" fill="#FFF2DC"/>
<path d="M227.307 79.224C222.827 79.224 218.763 78.168 215.115 76.056C211.531 73.944 208.683 71.096 206.571 67.512C204.523 63.864 203.499 59.832 203.499 55.416C203.499 50.936 204.523 46.904 206.571 43.32C208.683 39.736 211.531 36.92 215.115 34.872C218.763 32.76 222.827 31.704 227.307 31.704C230.827 31.704 234.091 32.376 237.099 33.72C240.107 35 242.699 36.888 244.875 39.384L239.115 45.144C237.707 43.48 235.979 42.232 233.931 41.4C231.947 40.504 229.739 40.056 227.307 40.056C224.427 40.056 221.867 40.728 219.627 42.072C217.387 43.352 215.627 45.144 214.347 47.448C213.067 49.752 212.427 52.408 212.427 55.416C212.427 58.424 213.067 61.08 214.347 63.384C215.627 65.688 217.387 67.512 219.627 68.856C221.867 70.2 224.427 70.872 227.307 70.872C229.739 70.872 231.947 70.456 233.931 69.624C235.979 68.728 237.739 67.448 239.211 65.784L244.875 71.544C242.763 73.976 240.171 75.864 237.099 77.208C234.091 78.552 230.827 79.224 227.307 79.224Z" fill="#FFF2DC"/>
<path d="M257.009 78.264V13.56H265.649V78.264H257.009ZM245.777 40.536V32.664H276.881V40.536H245.777Z" fill="#FFF2DC"/>
<path d="M296.023 79.224C293.463 79.224 291.032 78.904 288.728 78.264C286.488 77.56 284.407 76.6 282.487 75.384C280.567 74.104 278.903 72.6 277.495 70.872L283.064 65.304C284.728 67.352 286.647 68.888 288.823 69.912C290.999 70.872 293.432 71.352 296.12 71.352C298.808 71.352 300.887 70.904 302.359 70.008C303.831 69.048 304.568 67.736 304.568 66.072C304.568 64.408 303.96 63.128 302.743 62.232C301.592 61.272 300.088 60.504 298.232 59.928C296.376 59.288 294.392 58.68 292.28 58.104C290.232 57.464 288.279 56.664 286.423 55.704C284.567 54.744 283.031 53.432 281.815 51.768C280.663 50.104 280.087 47.896 280.087 45.144C280.087 42.392 280.759 40.024 282.103 38.04C283.447 35.992 285.304 34.424 287.672 33.336C290.104 32.248 293.016 31.704 296.408 31.704C299.992 31.704 303.159 32.344 305.911 33.624C308.727 34.84 311.031 36.696 312.823 39.192L307.255 44.76C305.975 43.096 304.376 41.816 302.456 40.92C300.6 40.024 298.488 39.576 296.12 39.576C293.624 39.576 291.703 40.024 290.359 40.92C289.079 41.752 288.439 42.936 288.439 44.472C288.439 46.008 289.016 47.192 290.168 48.024C291.32 48.856 292.824 49.56 294.68 50.136C296.6 50.712 298.583 51.32 300.632 51.96C302.68 52.536 304.631 53.336 306.487 54.36C308.343 55.384 309.848 56.76 311 58.488C312.216 60.216 312.823 62.488 312.823 65.304C312.823 69.592 311.287 72.984 308.215 75.48C305.207 77.976 301.143 79.224 296.023 79.224Z" fill="#FFF2DC"/>
</svg>
