<svg width="320" height="100" viewBox="0 0 320 100" fill="none" xmlns="http://www.w3.org/2000/svg">
<path d="M274 56C274 65.3889 266.389 73 257 73C247.611 73 240 65.3889 240 56C240 46.6112 247.611 39 257 39C266.389 39 274 46.6112 274 56Z" fill="#A30000"/>
<path d="M24.336 79.96C20.88 79.96 17.744 79.256 14.928 77.848C12.176 76.376 9.968 74.36 8.304 71.8C6.64 69.24 5.712 66.328 5.52 63.064V49.336C5.712 46.008 6.64 43.096 8.304 40.6C10.032 38.04 12.272 36.056 15.024 34.648C17.84 33.176 20.944 32.44 24.336 32.44C28.496 32.44 32.24 33.496 35.568 35.608C38.96 37.72 41.616 40.568 43.536 44.152C45.456 47.736 46.416 51.768 46.416 56.248C46.416 60.728 45.456 64.76 43.536 68.344C41.616 71.928 38.96 74.776 35.568 76.888C32.24 78.936 28.496 79.96 24.336 79.96ZM0.335999 98.104V33.4H8.976V45.4L7.344 56.44L8.976 67.576V98.104H0.335999ZM22.896 71.8C25.776 71.8 28.304 71.128 30.48 69.784C32.656 68.44 34.384 66.616 35.664 64.312C36.944 61.944 37.584 59.224 37.584 56.152C37.584 53.144 36.944 50.456 35.664 48.088C34.384 45.72 32.656 43.896 30.48 42.616C28.304 41.272 25.808 40.6 22.992 40.6C20.112 40.6 17.584 41.272 15.408 42.616C13.232 43.896 11.536 45.72 10.32 48.088C9.104 50.456 8.496 53.176 8.496 56.248C8.496 59.256 9.072 61.944 10.224 64.312C11.44 66.616 13.136 68.44 15.312 69.784C17.552 71.128 20.08 71.8 22.896 71.8Z" fill="#FFF2DC"/>
<path d="M53.331 79V33.4H61.971V79H53.331ZM61.971 52.984L58.707 51.544C58.707 45.72 60.051 41.08 62.739 37.624C65.427 34.168 69.299 32.44 74.355 32.44C76.659 32.44 78.739 32.856 80.595 33.688C82.451 34.456 84.179 35.768 85.779 37.624L80.115 43.48C79.155 42.456 78.099 41.72 76.947 41.272C75.795 40.824 74.451 40.6 72.915 40.6C69.715 40.6 67.091 41.624 65.043 43.672C62.995 45.72 61.971 48.824 61.971 52.984Z" fill="#FFF2DC"/>
<path d="M108.314 79.96C103.834 79.96 99.8022 78.904 96.2182 76.792C92.6342 74.68 89.7862 71.832 87.6742 68.248C85.5622 64.6 84.5062 60.536 84.5062 56.056C84.5062 51.64 85.5622 47.672 87.6742 44.152C89.7862 40.568 92.6342 37.72 96.2182 35.608C99.8022 33.496 103.834 32.44 108.314 32.44C112.73 32.44 116.73 33.496 120.314 35.608C123.962 37.656 126.842 40.472 128.954 44.056C131.066 47.64 132.122 51.64 132.122 56.056C132.122 60.536 131.066 64.6 128.954 68.248C126.842 71.832 123.962 74.68 120.314 76.792C116.73 78.904 112.73 79.96 108.314 79.96ZM108.314 71.608C111.194 71.608 113.754 70.936 115.994 69.592C118.234 68.248 119.994 66.424 121.274 64.12C122.554 61.752 123.194 59.064 123.194 56.056C123.194 53.112 122.522 50.488 121.178 48.184C119.898 45.88 118.138 44.088 115.898 42.808C113.722 41.464 111.194 40.792 108.314 40.792C105.434 40.792 102.874 41.464 100.634 42.808C98.3942 44.088 96.6342 45.88 95.3542 48.184C94.0742 50.488 93.4342 53.112 93.4342 56.056C93.4342 59.064 94.0742 61.752 95.3542 64.12C96.6342 66.424 98.3942 68.248 100.634 69.592C102.874 70.936 105.434 71.608 108.314 71.608Z" fill="#FFF2DC"/>
<path d="M133.217 99.064C130.273 99.064 127.809 98.584 125.825 97.624C123.777 96.664 121.953 95.288 120.353 93.496L125.921 87.832C126.817 88.92 127.809 89.72 128.897 90.232C129.921 90.744 131.169 91 132.641 91C134.561 91 136.225 90.392 137.633 89.176C139.041 88.024 139.745 86.264 139.745 83.896V33.4H148.385V83.8C148.385 87.128 147.681 89.912 146.273 92.152C144.865 94.392 143.009 96.088 140.705 97.24C138.401 98.456 135.905 99.064 133.217 99.064ZM144.161 24.28C142.625 24.28 141.345 23.768 140.321 22.744C139.297 21.656 138.785 20.312 138.785 18.712C138.785 17.176 139.297 15.896 140.321 14.872C141.345 13.784 142.625 13.24 144.161 13.24C145.761 13.24 147.073 13.784 148.097 14.872C149.121 15.896 149.633 17.176 149.633 18.712C149.633 20.312 149.121 21.656 148.097 22.744C147.073 23.768 145.761 24.28 144.161 24.28Z" fill="#FFF2DC"/>
<path d="M179.342 79.96C174.798 79.96 170.702 78.936 167.054 76.888C163.406 74.776 160.526 71.928 158.414 68.344C156.302 64.76 155.246 60.696 155.246 56.152C155.246 51.672 156.27 47.64 158.318 44.056C160.43 40.472 163.246 37.656 166.766 35.608C170.35 33.496 174.35 32.44 178.766 32.44C182.99 32.44 186.702 33.4 189.902 35.32C193.166 37.24 195.694 39.896 197.486 43.288C199.342 46.68 200.27 50.52 200.27 54.808C200.27 55.448 200.238 56.152 200.174 56.92C200.11 57.624 199.982 58.456 199.79 59.416H161.294V52.216H195.182L192.014 55C192.014 51.928 191.47 49.336 190.382 47.224C189.294 45.048 187.758 43.384 185.774 42.232C183.79 41.016 181.39 40.408 178.574 40.408C175.63 40.408 173.038 41.048 170.798 42.328C168.558 43.608 166.83 45.4 165.614 47.704C164.398 50.008 163.79 52.728 163.79 55.864C163.79 59.064 164.43 61.88 165.71 64.312C166.99 66.68 168.814 68.536 171.182 69.88C173.55 71.16 176.27 71.8 179.342 71.8C181.902 71.8 184.238 71.352 186.35 70.456C188.526 69.56 190.382 68.216 191.918 66.424L197.486 72.088C195.31 74.648 192.622 76.6 189.422 77.944C186.286 79.288 182.926 79.96 179.342 79.96Z" fill="#FFF2DC"/>
<path d="M212.413 79V14.296H221.053V79H212.413ZM201.181 41.272V33.4H232.285V41.272H201.181Z" fill="#FFF2DC"/>
<path d="M257.294 79.96C252.814 79.96 248.782 78.904 245.198 76.792C241.614 74.68 238.766 71.832 236.654 68.248C234.542 64.6 233.486 60.536 233.486 56.056C233.486 51.64 234.542 47.672 236.654 44.152C238.766 40.568 241.614 37.72 245.198 35.608C248.782 33.496 252.814 32.44 257.294 32.44C261.71 32.44 265.71 33.496 269.294 35.608C272.942 37.656 275.822 40.472 277.934 44.056C280.046 47.64 281.102 51.64 281.102 56.056C281.102 60.536 280.046 64.6 277.934 68.248C275.822 71.832 272.942 74.68 269.294 76.792C265.71 78.904 261.71 79.96 257.294 79.96ZM257.294 71.608C260.174 71.608 262.734 70.936 264.974 69.592C267.214 68.248 268.974 66.424 270.254 64.12C271.534 61.752 272.174 59.064 272.174 56.056C272.174 53.112 271.502 50.488 270.158 48.184C268.878 45.88 267.118 44.088 264.878 42.808C262.702 41.464 260.174 40.792 257.294 40.792C254.414 40.792 251.854 41.464 249.614 42.808C247.374 44.088 245.614 45.88 244.334 48.184C243.054 50.488 242.414 53.112 242.414 56.056C242.414 59.064 243.054 61.752 244.334 64.12C245.614 66.424 247.374 68.248 249.614 69.592C251.854 70.936 254.414 71.608 257.294 71.608Z" fill="#FFF2DC"/>
<path d="M302.453 79.96C299.893 79.96 297.461 79.64 295.157 79C292.917 78.296 290.837 77.336 288.917 76.12C286.997 74.84 285.333 73.336 283.925 71.608L289.493 66.04C291.157 68.088 293.077 69.624 295.253 70.648C297.429 71.608 299.861 72.088 302.549 72.088C305.237 72.088 307.317 71.64 308.789 70.744C310.261 69.784 310.997 68.472 310.997 66.808C310.997 65.144 310.389 63.864 309.173 62.968C308.021 62.008 306.517 61.24 304.661 60.664C302.805 60.024 300.821 59.416 298.709 58.84C296.661 58.2 294.709 57.4 292.853 56.44C290.997 55.48 289.461 54.168 288.245 52.504C287.093 50.84 286.517 48.632 286.517 45.88C286.517 43.128 287.189 40.76 288.533 38.776C289.877 36.728 291.733 35.16 294.101 34.072C296.533 32.984 299.445 32.44 302.837 32.44C306.421 32.44 309.589 33.08 312.341 34.36C315.157 35.576 317.461 37.432 319.253 39.928L313.685 45.496C312.405 43.832 310.805 42.552 308.885 41.656C307.029 40.76 304.917 40.312 302.549 40.312C300.053 40.312 298.133 40.76 296.789 41.656C295.509 42.488 294.869 43.672 294.869 45.208C294.869 46.744 295.445 47.928 296.597 48.76C297.749 49.592 299.253 50.296 301.109 50.872C303.029 51.448 305.013 52.056 307.061 52.696C309.109 53.272 311.061 54.072 312.917 55.096C314.773 56.12 316.277 57.496 317.429 59.224C318.645 60.952 319.253 63.224 319.253 66.04C319.253 70.328 317.717 73.72 314.645 76.216C311.637 78.712 307.573 79.96 302.453 79.96Z" fill="#FFF2DC"/>
<path d="M0.375999 25V7.90002H3.616V25H0.375999ZM3.616 15.244L2.392 14.704C2.392 12.52 2.896 10.78 3.904 9.48402C4.912 8.18802 6.364 7.54002 8.26 7.54002C9.124 7.54002 9.904 7.69602 10.6 8.00802C11.296 8.29602 11.944 8.78802 12.544 9.48402L10.42 11.68C10.06 11.296 9.664 11.02 9.232 10.852C8.8 10.684 8.296 10.6 7.72 10.6C6.52 10.6 5.536 10.984 4.768 11.752C4 12.52 3.616 13.684 3.616 15.244Z" fill="#FFF2DC"/>
<path d="M21.1027 25.36C19.3987 25.36 17.8627 24.976 16.4947 24.208C15.1267 23.416 14.0467 22.348 13.2547 21.004C12.4627 19.66 12.0667 18.136 12.0667 16.432C12.0667 14.752 12.4507 13.24 13.2187 11.896C14.0107 10.552 15.0667 9.49602 16.3867 8.72802C17.7307 7.93602 19.2307 7.54002 20.8867 7.54002C22.4707 7.54002 23.8627 7.90002 25.0627 8.62002C26.2867 9.34002 27.2347 10.336 27.9067 11.608C28.6027 12.88 28.9507 14.32 28.9507 15.928C28.9507 16.168 28.9387 16.432 28.9147 16.72C28.8907 16.984 28.8427 17.296 28.7707 17.656H14.3347V14.956H27.0427L25.8547 16C25.8547 14.848 25.6507 13.876 25.2427 13.084C24.8347 12.268 24.2587 11.644 23.5147 11.212C22.7707 10.756 21.8707 10.528 20.8147 10.528C19.7107 10.528 18.7387 10.768 17.8987 11.248C17.0587 11.728 16.4107 12.4 15.9547 13.264C15.4987 14.128 15.2707 15.148 15.2707 16.324C15.2707 17.524 15.5107 18.58 15.9907 19.492C16.4707 20.38 17.1547 21.076 18.0427 21.58C18.9307 22.06 19.9507 22.3 21.1027 22.3C22.0627 22.3 22.9387 22.132 23.7307 21.796C24.5467 21.46 25.2427 20.956 25.8187 20.284L27.9067 22.408C27.0907 23.368 26.0827 24.1 24.8827 24.604C23.7067 25.108 22.4467 25.36 21.1027 25.36Z" fill="#FFF2DC"/>
<path d="M39.2155 25.36C37.5355 25.36 36.0115 24.964 34.6435 24.172C33.2995 23.38 32.2315 22.312 31.4395 20.968C30.6715 19.6 30.2875 18.088 30.2875 16.432C30.2875 14.752 30.6715 13.24 31.4395 11.896C32.2315 10.552 33.2995 9.49602 34.6435 8.72802C36.0115 7.93602 37.5355 7.54002 39.2155 7.54002C40.5355 7.54002 41.7595 7.79202 42.8875 8.29602C44.0155 8.77602 44.9875 9.48402 45.8035 10.42L43.6435 12.58C43.1155 11.956 42.4675 11.488 41.6995 11.176C40.9555 10.84 40.1275 10.672 39.2155 10.672C38.1355 10.672 37.1755 10.924 36.3355 11.428C35.4955 11.908 34.8355 12.58 34.3555 13.444C33.8755 14.308 33.6355 15.304 33.6355 16.432C33.6355 17.56 33.8755 18.556 34.3555 19.42C34.8355 20.284 35.4955 20.968 36.3355 21.472C37.1755 21.976 38.1355 22.228 39.2155 22.228C40.1275 22.228 40.9555 22.072 41.6995 21.76C42.4675 21.424 43.1275 20.944 43.6795 20.32L45.8035 22.48C45.0115 23.392 44.0395 24.1 42.8875 24.604C41.7595 25.108 40.5355 25.36 39.2155 25.36Z" fill="#FFF2DC"/>
<path d="M55.5052 25.36C53.8012 25.36 52.2652 24.976 50.8972 24.208C49.5292 23.416 48.4492 22.348 47.6572 21.004C46.8652 19.66 46.4692 18.136 46.4692 16.432C46.4692 14.752 46.8532 13.24 47.6212 11.896C48.4132 10.552 49.4692 9.49602 50.7892 8.72802C52.1332 7.93602 53.6332 7.54002 55.2892 7.54002C56.8732 7.54002 58.2652 7.90002 59.4652 8.62002C60.6892 9.34002 61.6372 10.336 62.3092 11.608C63.0052 12.88 63.3532 14.32 63.3532 15.928C63.3532 16.168 63.3412 16.432 63.3172 16.72C63.2932 16.984 63.2452 17.296 63.1732 17.656H48.7372V14.956H61.4452L60.2572 16C60.2572 14.848 60.0532 13.876 59.6452 13.084C59.2372 12.268 58.6612 11.644 57.9172 11.212C57.1732 10.756 56.2732 10.528 55.2172 10.528C54.1132 10.528 53.1412 10.768 52.3012 11.248C51.4612 11.728 50.8132 12.4 50.3572 13.264C49.9012 14.128 49.6732 15.148 49.6732 16.324C49.6732 17.524 49.9132 18.58 50.3932 19.492C50.8732 20.38 51.5572 21.076 52.4452 21.58C53.3332 22.06 54.3532 22.3 55.5052 22.3C56.4652 22.3 57.3412 22.132 58.1332 21.796C58.9492 21.46 59.6452 20.956 60.2212 20.284L62.3092 22.408C61.4932 23.368 60.4852 24.1 59.2852 24.604C58.1092 25.108 56.8492 25.36 55.5052 25.36Z" fill="#FFF2DC"/>
<path d="M77.902 25V15.028C77.902 13.732 77.494 12.664 76.678 11.824C75.862 10.984 74.806 10.564 73.51 10.564C72.646 10.564 71.878 10.756 71.206 11.14C70.534 11.524 70.006 12.052 69.622 12.724C69.238 13.396 69.046 14.164 69.046 15.028L67.714 14.272C67.714 12.976 68.002 11.824 68.578 10.816C69.154 9.80802 69.958 9.01602 70.99 8.44002C72.022 7.84002 73.186 7.54002 74.482 7.54002C75.778 7.54002 76.918 7.86402 77.902 8.51202C78.91 9.16002 79.702 10.012 80.278 11.068C80.854 12.1 81.142 13.204 81.142 14.38V25H77.902ZM65.806 25V7.90002H69.046V25H65.806Z" fill="#FFF2DC"/>
<path d="M86.8657 25V0.736023H90.1057V25H86.8657ZM82.6537 10.852V7.90002H94.3177V10.852H82.6537Z" fill="#FFF2DC"/>
<path d="M103.804 25.36C102.1 25.36 100.564 24.976 99.1963 24.208C97.8283 23.416 96.7483 22.348 95.9563 21.004C95.1643 19.66 94.7683 18.136 94.7683 16.432C94.7683 14.752 95.1523 13.24 95.9203 11.896C96.7123 10.552 97.7683 9.49602 99.0883 8.72802C100.432 7.93602 101.932 7.54002 103.588 7.54002C105.172 7.54002 106.564 7.90002 107.764 8.62002C108.988 9.34002 109.936 10.336 110.608 11.608C111.304 12.88 111.652 14.32 111.652 15.928C111.652 16.168 111.64 16.432 111.616 16.72C111.592 16.984 111.544 17.296 111.472 17.656H97.0363V14.956H109.744L108.556 16C108.556 14.848 108.352 13.876 107.944 13.084C107.536 12.268 106.96 11.644 106.216 11.212C105.472 10.756 104.572 10.528 103.516 10.528C102.412 10.528 101.44 10.768 100.6 11.248C99.7603 11.728 99.1123 12.4 98.6563 13.264C98.2003 14.128 97.9723 15.148 97.9723 16.324C97.9723 17.524 98.2123 18.58 98.6923 19.492C99.1723 20.38 99.8563 21.076 100.744 21.58C101.632 22.06 102.652 22.3 103.804 22.3C104.764 22.3 105.64 22.132 106.432 21.796C107.248 21.46 107.944 20.956 108.52 20.284L110.608 22.408C109.792 23.368 108.784 24.1 107.584 24.604C106.408 25.108 105.148 25.36 103.804 25.36Z" fill="#FFF2DC"/>
<path d="M119.541 25.36C118.581 25.36 117.669 25.24 116.805 25C115.965 24.736 115.185 24.376 114.465 23.92C113.745 23.44 113.121 22.876 112.593 22.228L114.681 20.14C115.305 20.908 116.025 21.484 116.841 21.868C117.657 22.228 118.569 22.408 119.577 22.408C120.585 22.408 121.365 22.24 121.917 21.904C122.469 21.544 122.745 21.052 122.745 20.428C122.745 19.804 122.517 19.324 122.061 18.988C121.629 18.628 121.065 18.34 120.369 18.124C119.673 17.884 118.929 17.656 118.137 17.44C117.369 17.2 116.637 16.9 115.941 16.54C115.245 16.18 114.669 15.688 114.213 15.064C113.781 14.44 113.565 13.612 113.565 12.58C113.565 11.548 113.817 10.66 114.321 9.91602C114.825 9.14802 115.521 8.56002 116.409 8.15202C117.321 7.74402 118.413 7.54002 119.685 7.54002C121.029 7.54002 122.217 7.78002 123.249 8.26002C124.305 8.71602 125.169 9.41202 125.841 10.348L123.753 12.436C123.273 11.812 122.673 11.332 121.953 10.996C121.257 10.66 120.465 10.492 119.577 10.492C118.641 10.492 117.921 10.66 117.417 10.996C116.937 11.308 116.697 11.752 116.697 12.328C116.697 12.904 116.913 13.348 117.345 13.66C117.777 13.972 118.341 14.236 119.037 14.452C119.757 14.668 120.501 14.896 121.269 15.136C122.037 15.352 122.769 15.652 123.465 16.036C124.161 16.42 124.725 16.936 125.157 17.584C125.613 18.232 125.841 19.084 125.841 20.14C125.841 21.748 125.265 23.02 124.113 23.956C122.985 24.892 121.461 25.36 119.541 25.36Z" fill="#FFF2DC"/>
</svg>
