<svg width="286" height="90" viewBox="0 0 286 90" fill="none" xmlns="http://www.w3.org/2000/svg">
<path d="M247 50C247 58.8366 239.389 66 230 66C220.611 66 213 58.8366 213 50C213 41.1634 220.611 34 230 34C239.389 34 247 41.1634 247 50Z" fill="#A30000"/>
<path d="M22.4383 71.5302C19.2072 71.5302 16.2753 70.8643 13.6425 69.5325C11.0696 68.1402 9.00525 66.2333 7.44953 63.8119C5.8938 61.3905 5.02619 58.6361 4.84668 55.5488V42.564C5.02619 39.4161 5.8938 36.6618 7.44953 34.3009C9.06509 31.8795 11.1593 30.0029 13.7323 28.6711C16.365 27.2788 19.2671 26.5826 22.4383 26.5826C26.3276 26.5826 29.828 27.5815 32.9395 29.5791C36.1108 31.5768 38.5939 34.2706 40.389 37.6606C42.1841 41.0506 43.0816 44.8643 43.0816 49.1018C43.0816 53.3393 42.1841 57.153 40.389 60.543C38.5939 63.933 36.1108 66.6268 32.9395 68.6245C29.828 70.5616 26.3276 71.5302 22.4383 71.5302ZM0 88.692V27.4906H8.0778V38.841L6.55199 49.2834L8.0778 59.8166V88.692H0ZM21.092 63.8119C23.7846 63.8119 26.1481 63.1763 28.1825 61.905C30.217 60.6338 31.8325 58.9085 33.0292 56.7293C34.2259 54.4894 34.8243 51.9167 34.8243 49.011C34.8243 46.1658 34.2259 43.6233 33.0292 41.3835C31.8325 39.1437 30.217 37.4185 28.1825 36.2078C26.1481 34.9365 23.8146 34.3009 21.1818 34.3009C18.4892 34.3009 16.1257 34.9365 14.0913 36.2078C12.0569 37.4185 10.4712 39.1437 9.33435 41.3835C8.19747 43.6233 7.62903 46.1961 7.62903 49.1018C7.62903 51.947 8.16755 54.4894 9.2446 56.7293C10.3815 58.9085 11.9671 60.6338 14.0015 61.905C16.0958 63.1763 18.4593 63.8119 21.092 63.8119Z" fill="#FFF2DC"/>
<path d="M47.7516 70.6221V27.4906H55.8294V70.6221H47.7516ZM55.8294 46.0145L52.7778 44.6524C52.7778 39.1437 54.0343 34.7549 56.5474 31.486C59.0605 28.2171 62.6805 26.5826 67.4076 26.5826C69.5616 26.5826 71.5063 26.9761 73.2415 27.7631C74.9768 28.4895 76.5923 29.7305 78.0882 31.486L72.7928 37.025C71.8952 36.0564 70.9079 35.3603 69.8309 34.9365C68.7539 34.5128 67.4973 34.3009 66.0613 34.3009C63.0695 34.3009 60.6162 35.2695 58.7015 37.2066C56.7867 39.1437 55.8294 42.0797 55.8294 46.0145Z" fill="#FFF2DC"/>
<path d="M97.362 71.5302C93.1735 71.5302 89.4039 70.5313 86.0531 68.5337C82.7023 66.536 80.0396 63.8422 78.0651 60.4522C76.0905 57.0017 75.1032 53.1577 75.1032 48.9202C75.1032 44.7432 76.0905 40.9901 78.0651 37.6606C80.0396 34.2706 82.7023 31.5768 86.0531 29.5791C89.4039 27.5815 93.1735 26.5826 97.362 26.5826C101.491 26.5826 105.23 27.5815 108.581 29.5791C111.992 31.5163 114.684 34.1798 116.659 37.5698C118.634 40.9598 119.621 44.7432 119.621 48.9202C119.621 53.1577 118.634 57.0017 116.659 60.4522C114.684 63.8422 111.992 66.536 108.581 68.5337C105.23 70.5313 101.491 71.5302 97.362 71.5302ZM97.362 63.6303C100.055 63.6303 102.448 62.9947 104.542 61.7234C106.637 60.4522 108.282 58.7269 109.479 56.5477C110.675 54.3078 111.274 51.7654 111.274 48.9202C111.274 46.1356 110.646 43.6536 109.389 41.4743C108.192 39.2951 106.547 37.6001 104.453 36.3894C102.418 35.1181 100.055 34.4825 97.362 34.4825C94.6694 34.4825 92.276 35.1181 90.1818 36.3894C88.0875 37.6001 86.442 39.2951 85.2453 41.4743C84.0486 43.6536 83.4503 46.1356 83.4503 48.9202C83.4503 51.7654 84.0486 54.3078 85.2453 56.5477C86.442 58.7269 88.0875 60.4522 90.1818 61.7234C92.276 62.9947 94.6694 63.6303 97.362 63.6303Z" fill="#FFF2DC"/>
<path d="M118.85 89.6C116.097 89.6 113.793 89.146 111.939 88.2379C110.024 87.3299 108.318 86.0284 106.823 84.3334L112.028 78.976C112.866 80.0051 113.793 80.7618 114.811 81.2461C115.768 81.7304 116.935 81.9725 118.311 81.9725C120.106 81.9725 121.662 81.3974 122.978 80.2473C124.295 79.1576 124.953 77.4929 124.953 75.2531V27.4906H133.031V75.1623C133.031 78.3101 132.372 80.9434 131.056 83.0622C129.74 85.1809 128.004 86.7851 125.85 87.8747C123.696 89.0249 121.363 89.6 118.85 89.6Z" fill="#FFF2DC"/>
<path d="M160.178 71.5302C155.93 71.5302 152.1 70.5616 148.69 68.6245C145.279 66.6268 142.587 63.933 140.612 60.543C138.637 57.153 137.65 53.309 137.65 49.011C137.65 44.7735 138.607 40.9598 140.522 37.5698C142.497 34.1798 145.13 31.5163 148.42 29.5791C151.771 27.5815 155.511 26.5826 159.64 26.5826C163.589 26.5826 167.059 27.4906 170.051 29.3067C173.103 31.1228 175.466 33.635 177.142 36.8434C178.877 40.0518 179.744 43.6839 179.744 47.7397C179.744 48.3451 179.714 49.011 179.655 49.7374C179.595 50.4033 179.475 51.1903 179.296 52.0983H143.305V45.2881H174.987L172.026 47.9214C172.026 45.0157 171.517 42.564 170.5 40.5663C169.483 38.5081 168.047 36.9342 166.192 35.8445C164.337 34.6944 162.093 34.1193 159.46 34.1193C156.708 34.1193 154.284 34.7246 152.19 35.9353C150.096 37.146 148.48 38.841 147.343 41.0203C146.207 43.1996 145.638 45.7723 145.638 48.7386C145.638 51.7654 146.236 54.4289 147.433 56.7293C148.63 58.9691 150.335 60.7246 152.549 61.9958C154.763 63.2066 157.306 63.8119 160.178 63.8119C162.572 63.8119 164.756 63.3882 166.73 62.5407C168.765 61.6932 170.5 60.4219 171.936 58.7269L177.142 64.0843C175.107 66.5057 172.594 68.3521 169.602 69.6233C166.67 70.8945 163.529 71.5302 160.178 71.5302Z" fill="#FFF2DC"/>
<path d="M189.302 70.6221V9.42083H197.38V70.6221H189.302ZM178.801 34.9365V27.4906H207.881V34.9365H178.801Z" fill="#FFF2DC"/>
<path d="M229.468 71.5302C225.279 71.5302 221.51 70.5313 218.159 68.5337C214.808 66.536 212.145 63.8422 210.171 60.4522C208.196 57.0017 207.209 53.1577 207.209 48.9202C207.209 44.7432 208.196 40.9901 210.171 37.6606C212.145 34.2706 214.808 31.5768 218.159 29.5791C221.51 27.5815 225.279 26.5826 229.468 26.5826C233.596 26.5826 237.336 27.5815 240.687 29.5791C244.098 31.5163 246.79 34.1798 248.765 37.5698C250.739 40.9598 251.727 44.7432 251.727 48.9202C251.727 53.1577 250.739 57.0017 248.765 60.4522C246.79 63.8422 244.098 66.536 240.687 68.5337C237.336 70.5313 233.596 71.5302 229.468 71.5302ZM229.468 63.6303C232.16 63.6303 234.554 62.9947 236.648 61.7234C238.742 60.4522 240.388 58.7269 241.584 56.5477C242.781 54.3078 243.379 51.7654 243.379 48.9202C243.379 46.1356 242.751 43.6536 241.495 41.4743C240.298 39.2951 238.652 37.6001 236.558 36.3894C234.524 35.1181 232.16 34.4825 229.468 34.4825C226.775 34.4825 224.382 35.1181 222.287 36.3894C220.193 37.6001 218.548 39.2951 217.351 41.4743C216.154 43.6536 215.556 46.1356 215.556 48.9202C215.556 51.7654 216.154 54.3078 217.351 56.5477C218.548 58.7269 220.193 60.4522 222.287 61.7234C224.382 62.9947 226.775 63.6303 229.468 63.6303Z" fill="#FFF2DC"/>
<path d="M269.893 71.5302C267.5 71.5302 265.226 71.2275 263.072 70.6221C260.978 69.9563 259.033 69.0482 257.238 67.898C255.443 66.6873 253.887 65.2648 252.571 63.6303L257.776 58.3637C259.332 60.3009 261.127 61.7537 263.162 62.7223C265.196 63.6303 267.47 64.0843 269.983 64.0843C272.496 64.0843 274.441 63.6606 275.817 62.8131C277.193 61.905 277.881 60.6641 277.881 59.0901C277.881 57.5162 277.313 56.3055 276.176 55.458C275.099 54.55 273.693 53.8236 271.957 53.2787C270.222 52.6734 268.367 52.0983 266.393 51.5535C264.478 50.9481 262.653 50.1914 260.918 49.2834C259.183 48.3754 257.747 47.1344 256.61 45.5605C255.533 43.9866 254.994 41.8981 254.994 39.2951C254.994 36.692 255.622 34.4522 256.879 32.5756C258.135 30.6385 259.871 29.1554 262.085 28.1263C264.358 27.0972 267.081 26.5826 270.252 26.5826C273.603 26.5826 276.565 27.188 279.138 28.3987C281.771 29.5489 283.925 31.3044 285.6 33.6653L280.394 38.9318C279.198 37.3579 277.702 36.1472 275.907 35.2997C274.171 34.4522 272.197 34.0285 269.983 34.0285C267.649 34.0285 265.854 34.4522 264.598 35.2997C263.401 36.0867 262.803 37.2066 262.803 38.6594C262.803 40.1123 263.341 41.2322 264.418 42.0191C265.495 42.8061 266.901 43.472 268.637 44.0168C270.432 44.5616 272.287 45.1367 274.201 45.7421C276.116 46.2869 277.941 47.0436 279.676 48.0122C281.412 48.9807 282.818 50.2822 283.895 51.9167C285.032 53.5511 285.6 55.7002 285.6 58.3637C285.6 62.4196 284.164 65.628 281.292 67.9889C278.48 70.3497 274.68 71.5302 269.893 71.5302Z" fill="#FFF2DC"/>
<path d="M0.785342 22.9505V6.77618H3.81452V22.9505H0.785342ZM3.81452 13.7226L2.67016 13.2119C2.67016 11.1461 3.14137 9.50028 4.08378 8.27444C5.02619 7.04859 6.38371 6.43567 8.15633 6.43567C8.96411 6.43567 9.69336 6.58323 10.3441 6.87834C10.9948 7.15075 11.6006 7.61611 12.1616 8.27444L10.1758 10.3516C9.83921 9.98835 9.46898 9.72729 9.06509 9.56838C8.6612 9.40948 8.18999 9.33002 7.65147 9.33002C6.52956 9.33002 5.60958 9.69324 4.89156 10.4197C4.17353 11.1461 3.81452 12.2471 3.81452 13.7226Z" fill="#FFF2DC"/>
<path d="M21.1731 23.291C19.58 23.291 18.1439 22.9278 16.8649 22.2014C15.586 21.4522 14.5762 20.4421 13.8358 19.1708C13.0953 17.8996 12.7251 16.4581 12.7251 14.8463C12.7251 13.2573 13.0841 11.8271 13.8021 10.5559C14.5426 9.28462 15.5299 8.28579 16.764 7.55936C18.0205 6.81024 19.4229 6.43567 20.9712 6.43567C22.4521 6.43567 23.7535 6.77618 24.8754 7.45721C26.0198 8.13823 26.9061 9.08031 27.5344 10.2835C28.1851 11.4866 28.5104 12.8486 28.5104 14.3696C28.5104 14.5966 28.4992 14.8463 28.4768 15.1187C28.4543 15.3684 28.4095 15.6635 28.3422 16.0041H14.8455V13.4502H26.7266L25.6159 14.4377C25.6159 13.3481 25.4252 12.4287 25.0437 11.6796C24.6623 10.9077 24.1238 10.3175 23.4282 9.90889C22.7326 9.47758 21.8911 9.26192 20.9039 9.26192C19.8717 9.26192 18.9629 9.48893 18.1776 9.94294C17.3923 10.397 16.7864 11.0326 16.3601 11.8498C15.9338 12.667 15.7206 13.6318 15.7206 14.7442C15.7206 15.8792 15.945 16.878 16.3937 17.7407C16.8425 18.5806 17.482 19.2389 18.3122 19.7156C19.1424 20.1696 20.0961 20.3967 21.1731 20.3967C22.0706 20.3967 22.8896 20.2377 23.6301 19.9199C24.393 19.6021 25.0437 19.1254 25.5822 18.4898L27.5344 20.4988C26.7715 21.4068 25.8291 22.0992 24.7071 22.5759C23.6077 23.0526 22.4297 23.291 21.1731 23.291Z" fill="#FFF2DC"/>
<path d="M39.117 23.291C37.5463 23.291 36.1215 22.9164 34.8425 22.1673C33.586 21.4182 32.5875 20.408 31.847 19.1368C31.129 17.8428 30.77 16.4127 30.77 14.8463C30.77 13.2573 31.129 11.8271 31.847 10.5559C32.5875 9.28462 33.586 8.28579 34.8425 7.55936C36.1215 6.81024 37.5463 6.43567 39.117 6.43567C40.3511 6.43567 41.4955 6.67403 42.5501 7.15075C43.6047 7.60476 44.5134 8.27444 45.2763 9.15977L43.2569 11.2028C42.7633 10.6126 42.1574 10.17 41.4394 9.87484C40.7438 9.55703 39.9697 9.39812 39.117 9.39812C38.1073 9.39812 37.2098 9.63648 36.4244 10.1132C35.6391 10.5672 35.022 11.2028 34.5733 12.0201C34.1245 12.8373 33.9001 13.7794 33.9001 14.8463C33.9001 15.9132 34.1245 16.8553 34.5733 17.6726C35.022 18.4898 35.6391 19.1368 36.4244 19.6135C37.2098 20.0902 38.1073 20.3286 39.117 20.3286C39.9697 20.3286 40.7438 20.181 41.4394 19.8859C42.1574 19.5681 42.7745 19.1141 43.2906 18.5238L45.2763 20.5669C44.5359 21.4295 43.6271 22.0992 42.5501 22.5759C41.4955 23.0526 40.3511 23.291 39.117 23.291Z" fill="#FFF2DC"/>
<path d="M55.3565 23.291C53.7634 23.291 52.3273 22.9278 51.0483 22.2014C49.7694 21.4522 48.7596 20.4421 48.0192 19.1708C47.2787 17.8996 46.9085 16.4581 46.9085 14.8463C46.9085 13.2573 47.2675 11.8271 47.9855 10.5559C48.726 9.28462 49.7133 8.28579 50.9474 7.55936C52.2039 6.81024 53.6063 6.43567 55.1546 6.43567C56.6355 6.43567 57.9369 6.77618 59.0588 7.45721C60.2032 8.13823 61.0895 9.08031 61.7178 10.2835C62.3685 11.4866 62.6938 12.8486 62.6938 14.3696C62.6938 14.5966 62.6826 14.8463 62.6602 15.1187C62.6377 15.3684 62.5929 15.6635 62.5256 16.0041H49.0289V13.4502H60.91L59.7993 14.4377C59.7993 13.3481 59.6086 12.4287 59.2271 11.6796C58.8457 10.9077 58.3071 10.3175 57.6116 9.90889C56.916 9.47758 56.0745 9.26192 55.0872 9.26192C54.0551 9.26192 53.1463 9.48893 52.361 9.94294C51.5756 10.397 50.9698 11.0326 50.5435 11.8498C50.1172 12.667 49.904 13.6318 49.904 14.7442C49.904 15.8792 50.1284 16.878 50.5771 17.7407C51.0259 18.5806 51.6654 19.2389 52.4956 19.7156C53.3258 20.1696 54.2795 20.3967 55.3565 20.3967C56.254 20.3967 57.073 20.2377 57.8135 19.9199C58.5764 19.6021 59.2271 19.1254 59.7656 18.4898L61.7178 20.4988C60.9549 21.4068 60.0125 22.0992 58.8905 22.5759C57.7911 23.0526 56.6131 23.291 55.3565 23.291Z" fill="#FFF2DC"/>
<path d="M77.3057 22.9505V13.5183C77.3057 12.2925 76.9242 11.2823 76.1613 10.4878C75.3984 9.69324 74.4111 9.29597 73.1995 9.29597C72.3917 9.29597 71.6736 9.47758 71.0454 9.84079C70.4171 10.204 69.9235 10.7034 69.5644 11.339C69.2054 11.9747 69.0259 12.7011 69.0259 13.5183L67.7806 12.8032C67.7806 11.5774 68.0499 10.4878 68.5884 9.53433C69.1269 8.5809 69.8786 7.83177 70.8434 7.28695C71.8083 6.71943 72.8965 6.43567 74.1082 6.43567C75.3199 6.43567 76.3857 6.74213 77.3057 7.35505C78.2481 7.96797 78.9885 8.77385 79.5271 9.77269C80.0656 10.7488 80.3348 11.7931 80.3348 12.9054V22.9505H77.3057ZM65.9967 22.9505V6.77618H69.0259V22.9505H65.9967Z" fill="#FFF2DC"/>
<path d="M86.6958 22.9505V0H89.725V22.9505H86.6958ZM82.7579 9.56838V6.77618H93.6629V9.56838H82.7579Z" fill="#FFF2DC"/>
<path d="M103.542 23.291C101.949 23.291 100.513 22.9278 99.2338 22.2014C97.9548 21.4522 96.9451 20.4421 96.2046 19.1708C95.4642 17.8996 95.0939 16.4581 95.0939 14.8463C95.0939 13.2573 95.4529 11.8271 96.171 10.5559C96.9114 9.28462 97.8987 8.28579 99.1328 7.55936C100.389 6.81024 101.792 6.43567 103.34 6.43567C104.821 6.43567 106.122 6.77618 107.244 7.45721C108.389 8.13823 109.275 9.08031 109.903 10.2835C110.554 11.4866 110.879 12.8486 110.879 14.3696C110.879 14.5966 110.868 14.8463 110.846 15.1187C110.823 15.3684 110.778 15.6635 110.711 16.0041H97.2143V13.4502H109.095L107.985 14.4377C107.985 13.3481 107.794 12.4287 107.413 11.6796C107.031 10.9077 106.493 10.3175 105.797 9.90889C105.101 9.47758 104.26 9.26192 103.273 9.26192C102.241 9.26192 101.332 9.48893 100.546 9.94294C99.7611 10.397 99.1553 11.0326 98.7289 11.8498C98.3026 12.667 98.0894 13.6318 98.0894 14.7442C98.0894 15.8792 98.3138 16.878 98.7626 17.7407C99.2114 18.5806 99.8508 19.2389 100.681 19.7156C101.511 20.1696 102.465 20.3967 103.542 20.3967C104.439 20.3967 105.258 20.2377 105.999 19.9199C106.762 19.6021 107.413 19.1254 107.951 18.4898L109.903 20.4988C109.14 21.4068 108.198 22.0992 107.076 22.5759C105.977 23.0526 104.799 23.291 103.542 23.291Z" fill="#FFF2DC"/>
<path d="M119.264 23.291C118.367 23.291 117.514 23.1775 116.706 22.9505C115.921 22.7008 115.192 22.3603 114.519 21.929C113.846 21.4749 113.262 20.9415 112.769 20.3286L114.721 18.3536C115.304 19.08 115.977 19.6248 116.74 19.988C117.503 20.3286 118.356 20.4988 119.298 20.4988C120.241 20.4988 120.97 20.3399 121.486 20.0221C122.002 19.6816 122.26 19.2162 122.26 18.626C122.26 18.0358 122.047 17.5818 121.62 17.2639C121.217 16.9234 120.689 16.651 120.039 16.4467C119.388 16.2197 118.692 16.0041 117.952 15.7997C117.234 15.5727 116.549 15.289 115.899 14.9485C115.248 14.608 114.709 14.1426 114.283 13.5524C113.879 12.9621 113.677 12.179 113.677 11.2028C113.677 10.2267 113.913 9.38677 114.384 8.68305C114.855 7.95662 115.506 7.40045 116.336 7.01454C117.189 6.62863 118.21 6.43567 119.399 6.43567C120.656 6.43567 121.766 6.66268 122.731 7.1167C123.718 7.54801 124.526 8.20633 125.155 9.09166L123.202 11.0666C122.754 10.4764 122.193 10.0224 121.52 9.70459C120.869 9.38677 120.128 9.22787 119.298 9.22787C118.423 9.22787 117.75 9.38677 117.279 9.70459C116.83 9.9997 116.606 10.4197 116.606 10.9645C116.606 11.5093 116.807 11.9293 117.211 12.2244C117.615 12.5195 118.143 12.7692 118.793 12.9735C119.466 13.1778 120.162 13.3935 120.88 13.6205C121.598 13.8248 122.282 14.1085 122.933 14.4718C123.584 14.835 124.111 15.323 124.515 15.936C124.941 16.5489 125.155 17.3547 125.155 18.3536C125.155 19.8745 124.616 21.0777 123.539 21.963C122.484 22.8483 121.06 23.291 119.264 23.291Z" fill="#FFF2DC"/>
</svg>
