<svg width="129" height="64" viewBox="0 0 129 64" fill="none" xmlns="http://www.w3.org/2000/svg">
<path d="M77 5.49996C77 7.98524 74.9853 9.99996 72.5 9.99996C70.0147 9.99996 68 7.98524 68 5.49996C68 3.01467 70.0147 0.999956 72.5 0.999956C74.9853 0.999956 77 3.01467 77 5.49996Z" fill="#A30000"/>
<path d="M24.456 63.96C19.912 63.96 15.816 62.936 12.168 60.888C8.51999 58.776 5.63999 55.928 3.52799 52.344C1.41599 48.76 0.359985 44.696 0.359985 40.152C0.359985 35.672 1.38399 31.64 3.43199 28.056C5.54399 24.472 8.35999 21.656 11.88 19.608C15.464 17.496 19.464 16.44 23.88 16.44C28.104 16.44 31.816 17.4 35.016 19.32C38.28 21.24 40.808 23.896 42.6 27.288C44.456 30.68 45.384 34.52 45.384 38.808C45.384 39.448 45.352 40.152 45.288 40.92C45.224 41.624 45.096 42.456 44.904 43.416H6.40799V36.216H40.296L37.128 39C37.128 35.928 36.584 33.336 35.496 31.224C34.408 29.048 32.872 27.384 30.888 26.232C28.904 25.016 26.504 24.408 23.688 24.408C20.744 24.408 18.152 25.048 15.912 26.328C13.672 27.608 11.944 29.4 10.728 31.704C9.51199 34.008 8.90399 36.728 8.90399 39.864C8.90399 43.064 9.54399 45.88 10.824 48.312C12.104 50.68 13.928 52.536 16.296 53.88C18.664 55.16 21.384 55.8 24.456 55.8C27.016 55.8 29.352 55.352 31.464 54.456C33.64 53.56 35.496 52.216 37.032 50.424L42.6 56.088C40.424 58.648 37.736 60.6 34.536 61.944C31.4 63.288 28.04 63.96 24.456 63.96Z" fill="#FFF2DC"/>
<path d="M70.2607 63.96C66.5487 63.96 63.1887 63.128 60.1807 61.464C57.2367 59.736 54.9327 57.368 53.2687 54.36C51.6047 51.352 50.7727 47.864 50.7727 43.896V17.4H59.4127V43.512C59.4127 46.008 59.8287 48.184 60.6607 50.04C61.5567 51.832 62.8367 53.208 64.5007 54.168C66.1647 55.128 68.1167 55.608 70.3567 55.608C73.7487 55.608 76.4047 54.552 78.3247 52.44C80.2447 50.264 81.2047 47.288 81.2047 43.512V17.4H89.8447V43.896C89.8447 47.864 89.0127 51.352 87.3487 54.36C85.6847 57.368 83.3807 59.736 80.4367 61.464C77.5567 63.128 74.1647 63.96 70.2607 63.96Z" fill="#FFF2DC"/>
<path d="M109.729 45.4L109.649 30.2L111.809 30.12C113.675 30.12 115.302 29.72 116.689 28.92C118.129 28.12 119.249 27.0266 120.049 25.64C120.849 24.2533 121.249 22.7066 121.249 21C121.249 19.24 120.849 17.6933 120.049 16.36C119.302 15.0266 118.209 13.9866 116.769 13.24C115.382 12.4933 113.729 12.12 111.809 12.12C109.249 12.12 107.035 12.76 105.169 14.04C103.302 15.32 101.809 17.1333 100.689 19.48L95.4087 15.08C96.9554 11.9333 99.1687 9.47995 102.049 7.71995C104.982 5.95995 108.342 5.07995 112.129 5.07995C115.382 5.07995 118.262 5.74662 120.769 7.07995C123.275 8.35995 125.222 10.1733 126.609 12.52C127.995 14.8133 128.689 17.48 128.689 20.52C128.689 23.2933 128.049 25.8266 126.769 28.12C125.542 30.36 123.782 32.2266 121.489 33.72C119.249 35.16 116.582 36.0933 113.489 36.52L116.609 33.32L115.969 45.4H109.729ZM112.769 63.8C111.275 63.8 110.022 63.2933 109.009 62.28C108.049 61.2666 107.569 60.0133 107.569 58.52C107.569 57.0266 108.049 55.8 109.009 54.84C110.022 53.8266 111.275 53.32 112.769 53.32C114.262 53.32 115.489 53.8266 116.449 54.84C117.462 55.8 117.969 57.0266 117.969 58.52C117.969 60.0133 117.462 61.2666 116.449 62.28C115.489 63.2933 114.262 63.8 112.769 63.8Z" fill="#FFF2DC"/>
<path d="M6.91799 11.22C5.94999 11.22 5.07732 10.9853 4.29999 10.516C3.52265 10.032 2.90665 9.37929 2.45199 8.55796C2.01199 7.73662 1.79199 6.81262 1.79199 5.78596C1.79199 4.75929 2.01199 3.83529 2.45199 3.01396C2.90665 2.19262 3.52265 1.53996 4.29999 1.05596C5.07732 0.571956 5.94265 0.329956 6.89599 0.329956C7.70265 0.329956 8.41399 0.498623 9.02999 0.835956C9.66065 1.15862 10.1593 1.61329 10.526 2.19996C10.9073 2.77196 11.12 3.43929 11.164 4.20196V7.34796C11.12 8.09596 10.9073 8.76329 10.526 9.34996C10.1593 9.93662 9.66065 10.3986 9.02999 10.736C8.41399 11.0586 7.70999 11.22 6.91799 11.22ZM7.22599 9.34996C8.20865 9.34996 9.00065 9.01996 9.60199 8.35996C10.2033 7.68529 10.504 6.82729 10.504 5.78596C10.504 5.06729 10.3647 4.44396 10.086 3.91596C9.82199 3.37329 9.44065 2.95529 8.94199 2.66196C8.45799 2.35396 7.88599 2.19996 7.22599 2.19996C6.56599 2.19996 5.97932 2.35396 5.46599 2.66196C4.96732 2.96996 4.57132 3.39529 4.27799 3.93796C3.98465 4.46596 3.83799 5.07462 3.83799 5.76396C3.83799 6.46796 3.98465 7.09129 4.27799 7.63396C4.57132 8.16196 4.96732 8.57996 5.46599 8.88796C5.97932 9.19596 6.56599 9.34996 7.22599 9.34996ZM10.394 15.378V8.38196L10.746 5.82996L10.394 3.29996V0.549956H12.374V15.378H10.394Z" fill="#FFF2DC"/>
<path d="M18.8202 11.22C17.9695 11.22 17.1995 11.0293 16.5102 10.648C15.8355 10.252 15.3075 9.70929 14.9262 9.01996C14.5448 8.33062 14.3542 7.53129 14.3542 6.62196V0.549956H16.3342V6.53396C16.3342 7.10596 16.4295 7.60462 16.6202 8.02996C16.8255 8.44062 17.1188 8.75596 17.5002 8.97596C17.8815 9.19596 18.3288 9.30596 18.8422 9.30596C19.6195 9.30596 20.2282 9.06396 20.6682 8.57996C21.1082 8.08129 21.3282 7.39929 21.3282 6.53396V0.549956H23.3082V6.62196C23.3082 7.53129 23.1175 8.33062 22.7362 9.01996C22.3548 9.70929 21.8268 10.252 21.1522 10.648C20.4922 11.0293 19.7148 11.22 18.8202 11.22Z" fill="#FFF2DC"/>
<path d="M30.1419 11.22C29.1006 11.22 28.1619 10.9853 27.3259 10.516C26.4899 10.032 25.8299 9.37929 25.3459 8.55796C24.8619 7.73662 24.6199 6.80529 24.6199 5.76396C24.6199 4.73729 24.8546 3.81329 25.3239 2.99196C25.8079 2.17062 26.4532 1.52529 27.2599 1.05596C28.0812 0.571956 28.9979 0.329956 30.0099 0.329956C30.9779 0.329956 31.8286 0.549956 32.5619 0.989956C33.3099 1.42996 33.8892 2.03862 34.2999 2.81596C34.7252 3.59329 34.9379 4.47329 34.9379 5.45596C34.9379 5.60262 34.9306 5.76396 34.9159 5.93996C34.9012 6.10129 34.8719 6.29196 34.8279 6.51196H26.0059V4.86196H33.7719L33.0459 5.49996C33.0459 4.79596 32.9212 4.20196 32.6719 3.71796C32.4226 3.21929 32.0706 2.83796 31.6159 2.57396C31.1612 2.29529 30.6112 2.15596 29.9659 2.15596C29.2912 2.15596 28.6972 2.30262 28.1839 2.59596C27.6706 2.88929 27.2746 3.29996 26.9959 3.82796C26.7172 4.35596 26.5779 4.97929 26.5779 5.69796C26.5779 6.43129 26.7246 7.07662 27.0179 7.63396C27.3112 8.17662 27.7292 8.60196 28.2719 8.90996C28.8146 9.20329 29.4379 9.34996 30.1419 9.34996C30.7286 9.34996 31.2639 9.24729 31.7479 9.04196C32.2466 8.83662 32.6719 8.52862 33.0239 8.11796L34.2999 9.41596C33.8012 10.0026 33.1852 10.45 32.4519 10.758C31.7332 11.066 30.9632 11.22 30.1419 11.22Z" fill="#FFF2DC"/>
<path d="M36.4368 11V0.549956H38.4168V11H36.4368ZM43.4988 11V4.68596C43.4988 3.90862 43.2568 3.29996 42.7728 2.85996C42.3035 2.40529 41.7095 2.17796 40.9908 2.17796C40.5068 2.17796 40.0742 2.28062 39.6928 2.48596C39.3115 2.69129 39.0035 2.97729 38.7688 3.34396C38.5342 3.71062 38.4168 4.15062 38.4168 4.66396L37.6028 4.26796C37.6028 3.47596 37.7715 2.78662 38.1088 2.19996C38.4608 1.61329 38.9375 1.15862 39.5388 0.835956C40.1402 0.498623 40.8148 0.329956 41.5628 0.329956C42.2962 0.329956 42.9562 0.491289 43.5428 0.813956C44.1442 1.13662 44.6135 1.59129 44.9508 2.17796C45.3028 2.76462 45.4788 3.46129 45.4788 4.26796V11H43.4988ZM50.5608 11V4.68596C50.5608 3.90862 50.3188 3.29996 49.8348 2.85996C49.3655 2.40529 48.7788 2.17796 48.0748 2.17796C47.5908 2.17796 47.1508 2.28062 46.7548 2.48596C46.3735 2.69129 46.0655 2.97729 45.8308 3.34396C45.5962 3.71062 45.4788 4.15062 45.4788 4.66396L44.3568 4.26796C44.4008 3.46129 44.6135 2.77196 44.9948 2.19996C45.3908 1.61329 45.8968 1.15862 46.5128 0.835956C47.1288 0.498623 47.8035 0.329956 48.5368 0.329956C49.2995 0.329956 49.9815 0.491289 50.5828 0.813956C51.1842 1.13662 51.6608 1.59129 52.0128 2.17796C52.3795 2.76462 52.5628 3.46862 52.5628 4.28996V11H50.5608Z" fill="#FFF2DC"/>
<path d="M61.8353 11.22C61.2486 11.22 60.6913 11.1466 60.1633 11C59.65 10.8386 59.1733 10.6186 58.7333 10.34C58.2933 10.0466 57.912 9.70196 57.5893 9.30596L58.8653 8.02996C59.2466 8.49929 59.6866 8.85129 60.1853 9.08596C60.684 9.30596 61.2413 9.41596 61.8573 9.41596C62.4733 9.41596 62.95 9.31329 63.2873 9.10796C63.6246 8.88796 63.7933 8.58729 63.7933 8.20596C63.7933 7.82462 63.654 7.53129 63.3753 7.32596C63.1113 7.10596 62.7666 6.92996 62.3413 6.79796C61.916 6.65129 61.4613 6.51196 60.9773 6.37996C60.508 6.23329 60.0606 6.04996 59.6353 5.82996C59.21 5.60996 58.858 5.30929 58.5793 4.92796C58.3153 4.54662 58.1833 4.04062 58.1833 3.40996C58.1833 2.77929 58.3373 2.23662 58.6453 1.78196C58.9533 1.31262 59.3786 0.953289 59.9213 0.703956C60.4786 0.454623 61.146 0.329956 61.9233 0.329956C62.7446 0.329956 63.4706 0.476623 64.1013 0.769956C64.7466 1.04862 65.2747 1.47396 65.6853 2.04596L64.4093 3.32196C64.116 2.94062 63.7493 2.64729 63.3093 2.44196C62.884 2.23662 62.4 2.13396 61.8573 2.13396C61.2853 2.13396 60.8453 2.23662 60.5373 2.44196C60.244 2.63262 60.0973 2.90396 60.0973 3.25596C60.0973 3.60796 60.2293 3.87929 60.4933 4.06996C60.7573 4.26062 61.102 4.42196 61.5273 4.55396C61.9673 4.68596 62.422 4.82529 62.8913 4.97196C63.3606 5.10396 63.808 5.28729 64.2333 5.52196C64.6586 5.75662 65.0033 6.07196 65.2673 6.46796C65.546 6.86396 65.6853 7.38462 65.6853 8.02996C65.6853 9.01262 65.3333 9.78996 64.6293 10.362C63.94 10.934 63.0086 11.22 61.8353 11.22Z" fill="#FFF2DC"/>
<path d="M72.016 11.22C70.9893 11.22 70.0653 10.978 69.244 10.494C68.4227 10.01 67.77 9.35729 67.286 8.53596C66.802 7.69996 66.56 6.76862 66.56 5.74196C66.56 4.72996 66.802 3.82062 67.286 3.01396C67.77 2.19262 68.4227 1.53996 69.244 1.05596C70.0653 0.571956 70.9893 0.329956 72.016 0.329956C73.028 0.329956 73.9447 0.571956 74.766 1.05596C75.602 1.52529 76.262 2.17062 76.746 2.99196C77.23 3.81329 77.472 4.72996 77.472 5.74196C77.472 6.76862 77.23 7.69996 76.746 8.53596C76.262 9.35729 75.602 10.01 74.766 10.494C73.9447 10.978 73.028 11.22 72.016 11.22ZM72.016 9.30596C72.676 9.30596 73.2627 9.15196 73.776 8.84396C74.2893 8.53596 74.6927 8.11796 74.986 7.58996C75.2793 7.04729 75.426 6.43129 75.426 5.74196C75.426 5.06729 75.272 4.46596 74.964 3.93796C74.6707 3.40996 74.2673 2.99929 73.754 2.70596C73.2553 2.39796 72.676 2.24396 72.016 2.24396C71.356 2.24396 70.7693 2.39796 70.256 2.70596C69.7427 2.99929 69.3393 3.40996 69.046 3.93796C68.7527 4.46596 68.606 5.06729 68.606 5.74196C68.606 6.43129 68.7527 7.04729 69.046 7.58996C69.3393 8.11796 69.7427 8.53596 70.256 8.84396C70.7693 9.15196 71.356 9.30596 72.016 9.30596Z" fill="#FFF2DC"/>
<path d="M83.2449 11.22C82.3943 11.22 81.6243 11.0293 80.9349 10.648C80.2603 10.252 79.7323 9.70929 79.3509 9.01996C78.9696 8.33062 78.7789 7.53129 78.7789 6.62196V0.549956H80.7589V6.53396C80.7589 7.10596 80.8543 7.60462 81.0449 8.02996C81.2503 8.44062 81.5436 8.75596 81.9249 8.97596C82.3063 9.19596 82.7536 9.30596 83.2669 9.30596C84.0443 9.30596 84.6529 9.06396 85.0929 8.57996C85.5329 8.08129 85.7529 7.39929 85.7529 6.53396V0.549956H87.7329V6.62196C87.7329 7.53129 87.5423 8.33062 87.1609 9.01996C86.7796 9.70929 86.2516 10.252 85.5769 10.648C84.9169 11.0293 84.1396 11.22 83.2449 11.22Z" fill="#FFF2DC"/>
</svg>
