<svg width="519" height="519" viewBox="0 0 519 519" fill="none" xmlns="http://www.w3.org/2000/svg">
<path d="M259.6 0.880005L313.169 59.6765L388.96 35.5419L405.954 113.246L483.658 130.24L459.523 206.031L518.32 259.6L459.523 313.169L483.658 388.96L405.954 405.954L388.96 483.658L313.169 459.523L259.6 518.32L206.031 459.523L130.24 483.658L113.246 405.954L35.5418 388.96L59.6764 313.169L0.879883 259.6L59.6764 206.031L35.5418 130.24L113.246 113.246L130.24 35.5419L206.031 59.6765L259.6 0.880005Z" fill="#A30000"/>
<path d="M259.52 39.6096L306.393 91.0566L372.71 69.9388L387.58 137.93L455.571 152.8L434.453 219.116L485.9 265.99L434.453 312.863L455.571 379.18L387.58 394.05L372.71 462.04L306.393 440.923L259.52 492.37L212.647 440.923L146.33 462.04L131.46 394.05L63.4691 379.18L84.5869 312.863L33.1399 265.99L84.5869 219.116L63.4691 152.8L131.46 137.93L146.33 69.9388L212.647 91.0566L259.52 39.6096Z" fill="#0003A3"/>
<path d="M258.936 84.3012L296.434 125.459L349.488 108.565L361.383 162.957L415.776 174.853L398.882 227.907L440.04 265.405L398.882 302.904L415.776 355.957L361.383 367.853L349.488 422.246L296.434 405.352L258.936 446.509L221.437 405.352L168.384 422.246L156.488 367.853L102.095 355.957L118.989 302.904L77.8315 265.405L118.989 227.907L102.095 174.853L156.488 162.957L168.384 108.565L221.437 125.459L258.936 84.3012Z" fill="#F6C24A"/>
</svg>
