<svg width="1712" height="296" viewBox="0 0 1712 296" fill="none" xmlns="http://www.w3.org/2000/svg">
<path d="M1653 236.5C1653 241.194 1649.42 245 1645 245C1640.58 245 1637 241.194 1637 236.5C1637 231.806 1640.58 228 1645 228C1649.42 228 1653 231.806 1653 236.5Z" fill="#A30000"/>
<path d="M1701 276.5C1701 281.194 1697.42 285 1693 285C1688.58 285 1685 281.194 1685 276.5C1685 271.806 1688.58 268 1693 268C1697.42 268 1701 271.806 1701 276.5Z" fill="#A30000"/>
<path d="M201.57 249.45C199.2 249.45 197.07 248.91 195.18 247.83C193.29 246.75 191.79 245.28 190.68 243.42C189.6 241.53 189.06 239.4 189.06 237.03V217.5H194.235V236.985C194.235 238.515 194.55 239.85 195.18 240.99C195.84 242.1 196.725 242.97 197.835 243.6C198.945 244.2 200.19 244.5 201.57 244.5C202.98 244.5 204.225 244.2 205.305 243.6C206.385 242.97 207.24 242.1 207.87 240.99C208.5 239.85 208.815 238.53 208.815 237.03V217.5H213.99V237.075C213.99 239.445 213.45 241.56 212.37 243.42C211.29 245.28 209.82 246.75 207.96 247.83C206.1 248.91 203.97 249.45 201.57 249.45Z" fill="#FFF2DC"/>
<path d="M218.239 249V217.5H223.414V249H218.239Z" fill="#FFF2DC"/>
<path d="M233.261 254.85V214.35H237.761V254.85H233.261Z" fill="#FFF2DC"/>
<path d="M257.787 249.45C255.417 249.45 253.287 248.91 251.397 247.83C249.507 246.75 248.007 245.28 246.897 243.42C245.817 241.53 245.277 239.4 245.277 237.03V217.5H250.452V236.985C250.452 238.515 250.767 239.85 251.397 240.99C252.057 242.1 252.942 242.97 254.052 243.6C255.162 244.2 256.407 244.5 257.787 244.5C259.197 244.5 260.442 244.2 261.522 243.6C262.602 242.97 263.457 242.1 264.087 240.99C264.717 239.85 265.032 238.53 265.032 237.03V217.5H270.207V237.075C270.207 239.445 269.667 241.56 268.587 243.42C267.507 245.28 266.037 246.75 264.177 247.83C262.317 248.91 260.187 249.45 257.787 249.45Z" fill="#FFF2DC"/>
<path d="M294.545 249L285.275 234.96H284.33L271.865 217.5H277.985L287.3 230.73H288.245L300.575 249H294.545ZM271.325 249L283.295 232.17L286.85 235.185L277.13 249H271.325ZM288.605 233.925L285.05 230.91L294.23 217.5H300.035L288.605 233.925Z" fill="#FFF2DC"/>
<path d="M317.97 249.45C315.99 249.45 314.22 248.97 312.66 248.01C311.1 247.02 309.855 245.685 308.925 244.005C308.025 242.325 307.575 240.435 307.575 238.335C307.575 236.235 308.025 234.345 308.925 232.665C309.855 230.985 311.1 229.65 312.66 228.66C314.22 227.67 315.99 227.175 317.97 227.175C319.56 227.175 321 227.52 322.29 228.21C323.58 228.87 324.615 229.8 325.395 231C326.205 232.17 326.655 233.535 326.745 235.095V241.53C326.655 243.06 326.22 244.425 325.44 245.625C324.66 246.825 323.625 247.77 322.335 248.46C321.045 249.12 319.59 249.45 317.97 249.45ZM318.645 245.625C319.995 245.625 321.165 245.31 322.155 244.68C323.175 244.05 323.97 243.195 324.54 242.115C325.11 241.005 325.395 239.745 325.395 238.335C325.395 236.865 325.095 235.59 324.495 234.51C323.925 233.43 323.13 232.575 322.11 231.945C321.12 231.315 319.95 231 318.6 231C317.25 231 316.065 231.315 315.045 231.945C314.025 232.575 313.215 233.445 312.615 234.555C312.045 235.635 311.76 236.88 311.76 238.29C311.76 239.73 312.045 241.005 312.615 242.115C313.215 243.195 314.025 244.05 315.045 244.68C316.095 245.31 317.295 245.625 318.645 245.625ZM329.22 249H325.125V243.24L325.89 238.02L325.125 232.845V216.87H329.22V249Z" fill="#FFF2DC"/>
<path d="M342.766 249.45C340.636 249.45 338.716 248.97 337.006 248.01C335.296 247.02 333.946 245.685 332.956 244.005C331.966 242.325 331.471 240.42 331.471 238.29C331.471 236.19 331.951 234.3 332.911 232.62C333.901 230.94 335.221 229.62 336.871 228.66C338.551 227.67 340.426 227.175 342.496 227.175C344.476 227.175 346.216 227.625 347.716 228.525C349.246 229.425 350.431 230.67 351.271 232.26C352.141 233.85 352.576 235.65 352.576 237.66C352.576 237.96 352.561 238.29 352.531 238.65C352.501 238.98 352.441 239.37 352.351 239.82H334.306V236.445H350.191L348.706 237.75C348.706 236.31 348.451 235.095 347.941 234.105C347.431 233.085 346.711 232.305 345.781 231.765C344.851 231.195 343.726 230.91 342.406 230.91C341.026 230.91 339.811 231.21 338.761 231.81C337.711 232.41 336.901 233.25 336.331 234.33C335.761 235.41 335.476 236.685 335.476 238.155C335.476 239.655 335.776 240.975 336.376 242.115C336.976 243.225 337.831 244.095 338.941 244.725C340.051 245.325 341.326 245.625 342.766 245.625C343.966 245.625 345.061 245.415 346.051 244.995C347.071 244.575 347.941 243.945 348.661 243.105L351.271 245.76C350.251 246.96 348.991 247.875 347.491 248.505C346.021 249.135 344.446 249.45 342.766 249.45Z" fill="#FFF2DC"/>
<path d="M361.537 249.45C360.337 249.45 359.197 249.3 358.117 249C357.067 248.67 356.092 248.22 355.192 247.65C354.292 247.05 353.512 246.345 352.852 245.535L355.462 242.925C356.242 243.885 357.142 244.605 358.162 245.085C359.182 245.535 360.322 245.76 361.582 245.76C362.842 245.76 363.817 245.55 364.507 245.13C365.197 244.68 365.542 244.065 365.542 243.285C365.542 242.505 365.257 241.905 364.687 241.485C364.147 241.035 363.442 240.675 362.572 240.405C361.702 240.105 360.772 239.82 359.782 239.55C358.822 239.25 357.907 238.875 357.037 238.425C356.167 237.975 355.447 237.36 354.877 236.58C354.337 235.8 354.067 234.765 354.067 233.475C354.067 232.185 354.382 231.075 355.012 230.145C355.642 229.185 356.512 228.45 357.622 227.94C358.762 227.43 360.127 227.175 361.717 227.175C363.397 227.175 364.882 227.475 366.172 228.075C367.492 228.645 368.572 229.515 369.412 230.685L366.802 233.295C366.202 232.515 365.452 231.915 364.552 231.495C363.682 231.075 362.692 230.865 361.582 230.865C360.412 230.865 359.512 231.075 358.882 231.495C358.282 231.885 357.982 232.44 357.982 233.16C357.982 233.88 358.252 234.435 358.792 234.825C359.332 235.215 360.037 235.545 360.907 235.815C361.807 236.085 362.737 236.37 363.697 236.67C364.657 236.94 365.572 237.315 366.442 237.795C367.312 238.275 368.017 238.92 368.557 239.73C369.127 240.54 369.412 241.605 369.412 242.925C369.412 244.935 368.692 246.525 367.252 247.695C365.842 248.865 363.937 249.45 361.537 249.45Z" fill="#FFF2DC"/>
<path d="M371.741 249V227.625H375.791V249H371.741ZM373.766 223.35C373.016 223.35 372.401 223.11 371.921 222.63C371.441 222.12 371.201 221.49 371.201 220.74C371.201 220.02 371.441 219.42 371.921 218.94C372.401 218.43 373.016 218.175 373.766 218.175C374.516 218.175 375.131 218.43 375.611 218.94C376.091 219.42 376.331 220.02 376.331 220.74C376.331 221.49 376.091 222.12 375.611 222.63C375.131 223.11 374.516 223.35 373.766 223.35Z" fill="#FFF2DC"/>
<path d="M388.375 258.405C386.185 258.405 384.235 258 382.525 257.19C380.845 256.38 379.495 255.24 378.475 253.77L381.085 251.115C381.955 252.225 382.99 253.065 384.19 253.635C385.39 254.235 386.815 254.535 388.465 254.535C390.655 254.535 392.38 253.95 393.64 252.78C394.93 251.64 395.575 250.095 395.575 248.145V242.835L396.295 238.02L395.575 233.25V227.625H399.625V248.145C399.625 250.185 399.145 251.97 398.185 253.5C397.255 255.03 395.935 256.23 394.225 257.1C392.545 257.97 390.595 258.405 388.375 258.405ZM388.375 248.64C386.425 248.64 384.67 248.175 383.11 247.245C381.58 246.315 380.365 245.04 379.465 243.42C378.565 241.77 378.115 239.925 378.115 237.885C378.115 235.845 378.565 234.03 379.465 232.44C380.365 230.82 381.58 229.545 383.11 228.615C384.67 227.655 386.425 227.175 388.375 227.175C390.055 227.175 391.54 227.505 392.83 228.165C394.12 228.825 395.14 229.755 395.89 230.955C396.67 232.125 397.09 233.505 397.15 235.095V240.765C397.06 242.325 396.625 243.705 395.845 244.905C395.095 246.075 394.075 246.99 392.785 247.65C391.495 248.31 390.025 248.64 388.375 248.64ZM389.185 244.815C390.505 244.815 391.66 244.53 392.65 243.96C393.67 243.39 394.45 242.595 394.99 241.575C395.53 240.525 395.8 239.31 395.8 237.93C395.8 236.55 395.515 235.35 394.945 234.33C394.405 233.28 393.64 232.47 392.65 231.9C391.66 231.3 390.49 231 389.14 231C387.79 231 386.605 231.3 385.585 231.9C384.565 232.47 383.755 233.28 383.155 234.33C382.585 235.35 382.3 236.535 382.3 237.885C382.3 239.235 382.585 240.435 383.155 241.485C383.755 242.535 384.565 243.36 385.585 243.96C386.635 244.53 387.835 244.815 389.185 244.815Z" fill="#FFF2DC"/>
<path d="M418.439 249V236.535C418.439 234.915 417.929 233.58 416.909 232.53C415.889 231.48 414.569 230.955 412.949 230.955C411.869 230.955 410.909 231.195 410.069 231.675C409.229 232.155 408.569 232.815 408.089 233.655C407.609 234.495 407.369 235.455 407.369 236.535L405.704 235.59C405.704 233.97 406.064 232.53 406.784 231.27C407.504 230.01 408.509 229.02 409.799 228.3C411.089 227.55 412.544 227.175 414.164 227.175C415.784 227.175 417.209 227.58 418.439 228.39C419.699 229.2 420.689 230.265 421.409 231.585C422.129 232.875 422.489 234.255 422.489 235.725V249H418.439ZM403.319 249V227.625H407.369V249H403.319Z" fill="#FFF2DC"/>
<path d="M435.623 249.45C433.493 249.45 431.573 248.97 429.863 248.01C428.153 247.02 426.803 245.685 425.813 244.005C424.823 242.325 424.328 240.42 424.328 238.29C424.328 236.19 424.808 234.3 425.768 232.62C426.758 230.94 428.078 229.62 429.728 228.66C431.408 227.67 433.283 227.175 435.353 227.175C437.333 227.175 439.073 227.625 440.573 228.525C442.103 229.425 443.288 230.67 444.128 232.26C444.998 233.85 445.433 235.65 445.433 237.66C445.433 237.96 445.418 238.29 445.388 238.65C445.358 238.98 445.298 239.37 445.208 239.82H427.163V236.445H443.048L441.563 237.75C441.563 236.31 441.308 235.095 440.798 234.105C440.288 233.085 439.568 232.305 438.638 231.765C437.708 231.195 436.583 230.91 435.263 230.91C433.883 230.91 432.668 231.21 431.618 231.81C430.568 232.41 429.758 233.25 429.188 234.33C428.618 235.41 428.333 236.685 428.333 238.155C428.333 239.655 428.633 240.975 429.233 242.115C429.833 243.225 430.688 244.095 431.798 244.725C432.908 245.325 434.183 245.625 435.623 245.625C436.823 245.625 437.918 245.415 438.908 244.995C439.928 244.575 440.798 243.945 441.518 243.105L444.128 245.76C443.108 246.96 441.848 247.875 440.348 248.505C438.878 249.135 437.303 249.45 435.623 249.45Z" fill="#FFF2DC"/>
<path d="M447.599 249V227.625H451.649V249H447.599ZM451.649 236.805L450.119 236.13C450.119 233.4 450.749 231.225 452.009 229.605C453.269 227.985 455.084 227.175 457.454 227.175C458.534 227.175 459.509 227.37 460.379 227.76C461.249 228.12 462.059 228.735 462.809 229.605L460.154 232.35C459.704 231.87 459.209 231.525 458.669 231.315C458.129 231.105 457.499 231 456.779 231C455.279 231 454.049 231.48 453.089 232.44C452.129 233.4 451.649 234.855 451.649 236.805Z" fill="#FFF2DC"/>
<path d="M1179.87 247.45C1177.74 247.45 1175.82 246.97 1174.11 246.01C1172.4 245.02 1171.05 243.685 1170.06 242.005C1169.07 240.325 1168.57 238.42 1168.57 236.29C1168.57 234.19 1169.06 232.3 1170.02 230.62C1171.01 228.94 1172.32 227.62 1173.97 226.66C1175.66 225.67 1177.53 225.175 1179.6 225.175C1181.58 225.175 1183.32 225.625 1184.82 226.525C1186.35 227.425 1187.54 228.67 1188.38 230.26C1189.24 231.85 1189.68 233.65 1189.68 235.66C1189.68 235.96 1189.67 236.29 1189.64 236.65C1189.6 236.98 1189.54 237.37 1189.45 237.82H1171.41V234.445H1187.3L1185.81 235.75C1185.81 234.31 1185.56 233.095 1185.05 232.105C1184.54 231.085 1183.82 230.305 1182.89 229.765C1181.95 229.195 1180.83 228.91 1179.51 228.91C1178.13 228.91 1176.92 229.21 1175.86 229.81C1174.81 230.41 1174.01 231.25 1173.44 232.33C1172.87 233.41 1172.58 234.685 1172.58 236.155C1172.58 237.655 1172.88 238.975 1173.48 240.115C1174.08 241.225 1174.94 242.095 1176.05 242.725C1177.16 243.325 1178.43 243.625 1179.87 243.625C1181.07 243.625 1182.17 243.415 1183.16 242.995C1184.18 242.575 1185.05 241.945 1185.77 241.105L1188.38 243.76C1187.35 244.96 1186.09 245.875 1184.59 246.505C1183.12 247.135 1181.55 247.45 1179.87 247.45Z" fill="#FFF2DC"/>
<path d="M1198.64 247.45C1197.44 247.45 1196.3 247.3 1195.22 247C1194.17 246.67 1193.2 246.22 1192.3 245.65C1191.4 245.05 1190.62 244.345 1189.96 243.535L1192.57 240.925C1193.35 241.885 1194.25 242.605 1195.27 243.085C1196.29 243.535 1197.43 243.76 1198.69 243.76C1199.95 243.76 1200.92 243.55 1201.61 243.13C1202.3 242.68 1202.65 242.065 1202.65 241.285C1202.65 240.505 1202.36 239.905 1201.79 239.485C1201.25 239.035 1200.55 238.675 1199.68 238.405C1198.81 238.105 1197.88 237.82 1196.89 237.55C1195.93 237.25 1195.01 236.875 1194.14 236.425C1193.27 235.975 1192.55 235.36 1191.98 234.58C1191.44 233.8 1191.17 232.765 1191.17 231.475C1191.17 230.185 1191.49 229.075 1192.12 228.145C1192.75 227.185 1193.62 226.45 1194.73 225.94C1195.87 225.43 1197.23 225.175 1198.82 225.175C1200.5 225.175 1201.99 225.475 1203.28 226.075C1204.6 226.645 1205.68 227.515 1206.52 228.685L1203.91 231.295C1203.31 230.515 1202.56 229.915 1201.66 229.495C1200.79 229.075 1199.8 228.865 1198.69 228.865C1197.52 228.865 1196.62 229.075 1195.99 229.495C1195.39 229.885 1195.09 230.44 1195.09 231.16C1195.09 231.88 1195.36 232.435 1195.9 232.825C1196.44 233.215 1197.14 233.545 1198.01 233.815C1198.91 234.085 1199.84 234.37 1200.8 234.67C1201.76 234.94 1202.68 235.315 1203.55 235.795C1204.42 236.275 1205.12 236.92 1205.66 237.73C1206.23 238.54 1206.52 239.605 1206.52 240.925C1206.52 242.935 1205.8 244.525 1204.36 245.695C1202.95 246.865 1201.04 247.45 1198.64 247.45Z" fill="#FFF2DC"/>
<path d="M1212.09 247V216.67H1216.14V247H1212.09ZM1206.82 229.315V225.625H1221.4V229.315H1206.82Z" fill="#FFF2DC"/>
<path d="M1231.71 247.45C1229.97 247.45 1228.4 247.06 1226.99 246.28C1225.61 245.47 1224.53 244.36 1223.75 242.95C1222.97 241.54 1222.58 239.905 1222.58 238.045V225.625H1226.63V237.865C1226.63 239.035 1226.82 240.055 1227.21 240.925C1227.63 241.765 1228.23 242.41 1229.01 242.86C1229.79 243.31 1230.71 243.535 1231.76 243.535C1233.35 243.535 1234.59 243.04 1235.49 242.05C1236.39 241.03 1236.84 239.635 1236.84 237.865V225.625H1240.89V238.045C1240.89 239.905 1240.5 241.54 1239.72 242.95C1238.94 244.36 1237.86 245.47 1236.48 246.28C1235.13 247.06 1233.54 247.45 1231.71 247.45Z" fill="#FFF2DC"/>
<path d="M1253.12 247.45C1251.14 247.45 1249.37 246.97 1247.81 246.01C1246.25 245.02 1245 243.685 1244.07 242.005C1243.17 240.325 1242.72 238.435 1242.72 236.335C1242.72 234.235 1243.17 232.345 1244.07 230.665C1245 228.985 1246.25 227.65 1247.81 226.66C1249.37 225.67 1251.14 225.175 1253.12 225.175C1254.71 225.175 1256.15 225.52 1257.44 226.21C1258.73 226.87 1259.76 227.8 1260.54 229C1261.35 230.17 1261.8 231.535 1261.89 233.095V239.53C1261.8 241.06 1261.37 242.425 1260.59 243.625C1259.81 244.825 1258.77 245.77 1257.48 246.46C1256.19 247.12 1254.74 247.45 1253.12 247.45ZM1253.79 243.625C1255.14 243.625 1256.31 243.31 1257.3 242.68C1258.32 242.05 1259.12 241.195 1259.69 240.115C1260.26 239.005 1260.54 237.745 1260.54 236.335C1260.54 234.865 1260.24 233.59 1259.64 232.51C1259.07 231.43 1258.28 230.575 1257.26 229.945C1256.27 229.315 1255.1 229 1253.75 229C1252.4 229 1251.21 229.315 1250.19 229.945C1249.17 230.575 1248.36 231.445 1247.76 232.555C1247.19 233.635 1246.91 234.88 1246.91 236.29C1246.91 237.73 1247.19 239.005 1247.76 240.115C1248.36 241.195 1249.17 242.05 1250.19 242.68C1251.24 243.31 1252.44 243.625 1253.79 243.625ZM1264.37 247H1260.27V241.24L1261.04 236.02L1260.27 230.845V214.87H1264.37V247Z" fill="#FFF2DC"/>
<path d="M1277.1 247.45C1275.15 247.45 1273.38 246.97 1271.79 246.01C1270.2 245.02 1268.94 243.685 1268.01 242.005C1267.11 240.325 1266.66 238.435 1266.66 236.335C1266.66 234.235 1267.11 232.345 1268.01 230.665C1268.94 228.985 1270.19 227.65 1271.75 226.66C1273.34 225.67 1275.12 225.175 1277.1 225.175C1278.72 225.175 1280.16 225.52 1281.42 226.21C1282.71 226.87 1283.75 227.8 1284.53 229C1285.31 230.17 1285.74 231.535 1285.83 233.095V239.53C1285.74 241.06 1285.31 242.425 1284.53 243.625C1283.78 244.825 1282.76 245.77 1281.47 246.46C1280.21 247.12 1278.75 247.45 1277.1 247.45ZM1277.78 243.625C1279.79 243.625 1281.41 242.95 1282.64 241.6C1283.87 240.22 1284.48 238.465 1284.48 236.335C1284.48 234.865 1284.2 233.59 1283.63 232.51C1283.09 231.4 1282.31 230.545 1281.29 229.945C1280.27 229.315 1279.08 229 1277.73 229C1276.38 229 1275.18 229.315 1274.13 229.945C1273.11 230.575 1272.3 231.445 1271.7 232.555C1271.13 233.635 1270.85 234.88 1270.85 236.29C1270.85 237.73 1271.13 239.005 1271.7 240.115C1272.3 241.195 1273.13 242.05 1274.18 242.68C1275.23 243.31 1276.43 243.625 1277.78 243.625ZM1284.21 247V241.24L1284.98 236.02L1284.21 230.845V225.625H1288.31V247H1284.21Z" fill="#FFF2DC"/>
<path d="M1307.07 247V234.535C1307.07 232.915 1306.56 231.58 1305.54 230.53C1304.52 229.48 1303.2 228.955 1301.58 228.955C1300.5 228.955 1299.54 229.195 1298.7 229.675C1297.86 230.155 1297.2 230.815 1296.72 231.655C1296.24 232.495 1296 233.455 1296 234.535L1294.34 233.59C1294.34 231.97 1294.7 230.53 1295.42 229.27C1296.14 228.01 1297.14 227.02 1298.43 226.3C1299.72 225.55 1301.18 225.175 1302.8 225.175C1304.42 225.175 1305.84 225.58 1307.07 226.39C1308.33 227.2 1309.32 228.265 1310.04 229.585C1310.76 230.875 1311.12 232.255 1311.12 233.725V247H1307.07ZM1291.95 247V225.625H1296V247H1291.95Z" fill="#FFF2DC"/>
<path d="M1317.38 247V216.67H1321.43V247H1317.38ZM1312.11 229.315V225.625H1326.69V229.315H1312.11Z" fill="#FFF2DC"/>
<path d="M1337.65 247.45C1335.52 247.45 1333.6 246.97 1331.89 246.01C1330.18 245.02 1328.83 243.685 1327.84 242.005C1326.85 240.325 1326.36 238.42 1326.36 236.29C1326.36 234.19 1326.84 232.3 1327.8 230.62C1328.79 228.94 1330.11 227.62 1331.76 226.66C1333.44 225.67 1335.31 225.175 1337.38 225.175C1339.36 225.175 1341.1 225.625 1342.6 226.525C1344.13 227.425 1345.32 228.67 1346.16 230.26C1347.03 231.85 1347.46 233.65 1347.46 235.66C1347.46 235.96 1347.45 236.29 1347.42 236.65C1347.39 236.98 1347.33 237.37 1347.24 237.82H1329.19V234.445H1345.08L1343.59 235.75C1343.59 234.31 1343.34 233.095 1342.83 232.105C1342.32 231.085 1341.6 230.305 1340.67 229.765C1339.74 229.195 1338.61 228.91 1337.29 228.91C1335.91 228.91 1334.7 229.21 1333.65 229.81C1332.6 230.41 1331.79 231.25 1331.22 232.33C1330.65 233.41 1330.36 234.685 1330.36 236.155C1330.36 237.655 1330.66 238.975 1331.26 240.115C1331.86 241.225 1332.72 242.095 1333.83 242.725C1334.94 243.325 1336.21 243.625 1337.65 243.625C1338.85 243.625 1339.95 243.415 1340.94 242.995C1341.96 242.575 1342.83 241.945 1343.55 241.105L1346.16 243.76C1345.14 244.96 1343.88 245.875 1342.38 246.505C1340.91 247.135 1339.33 247.45 1337.65 247.45Z" fill="#FFF2DC"/>
<path d="M1365.78 247.45C1363.8 247.45 1362.03 246.97 1360.47 246.01C1358.91 245.02 1357.67 243.685 1356.74 242.005C1355.84 240.325 1355.39 238.435 1355.39 236.335C1355.39 234.235 1355.84 232.345 1356.74 230.665C1357.67 228.985 1358.91 227.65 1360.47 226.66C1362.03 225.67 1363.8 225.175 1365.78 225.175C1367.37 225.175 1368.81 225.52 1370.1 226.21C1371.39 226.87 1372.43 227.8 1373.21 229C1374.02 230.17 1374.47 231.535 1374.56 233.095V239.53C1374.47 241.06 1374.03 242.425 1373.25 243.625C1372.47 244.825 1371.44 245.77 1370.15 246.46C1368.86 247.12 1367.4 247.45 1365.78 247.45ZM1366.46 243.625C1367.81 243.625 1368.98 243.31 1369.97 242.68C1370.99 242.05 1371.78 241.195 1372.35 240.115C1372.92 239.005 1373.21 237.745 1373.21 236.335C1373.21 234.865 1372.91 233.59 1372.31 232.51C1371.74 231.43 1370.94 230.575 1369.92 229.945C1368.93 229.315 1367.76 229 1366.41 229C1365.06 229 1363.88 229.315 1362.86 229.945C1361.84 230.575 1361.03 231.445 1360.43 232.555C1359.86 233.635 1359.57 234.88 1359.57 236.29C1359.57 237.73 1359.86 239.005 1360.43 240.115C1361.03 241.195 1361.84 242.05 1362.86 242.68C1363.91 243.31 1365.11 243.625 1366.46 243.625ZM1377.03 247H1372.94V241.24L1373.7 236.02L1372.94 230.845V214.87H1377.03V247Z" fill="#FFF2DC"/>
<path d="M1390.58 247.45C1388.45 247.45 1386.53 246.97 1384.82 246.01C1383.11 245.02 1381.76 243.685 1380.77 242.005C1379.78 240.325 1379.28 238.42 1379.28 236.29C1379.28 234.19 1379.76 232.3 1380.72 230.62C1381.71 228.94 1383.03 227.62 1384.68 226.66C1386.36 225.67 1388.24 225.175 1390.31 225.175C1392.29 225.175 1394.03 225.625 1395.53 226.525C1397.06 227.425 1398.24 228.67 1399.08 230.26C1399.95 231.85 1400.39 233.65 1400.39 235.66C1400.39 235.96 1400.37 236.29 1400.34 236.65C1400.31 236.98 1400.25 237.37 1400.16 237.82H1382.12V234.445H1398L1396.52 235.75C1396.52 234.31 1396.26 233.095 1395.75 232.105C1395.24 231.085 1394.52 230.305 1393.59 229.765C1392.66 229.195 1391.54 228.91 1390.22 228.91C1388.84 228.91 1387.62 229.21 1386.57 229.81C1385.52 230.41 1384.71 231.25 1384.14 232.33C1383.57 233.41 1383.29 234.685 1383.29 236.155C1383.29 237.655 1383.59 238.975 1384.19 240.115C1384.79 241.225 1385.64 242.095 1386.75 242.725C1387.86 243.325 1389.14 243.625 1390.58 243.625C1391.78 243.625 1392.87 243.415 1393.86 242.995C1394.88 242.575 1395.75 241.945 1396.47 241.105L1399.08 243.76C1398.06 244.96 1396.8 245.875 1395.3 246.505C1393.83 247.135 1392.26 247.45 1390.58 247.45Z" fill="#FFF2DC"/>
<path d="M1418.76 247.45C1416.81 247.45 1415.04 246.97 1413.45 246.01C1411.86 245.02 1410.6 243.685 1409.67 242.005C1408.77 240.325 1408.32 238.435 1408.32 236.335C1408.32 234.235 1408.77 232.345 1409.67 230.665C1410.6 228.985 1411.84 227.65 1413.4 226.66C1414.99 225.67 1416.78 225.175 1418.76 225.175C1420.38 225.175 1421.82 225.52 1423.08 226.21C1424.37 226.87 1425.4 227.8 1426.18 229C1426.96 230.17 1427.4 231.535 1427.49 233.095V239.53C1427.4 241.06 1426.96 242.425 1426.18 243.625C1425.43 244.825 1424.41 245.77 1423.12 246.46C1421.86 247.12 1420.41 247.45 1418.76 247.45ZM1419.43 243.625C1421.44 243.625 1423.06 242.95 1424.29 241.6C1425.52 240.22 1426.14 238.465 1426.14 236.335C1426.14 234.865 1425.85 233.59 1425.28 232.51C1424.74 231.4 1423.96 230.545 1422.94 229.945C1421.92 229.315 1420.74 229 1419.39 229C1418.04 229 1416.84 229.315 1415.79 229.945C1414.77 230.575 1413.96 231.445 1413.36 232.555C1412.79 233.635 1412.5 234.88 1412.5 236.29C1412.5 237.73 1412.79 239.005 1413.36 240.115C1413.96 241.195 1414.78 242.05 1415.83 242.68C1416.88 243.31 1418.08 243.625 1419.43 243.625ZM1425.87 247V241.24L1426.63 236.02L1425.87 230.845V225.625H1429.96V247H1425.87Z" fill="#FFF2DC"/>
<path d="M1442.65 247.45C1440.67 247.45 1438.9 246.97 1437.34 246.01C1435.78 245.02 1434.54 243.685 1433.61 242.005C1432.71 240.325 1432.26 238.435 1432.26 236.335C1432.26 234.235 1432.71 232.345 1433.61 230.665C1434.54 228.985 1435.78 227.65 1437.34 226.66C1438.9 225.67 1440.67 225.175 1442.65 225.175C1444.24 225.175 1445.68 225.52 1446.97 226.21C1448.26 226.87 1449.3 227.8 1450.08 229C1450.89 230.17 1451.34 231.535 1451.43 233.095V239.53C1451.34 241.06 1450.9 242.425 1450.12 243.625C1449.34 244.825 1448.31 245.77 1447.02 246.46C1445.73 247.12 1444.27 247.45 1442.65 247.45ZM1443.33 243.625C1444.68 243.625 1445.85 243.31 1446.84 242.68C1447.86 242.05 1448.65 241.195 1449.22 240.115C1449.79 239.005 1450.08 237.745 1450.08 236.335C1450.08 234.865 1449.78 233.59 1449.18 232.51C1448.61 231.43 1447.81 230.575 1446.79 229.945C1445.8 229.315 1444.63 229 1443.28 229C1441.93 229 1440.75 229.315 1439.73 229.945C1438.71 230.575 1437.9 231.445 1437.3 232.555C1436.73 233.635 1436.44 234.88 1436.44 236.29C1436.44 237.73 1436.73 239.005 1437.3 240.115C1437.9 241.195 1438.71 242.05 1439.73 242.68C1440.78 243.31 1441.98 243.625 1443.33 243.625ZM1453.9 247H1449.81V241.24L1450.57 236.02L1449.81 230.845V214.87H1453.9V247Z" fill="#FFF2DC"/>
<path d="M1464.34 247.45C1463.14 247.45 1462 247.3 1460.92 247C1459.87 246.67 1458.9 246.22 1458 245.65C1457.1 245.05 1456.32 244.345 1455.66 243.535L1458.27 240.925C1459.05 241.885 1459.95 242.605 1460.97 243.085C1461.99 243.535 1463.13 243.76 1464.39 243.76C1465.65 243.76 1466.62 243.55 1467.31 243.13C1468 242.68 1468.35 242.065 1468.35 241.285C1468.35 240.505 1468.06 239.905 1467.49 239.485C1466.95 239.035 1466.25 238.675 1465.38 238.405C1464.51 238.105 1463.58 237.82 1462.59 237.55C1461.63 237.25 1460.71 236.875 1459.84 236.425C1458.97 235.975 1458.25 235.36 1457.68 234.58C1457.14 233.8 1456.87 232.765 1456.87 231.475C1456.87 230.185 1457.19 229.075 1457.82 228.145C1458.45 227.185 1459.32 226.45 1460.43 225.94C1461.57 225.43 1462.93 225.175 1464.52 225.175C1466.2 225.175 1467.69 225.475 1468.98 226.075C1470.3 226.645 1471.38 227.515 1472.22 228.685L1469.61 231.295C1469.01 230.515 1468.26 229.915 1467.36 229.495C1466.49 229.075 1465.5 228.865 1464.39 228.865C1463.22 228.865 1462.32 229.075 1461.69 229.495C1461.09 229.885 1460.79 230.44 1460.79 231.16C1460.79 231.88 1461.06 232.435 1461.6 232.825C1462.14 233.215 1462.84 233.545 1463.71 233.815C1464.61 234.085 1465.54 234.37 1466.5 234.67C1467.46 234.94 1468.38 235.315 1469.25 235.795C1470.12 236.275 1470.82 236.92 1471.36 237.73C1471.93 238.54 1472.22 239.605 1472.22 240.925C1472.22 242.935 1471.5 244.525 1470.06 245.695C1468.65 246.865 1466.74 247.45 1464.34 247.45Z" fill="#FFF2DC"/>
<path d="M1484.67 247V222.43C1484.67 220.84 1485.02 219.46 1485.71 218.29C1486.4 217.09 1487.34 216.145 1488.54 215.455C1489.77 214.765 1491.2 214.42 1492.82 214.42C1494.05 214.42 1495.11 214.63 1496.01 215.05C1496.91 215.47 1497.74 216.085 1498.49 216.895L1495.83 219.505C1495.44 219.085 1495.01 218.77 1494.53 218.56C1494.05 218.32 1493.46 218.2 1492.77 218.2C1491.48 218.2 1490.48 218.575 1489.76 219.325C1489.07 220.075 1488.72 221.11 1488.72 222.43V247H1484.67ZM1479.41 229.315V225.625H1495.52V229.315H1479.41Z" fill="#FFF2DC"/>
<path d="M1505.2 247.45C1503.25 247.45 1501.48 246.97 1499.89 246.01C1498.3 245.02 1497.04 243.685 1496.11 242.005C1495.21 240.325 1494.76 238.435 1494.76 236.335C1494.76 234.235 1495.21 232.345 1496.11 230.665C1497.04 228.985 1498.28 227.65 1499.84 226.66C1501.43 225.67 1503.22 225.175 1505.2 225.175C1506.82 225.175 1508.26 225.52 1509.52 226.21C1510.81 226.87 1511.84 227.8 1512.62 229C1513.4 230.17 1513.84 231.535 1513.93 233.095V239.53C1513.84 241.06 1513.4 242.425 1512.62 243.625C1511.87 244.825 1510.85 245.77 1509.56 246.46C1508.3 247.12 1506.85 247.45 1505.2 247.45ZM1505.87 243.625C1507.88 243.625 1509.5 242.95 1510.73 241.6C1511.96 240.22 1512.58 238.465 1512.58 236.335C1512.58 234.865 1512.29 233.59 1511.72 232.51C1511.18 231.4 1510.4 230.545 1509.38 229.945C1508.36 229.315 1507.18 229 1505.83 229C1504.48 229 1503.28 229.315 1502.23 229.945C1501.21 230.575 1500.4 231.445 1499.8 232.555C1499.23 233.635 1498.94 234.88 1498.94 236.29C1498.94 237.73 1499.23 239.005 1499.8 240.115C1500.4 241.195 1501.22 242.05 1502.27 242.68C1503.32 243.31 1504.52 243.625 1505.87 243.625ZM1512.31 247V241.24L1513.07 236.02L1512.31 230.845V225.625H1516.4V247H1512.31Z" fill="#FFF2DC"/>
<path d="M1526.84 247.45C1525.64 247.45 1524.5 247.3 1523.42 247C1522.37 246.67 1521.4 246.22 1520.5 245.65C1519.6 245.05 1518.82 244.345 1518.16 243.535L1520.77 240.925C1521.55 241.885 1522.45 242.605 1523.47 243.085C1524.49 243.535 1525.63 243.76 1526.89 243.76C1528.15 243.76 1529.12 243.55 1529.81 243.13C1530.5 242.68 1530.85 242.065 1530.85 241.285C1530.85 240.505 1530.56 239.905 1529.99 239.485C1529.45 239.035 1528.75 238.675 1527.88 238.405C1527.01 238.105 1526.08 237.82 1525.09 237.55C1524.13 237.25 1523.21 236.875 1522.34 236.425C1521.47 235.975 1520.75 235.36 1520.18 234.58C1519.64 233.8 1519.37 232.765 1519.37 231.475C1519.37 230.185 1519.69 229.075 1520.32 228.145C1520.95 227.185 1521.82 226.45 1522.93 225.94C1524.07 225.43 1525.43 225.175 1527.02 225.175C1528.7 225.175 1530.19 225.475 1531.48 226.075C1532.8 226.645 1533.88 227.515 1534.72 228.685L1532.11 231.295C1531.51 230.515 1530.76 229.915 1529.86 229.495C1528.99 229.075 1528 228.865 1526.89 228.865C1525.72 228.865 1524.82 229.075 1524.19 229.495C1523.59 229.885 1523.29 230.44 1523.29 231.16C1523.29 231.88 1523.56 232.435 1524.1 232.825C1524.64 233.215 1525.34 233.545 1526.21 233.815C1527.11 234.085 1528.04 234.37 1529 234.67C1529.96 234.94 1530.88 235.315 1531.75 235.795C1532.62 236.275 1533.32 236.92 1533.86 237.73C1534.43 238.54 1534.72 239.605 1534.72 240.925C1534.72 242.935 1534 244.525 1532.56 245.695C1531.15 246.865 1529.24 247.45 1526.84 247.45Z" fill="#FFF2DC"/>
<path d="M1546.77 247.45C1544.67 247.45 1542.76 246.955 1541.05 245.965C1539.37 244.975 1538.04 243.64 1537.05 241.96C1536.09 240.25 1535.61 238.36 1535.61 236.29C1535.61 234.19 1536.09 232.3 1537.05 230.62C1538.04 228.94 1539.37 227.62 1541.05 226.66C1542.76 225.67 1544.67 225.175 1546.77 225.175C1548.42 225.175 1549.95 225.49 1551.36 226.12C1552.77 226.72 1553.98 227.605 1555 228.775L1552.3 231.475C1551.64 230.695 1550.83 230.11 1549.87 229.72C1548.94 229.3 1547.91 229.09 1546.77 229.09C1545.42 229.09 1544.22 229.405 1543.17 230.035C1542.12 230.635 1541.29 231.475 1540.69 232.555C1540.09 233.635 1539.79 234.88 1539.79 236.29C1539.79 237.7 1540.09 238.945 1540.69 240.025C1541.29 241.105 1542.12 241.96 1543.17 242.59C1544.22 243.22 1545.42 243.535 1546.77 243.535C1547.91 243.535 1548.94 243.34 1549.87 242.95C1550.83 242.53 1551.66 241.93 1552.35 241.15L1555 243.85C1554.01 244.99 1552.8 245.875 1551.36 246.505C1549.95 247.135 1548.42 247.45 1546.77 247.45Z" fill="#FFF2DC"/>
<path d="M1556.81 247V225.625H1560.86V247H1556.81ZM1558.84 221.35C1558.09 221.35 1557.47 221.11 1556.99 220.63C1556.51 220.12 1556.27 219.49 1556.27 218.74C1556.27 218.02 1556.51 217.42 1556.99 216.94C1557.47 216.43 1558.09 216.175 1558.84 216.175C1559.59 216.175 1560.2 216.43 1560.68 216.94C1561.16 217.42 1561.4 218.02 1561.4 218.74C1561.4 219.49 1561.16 220.12 1560.68 220.63C1560.2 221.11 1559.59 221.35 1558.84 221.35Z" fill="#FFF2DC"/>
<path d="M1579.7 247V234.535C1579.7 232.915 1579.19 231.58 1578.17 230.53C1577.15 229.48 1575.83 228.955 1574.21 228.955C1573.13 228.955 1572.17 229.195 1571.33 229.675C1570.49 230.155 1569.83 230.815 1569.35 231.655C1568.87 232.495 1568.63 233.455 1568.63 234.535L1566.97 233.59C1566.97 231.97 1567.33 230.53 1568.05 229.27C1568.77 228.01 1569.77 227.02 1571.06 226.3C1572.35 225.55 1573.81 225.175 1575.43 225.175C1577.05 225.175 1578.47 225.58 1579.7 226.39C1580.96 227.2 1581.95 228.265 1582.67 229.585C1583.39 230.875 1583.75 232.255 1583.75 233.725V247H1579.7ZM1564.58 247V225.625H1568.63V247H1564.58Z" fill="#FFF2DC"/>
<path d="M1596.07 247.45C1594.12 247.45 1592.35 246.97 1590.76 246.01C1589.17 245.02 1587.91 243.685 1586.98 242.005C1586.08 240.325 1585.63 238.435 1585.63 236.335C1585.63 234.235 1586.08 232.345 1586.98 230.665C1587.91 228.985 1589.16 227.65 1590.72 226.66C1592.31 225.67 1594.09 225.175 1596.07 225.175C1597.69 225.175 1599.13 225.52 1600.39 226.21C1601.68 226.87 1602.72 227.8 1603.5 229C1604.28 230.17 1604.71 231.535 1604.8 233.095V239.53C1604.71 241.06 1604.28 242.425 1603.5 243.625C1602.75 244.825 1601.73 245.77 1600.44 246.46C1599.18 247.12 1597.72 247.45 1596.07 247.45ZM1596.75 243.625C1598.76 243.625 1600.38 242.95 1601.61 241.6C1602.84 240.22 1603.45 238.465 1603.45 236.335C1603.45 234.865 1603.17 233.59 1602.6 232.51C1602.06 231.4 1601.28 230.545 1600.26 229.945C1599.24 229.315 1598.05 229 1596.7 229C1595.35 229 1594.15 229.315 1593.1 229.945C1592.08 230.575 1591.27 231.445 1590.67 232.555C1590.1 233.635 1589.82 234.88 1589.82 236.29C1589.82 237.73 1590.1 239.005 1590.67 240.115C1591.27 241.195 1592.1 242.05 1593.15 242.68C1594.2 243.31 1595.4 243.625 1596.75 243.625ZM1603.18 247V241.24L1603.95 236.02L1603.18 230.845V225.625H1607.28V247H1603.18Z" fill="#FFF2DC"/>
<path d="M1619.97 247.45C1617.99 247.45 1616.22 246.97 1614.66 246.01C1613.1 245.02 1611.86 243.685 1610.93 242.005C1610.03 240.325 1609.58 238.435 1609.58 236.335C1609.58 234.235 1610.03 232.345 1610.93 230.665C1611.86 228.985 1613.1 227.65 1614.66 226.66C1616.22 225.67 1617.99 225.175 1619.97 225.175C1621.56 225.175 1623 225.52 1624.29 226.21C1625.58 226.87 1626.62 227.8 1627.4 229C1628.21 230.17 1628.66 231.535 1628.75 233.095V239.53C1628.66 241.06 1628.22 242.425 1627.44 243.625C1626.66 244.825 1625.63 245.77 1624.34 246.46C1623.05 247.12 1621.59 247.45 1619.97 247.45ZM1620.65 243.625C1622 243.625 1623.17 243.31 1624.16 242.68C1625.18 242.05 1625.97 241.195 1626.54 240.115C1627.11 239.005 1627.4 237.745 1627.4 236.335C1627.4 234.865 1627.1 233.59 1626.5 232.51C1625.93 231.43 1625.13 230.575 1624.11 229.945C1623.12 229.315 1621.95 229 1620.6 229C1619.25 229 1618.07 229.315 1617.05 229.945C1616.03 230.575 1615.22 231.445 1614.62 232.555C1614.05 233.635 1613.76 234.88 1613.76 236.29C1613.76 237.73 1614.05 239.005 1614.62 240.115C1615.22 241.195 1616.03 242.05 1617.05 242.68C1618.1 243.31 1619.3 243.625 1620.65 243.625ZM1631.22 247H1627.13V241.24L1627.89 236.02L1627.13 230.845V214.87H1631.22V247Z" fill="#FFF2DC"/>
<path d="M1644.63 247.45C1642.53 247.45 1640.64 246.955 1638.96 245.965C1637.28 244.975 1635.95 243.64 1634.96 241.96C1633.97 240.25 1633.47 238.345 1633.47 236.245C1633.47 234.175 1633.97 232.315 1634.96 230.665C1635.95 228.985 1637.28 227.65 1638.96 226.66C1640.64 225.67 1642.53 225.175 1644.63 225.175C1646.7 225.175 1648.58 225.67 1650.26 226.66C1651.97 227.62 1653.32 228.94 1654.31 230.62C1655.3 232.3 1655.79 234.175 1655.79 236.245C1655.79 238.345 1655.3 240.25 1654.31 241.96C1653.32 243.64 1651.97 244.975 1650.26 245.965C1648.58 246.955 1646.7 247.45 1644.63 247.45ZM1644.63 243.535C1645.98 243.535 1647.18 243.22 1648.23 242.59C1649.28 241.96 1650.11 241.105 1650.71 240.025C1651.31 238.915 1651.61 237.655 1651.61 236.245C1651.61 234.865 1651.29 233.635 1650.66 232.555C1650.06 231.475 1649.24 230.635 1648.19 230.035C1647.17 229.405 1645.98 229.09 1644.63 229.09C1643.28 229.09 1642.08 229.405 1641.03 230.035C1639.98 230.635 1639.16 231.475 1638.56 232.555C1637.96 233.635 1637.66 234.865 1637.66 236.245C1637.66 237.655 1637.96 238.915 1638.56 240.025C1639.16 241.105 1639.98 241.96 1641.03 242.59C1642.08 243.22 1643.28 243.535 1644.63 243.535Z" fill="#FFF2DC"/>
<path d="M1181.22 287.45C1179.6 287.45 1178.13 287.12 1176.81 286.46C1175.52 285.77 1174.48 284.825 1173.7 283.625C1172.92 282.425 1172.49 281.06 1172.4 279.53V273.095C1172.49 271.535 1172.92 270.17 1173.7 269C1174.52 267.8 1175.56 266.87 1176.85 266.21C1178.17 265.52 1179.63 265.175 1181.22 265.175C1183.17 265.175 1184.92 265.67 1186.48 266.66C1188.07 267.65 1189.32 268.985 1190.22 270.665C1191.12 272.345 1191.57 274.235 1191.57 276.335C1191.57 278.435 1191.12 280.325 1190.22 282.005C1189.32 283.685 1188.07 285.02 1186.48 286.01C1184.92 286.97 1183.17 287.45 1181.22 287.45ZM1169.97 295.955V265.625H1174.02V271.25L1173.26 276.425L1174.02 281.645V295.955H1169.97ZM1180.55 283.625C1181.9 283.625 1183.08 283.31 1184.1 282.68C1185.12 282.05 1185.93 281.195 1186.53 280.115C1187.13 279.005 1187.43 277.73 1187.43 276.29C1187.43 274.88 1187.13 273.62 1186.53 272.51C1185.93 271.4 1185.12 270.545 1184.1 269.945C1183.08 269.315 1181.91 269 1180.59 269C1179.24 269 1178.06 269.315 1177.04 269.945C1176.02 270.545 1175.22 271.4 1174.65 272.51C1174.08 273.62 1173.8 274.895 1173.8 276.335C1173.8 277.745 1174.06 279.005 1174.6 280.115C1175.17 281.195 1175.97 282.05 1176.99 282.68C1178.04 283.31 1179.23 283.625 1180.55 283.625Z" fill="#FFF2DC"/>
<path d="M1203.68 287.45C1201.58 287.45 1199.69 286.955 1198.01 285.965C1196.33 284.975 1194.99 283.64 1194 281.96C1193.01 280.25 1192.52 278.345 1192.52 276.245C1192.52 274.175 1193.01 272.315 1194 270.665C1194.99 268.985 1196.33 267.65 1198.01 266.66C1199.69 265.67 1201.58 265.175 1203.68 265.175C1205.75 265.175 1207.62 265.67 1209.3 266.66C1211.01 267.62 1212.36 268.94 1213.35 270.62C1214.34 272.3 1214.84 274.175 1214.84 276.245C1214.84 278.345 1214.34 280.25 1213.35 281.96C1212.36 283.64 1211.01 284.975 1209.3 285.965C1207.62 286.955 1205.75 287.45 1203.68 287.45ZM1203.68 283.535C1205.03 283.535 1206.23 283.22 1207.28 282.59C1208.33 281.96 1209.15 281.105 1209.75 280.025C1210.35 278.915 1210.65 277.655 1210.65 276.245C1210.65 274.865 1210.34 273.635 1209.71 272.555C1209.11 271.475 1208.28 270.635 1207.23 270.035C1206.21 269.405 1205.03 269.09 1203.68 269.09C1202.33 269.09 1201.13 269.405 1200.08 270.035C1199.03 270.635 1198.2 271.475 1197.6 272.555C1197 273.635 1196.7 274.865 1196.7 276.245C1196.7 277.655 1197 278.915 1197.6 280.025C1198.2 281.105 1199.03 281.96 1200.08 282.59C1201.13 283.22 1202.33 283.535 1203.68 283.535Z" fill="#FFF2DC"/>
<path d="M1217.15 287V265.625H1221.2V287H1217.15ZM1221.2 274.805L1219.67 274.13C1219.67 271.4 1220.3 269.225 1221.56 267.605C1222.82 265.985 1224.63 265.175 1227 265.175C1228.08 265.175 1229.06 265.37 1229.93 265.76C1230.8 266.12 1231.61 266.735 1232.36 267.605L1229.7 270.35C1229.25 269.87 1228.76 269.525 1228.22 269.315C1227.68 269.105 1227.05 269 1226.33 269C1224.83 269 1223.6 269.48 1222.64 270.44C1221.68 271.4 1221.2 272.855 1221.2 274.805Z" fill="#FFF2DC"/>
<path d="M1249.46 287.45C1247.72 287.45 1246.14 287.06 1244.73 286.28C1243.35 285.47 1242.27 284.36 1241.49 282.95C1240.71 281.54 1240.32 279.905 1240.32 278.045V265.625H1244.37V277.865C1244.37 279.035 1244.57 280.055 1244.96 280.925C1245.38 281.765 1245.98 282.41 1246.76 282.86C1247.54 283.31 1248.45 283.535 1249.5 283.535C1251.09 283.535 1252.34 283.04 1253.24 282.05C1254.14 281.03 1254.59 279.635 1254.59 277.865V265.625H1258.64V278.045C1258.64 279.905 1258.25 281.54 1257.47 282.95C1256.69 284.36 1255.61 285.47 1254.23 286.28C1252.88 287.06 1251.29 287.45 1249.46 287.45Z" fill="#FFF2DC"/>
<path d="M1275.86 287L1269.2 277.64L1268.43 276.92L1260.02 265.625H1264.92L1271 273.95L1271.76 274.58L1280.76 287H1275.86ZM1259.61 287L1268.43 275.12L1270.73 278.09L1264.38 287H1259.61ZM1272.08 276.875L1269.74 273.995L1275.63 265.625H1280.36L1272.08 276.875Z" fill="#FFF2DC"/>
<path d="M1299.25 287.45C1297.12 287.45 1295.2 286.97 1293.49 286.01C1291.78 285.02 1290.43 283.685 1289.44 282.005C1288.45 280.325 1287.96 278.42 1287.96 276.29C1287.96 274.19 1288.44 272.3 1289.4 270.62C1290.39 268.94 1291.71 267.62 1293.36 266.66C1295.04 265.67 1296.91 265.175 1298.98 265.175C1300.96 265.175 1302.7 265.625 1304.2 266.525C1305.73 267.425 1306.92 268.67 1307.76 270.26C1308.63 271.85 1309.06 273.65 1309.06 275.66C1309.06 275.96 1309.05 276.29 1309.02 276.65C1308.99 276.98 1308.93 277.37 1308.84 277.82H1290.79V274.445H1306.68L1305.19 275.75C1305.19 274.31 1304.94 273.095 1304.43 272.105C1303.92 271.085 1303.2 270.305 1302.27 269.765C1301.34 269.195 1300.21 268.91 1298.89 268.91C1297.51 268.91 1296.3 269.21 1295.25 269.81C1294.2 270.41 1293.39 271.25 1292.82 272.33C1292.25 273.41 1291.96 274.685 1291.96 276.155C1291.96 277.655 1292.26 278.975 1292.86 280.115C1293.46 281.225 1294.32 282.095 1295.43 282.725C1296.54 283.325 1297.81 283.625 1299.25 283.625C1300.45 283.625 1301.55 283.415 1302.54 282.995C1303.56 282.575 1304.43 281.945 1305.15 281.105L1307.76 283.76C1306.74 284.96 1305.48 285.875 1303.98 286.505C1302.51 287.135 1300.93 287.45 1299.25 287.45Z" fill="#FFF2DC"/>
<path d="M1327.38 287.45C1325.4 287.45 1323.63 286.97 1322.07 286.01C1320.51 285.02 1319.27 283.685 1318.34 282.005C1317.44 280.325 1316.99 278.435 1316.99 276.335C1316.99 274.235 1317.44 272.345 1318.34 270.665C1319.27 268.985 1320.51 267.65 1322.07 266.66C1323.63 265.67 1325.4 265.175 1327.38 265.175C1328.97 265.175 1330.41 265.52 1331.7 266.21C1332.99 266.87 1334.03 267.8 1334.81 269C1335.62 270.17 1336.07 271.535 1336.16 273.095V279.53C1336.07 281.06 1335.63 282.425 1334.85 283.625C1334.07 284.825 1333.04 285.77 1331.75 286.46C1330.46 287.12 1329 287.45 1327.38 287.45ZM1328.06 283.625C1329.41 283.625 1330.58 283.31 1331.57 282.68C1332.59 282.05 1333.38 281.195 1333.95 280.115C1334.52 279.005 1334.81 277.745 1334.81 276.335C1334.81 274.865 1334.51 273.59 1333.91 272.51C1333.34 271.43 1332.54 270.575 1331.52 269.945C1330.53 269.315 1329.36 269 1328.01 269C1326.66 269 1325.48 269.315 1324.46 269.945C1323.44 270.575 1322.63 271.445 1322.03 272.555C1321.46 273.635 1321.17 274.88 1321.17 276.29C1321.17 277.73 1321.46 279.005 1322.03 280.115C1322.63 281.195 1323.44 282.05 1324.46 282.68C1325.51 283.31 1326.71 283.625 1328.06 283.625ZM1338.63 287H1334.54V281.24L1335.3 276.02L1334.54 270.845V254.87H1338.63V287Z" fill="#FFF2DC"/>
<path d="M1352.18 287.45C1350.05 287.45 1348.13 286.97 1346.42 286.01C1344.71 285.02 1343.36 283.685 1342.37 282.005C1341.38 280.325 1340.88 278.42 1340.88 276.29C1340.88 274.19 1341.36 272.3 1342.32 270.62C1343.31 268.94 1344.63 267.62 1346.28 266.66C1347.96 265.67 1349.84 265.175 1351.91 265.175C1353.89 265.175 1355.63 265.625 1357.13 266.525C1358.66 267.425 1359.84 268.67 1360.68 270.26C1361.55 271.85 1361.99 273.65 1361.99 275.66C1361.99 275.96 1361.97 276.29 1361.94 276.65C1361.91 276.98 1361.85 277.37 1361.76 277.82H1343.72V274.445H1359.6L1358.12 275.75C1358.12 274.31 1357.86 273.095 1357.35 272.105C1356.84 271.085 1356.12 270.305 1355.19 269.765C1354.26 269.195 1353.14 268.91 1351.82 268.91C1350.44 268.91 1349.22 269.21 1348.17 269.81C1347.12 270.41 1346.31 271.25 1345.74 272.33C1345.17 273.41 1344.89 274.685 1344.89 276.155C1344.89 277.655 1345.19 278.975 1345.79 280.115C1346.39 281.225 1347.24 282.095 1348.35 282.725C1349.46 283.325 1350.74 283.625 1352.18 283.625C1353.38 283.625 1354.47 283.415 1355.46 282.995C1356.48 282.575 1357.35 281.945 1358.07 281.105L1360.68 283.76C1359.66 284.96 1358.4 285.875 1356.9 286.505C1355.43 287.135 1353.86 287.45 1352.18 287.45Z" fill="#FFF2DC"/>
<path d="M1370.95 287.45C1369.75 287.45 1368.61 287.3 1367.53 287C1366.48 286.67 1365.51 286.22 1364.61 285.65C1363.71 285.05 1362.93 284.345 1362.27 283.535L1364.88 280.925C1365.66 281.885 1366.56 282.605 1367.58 283.085C1368.6 283.535 1369.74 283.76 1371 283.76C1372.26 283.76 1373.23 283.55 1373.92 283.13C1374.61 282.68 1374.96 282.065 1374.96 281.285C1374.96 280.505 1374.67 279.905 1374.1 279.485C1373.56 279.035 1372.86 278.675 1371.99 278.405C1371.12 278.105 1370.19 277.82 1369.2 277.55C1368.24 277.25 1367.32 276.875 1366.45 276.425C1365.58 275.975 1364.86 275.36 1364.29 274.58C1363.75 273.8 1363.48 272.765 1363.48 271.475C1363.48 270.185 1363.8 269.075 1364.43 268.145C1365.06 267.185 1365.93 266.45 1367.04 265.94C1368.18 265.43 1369.54 265.175 1371.13 265.175C1372.81 265.175 1374.3 265.475 1375.59 266.075C1376.91 266.645 1377.99 267.515 1378.83 268.685L1376.22 271.295C1375.62 270.515 1374.87 269.915 1373.97 269.495C1373.1 269.075 1372.11 268.865 1371 268.865C1369.83 268.865 1368.93 269.075 1368.3 269.495C1367.7 269.885 1367.4 270.44 1367.4 271.16C1367.4 271.88 1367.67 272.435 1368.21 272.825C1368.75 273.215 1369.45 273.545 1370.32 273.815C1371.22 274.085 1372.15 274.37 1373.11 274.67C1374.07 274.94 1374.99 275.315 1375.86 275.795C1376.73 276.275 1377.43 276.92 1377.97 277.73C1378.54 278.54 1378.83 279.605 1378.83 280.925C1378.83 282.935 1378.11 284.525 1376.67 285.695C1375.26 286.865 1373.35 287.45 1370.95 287.45Z" fill="#FFF2DC"/>
<path d="M1391.01 287.45C1388.88 287.45 1386.96 286.97 1385.25 286.01C1383.54 285.02 1382.19 283.685 1381.2 282.005C1380.21 280.325 1379.71 278.42 1379.71 276.29C1379.71 274.19 1380.19 272.3 1381.15 270.62C1382.14 268.94 1383.46 267.62 1385.11 266.66C1386.79 265.67 1388.67 265.175 1390.74 265.175C1392.72 265.175 1394.46 265.625 1395.96 266.525C1397.49 267.425 1398.67 268.67 1399.51 270.26C1400.38 271.85 1400.82 273.65 1400.82 275.66C1400.82 275.96 1400.8 276.29 1400.77 276.65C1400.74 276.98 1400.68 277.37 1400.59 277.82H1382.55V274.445H1398.43L1396.95 275.75C1396.95 274.31 1396.69 273.095 1396.18 272.105C1395.67 271.085 1394.95 270.305 1394.02 269.765C1393.09 269.195 1391.97 268.91 1390.65 268.91C1389.27 268.91 1388.05 269.21 1387 269.81C1385.95 270.41 1385.14 271.25 1384.57 272.33C1384 273.41 1383.72 274.685 1383.72 276.155C1383.72 277.655 1384.02 278.975 1384.62 280.115C1385.22 281.225 1386.07 282.095 1387.18 282.725C1388.29 283.325 1389.57 283.625 1391.01 283.625C1392.21 283.625 1393.3 283.415 1394.29 282.995C1395.31 282.575 1396.18 281.945 1396.9 281.105L1399.51 283.76C1398.49 284.96 1397.23 285.875 1395.73 286.505C1394.26 287.135 1392.69 287.45 1391.01 287.45Z" fill="#FFF2DC"/>
<path d="M1418.11 287V274.535C1418.11 272.915 1417.6 271.58 1416.58 270.53C1415.56 269.48 1414.24 268.955 1412.62 268.955C1411.54 268.955 1410.58 269.195 1409.74 269.675C1408.9 270.155 1408.24 270.815 1407.76 271.655C1407.28 272.495 1407.04 273.455 1407.04 274.535L1405.37 273.59C1405.37 271.97 1405.73 270.53 1406.45 269.27C1407.17 268.01 1408.18 267.02 1409.47 266.3C1410.76 265.55 1412.21 265.175 1413.83 265.175C1415.45 265.175 1416.88 265.58 1418.11 266.39C1419.37 267.2 1420.36 268.265 1421.08 269.585C1421.8 270.875 1422.16 272.255 1422.16 273.725V287H1418.11ZM1402.99 287V265.625H1407.04V287H1402.99Z" fill="#FFF2DC"/>
<path d="M1432.72 287L1422.91 265.625H1427.41L1435.29 283.67H1432.68L1440.6 265.625H1444.92L1435.11 287H1432.72Z" fill="#FFF2DC"/>
<path d="M1455.05 287.45C1452.95 287.45 1451.06 286.955 1449.38 285.965C1447.7 284.975 1446.37 283.64 1445.38 281.96C1444.39 280.25 1443.89 278.345 1443.89 276.245C1443.89 274.175 1444.39 272.315 1445.38 270.665C1446.37 268.985 1447.7 267.65 1449.38 266.66C1451.06 265.67 1452.95 265.175 1455.05 265.175C1457.12 265.175 1459 265.67 1460.68 266.66C1462.39 267.62 1463.74 268.94 1464.73 270.62C1465.72 272.3 1466.21 274.175 1466.21 276.245C1466.21 278.345 1465.72 280.25 1464.73 281.96C1463.74 283.64 1462.39 284.975 1460.68 285.965C1459 286.955 1457.12 287.45 1455.05 287.45ZM1455.05 283.535C1456.4 283.535 1457.6 283.22 1458.65 282.59C1459.7 281.96 1460.53 281.105 1461.13 280.025C1461.73 278.915 1462.03 277.655 1462.03 276.245C1462.03 274.865 1461.71 273.635 1461.08 272.555C1460.48 271.475 1459.66 270.635 1458.61 270.035C1457.59 269.405 1456.4 269.09 1455.05 269.09C1453.7 269.09 1452.5 269.405 1451.45 270.035C1450.4 270.635 1449.58 271.475 1448.98 272.555C1448.38 273.635 1448.08 274.865 1448.08 276.245C1448.08 277.655 1448.38 278.915 1448.98 280.025C1449.58 281.105 1450.4 281.96 1451.45 282.59C1452.5 283.22 1453.7 283.535 1455.05 283.535Z" fill="#FFF2DC"/>
<path d="M1468.53 287V254.87H1472.58V287H1468.53Z" fill="#FFF2DC"/>
<path d="M1483.59 287L1473.78 265.625H1478.28L1486.15 283.67H1483.54L1491.46 265.625H1495.78L1485.97 287H1483.59Z" fill="#FFF2DC"/>
<path d="M1497.03 287V265.625H1501.08V287H1497.03ZM1499.05 261.35C1498.3 261.35 1497.69 261.11 1497.21 260.63C1496.73 260.12 1496.49 259.49 1496.49 258.74C1496.49 258.02 1496.73 257.42 1497.21 256.94C1497.69 256.43 1498.3 256.175 1499.05 256.175C1499.8 256.175 1500.42 256.43 1500.9 256.94C1501.38 257.42 1501.62 258.02 1501.62 258.74C1501.62 259.49 1501.38 260.12 1500.9 260.63C1500.42 261.11 1499.8 261.35 1499.05 261.35Z" fill="#FFF2DC"/>
<path d="M1504.8 287V265.625H1508.85V287H1504.8ZM1519.24 287V274.085C1519.24 272.495 1518.75 271.25 1517.76 270.35C1516.8 269.42 1515.58 268.955 1514.11 268.955C1513.12 268.955 1512.24 269.165 1511.46 269.585C1510.68 270.005 1510.05 270.59 1509.57 271.34C1509.09 272.09 1508.85 272.99 1508.85 274.04L1507.18 273.23C1507.18 271.61 1507.53 270.2 1508.22 269C1508.94 267.8 1509.91 266.87 1511.14 266.21C1512.37 265.52 1513.75 265.175 1515.28 265.175C1516.78 265.175 1518.13 265.505 1519.33 266.165C1520.56 266.825 1521.52 267.755 1522.21 268.955C1522.93 270.155 1523.29 271.58 1523.29 273.23V287H1519.24ZM1533.69 287V274.085C1533.69 272.495 1533.19 271.25 1532.2 270.35C1531.24 269.42 1530.04 268.955 1528.6 268.955C1527.61 268.955 1526.71 269.165 1525.9 269.585C1525.12 270.005 1524.49 270.59 1524.01 271.34C1523.53 272.09 1523.29 272.99 1523.29 274.04L1521 273.23C1521.09 271.58 1521.52 270.17 1522.3 269C1523.11 267.8 1524.15 266.87 1525.41 266.21C1526.67 265.52 1528.05 265.175 1529.55 265.175C1531.11 265.175 1532.5 265.505 1533.73 266.165C1534.96 266.825 1535.94 267.755 1536.66 268.955C1537.41 270.155 1537.78 271.595 1537.78 273.275V287H1533.69Z" fill="#FFF2DC"/>
<path d="M1550.94 287.45C1548.81 287.45 1546.89 286.97 1545.18 286.01C1543.47 285.02 1542.12 283.685 1541.13 282.005C1540.14 280.325 1539.65 278.42 1539.65 276.29C1539.65 274.19 1540.13 272.3 1541.09 270.62C1542.08 268.94 1543.4 267.62 1545.05 266.66C1546.73 265.67 1548.6 265.175 1550.67 265.175C1552.65 265.175 1554.39 265.625 1555.89 266.525C1557.42 267.425 1558.61 268.67 1559.45 270.26C1560.32 271.85 1560.75 273.65 1560.75 275.66C1560.75 275.96 1560.74 276.29 1560.71 276.65C1560.68 276.98 1560.62 277.37 1560.53 277.82H1542.48V274.445H1558.37L1556.88 275.75C1556.88 274.31 1556.63 273.095 1556.12 272.105C1555.61 271.085 1554.89 270.305 1553.96 269.765C1553.03 269.195 1551.9 268.91 1550.58 268.91C1549.2 268.91 1547.99 269.21 1546.94 269.81C1545.89 270.41 1545.08 271.25 1544.51 272.33C1543.94 273.41 1543.65 274.685 1543.65 276.155C1543.65 277.655 1543.95 278.975 1544.55 280.115C1545.15 281.225 1546.01 282.095 1547.12 282.725C1548.23 283.325 1549.5 283.625 1550.94 283.625C1552.14 283.625 1553.24 283.415 1554.23 282.995C1555.25 282.575 1556.12 281.945 1556.84 281.105L1559.45 283.76C1558.43 284.96 1557.17 285.875 1555.67 286.505C1554.2 287.135 1552.62 287.45 1550.94 287.45Z" fill="#FFF2DC"/>
<path d="M1578.04 287V274.535C1578.04 272.915 1577.53 271.58 1576.51 270.53C1575.49 269.48 1574.17 268.955 1572.55 268.955C1571.47 268.955 1570.51 269.195 1569.67 269.675C1568.83 270.155 1568.17 270.815 1567.69 271.655C1567.21 272.495 1566.97 273.455 1566.97 274.535L1565.31 273.59C1565.31 271.97 1565.67 270.53 1566.39 269.27C1567.11 268.01 1568.11 267.02 1569.4 266.3C1570.69 265.55 1572.15 265.175 1573.77 265.175C1575.39 265.175 1576.81 265.58 1578.04 266.39C1579.3 267.2 1580.29 268.265 1581.01 269.585C1581.73 270.875 1582.09 272.255 1582.09 273.725V287H1578.04ZM1562.92 287V265.625H1566.97V287H1562.92Z" fill="#FFF2DC"/>
<path d="M1588.34 287V256.67H1592.39V287H1588.34ZM1583.08 269.315V265.625H1597.66V269.315H1583.08Z" fill="#FFF2DC"/>
<path d="M1608.48 287.45C1606.38 287.45 1604.49 286.955 1602.81 285.965C1601.13 284.975 1599.8 283.64 1598.81 281.96C1597.82 280.25 1597.32 278.345 1597.32 276.245C1597.32 274.175 1597.82 272.315 1598.81 270.665C1599.8 268.985 1601.13 267.65 1602.81 266.66C1604.49 265.67 1606.38 265.175 1608.48 265.175C1610.55 265.175 1612.43 265.67 1614.11 266.66C1615.82 267.62 1617.17 268.94 1618.16 270.62C1619.15 272.3 1619.64 274.175 1619.64 276.245C1619.64 278.345 1619.15 280.25 1618.16 281.96C1617.17 283.64 1615.82 284.975 1614.11 285.965C1612.43 286.955 1610.55 287.45 1608.48 287.45ZM1608.48 283.535C1609.83 283.535 1611.03 283.22 1612.08 282.59C1613.13 281.96 1613.96 281.105 1614.56 280.025C1615.16 278.915 1615.46 277.655 1615.46 276.245C1615.46 274.865 1615.14 273.635 1614.51 272.555C1613.91 271.475 1613.09 270.635 1612.04 270.035C1611.02 269.405 1609.83 269.09 1608.48 269.09C1607.13 269.09 1605.93 269.405 1604.88 270.035C1603.83 270.635 1603.01 271.475 1602.41 272.555C1601.81 273.635 1601.51 274.865 1601.51 276.245C1601.51 277.655 1601.81 278.915 1602.41 280.025C1603.01 281.105 1603.83 281.96 1604.88 282.59C1605.93 283.22 1607.13 283.535 1608.48 283.535Z" fill="#FFF2DC"/>
<path d="M1635.19 287L1626.73 265.625H1630.96L1637.08 282.275H1635.73L1641.8 265.625H1644.14L1650.22 282.275H1648.87L1654.99 265.625H1659.22L1650.8 287H1648.42L1642.25 270.845H1643.74L1637.53 287H1635.19Z" fill="#FFF2DC"/>
<path d="M1669.85 287.45C1667.72 287.45 1665.8 286.97 1664.09 286.01C1662.38 285.02 1661.03 283.685 1660.04 282.005C1659.05 280.325 1658.56 278.42 1658.56 276.29C1658.56 274.19 1659.04 272.3 1660 270.62C1660.99 268.94 1662.31 267.62 1663.96 266.66C1665.64 265.67 1667.51 265.175 1669.58 265.175C1671.56 265.175 1673.3 265.625 1674.8 266.525C1676.33 267.425 1677.52 268.67 1678.36 270.26C1679.23 271.85 1679.66 273.65 1679.66 275.66C1679.66 275.96 1679.65 276.29 1679.62 276.65C1679.59 276.98 1679.53 277.37 1679.44 277.82H1661.39V274.445H1677.28L1675.79 275.75C1675.79 274.31 1675.54 273.095 1675.03 272.105C1674.52 271.085 1673.8 270.305 1672.87 269.765C1671.94 269.195 1670.81 268.91 1669.49 268.91C1668.11 268.91 1666.9 269.21 1665.85 269.81C1664.8 270.41 1663.99 271.25 1663.42 272.33C1662.85 273.41 1662.56 274.685 1662.56 276.155C1662.56 277.655 1662.86 278.975 1663.46 280.115C1664.06 281.225 1664.92 282.095 1666.03 282.725C1667.14 283.325 1668.41 283.625 1669.85 283.625C1671.05 283.625 1672.15 283.415 1673.14 282.995C1674.16 282.575 1675.03 281.945 1675.75 281.105L1678.36 283.76C1677.34 284.96 1676.08 285.875 1674.58 286.505C1673.11 287.135 1671.53 287.45 1669.85 287.45Z" fill="#FFF2DC"/>
<path d="M1693.08 287.45C1691.46 287.45 1689.99 287.12 1688.67 286.46C1687.38 285.77 1686.34 284.825 1685.56 283.625C1684.78 282.425 1684.35 281.06 1684.26 279.53V273.095C1684.35 271.535 1684.78 270.17 1685.56 269C1686.37 267.8 1687.42 266.87 1688.71 266.21C1690.03 265.52 1691.49 265.175 1693.08 265.175C1695.03 265.175 1696.78 265.67 1698.34 266.66C1699.93 267.65 1701.18 268.985 1702.08 270.665C1702.98 272.345 1703.43 274.235 1703.43 276.335C1703.43 278.435 1702.98 280.325 1702.08 282.005C1701.18 283.685 1699.93 285.02 1698.34 286.01C1696.78 286.97 1695.03 287.45 1693.08 287.45ZM1681.83 287V254.87H1685.88V270.845L1685.11 276.02L1685.88 281.24V287H1681.83ZM1692.4 283.625C1693.75 283.625 1694.94 283.31 1695.96 282.68C1696.98 282.05 1697.79 281.195 1698.39 280.115C1698.99 279.005 1699.29 277.73 1699.29 276.29C1699.29 274.88 1698.99 273.62 1698.39 272.51C1697.79 271.4 1696.98 270.545 1695.96 269.945C1694.94 269.315 1693.77 269 1692.45 269C1691.1 269 1689.91 269.315 1688.89 269.945C1687.87 270.545 1687.08 271.4 1686.51 272.51C1685.94 273.62 1685.65 274.895 1685.65 276.335C1685.65 277.745 1685.92 279.005 1686.46 280.115C1687.03 281.195 1687.83 282.05 1688.85 282.68C1689.9 283.31 1691.08 283.625 1692.4 283.625Z" fill="#FFF2DC"/>
<path d="M1708.44 287.45C1707.6 287.45 1706.9 287.165 1706.33 286.595C1705.79 285.995 1705.52 285.29 1705.52 284.48C1705.52 283.64 1705.79 282.95 1706.33 282.41C1706.9 281.84 1707.6 281.555 1708.44 281.555C1709.28 281.555 1709.97 281.84 1710.51 282.41C1711.08 282.95 1711.37 283.64 1711.37 284.48C1711.37 285.29 1711.08 285.995 1710.51 286.595C1709.97 287.165 1709.28 287.45 1708.44 287.45Z" fill="#FFF2DC"/>
<path d="M1434.3 0L1440.86 7.20085L1450.14 4.24507L1452.22 13.7615L1461.74 15.8428L1458.79 25.1249L1465.99 31.6856L1458.79 38.2463L1461.74 47.5284L1452.22 49.6097L1450.14 59.1261L1440.86 56.1704L1434.3 63.3712L1427.74 56.1704L1418.46 59.1261L1416.38 49.6097L1406.86 47.5284L1409.82 38.2463L1402.61 31.6856L1409.82 25.1249L1406.86 15.8428L1416.38 13.7615L1418.46 4.24507L1427.74 7.20085L1434.3 0Z" fill="#A30000"/>
<path d="M134.696 250C125.798 250 117.972 248.352 111.216 245.057C104.626 241.762 99.5182 236.901 95.8933 230.475C92.4333 224.214 90.7032 216.717 90.7032 207.985C90.7032 205.843 90.7856 203.619 90.9504 201.312C91.1151 199.17 91.3623 196.946 91.6918 194.639C78.1811 195.133 65.8237 193.238 54.6196 188.955C43.4156 184.671 33.6945 178.574 25.4562 170.666C17.3827 162.757 11.1216 153.448 6.67299 142.738C2.22433 131.863 0 120.083 0 107.396C0 95.3679 2.05956 84.0815 6.17869 73.5365C10.2978 62.9915 16.2294 53.6823 23.9733 45.6088C31.7173 37.5353 41.0265 31.2742 51.901 26.8256C62.7755 22.2122 74.8858 19.9054 88.2317 19.9054C101.742 19.9054 113.935 22.1298 124.81 26.5784C135.684 30.8623 144.993 36.9586 152.737 44.8674C160.481 52.7761 166.413 61.9206 170.532 72.3008C174.651 82.5162 176.711 93.5555 176.711 105.419V204.278C176.711 213.01 175.063 220.837 171.768 227.757C168.637 234.677 163.941 240.114 157.68 244.068C151.419 248.023 143.758 250 134.696 250ZM132.718 223.555C137.167 223.555 140.627 221.908 143.099 218.612C145.735 215.317 147.053 210.786 147.053 205.019V153.612C141.616 157.402 137.002 161.356 133.213 165.475C129.588 169.43 126.704 173.549 124.562 177.833C122.421 182.117 120.855 186.565 119.867 191.179C118.878 195.627 118.384 200.159 118.384 204.772C118.384 208.726 119.043 212.104 120.361 214.905C121.679 217.706 123.409 219.848 125.551 221.331C127.858 222.814 130.247 223.555 132.718 223.555ZM88.2317 168.936C90.868 168.936 93.2571 168.853 95.399 168.688C97.541 168.359 99.8477 167.947 102.319 167.453C104.955 162.51 108.251 157.484 112.205 152.377C116.159 147.269 121.02 142.326 126.787 137.548C132.554 132.605 139.309 127.909 147.053 123.46V105.419C147.053 97.0155 145.57 89.1892 142.604 81.9395C139.803 74.6899 135.684 68.4288 130.247 63.1563C124.974 57.719 118.796 53.5175 111.711 50.5518C104.626 47.4212 96.7995 45.8559 88.2317 45.8559C79.8287 45.8559 72.0024 47.4212 64.7527 50.5518C57.6678 53.6823 51.4891 58.0486 46.2166 63.6506C40.9441 69.0878 36.825 75.5961 33.8592 83.1753C30.8935 90.5897 29.4106 98.6632 29.4106 107.396C29.4106 116.128 30.8935 124.284 33.8592 131.863C36.825 139.278 40.9441 145.786 46.2166 151.388C51.4891 156.825 57.6678 161.109 64.7527 164.24C72.0024 167.37 79.8287 168.936 88.2317 168.936Z" fill="#FFF2DC"/>
<path d="M246.806 198.346C236.92 198.346 228.27 196.039 220.855 191.426C213.606 186.648 208.004 179.892 204.049 171.16C200.095 162.427 198.118 152.212 198.118 140.514V72.3008H224.316L224.563 136.559C224.563 148.093 227.611 157.237 233.707 163.993C239.968 170.748 248.289 174.126 258.669 174.126C265.095 174.126 270.944 172.478 276.217 169.183C281.489 165.887 285.608 161.439 288.574 155.837C291.704 150.07 293.27 143.644 293.27 136.559V72.3008H319.22V195.875H293.27V155.342C290.469 168.359 284.867 178.821 276.464 186.73C268.225 194.474 258.34 198.346 246.806 198.346Z" fill="#FFF2DC"/>
<path d="M346.428 199.331V167.07H450.126V148.058H372.352V122.422H346.428V90.448H372.352V64.5234H482.1V96.7851H378.113V115.508H455.887V141.145H482.1V173.695H455.887V199.331H346.428Z" fill="#FFF2DC"/>
<path d="M565.039 198.346C549.551 198.346 538.017 194.886 530.438 187.966C523.024 181.046 519.316 170.913 519.316 157.567V95.7798H490.153V72.3008H510.419C514.209 72.3008 517.092 71.3122 519.069 69.335C521.046 67.193 522.035 64.2273 522.035 60.4377V42.643H545.514L545.267 72.3008H594.696V95.7798H545.267V151.388C545.267 159.297 547.244 165.064 551.198 168.688C555.318 172.313 561.743 174.126 570.476 174.126C577.231 174.126 585.305 173.137 594.696 171.16V194.639C590.083 195.627 584.975 196.451 579.373 197.11C573.936 197.934 569.158 198.346 565.039 198.346Z" fill="#FFF2DC"/>
<path d="M639.781 198.84C628.248 198.84 619.104 196.122 612.348 190.685C605.593 185.083 602.215 177.421 602.215 167.7C602.215 158.143 605.346 150.729 611.607 145.456C618.033 140.184 625.612 136.559 634.344 134.582C643.077 132.44 652.963 130.957 664.002 130.133C673.394 129.474 680.561 128.321 685.504 126.673C690.612 125.026 693.165 121.977 693.165 117.529C693.165 109.291 690.364 102.782 684.762 98.0041C679.16 93.2259 672.158 90.8368 663.755 90.8368C654.693 90.8368 647.196 93.3907 641.264 98.4984C635.498 103.441 632.038 110.362 630.884 119.259H606.664C607.488 108.879 610.453 99.9813 615.561 92.5669C620.833 85.1524 627.671 79.5504 636.074 75.7608C644.642 71.8065 654.034 69.8293 664.249 69.8293C674.629 69.8293 683.774 71.8065 691.683 75.7608C699.756 79.7152 706.017 85.482 710.466 93.0612C714.914 100.64 717.139 109.538 717.139 119.753V172.89H732.956V195.875H693.413V153.86C690.117 167.041 683.774 177.833 674.382 186.236C664.991 194.639 653.457 198.84 639.781 198.84ZM651.892 178.327C659.471 178.327 666.391 176.432 672.652 172.643C679.078 168.688 684.103 163.581 687.728 157.32C691.353 150.894 693.165 143.974 693.165 136.559L693.413 127.662C691.271 129.639 688.387 131.122 684.762 132.111C681.302 132.934 676.524 133.676 670.428 134.335C670.098 134.335 669.686 134.417 669.192 134.582C668.863 134.582 668.533 134.582 668.203 134.582C654.857 135.735 644.889 138.207 638.299 141.996C631.873 145.786 628.66 151.388 628.66 158.802C628.66 165.228 630.719 170.089 634.839 173.384C639.122 176.68 644.807 178.327 651.892 178.327Z" fill="#FFF2DC"/>
<path d="M777.674 195.875L726.515 72.3008H753.948L794.975 173.384H796.458L837.731 72.3008H864.67L813.264 195.875H777.674Z" fill="#FFF2DC"/>
<path d="M897.593 199.331V173.407H871.38V92.4643H897.593V66.2517H978.823V92.4643H1005.32V173.407H978.823V199.331H897.593ZM900.473 170.526H975.943V95.0568H900.473V170.526Z" fill="#FFF2DC"/>
<path d="M1218.68 195.875C1209.29 195.875 1201.13 193.897 1194.21 189.943C1187.46 185.824 1182.18 180.304 1178.39 173.384C1174.77 166.299 1172.96 158.391 1172.96 149.658V22.8712H1196.68V152.624C1196.68 159.05 1198.66 164.404 1202.61 168.688C1206.73 172.808 1212.09 174.867 1218.68 174.867H1265.14V195.875H1218.68Z" fill="#FFF2DC"/>
<path d="M1336.49 198.346C1324.13 198.346 1312.93 195.627 1302.88 190.19C1292.99 184.588 1285.17 177.009 1279.4 167.453C1273.63 157.732 1270.75 146.857 1270.75 134.829C1270.75 122.307 1273.63 111.103 1279.4 101.217C1285.33 91.3311 1293.32 83.6696 1303.37 78.2323C1313.42 72.6303 1324.54 69.8293 1336.74 69.8293C1348.93 69.8293 1359.97 72.6303 1369.85 78.2323C1379.74 83.6696 1387.48 91.3311 1393.09 101.217C1398.85 110.938 1401.74 121.895 1401.74 134.088C1401.74 134.417 1401.74 134.829 1401.74 135.323C1401.74 135.818 1401.74 136.23 1401.74 136.559H1296.45C1296.78 143.809 1298.76 150.399 1302.38 156.331C1306.01 162.098 1310.79 166.711 1316.72 170.171C1322.81 173.467 1329.49 175.114 1336.74 175.114C1344.48 175.114 1351.32 173.384 1357.25 169.924C1363.35 166.464 1367.55 162.015 1369.85 156.578H1397.78C1396.46 163.828 1393.09 170.666 1387.65 177.091C1382.21 183.352 1375.04 188.46 1366.15 192.415C1357.42 196.369 1347.53 198.346 1336.49 198.346ZM1377.27 131.616C1376.94 124.367 1374.96 117.858 1371.34 112.092C1367.71 106.16 1362.85 101.547 1356.76 98.2513C1350.82 94.7912 1344.23 93.0612 1336.98 93.0612C1329.73 93.0612 1323.06 94.7912 1316.97 98.2513C1311.03 101.547 1306.17 106.16 1302.38 112.092C1298.76 117.858 1296.78 124.367 1296.45 131.616H1377.27Z" fill="#FFF2DC"/>
<path d="M1421.1 195.875V72.3008H1447.05V195.875H1421.1Z" fill="#FFF2DC"/>
<path d="M1536.8 198.346C1521.31 198.346 1509.78 194.886 1502.2 187.966C1494.78 181.046 1491.08 170.913 1491.08 157.567V95.7798H1461.91V72.3008H1482.18C1485.97 72.3008 1488.85 71.3122 1490.83 69.335C1492.81 67.193 1493.8 64.2273 1493.8 60.4377V42.643H1517.27L1517.03 72.3008H1566.46V95.7798H1517.03V151.388C1517.03 159.297 1519 165.064 1522.96 168.688C1527.08 172.313 1533.5 174.126 1542.24 174.126C1548.99 174.126 1557.07 173.137 1566.46 171.16V194.639C1561.84 195.627 1556.74 196.451 1551.13 197.11C1545.7 197.934 1540.92 198.346 1536.8 198.346Z" fill="#FFF2DC"/>
<path d="M1698.82 181.576C1692.94 186.538 1685.24 190.455 1675.7 193.328C1666.17 196.071 1655.79 197.442 1644.56 197.442C1632.02 197.442 1621.38 195.809 1612.63 192.545C1603.88 189.15 1597.29 184.514 1592.85 178.638C1588.41 172.761 1586.19 165.971 1586.19 158.267C1586.19 150.432 1588.41 143.707 1592.85 138.092C1597.42 132.346 1603.3 128.233 1610.48 125.752C1604.73 123.14 1600.23 119.222 1596.96 113.999C1593.7 108.645 1592.07 102.508 1592.07 95.5868C1592.07 88.4047 1594.09 81.9409 1598.14 76.1952C1602.32 70.4496 1608.58 65.8792 1616.94 62.484C1625.3 58.9583 1635.48 57.1954 1647.5 57.1954C1655.99 57.1954 1664.21 58.1095 1672.18 59.9376C1680.27 61.7658 1687.26 64.3775 1693.14 67.7726L1687.46 83.4426C1675.7 77.1746 1662.65 74.0406 1648.28 74.0406C1636.4 74.0406 1627.32 76.1952 1621.06 80.5045C1614.79 84.6831 1611.65 90.1676 1611.65 96.9579C1611.65 103.748 1614.07 108.972 1618.9 112.628C1623.73 116.284 1630.65 118.112 1639.66 118.112H1674.92V134.958H1638.88C1628.56 134.958 1620.47 136.786 1614.59 140.442C1608.72 144.098 1605.78 149.583 1605.78 156.896C1605.78 164.339 1609.11 170.15 1615.77 174.328C1622.43 178.507 1632.35 180.596 1645.54 180.596C1654.68 180.596 1663.36 179.356 1671.59 176.875C1679.95 174.263 1686.8 170.737 1692.16 166.298L1698.82 181.576Z" fill="#FFF2DC"/>
</svg>
