<svg width="1600" height="350" viewBox="0 0 1600 350" fill="none" xmlns="http://www.w3.org/2000/svg">
<path d="M1541 298.5C1541 303.194 1536.97 307 1532 307C1527.03 307 1523 303.194 1523 298.5C1523 293.806 1527.03 290 1532 290C1536.97 290 1541 293.806 1541 298.5Z" fill="#A30000"/>
<path d="M1586 332.5C1586 337.194 1582.42 341 1578 341C1573.58 341 1570 337.194 1570 332.5C1570 327.806 1573.58 324 1578 324C1582.42 324 1586 327.806 1586 332.5Z" fill="#A30000"/>
<path d="M56.0855 268C18.6952 268 0 241.08 0 187.241V73.7299C0 24.5766 21.4226 0 64.2678 0C81.9216 0 95.4595 3.58929 104.881 10.7679C114.303 17.8467 120.8 28.2158 124.37 41.875C127.941 55.5342 129.726 72.1845 129.726 91.8259H78.5495V68.4955C78.5495 62.8125 77.7561 58.0766 76.1692 54.2879C74.6815 50.3996 71.5078 48.4554 66.6481 48.4554C60.5982 48.4554 56.5814 50.4993 54.5979 54.5871C52.7135 58.6749 51.7713 63.1615 51.7713 68.0469V195.616C51.7713 202.695 52.6639 208.478 54.4491 212.964C56.3335 217.351 59.9535 219.545 65.3092 219.545C70.8632 219.545 74.5328 217.351 76.318 212.964C78.2024 208.478 79.1446 202.595 79.1446 195.317V157.779H65.1604V112.315H129.131V265.607H108.154V240.665C99.0299 257.017 75.7229 268 56.0855 268Z" fill="#FDF9EE"/>
<path d="M356.448 268C332.546 268 315.289 262.018 304.677 250.054C294.164 238.089 288.908 219.046 288.908 192.924V167.201H340.679V200.103C340.679 206.185 341.571 210.97 343.357 214.46C345.241 217.85 348.464 219.545 353.027 219.545C357.787 219.545 361.06 218.149 362.845 215.357C364.73 212.565 365.672 207.979 365.672 201.598C365.672 193.522 364.878 186.792 363.292 181.408C361.705 175.925 358.928 170.74 354.96 165.855C351.093 160.87 345.687 155.087 338.745 148.507L315.239 126.074C297.685 109.423 288.908 90.3802 288.908 68.9442C288.908 46.5112 294.065 29.4122 304.379 17.6473C314.793 5.88244 329.819 0 349.456 0C373.457 0 390.466 6.4308 400.484 19.2924C410.6 32.154 415.658 51.6957 415.658 77.9174H362.399V59.8214C362.399 56.2321 361.358 53.4405 359.275 51.4464C357.291 49.4524 354.564 48.4554 351.093 48.4554C346.927 48.4554 343.852 49.6518 341.869 52.0446C339.985 54.3378 339.042 57.3289 339.042 61.0179C339.042 64.7068 340.034 68.6949 342.018 72.9821C344.001 77.2693 347.919 82.2046 353.77 87.7879L383.97 116.951C390.02 122.734 395.574 128.865 400.632 135.346C405.69 141.727 409.757 149.205 412.831 157.779C415.906 166.254 417.443 176.623 417.443 188.886C417.443 213.612 412.881 233.004 403.756 247.062C394.731 261.021 378.962 268 356.448 268Z" fill="#FDF9EE"/>
<path d="M457.462 265.607V52.942H426.369V2.39286H540.921V52.942H509.828V265.607H457.462Z" fill="#FDF9EE"/>
<path d="M544.491 265.607L569.781 2.39286H658.596L683.44 265.607H633.901L630.181 223.134H598.643L595.37 265.607H544.491ZM602.362 181.109H626.165L614.709 47.2589H612.329L602.362 181.109Z" fill="#FDF9EE"/>
<path d="M717.062 265.607L684.779 2.2433H734.617L753.808 181.408L770.916 2.2433H820.753L788.471 265.607H717.062Z" fill="#FDF9EE"/>
<path d="M898.559 268C877.632 268 861.615 261.669 850.507 249.007C839.498 236.245 833.994 217.85 833.994 193.821V68.7946C833.994 46.2619 839.448 29.1629 850.358 17.4978C861.367 5.83259 877.434 0 898.559 0C919.684 0 935.701 5.83259 946.611 17.4978C957.62 29.1629 963.124 46.2619 963.124 68.7946V193.821C963.124 217.85 957.57 236.245 946.462 249.007C935.453 261.669 919.486 268 898.559 268ZM899.005 219.545C906.939 219.545 910.907 211.818 910.907 196.364V67.8973C910.907 54.936 907.039 48.4554 899.303 48.4554C890.575 48.4554 886.211 55.0856 886.211 68.346V196.663C886.211 204.839 887.203 210.721 889.186 214.31C891.17 217.8 894.443 219.545 899.005 219.545Z" fill="#FDF9EE"/>
<path d="M1055.66 265.607V2.39286H1108.02V220.741H1161.88V265.607H1055.66Z" fill="#FDF9EE"/>
<path d="M1176.76 265.607V2.39286H1281.49V53.2411H1230.01V104.538H1279.41V154.04H1230.01V214.31H1284.91V265.607H1176.76Z" fill="#FDF9EE"/>
<path d="M1491.85 265.607V2.39286H1596.58V53.2411H1545.1V104.538H1594.5V154.04H1545.1V214.31H1600V265.607H1491.85Z" fill="#FDF9EE"/>
<path d="M1073.36 308.36C1071.43 308.36 1069.72 307.952 1068.22 307.136C1066.74 306.296 1065.57 305.156 1064.71 303.716C1063.88 302.276 1063.46 300.62 1063.46 298.748C1063.46 297.26 1063.7 295.904 1064.18 294.68C1064.66 293.456 1065.31 292.4 1066.14 291.512C1067 290.6 1068.01 289.904 1069.18 289.424C1070.37 288.92 1071.66 288.668 1073.04 288.668C1074.26 288.668 1075.39 288.908 1076.43 289.388C1077.48 289.844 1078.39 290.48 1079.15 291.296C1079.94 292.112 1080.53 293.084 1080.94 294.212C1081.37 295.316 1081.57 296.528 1081.54 297.848L1081.51 299.432H1066.18L1065.36 296.48H1078.33L1077.79 297.092V296.228C1077.72 295.436 1077.46 294.728 1077.01 294.104C1076.55 293.48 1075.98 292.988 1075.29 292.628C1074.6 292.268 1073.85 292.088 1073.04 292.088C1071.75 292.088 1070.67 292.34 1069.79 292.844C1068.91 293.324 1068.24 294.044 1067.79 295.004C1067.33 295.94 1067.11 297.104 1067.11 298.496C1067.11 299.816 1067.38 300.968 1067.93 301.952C1068.48 302.912 1069.25 303.656 1070.25 304.184C1071.25 304.712 1072.41 304.976 1073.72 304.976C1074.65 304.976 1075.51 304.82 1076.29 304.508C1077.1 304.196 1077.97 303.632 1078.9 302.816L1080.76 305.444C1080.19 306.02 1079.48 306.524 1078.65 306.956C1077.84 307.388 1076.97 307.736 1076.04 308C1075.14 308.24 1074.24 308.36 1073.36 308.36Z" fill="#FDF9EE"/>
<path d="M1091.8 308.36C1090.23 308.36 1088.81 308.084 1087.55 307.532C1086.28 306.98 1085.23 306.164 1084.4 305.084L1086.9 302.924C1087.62 303.764 1088.39 304.376 1089.22 304.76C1090.08 305.12 1091.05 305.3 1092.12 305.3C1092.55 305.3 1092.94 305.252 1093.3 305.156C1093.68 305.036 1094 304.868 1094.26 304.652C1094.55 304.436 1094.76 304.184 1094.91 303.896C1095.05 303.584 1095.12 303.248 1095.12 302.888C1095.12 302.264 1094.89 301.76 1094.44 301.376C1094.2 301.208 1093.82 301.028 1093.3 300.836C1092.8 300.62 1092.14 300.404 1091.33 300.188C1089.95 299.828 1088.82 299.42 1087.94 298.964C1087.06 298.508 1086.38 297.992 1085.9 297.416C1085.54 296.96 1085.28 296.468 1085.12 295.94C1084.95 295.388 1084.87 294.788 1084.87 294.14C1084.87 293.348 1085.03 292.628 1085.37 291.98C1085.72 291.308 1086.2 290.732 1086.79 290.252C1087.41 289.748 1088.13 289.364 1088.94 289.1C1089.77 288.836 1090.65 288.704 1091.58 288.704C1092.46 288.704 1093.33 288.824 1094.19 289.064C1095.07 289.304 1095.88 289.652 1096.62 290.108C1097.36 290.564 1097.98 291.104 1098.48 291.728L1096.37 294.068C1095.92 293.612 1095.42 293.216 1094.87 292.88C1094.35 292.52 1093.81 292.244 1093.26 292.052C1092.71 291.86 1092.21 291.764 1091.76 291.764C1091.26 291.764 1090.81 291.812 1090.4 291.908C1090 292.004 1089.65 292.148 1089.37 292.34C1089.11 292.532 1088.9 292.772 1088.76 293.06C1088.62 293.348 1088.55 293.672 1088.55 294.032C1088.57 294.344 1088.64 294.644 1088.76 294.932C1088.9 295.196 1089.09 295.424 1089.33 295.616C1089.59 295.808 1089.99 296.012 1090.51 296.228C1091.03 296.444 1091.7 296.648 1092.51 296.84C1093.7 297.152 1094.68 297.5 1095.44 297.884C1096.23 298.244 1096.85 298.664 1097.3 299.144C1097.78 299.6 1098.11 300.128 1098.3 300.728C1098.49 301.328 1098.59 302 1098.59 302.744C1098.59 303.824 1098.28 304.796 1097.66 305.66C1097.06 306.5 1096.25 307.16 1095.23 307.64C1094.2 308.12 1093.06 308.36 1091.8 308.36Z" fill="#FDF9EE"/>
<path d="M1104.97 308V284.276H1108.65V308H1104.97ZM1101.07 292.7V289.1H1113V292.7H1101.07Z" fill="#FDF9EE"/>
<path d="M1122.93 308.36C1121.6 308.36 1120.43 308.048 1119.43 307.424C1118.45 306.8 1117.69 305.924 1117.14 304.796C1116.62 303.668 1116.36 302.324 1116.36 300.764V289.1H1120.04V299.756C1120.04 300.86 1120.2 301.82 1120.54 302.636C1120.89 303.428 1121.39 304.04 1122.04 304.472C1122.7 304.904 1123.5 305.12 1124.43 305.12C1125.12 305.12 1125.75 305.012 1126.33 304.796C1126.9 304.556 1127.39 304.232 1127.79 303.824C1128.22 303.416 1128.55 302.924 1128.79 302.348C1129.03 301.772 1129.15 301.148 1129.15 300.476V289.1H1132.83V308H1129.15V304.04L1129.79 303.608C1129.51 304.496 1129.02 305.3 1128.33 306.02C1127.66 306.74 1126.86 307.316 1125.93 307.748C1125 308.156 1124 308.36 1122.93 308.36Z" fill="#FDF9EE"/>
<path d="M1145.82 308.36C1144.1 308.36 1142.56 307.94 1141.21 307.1C1139.87 306.236 1138.81 305.072 1138.03 303.608C1137.24 302.12 1136.85 300.428 1136.85 298.532C1136.85 296.636 1137.23 294.956 1137.99 293.492C1138.78 292.004 1139.84 290.84 1141.17 290C1142.5 289.136 1144.02 288.704 1145.71 288.704C1146.64 288.704 1147.53 288.86 1148.39 289.172C1149.27 289.46 1150.06 289.868 1150.75 290.396C1151.44 290.9 1151.97 291.464 1152.35 292.088C1152.76 292.688 1152.96 293.3 1152.96 293.924L1151.89 293.996V281.36H1155.57V308H1151.89V303.5H1152.61C1152.61 304.076 1152.41 304.652 1152.03 305.228C1151.65 305.78 1151.14 306.296 1150.5 306.776C1149.88 307.256 1149.15 307.64 1148.32 307.928C1147.51 308.216 1146.67 308.36 1145.82 308.36ZM1146.32 305.156C1147.44 305.156 1148.42 304.868 1149.28 304.292C1150.14 303.716 1150.81 302.936 1151.28 301.952C1151.78 300.944 1152.03 299.804 1152.03 298.532C1152.03 297.26 1151.78 296.132 1151.28 295.148C1150.81 294.14 1150.14 293.348 1149.28 292.772C1148.42 292.196 1147.44 291.908 1146.32 291.908C1145.2 291.908 1144.21 292.196 1143.35 292.772C1142.49 293.348 1141.81 294.14 1141.31 295.148C1140.84 296.132 1140.6 297.26 1140.6 298.532C1140.6 299.804 1140.84 300.944 1141.31 301.952C1141.81 302.936 1142.49 303.716 1143.35 304.292C1144.21 304.868 1145.2 305.156 1146.32 305.156Z" fill="#FDF9EE"/>
<path d="M1167.86 308.36C1166.31 308.36 1164.89 307.928 1163.6 307.064C1162.34 306.2 1161.33 305.024 1160.57 303.536C1159.8 302.048 1159.42 300.368 1159.42 298.496C1159.42 296.6 1159.8 294.92 1160.57 293.456C1161.35 291.968 1162.4 290.804 1163.71 289.964C1165.04 289.124 1166.53 288.704 1168.18 288.704C1169.15 288.704 1170.05 288.848 1170.86 289.136C1171.67 289.424 1172.37 289.832 1172.96 290.36C1173.58 290.864 1174.08 291.452 1174.47 292.124C1174.87 292.796 1175.12 293.516 1175.22 294.284L1174.39 293.996V289.1H1178.11V308H1174.39V303.5L1175.25 303.248C1175.11 303.896 1174.81 304.532 1174.36 305.156C1173.93 305.756 1173.37 306.296 1172.68 306.776C1172.01 307.256 1171.26 307.64 1170.43 307.928C1169.62 308.216 1168.76 308.36 1167.86 308.36ZM1168.82 304.94C1169.94 304.94 1170.93 304.664 1171.79 304.112C1172.64 303.56 1173.31 302.804 1173.79 301.844C1174.29 300.86 1174.54 299.744 1174.54 298.496C1174.54 297.272 1174.29 296.18 1173.79 295.22C1173.31 294.26 1172.64 293.504 1171.79 292.952C1170.93 292.4 1169.94 292.124 1168.82 292.124C1167.72 292.124 1166.75 292.4 1165.89 292.952C1165.06 293.504 1164.39 294.26 1163.89 295.22C1163.41 296.18 1163.17 297.272 1163.17 298.496C1163.17 299.744 1163.41 300.86 1163.89 301.844C1164.39 302.804 1165.06 303.56 1165.89 304.112C1166.75 304.664 1167.72 304.94 1168.82 304.94Z" fill="#FDF9EE"/>
<path d="M1183.25 308V289.1H1186.93V292.988L1186.29 293.42C1186.52 292.58 1186.99 291.812 1187.68 291.116C1188.37 290.396 1189.19 289.82 1190.15 289.388C1191.1 288.932 1192.07 288.704 1193.08 288.704C1194.5 288.704 1195.7 288.992 1196.65 289.568C1197.6 290.12 1198.32 290.972 1198.79 292.124C1199.27 293.276 1199.51 294.728 1199.51 296.48V308H1195.83V296.732C1195.83 295.652 1195.68 294.764 1195.4 294.068C1195.11 293.348 1194.67 292.832 1194.08 292.52C1193.48 292.184 1192.74 292.04 1191.86 292.088C1191.15 292.088 1190.49 292.208 1189.9 292.448C1189.3 292.664 1188.78 292.976 1188.32 293.384C1187.89 293.792 1187.55 294.272 1187.29 294.824C1187.05 295.352 1186.93 295.928 1186.93 296.552V308H1185.11C1184.8 308 1184.49 308 1184.18 308C1183.87 308 1183.56 308 1183.25 308Z" fill="#FDF9EE"/>
<path d="M1206.82 308V284.276H1210.5V308H1206.82ZM1202.93 292.7V289.1H1214.86V292.7H1202.93Z" fill="#FDF9EE"/>
<path d="M1226.79 308.36C1224.86 308.36 1223.15 307.952 1221.65 307.136C1220.17 306.296 1219 305.156 1218.15 303.716C1217.31 302.276 1216.9 300.62 1216.9 298.748C1216.9 297.26 1217.13 295.904 1217.61 294.68C1218.09 293.456 1218.74 292.4 1219.58 291.512C1220.43 290.6 1221.45 289.904 1222.61 289.424C1223.8 288.92 1225.09 288.668 1226.47 288.668C1227.69 288.668 1228.82 288.908 1229.87 289.388C1230.91 289.844 1231.82 290.48 1232.58 291.296C1233.37 292.112 1233.96 293.084 1234.37 294.212C1234.8 295.316 1235 296.528 1234.98 297.848L1234.94 299.432H1219.61L1218.79 296.48H1231.76L1231.22 297.092V296.228C1231.15 295.436 1230.89 294.728 1230.44 294.104C1229.99 293.48 1229.41 292.988 1228.72 292.628C1228.03 292.268 1227.28 292.088 1226.47 292.088C1225.19 292.088 1224.1 292.34 1223.22 292.844C1222.34 293.324 1221.67 294.044 1221.22 295.004C1220.77 295.94 1220.54 297.104 1220.54 298.496C1220.54 299.816 1220.81 300.968 1221.36 301.952C1221.91 302.912 1222.68 303.656 1223.68 304.184C1224.68 304.712 1225.84 304.976 1227.15 304.976C1228.08 304.976 1228.94 304.82 1229.72 304.508C1230.53 304.196 1231.4 303.632 1232.33 302.816L1234.19 305.444C1233.62 306.02 1232.92 306.524 1232.08 306.956C1231.27 307.388 1230.4 307.736 1229.47 308C1228.57 308.24 1227.67 308.36 1226.79 308.36Z" fill="#FDF9EE"/>
<path d="M1256.82 308.36C1255.1 308.36 1253.56 307.94 1252.21 307.1C1250.87 306.236 1249.81 305.072 1249.03 303.608C1248.24 302.12 1247.85 300.428 1247.85 298.532C1247.85 296.636 1248.23 294.956 1248.99 293.492C1249.78 292.004 1250.84 290.84 1252.17 290C1253.5 289.136 1255.02 288.704 1256.71 288.704C1257.64 288.704 1258.53 288.86 1259.39 289.172C1260.27 289.46 1261.06 289.868 1261.75 290.396C1262.44 290.9 1262.97 291.464 1263.35 292.088C1263.76 292.688 1263.96 293.3 1263.96 293.924L1262.89 293.996V281.36H1266.57V308H1262.89V303.5H1263.6C1263.6 304.076 1263.41 304.652 1263.03 305.228C1262.65 305.78 1262.14 306.296 1261.5 306.776C1260.88 307.256 1260.15 307.64 1259.32 307.928C1258.51 308.216 1257.67 308.36 1256.82 308.36ZM1257.32 305.156C1258.44 305.156 1259.42 304.868 1260.28 304.292C1261.14 303.716 1261.81 302.936 1262.28 301.952C1262.78 300.944 1263.03 299.804 1263.03 298.532C1263.03 297.26 1262.78 296.132 1262.28 295.148C1261.81 294.14 1261.14 293.348 1260.28 292.772C1259.42 292.196 1258.44 291.908 1257.32 291.908C1256.2 291.908 1255.21 292.196 1254.35 292.772C1253.49 293.348 1252.81 294.14 1252.31 295.148C1251.84 296.132 1251.6 297.26 1251.6 298.532C1251.6 299.804 1251.84 300.944 1252.31 301.952C1252.81 302.936 1253.49 303.716 1254.35 304.292C1255.21 304.868 1256.2 305.156 1257.32 305.156Z" fill="#FDF9EE"/>
<path d="M1280.39 308.36C1278.46 308.36 1276.75 307.952 1275.25 307.136C1273.77 306.296 1272.6 305.156 1271.74 303.716C1270.91 302.276 1270.49 300.62 1270.49 298.748C1270.49 297.26 1270.73 295.904 1271.21 294.68C1271.68 293.456 1272.34 292.4 1273.17 291.512C1274.03 290.6 1275.04 289.904 1276.21 289.424C1277.4 288.92 1278.69 288.668 1280.07 288.668C1281.28 288.668 1282.42 288.908 1283.46 289.388C1284.51 289.844 1285.42 290.48 1286.18 291.296C1286.97 292.112 1287.56 293.084 1287.97 294.212C1288.4 295.316 1288.6 296.528 1288.57 297.848L1288.54 299.432H1273.21L1272.39 296.48H1285.36L1284.82 297.092V296.228C1284.75 295.436 1284.49 294.728 1284.04 294.104C1283.58 293.48 1283.01 292.988 1282.32 292.628C1281.63 292.268 1280.88 292.088 1280.07 292.088C1278.78 292.088 1277.7 292.34 1276.82 292.844C1275.94 293.324 1275.27 294.044 1274.82 295.004C1274.36 295.94 1274.14 297.104 1274.14 298.496C1274.14 299.816 1274.41 300.968 1274.96 301.952C1275.51 302.912 1276.28 303.656 1277.28 304.184C1278.28 304.712 1279.44 304.976 1280.75 304.976C1281.68 304.976 1282.54 304.82 1283.32 304.508C1284.13 304.196 1285 303.632 1285.93 302.816L1287.79 305.444C1287.22 306.02 1286.51 306.524 1285.68 306.956C1284.87 307.388 1284 307.736 1283.07 308C1282.17 308.24 1281.27 308.36 1280.39 308.36Z" fill="#FDF9EE"/>
<path d="M1309.81 308.36C1308.26 308.36 1306.84 307.928 1305.55 307.064C1304.29 306.2 1303.28 305.024 1302.52 303.536C1301.75 302.048 1301.37 300.368 1301.37 298.496C1301.37 296.6 1301.75 294.92 1302.52 293.456C1303.3 291.968 1304.35 290.804 1305.66 289.964C1307 289.124 1308.48 288.704 1310.13 288.704C1311.1 288.704 1312 288.848 1312.81 289.136C1313.62 289.424 1314.32 289.832 1314.92 290.36C1315.54 290.864 1316.04 291.452 1316.42 292.124C1316.82 292.796 1317.07 293.516 1317.17 294.284L1316.35 293.996V289.1H1320.06V308H1316.35V303.5L1317.2 303.248C1317.06 303.896 1316.76 304.532 1316.31 305.156C1315.88 305.756 1315.32 306.296 1314.63 306.776C1313.96 307.256 1313.21 307.64 1312.38 307.928C1311.57 308.216 1310.71 308.36 1309.81 308.36ZM1310.77 304.94C1311.89 304.94 1312.88 304.664 1313.74 304.112C1314.59 303.56 1315.26 302.804 1315.74 301.844C1316.24 300.86 1316.49 299.744 1316.49 298.496C1316.49 297.272 1316.24 296.18 1315.74 295.22C1315.26 294.26 1314.59 293.504 1313.74 292.952C1312.88 292.4 1311.89 292.124 1310.77 292.124C1309.68 292.124 1308.7 292.4 1307.84 292.952C1307.01 293.504 1306.34 294.26 1305.84 295.22C1305.36 296.18 1305.13 297.272 1305.13 298.496C1305.13 299.744 1305.36 300.86 1305.84 301.844C1306.34 302.804 1307.01 303.56 1307.84 304.112C1308.7 304.664 1309.68 304.94 1310.77 304.94Z" fill="#FDF9EE"/>
<path d="M1333.03 308.36C1331.31 308.36 1329.77 307.94 1328.42 307.1C1327.08 306.236 1326.02 305.072 1325.24 303.608C1324.45 302.12 1324.06 300.428 1324.06 298.532C1324.06 296.636 1324.44 294.956 1325.2 293.492C1325.99 292.004 1327.05 290.84 1328.38 290C1329.71 289.136 1331.23 288.704 1332.92 288.704C1333.85 288.704 1334.74 288.86 1335.6 289.172C1336.48 289.46 1337.27 289.868 1337.96 290.396C1338.65 290.9 1339.18 291.464 1339.56 292.088C1339.97 292.688 1340.17 293.3 1340.17 293.924L1339.1 293.996V281.36H1342.78V308H1339.1V303.5H1339.81C1339.81 304.076 1339.62 304.652 1339.24 305.228C1338.86 305.78 1338.35 306.296 1337.71 306.776C1337.09 307.256 1336.36 307.64 1335.53 307.928C1334.72 308.216 1333.88 308.36 1333.03 308.36ZM1333.53 305.156C1334.64 305.156 1335.63 304.868 1336.49 304.292C1337.35 303.716 1338.02 302.936 1338.49 301.952C1338.99 300.944 1339.24 299.804 1339.24 298.532C1339.24 297.26 1338.99 296.132 1338.49 295.148C1338.02 294.14 1337.35 293.348 1336.49 292.772C1335.63 292.196 1334.64 291.908 1333.53 291.908C1332.41 291.908 1331.42 292.196 1330.56 292.772C1329.7 293.348 1329.02 294.14 1328.52 295.148C1328.05 296.132 1327.81 297.26 1327.81 298.532C1327.81 299.804 1328.05 300.944 1328.52 301.952C1329.02 302.936 1329.7 303.716 1330.56 304.292C1331.42 304.868 1332.41 305.156 1333.53 305.156Z" fill="#FDF9EE"/>
<path d="M1354.1 308.36C1352.53 308.36 1351.11 308.084 1349.85 307.532C1348.59 306.98 1347.54 306.164 1346.7 305.084L1349.2 302.924C1349.92 303.764 1350.69 304.376 1351.53 304.76C1352.38 305.12 1353.35 305.3 1354.42 305.3C1354.85 305.3 1355.24 305.252 1355.6 305.156C1355.98 305.036 1356.3 304.868 1356.57 304.652C1356.85 304.436 1357.07 304.184 1357.21 303.896C1357.35 303.584 1357.42 303.248 1357.42 302.888C1357.42 302.264 1357.2 301.76 1356.74 301.376C1356.51 301.208 1356.12 301.028 1355.6 300.836C1355.1 300.62 1354.44 300.404 1353.64 300.188C1352.25 299.828 1351.12 299.42 1350.24 298.964C1349.36 298.508 1348.68 297.992 1348.2 297.416C1347.85 296.96 1347.58 296.468 1347.42 295.94C1347.25 295.388 1347.17 294.788 1347.17 294.14C1347.17 293.348 1347.33 292.628 1347.67 291.98C1348.03 291.308 1348.5 290.732 1349.1 290.252C1349.72 289.748 1350.43 289.364 1351.24 289.1C1352.07 288.836 1352.96 288.704 1353.89 288.704C1354.77 288.704 1355.64 288.824 1356.49 289.064C1357.37 289.304 1358.18 289.652 1358.92 290.108C1359.66 290.564 1360.28 291.104 1360.78 291.728L1358.67 294.068C1358.22 293.612 1357.72 293.216 1357.17 292.88C1356.65 292.52 1356.11 292.244 1355.56 292.052C1355.02 291.86 1354.52 291.764 1354.06 291.764C1353.56 291.764 1353.11 291.812 1352.71 291.908C1352.3 292.004 1351.96 292.148 1351.67 292.34C1351.41 292.532 1351.21 292.772 1351.06 293.06C1350.92 293.348 1350.85 293.672 1350.85 294.032C1350.87 294.344 1350.94 294.644 1351.06 294.932C1351.21 295.196 1351.4 295.424 1351.63 295.616C1351.9 295.808 1352.29 296.012 1352.81 296.228C1353.34 296.444 1354 296.648 1354.81 296.84C1356.01 297.152 1356.98 297.5 1357.74 297.884C1358.53 298.244 1359.15 298.664 1359.6 299.144C1360.08 299.6 1360.41 300.128 1360.6 300.728C1360.79 301.328 1360.89 302 1360.89 302.744C1360.89 303.824 1360.58 304.796 1359.96 305.66C1359.36 306.5 1358.55 307.16 1357.53 307.64C1356.51 308.12 1355.36 308.36 1354.1 308.36Z" fill="#FDF9EE"/>
<path d="M1377 308V286.976C1377 285.896 1377.23 284.936 1377.71 284.096C1378.19 283.256 1378.84 282.596 1379.68 282.116C1380.51 281.636 1381.47 281.396 1382.57 281.396C1383.33 281.396 1384.05 281.54 1384.71 281.828C1385.38 282.116 1385.92 282.5 1386.32 282.98L1385.07 285.824C1384.76 285.536 1384.42 285.308 1384.04 285.14C1383.68 284.948 1383.33 284.852 1383 284.852C1382.5 284.852 1382.07 284.936 1381.71 285.104C1381.38 285.248 1381.13 285.488 1380.96 285.824C1380.8 286.136 1380.71 286.52 1380.71 286.976V308H1378.85C1378.54 308 1378.23 308 1377.93 308C1377.62 308 1377.31 308 1377 308ZM1373.99 292.844V289.424H1385.14V292.844H1373.99Z" fill="#FDF9EE"/>
<path d="M1395.51 308.36C1393.96 308.36 1392.54 307.928 1391.26 307.064C1389.99 306.2 1388.98 305.024 1388.22 303.536C1387.46 302.048 1387.07 300.368 1387.07 298.496C1387.07 296.6 1387.46 294.92 1388.22 293.456C1389 291.968 1390.05 290.804 1391.36 289.964C1392.7 289.124 1394.19 288.704 1395.83 288.704C1396.81 288.704 1397.7 288.848 1398.51 289.136C1399.32 289.424 1400.02 289.832 1400.62 290.36C1401.24 290.864 1401.74 291.452 1402.12 292.124C1402.52 292.796 1402.77 293.516 1402.87 294.284L1402.05 293.996V289.1H1405.76V308H1402.05V303.5L1402.9 303.248C1402.76 303.896 1402.46 304.532 1402.01 305.156C1401.58 305.756 1401.02 306.296 1400.33 306.776C1399.66 307.256 1398.91 307.64 1398.08 307.928C1397.27 308.216 1396.41 308.36 1395.51 308.36ZM1396.47 304.94C1397.59 304.94 1398.58 304.664 1399.44 304.112C1400.3 303.56 1400.96 302.804 1401.44 301.844C1401.94 300.86 1402.19 299.744 1402.19 298.496C1402.19 297.272 1401.94 296.18 1401.44 295.22C1400.96 294.26 1400.3 293.504 1399.44 292.952C1398.58 292.4 1397.59 292.124 1396.47 292.124C1395.38 292.124 1394.4 292.4 1393.54 292.952C1392.71 293.504 1392.04 294.26 1391.54 295.22C1391.06 296.18 1390.83 297.272 1390.83 298.496C1390.83 299.744 1391.06 300.86 1391.54 301.844C1392.04 302.804 1392.71 303.56 1393.54 304.112C1394.4 304.664 1395.38 304.94 1396.47 304.94Z" fill="#FDF9EE"/>
<path d="M1417.15 308.36C1415.58 308.36 1414.16 308.084 1412.9 307.532C1411.64 306.98 1410.59 306.164 1409.76 305.084L1412.26 302.924C1412.97 303.764 1413.75 304.376 1414.58 304.76C1415.44 305.12 1416.4 305.3 1417.48 305.3C1417.9 305.3 1418.3 305.252 1418.65 305.156C1419.04 305.036 1419.36 304.868 1419.62 304.652C1419.91 304.436 1420.12 304.184 1420.26 303.896C1420.41 303.584 1420.48 303.248 1420.48 302.888C1420.48 302.264 1420.25 301.76 1419.8 301.376C1419.56 301.208 1419.18 301.028 1418.65 300.836C1418.15 300.62 1417.5 300.404 1416.69 300.188C1415.31 299.828 1414.18 299.42 1413.29 298.964C1412.41 298.508 1411.73 297.992 1411.26 297.416C1410.9 296.96 1410.64 296.468 1410.47 295.94C1410.31 295.388 1410.22 294.788 1410.22 294.14C1410.22 293.348 1410.39 292.628 1410.72 291.98C1411.08 291.308 1411.56 290.732 1412.15 290.252C1412.77 289.748 1413.49 289.364 1414.3 289.1C1415.13 288.836 1416.01 288.704 1416.94 288.704C1417.82 288.704 1418.69 288.824 1419.55 289.064C1420.43 289.304 1421.24 289.652 1421.98 290.108C1422.72 290.564 1423.34 291.104 1423.84 291.728L1421.73 294.068C1421.28 293.612 1420.77 293.216 1420.23 292.88C1419.7 292.52 1419.17 292.244 1418.62 292.052C1418.07 291.86 1417.57 291.764 1417.12 291.764C1416.62 291.764 1416.17 291.812 1415.76 291.908C1415.36 292.004 1415.01 292.148 1414.72 292.34C1414.46 292.532 1414.26 292.772 1414.12 293.06C1413.97 293.348 1413.9 293.672 1413.9 294.032C1413.93 294.344 1414 294.644 1414.12 294.932C1414.26 295.196 1414.45 295.424 1414.69 295.616C1414.95 295.808 1415.34 296.012 1415.87 296.228C1416.39 296.444 1417.06 296.648 1417.87 296.84C1419.06 297.152 1420.04 297.5 1420.8 297.884C1421.58 298.244 1422.2 298.664 1422.66 299.144C1423.13 299.6 1423.47 300.128 1423.66 300.728C1423.85 301.328 1423.94 302 1423.94 302.744C1423.94 303.824 1423.63 304.796 1423.01 305.66C1422.42 306.5 1421.61 307.16 1420.58 307.64C1419.56 308.12 1418.42 308.36 1417.15 308.36Z" fill="#FDF9EE"/>
<path d="M1435.97 308.36C1434.23 308.36 1432.67 307.928 1431.29 307.064C1429.93 306.2 1428.84 305.024 1428.04 303.536C1427.25 302.048 1426.86 300.38 1426.86 298.532C1426.86 296.684 1427.25 295.016 1428.04 293.528C1428.84 292.04 1429.93 290.864 1431.29 290C1432.67 289.136 1434.23 288.704 1435.97 288.704C1437.63 288.704 1439.15 289.052 1440.51 289.748C1441.89 290.42 1442.94 291.344 1443.65 292.52L1441.61 295.04C1441.23 294.488 1440.74 293.984 1440.15 293.528C1439.55 293.072 1438.92 292.712 1438.25 292.448C1437.59 292.184 1436.94 292.052 1436.32 292.052C1435.18 292.052 1434.16 292.34 1433.25 292.916C1432.37 293.468 1431.67 294.236 1431.14 295.22C1430.62 296.204 1430.36 297.308 1430.36 298.532C1430.36 299.756 1430.63 300.86 1431.18 301.844C1431.73 302.804 1432.45 303.572 1433.36 304.148C1434.26 304.724 1435.26 305.012 1436.36 305.012C1437 305.012 1437.62 304.904 1438.22 304.688C1438.84 304.472 1439.43 304.148 1440.01 303.716C1440.58 303.284 1441.11 302.756 1441.61 302.132L1443.65 304.652C1442.89 305.732 1441.79 306.62 1440.36 307.316C1438.96 308.012 1437.49 308.36 1435.97 308.36Z" fill="#FDF9EE"/>
<path d="M1447.73 308V289.1H1451.41V308H1447.73ZM1449.52 284.924C1448.73 284.924 1448.12 284.72 1447.69 284.312C1447.26 283.904 1447.05 283.328 1447.05 282.584C1447.05 281.888 1447.26 281.324 1447.69 280.892C1448.15 280.46 1448.75 280.244 1449.52 280.244C1450.3 280.244 1450.91 280.448 1451.34 280.856C1451.77 281.264 1451.98 281.84 1451.98 282.584C1451.98 283.28 1451.75 283.844 1451.3 284.276C1450.87 284.708 1450.28 284.924 1449.52 284.924Z" fill="#FDF9EE"/>
<path d="M1457.07 308V289.1H1460.75V292.988L1460.1 293.42C1460.34 292.58 1460.81 291.812 1461.5 291.116C1462.19 290.396 1463.01 289.82 1463.96 289.388C1464.92 288.932 1465.89 288.704 1466.89 288.704C1468.32 288.704 1469.51 288.992 1470.47 289.568C1471.42 290.12 1472.13 290.972 1472.61 292.124C1473.09 293.276 1473.32 294.728 1473.32 296.48V308H1469.64V296.732C1469.64 295.652 1469.5 294.764 1469.22 294.068C1468.93 293.348 1468.49 292.832 1467.89 292.52C1467.3 292.184 1466.56 292.04 1465.68 292.088C1464.96 292.088 1464.31 292.208 1463.71 292.448C1463.12 292.664 1462.59 292.976 1462.14 293.384C1461.71 293.792 1461.37 294.272 1461.1 294.824C1460.87 295.352 1460.75 295.928 1460.75 296.552V308H1458.92C1458.61 308 1458.31 308 1458 308C1457.69 308 1457.38 308 1457.07 308Z" fill="#FDF9EE"/>
<path d="M1485.54 308.36C1483.99 308.36 1482.57 307.928 1481.28 307.064C1480.02 306.2 1479.01 305.024 1478.25 303.536C1477.48 302.048 1477.1 300.368 1477.1 298.496C1477.1 296.6 1477.48 294.92 1478.25 293.456C1479.03 291.968 1480.08 290.804 1481.39 289.964C1482.72 289.124 1484.21 288.704 1485.86 288.704C1486.83 288.704 1487.73 288.848 1488.54 289.136C1489.35 289.424 1490.05 289.832 1490.64 290.36C1491.26 290.864 1491.76 291.452 1492.15 292.124C1492.55 292.796 1492.8 293.516 1492.9 294.284L1492.07 293.996V289.1H1495.79V308H1492.07V303.5L1492.93 303.248C1492.79 303.896 1492.49 304.532 1492.04 305.156C1491.61 305.756 1491.05 306.296 1490.36 306.776C1489.69 307.256 1488.94 307.64 1488.11 307.928C1487.3 308.216 1486.44 308.36 1485.54 308.36ZM1486.5 304.94C1487.62 304.94 1488.61 304.664 1489.47 304.112C1490.32 303.56 1490.99 302.804 1491.47 301.844C1491.97 300.86 1492.22 299.744 1492.22 298.496C1492.22 297.272 1491.97 296.18 1491.47 295.22C1490.99 294.26 1490.32 293.504 1489.47 292.952C1488.61 292.4 1487.62 292.124 1486.5 292.124C1485.4 292.124 1484.43 292.4 1483.57 292.952C1482.74 293.504 1482.07 294.26 1481.57 295.22C1481.09 296.18 1480.85 297.272 1480.85 298.496C1480.85 299.744 1481.09 300.86 1481.57 301.844C1482.07 302.804 1482.74 303.56 1483.57 304.112C1484.43 304.664 1485.4 304.94 1486.5 304.94Z" fill="#FDF9EE"/>
<path d="M1508.75 308.36C1507.04 308.36 1505.5 307.94 1504.14 307.1C1502.81 306.236 1501.75 305.072 1500.96 303.608C1500.18 302.12 1499.79 300.428 1499.79 298.532C1499.79 296.636 1500.17 294.956 1500.93 293.492C1501.71 292.004 1502.78 290.84 1504.11 290C1505.44 289.136 1506.96 288.704 1508.65 288.704C1509.58 288.704 1510.47 288.86 1511.33 289.172C1512.21 289.46 1512.99 289.868 1513.69 290.396C1514.38 290.9 1514.91 291.464 1515.29 292.088C1515.7 292.688 1515.9 293.3 1515.9 293.924L1514.83 293.996V281.36H1518.51V308H1514.83V303.5H1515.54C1515.54 304.076 1515.35 304.652 1514.97 305.228C1514.59 305.78 1514.08 306.296 1513.44 306.776C1512.82 307.256 1512.09 307.64 1511.26 307.928C1510.45 308.216 1509.61 308.36 1508.75 308.36ZM1509.25 305.156C1510.37 305.156 1511.36 304.868 1512.22 304.292C1513.08 303.716 1513.74 302.936 1514.22 301.952C1514.72 300.944 1514.97 299.804 1514.97 298.532C1514.97 297.26 1514.72 296.132 1514.22 295.148C1513.74 294.14 1513.08 293.348 1512.22 292.772C1511.36 292.196 1510.37 291.908 1509.25 291.908C1508.13 291.908 1507.15 292.196 1506.29 292.772C1505.43 293.348 1504.75 294.14 1504.25 295.148C1503.78 296.132 1503.54 297.26 1503.54 298.532C1503.54 299.804 1503.78 300.944 1504.25 301.952C1504.75 302.936 1505.43 303.716 1506.29 304.292C1507.15 304.868 1508.13 305.156 1509.25 305.156Z" fill="#FDF9EE"/>
<path d="M1532.01 308.36C1530.17 308.36 1528.53 307.94 1527.08 307.1C1525.65 306.236 1524.52 305.072 1523.68 303.608C1522.85 302.12 1522.43 300.428 1522.43 298.532C1522.43 296.636 1522.85 294.956 1523.68 293.492C1524.52 292.004 1525.65 290.84 1527.08 290C1528.53 289.136 1530.17 288.704 1532.01 288.704C1533.82 288.704 1535.44 289.136 1536.87 290C1538.32 290.84 1539.46 292.004 1540.3 293.492C1541.13 294.956 1541.55 296.636 1541.55 298.532C1541.55 300.428 1541.13 302.12 1540.3 303.608C1539.46 305.072 1538.32 306.236 1536.87 307.1C1535.44 307.94 1533.82 308.36 1532.01 308.36ZM1532.01 304.976C1533.13 304.976 1534.13 304.7 1535.01 304.148C1535.89 303.572 1536.58 302.804 1537.08 301.844C1537.58 300.86 1537.82 299.756 1537.8 298.532C1537.82 297.284 1537.58 296.18 1537.08 295.22C1536.58 294.236 1535.89 293.468 1535.01 292.916C1534.13 292.364 1533.13 292.088 1532.01 292.088C1530.89 292.088 1529.88 292.376 1528.97 292.952C1528.09 293.504 1527.4 294.272 1526.9 295.256C1526.4 296.216 1526.16 297.308 1526.18 298.532C1526.16 299.756 1526.4 300.86 1526.9 301.844C1527.4 302.804 1528.09 303.572 1528.97 304.148C1529.88 304.7 1530.89 304.976 1532.01 304.976Z" fill="#FDF9EE"/>
<path d="M1064.61 349.92V323.1H1068.32V327.42L1067.75 327.096C1067.89 326.376 1068.3 325.692 1068.97 325.044C1069.63 324.372 1070.44 323.832 1071.4 323.424C1072.37 322.992 1073.37 322.776 1074.4 322.776C1076.09 322.776 1077.59 323.196 1078.9 324.036C1080.21 324.876 1081.25 326.028 1082.01 327.492C1082.77 328.956 1083.15 330.636 1083.15 332.532C1083.15 334.404 1082.77 336.084 1082.01 337.572C1081.27 339.036 1080.25 340.2 1078.94 341.064C1077.63 341.904 1076.15 342.324 1074.51 342.324C1073.41 342.324 1072.35 342.108 1071.33 341.676C1070.3 341.22 1069.43 340.644 1068.72 339.948C1068 339.252 1067.56 338.532 1067.39 337.788L1068.32 337.284V349.92H1064.61ZM1073.9 338.904C1074.99 338.904 1075.97 338.628 1076.83 338.076C1077.69 337.524 1078.36 336.768 1078.86 335.808C1079.36 334.848 1079.61 333.756 1079.61 332.532C1079.61 331.308 1079.36 330.228 1078.86 329.292C1078.39 328.332 1077.72 327.576 1076.86 327.024C1076.01 326.472 1075.02 326.196 1073.9 326.196C1072.78 326.196 1071.79 326.472 1070.93 327.024C1070.07 327.552 1069.4 328.296 1068.9 329.256C1068.4 330.216 1068.14 331.308 1068.14 332.532C1068.14 333.756 1068.4 334.848 1068.9 335.808C1069.4 336.768 1070.07 337.524 1070.93 338.076C1071.79 338.628 1072.78 338.904 1073.9 338.904Z" fill="#FDF9EE"/>
<path d="M1095.58 342.36C1093.75 342.36 1092.1 341.94 1090.65 341.1C1089.22 340.236 1088.09 339.072 1087.26 337.608C1086.42 336.12 1086.01 334.428 1086.01 332.532C1086.01 330.636 1086.42 328.956 1087.26 327.492C1088.09 326.004 1089.22 324.84 1090.65 324C1092.1 323.136 1093.75 322.704 1095.58 322.704C1097.39 322.704 1099.01 323.136 1100.44 324C1101.89 324.84 1103.04 326.004 1103.87 327.492C1104.71 328.956 1105.12 330.636 1105.12 332.532C1105.12 334.428 1104.71 336.12 1103.87 337.608C1103.04 339.072 1101.89 340.236 1100.44 341.1C1099.01 341.94 1097.39 342.36 1095.58 342.36ZM1095.58 338.976C1096.7 338.976 1097.7 338.7 1098.58 338.148C1099.47 337.572 1100.16 336.804 1100.66 335.844C1101.16 334.86 1101.39 333.756 1101.37 332.532C1101.39 331.284 1101.16 330.18 1100.66 329.22C1100.16 328.236 1099.47 327.468 1098.58 326.916C1097.7 326.364 1096.7 326.088 1095.58 326.088C1094.46 326.088 1093.45 326.376 1092.54 326.952C1091.66 327.504 1090.97 328.272 1090.47 329.256C1089.97 330.216 1089.73 331.308 1089.76 332.532C1089.73 333.756 1089.97 334.86 1090.47 335.844C1090.97 336.804 1091.66 337.572 1092.54 338.148C1093.45 338.7 1094.46 338.976 1095.58 338.976Z" fill="#FDF9EE"/>
<path d="M1109.13 342V323.1H1112.85V329.04L1112.49 327.6C1112.75 326.688 1113.19 325.86 1113.81 325.116C1114.46 324.372 1115.18 323.784 1115.99 323.352C1116.83 322.92 1117.68 322.704 1118.57 322.704C1118.97 322.704 1119.35 322.74 1119.71 322.812C1120.09 322.884 1120.39 322.968 1120.6 323.064L1119.64 327.096C1119.35 326.976 1119.03 326.88 1118.67 326.808C1118.34 326.712 1118.01 326.664 1117.67 326.664C1117.03 326.664 1116.41 326.796 1115.81 327.06C1115.24 327.3 1114.73 327.648 1114.28 328.104C1113.85 328.536 1113.5 329.052 1113.24 329.652C1112.98 330.228 1112.85 330.864 1112.85 331.56V342H1109.13Z" fill="#FDF9EE"/>
<path d="M1140.13 342.36C1138.8 342.36 1137.63 342.048 1136.63 341.424C1135.66 340.8 1134.89 339.924 1134.35 338.796C1133.82 337.668 1133.56 336.324 1133.56 334.764V323.1H1137.24V333.756C1137.24 334.86 1137.41 335.82 1137.74 336.636C1138.1 337.428 1138.6 338.04 1139.24 338.472C1139.91 338.904 1140.71 339.12 1141.63 339.12C1142.33 339.12 1142.96 339.012 1143.53 338.796C1144.1 338.556 1144.59 338.232 1144.99 337.824C1145.42 337.416 1145.76 336.924 1145.99 336.348C1146.23 335.772 1146.35 335.148 1146.35 334.476V323.1H1150.03V342H1146.35V338.04L1146.99 337.608C1146.71 338.496 1146.22 339.3 1145.53 340.02C1144.86 340.74 1144.06 341.316 1143.14 341.748C1142.21 342.156 1141.21 342.36 1140.13 342.36Z" fill="#FDF9EE"/>
<path d="M1167.66 342L1161.59 334.044L1161.05 333.36L1153.16 323.1H1157.8L1163.77 330.948L1164.38 331.74L1172.17 342H1167.66ZM1153.19 342L1160.59 332.28L1162.77 334.908L1157.55 342H1153.19ZM1164.59 332.856L1162.55 330.264L1167.16 323.1H1171.52L1164.59 332.856Z" fill="#FDF9EE"/>
<path d="M1194.03 342.36C1192.1 342.36 1190.38 341.952 1188.88 341.136C1187.4 340.296 1186.24 339.156 1185.38 337.716C1184.55 336.276 1184.13 334.62 1184.13 332.748C1184.13 331.26 1184.37 329.904 1184.84 328.68C1185.32 327.456 1185.98 326.4 1186.81 325.512C1187.67 324.6 1188.68 323.904 1189.85 323.424C1191.04 322.92 1192.32 322.668 1193.71 322.668C1194.92 322.668 1196.05 322.908 1197.1 323.388C1198.15 323.844 1199.05 324.48 1199.82 325.296C1200.6 326.112 1201.2 327.084 1201.6 328.212C1202.03 329.316 1202.23 330.528 1202.21 331.848L1202.17 333.432H1186.84L1186.02 330.48H1198.99L1198.46 331.092V330.228C1198.39 329.436 1198.12 328.728 1197.67 328.104C1197.22 327.48 1196.65 326.988 1195.96 326.628C1195.27 326.268 1194.52 326.088 1193.71 326.088C1192.42 326.088 1191.34 326.34 1190.45 326.844C1189.57 327.324 1188.91 328.044 1188.45 329.004C1188 329.94 1187.77 331.104 1187.77 332.496C1187.77 333.816 1188.05 334.968 1188.6 335.952C1189.14 336.912 1189.92 337.656 1190.92 338.184C1191.92 338.712 1193.07 338.976 1194.38 338.976C1195.31 338.976 1196.17 338.82 1196.96 338.508C1197.77 338.196 1198.64 337.632 1199.57 336.816L1201.42 339.444C1200.85 340.02 1200.15 340.524 1199.32 340.956C1198.51 341.388 1197.64 341.736 1196.71 342C1195.8 342.24 1194.91 342.36 1194.03 342.36Z" fill="#FDF9EE"/>
<path d="M1224.05 342.36C1222.33 342.36 1220.8 341.94 1219.44 341.1C1218.11 340.236 1217.05 339.072 1216.26 337.608C1215.47 336.12 1215.08 334.428 1215.08 332.532C1215.08 330.636 1215.46 328.956 1216.22 327.492C1217.01 326.004 1218.07 324.84 1219.4 324C1220.74 323.136 1222.25 322.704 1223.94 322.704C1224.87 322.704 1225.76 322.86 1226.62 323.172C1227.5 323.46 1228.29 323.868 1228.98 324.396C1229.67 324.9 1230.21 325.464 1230.59 326.088C1230.99 326.688 1231.2 327.3 1231.2 327.924L1230.12 327.996V315.36H1233.8V342H1230.12V337.5H1230.84C1230.84 338.076 1230.65 338.652 1230.27 339.228C1229.89 339.78 1229.37 340.296 1228.73 340.776C1228.11 341.256 1227.38 341.64 1226.55 341.928C1225.74 342.216 1224.91 342.36 1224.05 342.36ZM1224.55 339.156C1225.67 339.156 1226.66 338.868 1227.52 338.292C1228.37 337.716 1229.04 336.936 1229.52 335.952C1230.02 334.944 1230.27 333.804 1230.27 332.532C1230.27 331.26 1230.02 330.132 1229.52 329.148C1229.04 328.14 1228.37 327.348 1227.52 326.772C1226.66 326.196 1225.67 325.908 1224.55 325.908C1223.43 325.908 1222.44 326.196 1221.58 326.772C1220.73 327.348 1220.05 328.14 1219.55 329.148C1219.07 330.132 1218.83 331.26 1218.83 332.532C1218.83 333.804 1219.07 334.944 1219.55 335.952C1220.05 336.936 1220.73 337.716 1221.58 338.292C1222.44 338.868 1223.43 339.156 1224.55 339.156Z" fill="#FDF9EE"/>
<path d="M1247.63 342.36C1245.7 342.36 1243.98 341.952 1242.48 341.136C1241 340.296 1239.84 339.156 1238.98 337.716C1238.14 336.276 1237.73 334.62 1237.73 332.748C1237.73 331.26 1237.97 329.904 1238.44 328.68C1238.92 327.456 1239.57 326.4 1240.41 325.512C1241.26 324.6 1242.28 323.904 1243.44 323.424C1244.64 322.92 1245.92 322.668 1247.3 322.668C1248.52 322.668 1249.65 322.908 1250.7 323.388C1251.75 323.844 1252.65 324.48 1253.41 325.296C1254.2 326.112 1254.8 327.084 1255.2 328.212C1255.63 329.316 1255.83 330.528 1255.81 331.848L1255.77 333.432H1240.44L1239.62 330.48H1252.59L1252.06 331.092V330.228C1251.98 329.436 1251.72 328.728 1251.27 328.104C1250.82 327.48 1250.25 326.988 1249.55 326.628C1248.86 326.268 1248.11 326.088 1247.3 326.088C1246.02 326.088 1244.93 326.34 1244.05 326.844C1243.17 327.324 1242.5 328.044 1242.05 329.004C1241.6 329.94 1241.37 331.104 1241.37 332.496C1241.37 333.816 1241.65 334.968 1242.19 335.952C1242.74 336.912 1243.52 337.656 1244.52 338.184C1245.52 338.712 1246.67 338.976 1247.98 338.976C1248.91 338.976 1249.77 338.82 1250.56 338.508C1251.37 338.196 1252.23 337.632 1253.16 336.816L1255.02 339.444C1254.45 340.02 1253.75 340.524 1252.91 340.956C1252.1 341.388 1251.23 341.736 1250.31 342C1249.4 342.24 1248.51 342.36 1247.63 342.36Z" fill="#FDF9EE"/>
<path d="M1266.06 342.36C1264.49 342.36 1263.07 342.084 1261.81 341.532C1260.55 340.98 1259.5 340.164 1258.66 339.084L1261.17 336.924C1261.88 337.764 1262.65 338.376 1263.49 338.76C1264.35 339.12 1265.31 339.3 1266.38 339.3C1266.81 339.3 1267.2 339.252 1267.56 339.156C1267.94 339.036 1268.26 338.868 1268.53 338.652C1268.81 338.436 1269.03 338.184 1269.17 337.896C1269.31 337.584 1269.38 337.248 1269.38 336.888C1269.38 336.264 1269.16 335.76 1268.7 335.376C1268.47 335.208 1268.09 335.028 1267.56 334.836C1267.06 334.62 1266.41 334.404 1265.6 334.188C1264.21 333.828 1263.08 333.42 1262.2 332.964C1261.32 332.508 1260.64 331.992 1260.16 331.416C1259.81 330.96 1259.55 330.468 1259.38 329.94C1259.21 329.388 1259.13 328.788 1259.13 328.14C1259.13 327.348 1259.3 326.628 1259.63 325.98C1259.99 325.308 1260.46 324.732 1261.06 324.252C1261.68 323.748 1262.39 323.364 1263.2 323.1C1264.04 322.836 1264.92 322.704 1265.85 322.704C1266.73 322.704 1267.6 322.824 1268.45 323.064C1269.34 323.304 1270.15 323.652 1270.88 324.108C1271.62 324.564 1272.24 325.104 1272.74 325.728L1270.63 328.068C1270.18 327.612 1269.68 327.216 1269.13 326.88C1268.61 326.52 1268.07 326.244 1267.53 326.052C1266.98 325.86 1266.48 325.764 1266.02 325.764C1265.52 325.764 1265.07 325.812 1264.67 325.908C1264.26 326.004 1263.92 326.148 1263.63 326.34C1263.37 326.532 1263.17 326.772 1263.02 327.06C1262.88 327.348 1262.81 327.672 1262.81 328.032C1262.83 328.344 1262.9 328.644 1263.02 328.932C1263.17 329.196 1263.36 329.424 1263.6 329.616C1263.86 329.808 1264.25 330.012 1264.77 330.228C1265.3 330.444 1265.97 330.648 1266.78 330.84C1267.97 331.152 1268.94 331.5 1269.71 331.884C1270.49 332.244 1271.11 332.664 1271.56 333.144C1272.04 333.6 1272.37 334.128 1272.56 334.728C1272.75 335.328 1272.85 336 1272.85 336.744C1272.85 337.824 1272.54 338.796 1271.92 339.66C1271.33 340.5 1270.52 341.16 1269.49 341.64C1268.47 342.12 1267.32 342.36 1266.06 342.36Z" fill="#FDF9EE"/>
<path d="M1285.66 342.36C1283.73 342.36 1282.02 341.952 1280.51 341.136C1279.04 340.296 1277.87 339.156 1277.01 337.716C1276.18 336.276 1275.76 334.62 1275.76 332.748C1275.76 331.26 1276 329.904 1276.48 328.68C1276.95 327.456 1277.61 326.4 1278.44 325.512C1279.3 324.6 1280.31 323.904 1281.48 323.424C1282.67 322.92 1283.96 322.668 1285.34 322.668C1286.55 322.668 1287.69 322.908 1288.73 323.388C1289.78 323.844 1290.69 324.48 1291.45 325.296C1292.23 326.112 1292.83 327.084 1293.24 328.212C1293.66 329.316 1293.87 330.528 1293.84 331.848L1293.81 333.432H1278.48L1277.66 330.48H1290.63L1290.09 331.092V330.228C1290.02 329.436 1289.76 328.728 1289.3 328.104C1288.85 327.48 1288.28 326.988 1287.59 326.628C1286.9 326.268 1286.15 326.088 1285.34 326.088C1284.05 326.088 1282.97 326.34 1282.09 326.844C1281.21 327.324 1280.54 328.044 1280.09 329.004C1279.63 329.94 1279.41 331.104 1279.41 332.496C1279.41 333.816 1279.68 334.968 1280.23 335.952C1280.78 336.912 1281.55 337.656 1282.55 338.184C1283.55 338.712 1284.71 338.976 1286.02 338.976C1286.95 338.976 1287.8 338.82 1288.59 338.508C1289.4 338.196 1290.27 337.632 1291.2 336.816L1293.06 339.444C1292.49 340.02 1291.78 340.524 1290.95 340.956C1290.14 341.388 1289.27 341.736 1288.34 342C1287.43 342.24 1286.54 342.36 1285.66 342.36Z" fill="#FDF9EE"/>
<path d="M1297.84 342V323.1H1301.52V326.988L1300.88 327.42C1301.12 326.58 1301.58 325.812 1302.27 325.116C1302.96 324.396 1303.79 323.82 1304.74 323.388C1305.69 322.932 1306.67 322.704 1307.67 322.704C1309.1 322.704 1310.29 322.992 1311.24 323.568C1312.2 324.12 1312.91 324.972 1313.39 326.124C1313.86 327.276 1314.1 328.728 1314.1 330.48V342H1310.42V330.732C1310.42 329.652 1310.28 328.764 1309.99 328.068C1309.71 327.348 1309.26 326.832 1308.67 326.52C1308.07 326.184 1307.34 326.04 1306.45 326.088C1305.74 326.088 1305.08 326.208 1304.49 326.448C1303.89 326.664 1303.37 326.976 1302.92 327.384C1302.49 327.792 1302.14 328.272 1301.88 328.824C1301.64 329.352 1301.52 329.928 1301.52 330.552V342H1299.7C1299.39 342 1299.08 342 1298.77 342C1298.46 342 1298.15 342 1297.84 342Z" fill="#FDF9EE"/>
<path d="M1325.24 342L1317.31 323.1H1321.27L1326.99 337.248L1326.31 337.572L1332.42 323.1H1336.21L1327.88 342H1325.24Z" fill="#FDF9EE"/>
<path d="M1347.49 342.36C1345.65 342.36 1344.01 341.94 1342.55 341.1C1341.13 340.236 1339.99 339.072 1339.16 337.608C1338.33 336.12 1337.91 334.428 1337.91 332.532C1337.91 330.636 1338.33 328.956 1339.16 327.492C1339.99 326.004 1341.13 324.84 1342.55 324C1344.01 323.136 1345.65 322.704 1347.49 322.704C1349.3 322.704 1350.92 323.136 1352.35 324C1353.8 324.84 1354.94 326.004 1355.78 327.492C1356.61 328.956 1357.03 330.636 1357.03 332.532C1357.03 334.428 1356.61 336.12 1355.78 337.608C1354.94 339.072 1353.8 340.236 1352.35 341.1C1350.92 341.94 1349.3 342.36 1347.49 342.36ZM1347.49 338.976C1348.61 338.976 1349.61 338.7 1350.49 338.148C1351.37 337.572 1352.06 336.804 1352.56 335.844C1353.06 334.86 1353.3 333.756 1353.27 332.532C1353.3 331.284 1353.06 330.18 1352.56 329.22C1352.06 328.236 1351.37 327.468 1350.49 326.916C1349.61 326.364 1348.61 326.088 1347.49 326.088C1346.37 326.088 1345.35 326.376 1344.45 326.952C1343.57 327.504 1342.88 328.272 1342.38 329.256C1341.88 330.216 1341.64 331.308 1341.66 332.532C1341.64 333.756 1341.88 334.86 1342.38 335.844C1342.88 336.804 1343.57 337.572 1344.45 338.148C1345.35 338.7 1346.37 338.976 1347.49 338.976Z" fill="#FDF9EE"/>
<path d="M1361.11 342V315.36H1364.79V342H1361.11Z" fill="#FDF9EE"/>
<path d="M1375.24 342L1367.31 323.1H1371.28L1376.99 337.248L1376.32 337.572L1382.43 323.1H1386.21L1377.89 342H1375.24Z" fill="#FDF9EE"/>
<path d="M1390.19 342V323.1H1393.87V342H1390.19ZM1391.97 318.924C1391.19 318.924 1390.58 318.72 1390.15 318.312C1389.72 317.904 1389.51 317.328 1389.51 316.584C1389.51 315.888 1389.72 315.324 1390.15 314.892C1390.6 314.46 1391.21 314.244 1391.97 314.244C1392.76 314.244 1393.37 314.448 1393.8 314.856C1394.23 315.264 1394.44 315.84 1394.44 316.584C1394.44 317.28 1394.21 317.844 1393.76 318.276C1393.33 318.708 1392.74 318.924 1391.97 318.924Z" fill="#FDF9EE"/>
<path d="M1399.45 342V323.1H1403.17V327.132L1402.49 327.564C1402.68 326.94 1402.98 326.34 1403.38 325.764C1403.81 325.188 1404.33 324.684 1404.92 324.252C1405.54 323.796 1406.2 323.436 1406.89 323.172C1407.6 322.908 1408.33 322.776 1409.07 322.776C1410.14 322.776 1411.08 322.956 1411.89 323.316C1412.7 323.676 1413.37 324.216 1413.89 324.936C1414.41 325.656 1414.79 326.556 1415.03 327.636L1414.46 327.492L1414.71 326.88C1414.97 326.328 1415.33 325.812 1415.78 325.332C1416.26 324.828 1416.8 324.384 1417.39 324C1417.99 323.616 1418.62 323.316 1419.29 323.1C1419.95 322.884 1420.61 322.776 1421.25 322.776C1422.66 322.776 1423.81 323.064 1424.72 323.64C1425.65 324.216 1426.34 325.092 1426.79 326.268C1427.27 327.444 1427.5 328.908 1427.5 330.66V342H1423.79V330.876C1423.79 329.796 1423.64 328.92 1423.36 328.248C1423.1 327.552 1422.69 327.036 1422.14 326.7C1421.6 326.364 1420.89 326.196 1420.04 326.196C1419.37 326.196 1418.74 326.316 1418.14 326.556C1417.57 326.772 1417.07 327.084 1416.64 327.492C1416.21 327.9 1415.88 328.38 1415.64 328.932C1415.4 329.46 1415.28 330.048 1415.28 330.696V342H1411.57V330.804C1411.57 329.82 1411.42 328.992 1411.14 328.32C1410.85 327.624 1410.44 327.096 1409.89 326.736C1409.34 326.376 1408.67 326.196 1407.89 326.196C1407.22 326.196 1406.6 326.316 1406.03 326.556C1405.46 326.772 1404.96 327.084 1404.53 327.492C1404.1 327.876 1403.77 328.344 1403.53 328.896C1403.29 329.424 1403.17 330 1403.17 330.624V342H1399.45Z" fill="#FDF9EE"/>
<path d="M1441.19 342.36C1439.26 342.36 1437.54 341.952 1436.04 341.136C1434.56 340.296 1433.4 339.156 1432.54 337.716C1431.7 336.276 1431.29 334.62 1431.29 332.748C1431.29 331.26 1431.53 329.904 1432 328.68C1432.48 327.456 1433.13 326.4 1433.97 325.512C1434.82 324.6 1435.84 323.904 1437 323.424C1438.2 322.92 1439.48 322.668 1440.86 322.668C1442.08 322.668 1443.21 322.908 1444.26 323.388C1445.31 323.844 1446.21 324.48 1446.97 325.296C1447.76 326.112 1448.36 327.084 1448.76 328.212C1449.19 329.316 1449.39 330.528 1449.37 331.848L1449.33 333.432H1434L1433.18 330.48H1446.15L1445.62 331.092V330.228C1445.54 329.436 1445.28 328.728 1444.83 328.104C1444.38 327.48 1443.81 326.988 1443.11 326.628C1442.42 326.268 1441.67 326.088 1440.86 326.088C1439.58 326.088 1438.49 326.34 1437.61 326.844C1436.73 327.324 1436.06 328.044 1435.61 329.004C1435.16 329.94 1434.93 331.104 1434.93 332.496C1434.93 333.816 1435.21 334.968 1435.75 335.952C1436.3 336.912 1437.08 337.656 1438.08 338.184C1439.08 338.712 1440.23 338.976 1441.54 338.976C1442.47 338.976 1443.33 338.82 1444.12 338.508C1444.93 338.196 1445.79 337.632 1446.72 336.816L1448.58 339.444C1448.01 340.02 1447.31 340.524 1446.47 340.956C1445.66 341.388 1444.79 341.736 1443.87 342C1442.96 342.24 1442.07 342.36 1441.19 342.36Z" fill="#FDF9EE"/>
<path d="M1453.37 342V323.1H1457.05V326.988L1456.4 327.42C1456.64 326.58 1457.11 325.812 1457.8 325.116C1458.49 324.396 1459.31 323.82 1460.26 323.388C1461.22 322.932 1462.19 322.704 1463.19 322.704C1464.62 322.704 1465.81 322.992 1466.77 323.568C1467.72 324.12 1468.43 324.972 1468.91 326.124C1469.39 327.276 1469.63 328.728 1469.63 330.48V342H1465.95V330.732C1465.95 329.652 1465.8 328.764 1465.52 328.068C1465.23 327.348 1464.79 326.832 1464.19 326.52C1463.6 326.184 1462.86 326.04 1461.98 326.088C1461.26 326.088 1460.61 326.208 1460.01 326.448C1459.42 326.664 1458.89 326.976 1458.44 327.384C1458.01 327.792 1457.67 328.272 1457.41 328.824C1457.17 329.352 1457.05 329.928 1457.05 330.552V342H1455.23C1454.92 342 1454.61 342 1454.3 342C1453.99 342 1453.68 342 1453.37 342Z" fill="#FDF9EE"/>
<path d="M1476.94 342V318.276H1480.62V342H1476.94ZM1473.05 326.7V323.1H1484.98V326.7H1473.05Z" fill="#FDF9EE"/>
<path d="M1496.59 342.36C1494.76 342.36 1493.11 341.94 1491.66 341.1C1490.23 340.236 1489.1 339.072 1488.26 337.608C1487.43 336.12 1487.01 334.428 1487.01 332.532C1487.01 330.636 1487.43 328.956 1488.26 327.492C1489.1 326.004 1490.23 324.84 1491.66 324C1493.11 323.136 1494.76 322.704 1496.59 322.704C1498.4 322.704 1500.02 323.136 1501.45 324C1502.9 324.84 1504.05 326.004 1504.88 327.492C1505.71 328.956 1506.13 330.636 1506.13 332.532C1506.13 334.428 1505.71 336.12 1504.88 337.608C1504.05 339.072 1502.9 340.236 1501.45 341.1C1500.02 341.94 1498.4 342.36 1496.59 342.36ZM1496.59 338.976C1497.71 338.976 1498.71 338.7 1499.59 338.148C1500.47 337.572 1501.16 336.804 1501.66 335.844C1502.16 334.86 1502.4 333.756 1502.38 332.532C1502.4 331.284 1502.16 330.18 1501.66 329.22C1501.16 328.236 1500.47 327.468 1499.59 326.916C1498.71 326.364 1497.71 326.088 1496.59 326.088C1495.47 326.088 1494.46 326.376 1493.55 326.952C1492.67 327.504 1491.98 328.272 1491.48 329.256C1490.98 330.216 1490.74 331.308 1490.77 332.532C1490.74 333.756 1490.98 334.86 1491.48 335.844C1491.98 336.804 1492.67 337.572 1493.55 338.148C1494.46 338.7 1495.47 338.976 1496.59 338.976Z" fill="#FDF9EE"/>
<path d="M1524.77 342L1518.37 323.1L1522.09 323.064L1526.66 337.212L1525.84 337.14L1530.8 326.088H1533.02L1538.02 337.176L1537.06 337.248L1541.67 323.1H1545.38L1539.06 342H1536.52L1531.3 329.976L1532.13 330.084L1527.27 342H1524.77Z" fill="#FDF9EE"/>
<path d="M1556.97 342.36C1555.04 342.36 1553.32 341.952 1551.82 341.136C1550.34 340.296 1549.18 339.156 1548.32 337.716C1547.48 336.276 1547.07 334.62 1547.07 332.748C1547.07 331.26 1547.31 329.904 1547.78 328.68C1548.26 327.456 1548.91 326.4 1549.75 325.512C1550.61 324.6 1551.62 323.904 1552.78 323.424C1553.98 322.92 1555.26 322.668 1556.64 322.668C1557.86 322.668 1558.99 322.908 1560.04 323.388C1561.09 323.844 1561.99 324.48 1562.75 325.296C1563.54 326.112 1564.14 327.084 1564.54 328.212C1564.97 329.316 1565.17 330.528 1565.15 331.848L1565.11 333.432H1549.78L1548.96 330.48H1561.93L1561.4 331.092V330.228C1561.32 329.436 1561.06 328.728 1560.61 328.104C1560.16 327.48 1559.59 326.988 1558.89 326.628C1558.2 326.268 1557.45 326.088 1556.64 326.088C1555.36 326.088 1554.27 326.34 1553.39 326.844C1552.51 327.324 1551.84 328.044 1551.39 329.004C1550.94 329.94 1550.71 331.104 1550.71 332.496C1550.71 333.816 1550.99 334.968 1551.53 335.952C1552.08 336.912 1552.86 337.656 1553.86 338.184C1554.86 338.712 1556.01 338.976 1557.32 338.976C1558.25 338.976 1559.11 338.82 1559.9 338.508C1560.71 338.196 1561.57 337.632 1562.5 336.816L1564.36 339.444C1563.79 340.02 1563.09 340.524 1562.25 340.956C1561.44 341.388 1560.57 341.736 1559.65 342C1558.74 342.24 1557.85 342.36 1556.97 342.36Z" fill="#FDF9EE"/>
<path d="M1579.01 342.36C1578.2 342.36 1577.39 342.228 1576.58 341.964C1575.79 341.7 1575.07 341.352 1574.4 340.92C1573.76 340.464 1573.21 339.972 1572.76 339.444C1572.33 338.892 1572.04 338.34 1571.9 337.788L1572.83 337.284V341.892H1569.15V315.36H1572.83V327.42L1572.26 327.096C1572.38 326.544 1572.64 326.016 1573.04 325.512C1573.45 324.984 1573.96 324.516 1574.58 324.108C1575.22 323.676 1575.91 323.34 1576.65 323.1C1577.39 322.836 1578.14 322.704 1578.9 322.704C1580.59 322.704 1582.09 323.124 1583.4 323.964C1584.71 324.804 1585.75 325.968 1586.51 327.456C1587.28 328.92 1587.66 330.6 1587.66 332.496C1587.66 334.392 1587.28 336.084 1586.51 337.572C1585.77 339.06 1584.75 340.236 1583.44 341.1C1582.13 341.94 1580.65 342.36 1579.01 342.36ZM1578.4 338.976C1579.5 338.976 1580.47 338.7 1581.33 338.148C1582.19 337.572 1582.87 336.804 1583.37 335.844C1583.87 334.86 1584.12 333.744 1584.12 332.496C1584.12 331.272 1583.87 330.18 1583.37 329.22C1582.89 328.236 1582.23 327.468 1581.37 326.916C1580.51 326.364 1579.52 326.088 1578.4 326.088C1577.28 326.088 1576.29 326.364 1575.44 326.916C1574.58 327.468 1573.9 328.236 1573.4 329.22C1572.9 330.18 1572.65 331.272 1572.65 332.496C1572.65 333.744 1572.9 334.86 1573.4 335.844C1573.9 336.804 1574.58 337.572 1575.44 338.148C1576.29 338.7 1577.28 338.976 1578.4 338.976Z" fill="#FDF9EE"/>
<path d="M1593.16 342.396C1592.37 342.396 1591.76 342.168 1591.33 341.712C1590.9 341.232 1590.69 340.56 1590.69 339.696C1590.69 338.904 1590.92 338.256 1591.37 337.752C1591.82 337.248 1592.42 336.996 1593.16 336.996C1593.94 336.996 1594.55 337.236 1594.98 337.716C1595.41 338.172 1595.62 338.832 1595.62 339.696C1595.62 340.488 1595.39 341.136 1594.94 341.64C1594.49 342.144 1593.89 342.396 1593.16 342.396Z" fill="#FDF9EE"/>
<path d="M14.3489 324.175C10.937 324.175 8.42461 323.214 6.81171 321.292C5.1988 319.355 4.39235 316.511 4.39235 312.761V282.55H12.3483V312.433C12.3483 313.12 12.3871 313.784 12.4646 314.425C12.5422 315.05 12.7205 315.566 12.9997 315.972C13.2788 316.378 13.7286 316.581 14.3489 316.581C14.9848 316.581 15.4423 316.386 15.7214 315.995C16.0006 315.589 16.1712 315.066 16.2332 314.425C16.3108 313.784 16.3495 313.12 16.3495 312.433V282.55H24.3055V312.761C24.3055 316.511 23.499 319.355 21.8861 321.292C20.2732 323.214 17.7608 324.175 14.3489 324.175Z" fill="#FDF9EE"/>
<path d="M27.0738 323.8V282.55H34.9832V323.8H27.0738Z" fill="#FDF9EE"/>
<path d="M37.1002 323.8L46.638 282.386H55.1058L45.5446 323.8H37.1002Z" fill="#FDF9EE"/>
<path d="M67.0164 324.175C63.6045 324.175 61.0921 323.214 59.4792 321.292C57.8663 319.355 57.0598 316.511 57.0598 312.761V282.55H65.0158V312.433C65.0158 313.12 65.0546 313.784 65.1321 314.425C65.2097 315.05 65.388 315.566 65.6672 315.972C65.9463 316.378 66.3961 316.581 67.0164 316.581C67.6523 316.581 68.1098 316.386 68.3889 315.995C68.6681 315.589 68.8387 315.066 68.9007 314.425C68.9783 313.784 69.017 313.12 69.017 312.433V282.55H76.973V312.761C76.973 316.511 76.1665 319.355 74.5536 321.292C72.9407 323.214 70.4283 324.175 67.0164 324.175Z" fill="#FDF9EE"/>
<path d="M78.9271 323.8L83.3238 301.933L79.8344 282.526H87.8368L89.9538 296.706L91.8381 282.526H99.8638L96.3744 301.933L100.748 323.8H92.4662L89.884 307.675L87.232 323.8H78.9271Z" fill="#FDF9EE"/>
<path d="M114.357 323.8V282.55H125.616C128.563 282.55 130.78 283.378 132.269 285.034C133.758 286.675 134.502 289.081 134.502 292.253V311.566C134.502 315.472 133.82 318.487 132.455 320.612C131.106 322.737 128.733 323.8 125.337 323.8H114.357ZM122.592 316.511H124.011C125.515 316.511 126.267 315.776 126.267 314.308V293.026C126.267 291.651 126.081 290.769 125.709 290.378C125.352 289.972 124.616 289.769 123.499 289.769H122.592V316.511Z" fill="#FDF9EE"/>
<path d="M137.852 323.8V282.55H154.23V290.519H146.181V298.558H153.904V306.316H146.181V315.761H154.765V323.8H137.852Z" fill="#FDF9EE"/>
<path d="M167.21 324.175C163.473 324.175 160.774 323.237 159.115 321.362C157.471 319.487 156.649 316.503 156.649 312.409V308.378H164.744V313.534C164.744 314.487 164.884 315.237 165.163 315.784C165.458 316.316 165.962 316.581 166.675 316.581C167.42 316.581 167.931 316.362 168.211 315.925C168.505 315.487 168.653 314.769 168.653 313.769C168.653 312.503 168.529 311.448 168.28 310.605C168.032 309.745 167.598 308.933 166.978 308.167C166.373 307.386 165.528 306.48 164.442 305.448L160.766 301.933C158.021 299.323 156.649 296.339 156.649 292.98C156.649 289.464 157.455 286.784 159.068 284.941C160.697 283.097 163.046 282.175 166.117 282.175C169.87 282.175 172.53 283.183 174.096 285.198C175.678 287.214 176.469 290.276 176.469 294.386H168.141V291.55C168.141 290.987 167.978 290.55 167.652 290.237C167.342 289.925 166.916 289.769 166.373 289.769C165.721 289.769 165.241 289.956 164.931 290.331C164.636 290.691 164.489 291.159 164.489 291.737C164.489 292.316 164.644 292.941 164.954 293.612C165.264 294.284 165.877 295.058 166.792 295.933L171.514 300.503C172.46 301.409 173.328 302.37 174.119 303.386C174.91 304.386 175.546 305.558 176.027 306.901C176.508 308.23 176.748 309.855 176.748 311.776C176.748 315.651 176.035 318.691 174.608 320.894C173.197 323.081 170.731 324.175 167.21 324.175Z" fill="#FDF9EE"/>
<path d="M179.121 323.8V282.55H187.03V323.8H179.121Z" fill="#FDF9EE"/>
<path d="M198.732 324.175C192.885 324.175 189.962 319.956 189.962 311.519V293.73C189.962 286.026 193.311 282.175 200.011 282.175C202.772 282.175 204.889 282.737 206.362 283.862C207.835 284.972 208.851 286.597 209.409 288.737C209.968 290.878 210.247 293.487 210.247 296.566H202.244V292.909C202.244 292.019 202.12 291.276 201.872 290.683C201.64 290.073 201.143 289.769 200.383 289.769C199.437 289.769 198.809 290.089 198.499 290.73C198.204 291.37 198.057 292.073 198.057 292.839V312.831C198.057 313.941 198.197 314.847 198.476 315.55C198.77 316.237 199.337 316.581 200.174 316.581C201.042 316.581 201.616 316.237 201.895 315.55C202.19 314.847 202.337 313.925 202.337 312.784V306.901H200.151V299.776H210.154V323.8H206.874L205.478 320.331C204.051 322.894 201.802 324.175 198.732 324.175Z" fill="#FDF9EE"/>
<path d="M213.411 323.8V282.55H221.832L225.6 302.308V282.55H233.51V323.8H225.507L221.413 303.175V323.8H213.411Z" fill="#FDF9EE"/>
<path d="M237.139 323.8V282.55H253.516V290.519H245.467V298.558H253.19V306.316H245.467V315.761H254.051V323.8H237.139Z" fill="#FDF9EE"/>
<path d="M256.773 323.8V282.55H269.335C271.429 282.55 273.011 283.034 274.081 284.003C275.151 284.956 275.864 286.3 276.221 288.034C276.593 289.753 276.779 291.776 276.779 294.105C276.779 296.355 276.492 298.151 275.918 299.495C275.36 300.839 274.298 301.769 272.731 302.284C274.019 302.55 274.918 303.198 275.43 304.23C275.957 305.245 276.221 306.566 276.221 308.191V323.8H268.149V307.651C268.149 306.448 267.9 305.706 267.404 305.425C266.923 305.128 266.14 304.98 265.055 304.98V323.8H256.773ZM265.101 297.831H267.078C268.211 297.831 268.777 296.589 268.777 294.105C268.777 292.495 268.653 291.441 268.404 290.941C268.156 290.441 267.691 290.191 267.009 290.191H265.101V297.831Z" fill="#FDF9EE"/>
<path d="M1393.81 265.607H1446.17V52.942H1477.27V2.39286H1362.72V52.942H1393.81V265.607Z" fill="#FDF9EE"/>
<path d="M1299.93 265.607H1350.52V2.39286H1299.93V265.607Z" fill="#FDF9EE"/>
<path d="M210.507 268C188.687 268 172.62 261.868 162.306 249.605C152.936 238.374 147.822 222.372 146.964 201.598C146.877 199.503 146.834 197.36 146.834 195.167V2.39286H197.713V193.074C197.713 197.461 197.961 201.698 198.457 205.786C198.952 209.774 200.093 213.064 201.878 215.656C203.663 218.249 206.54 219.545 210.507 219.545C214.573 219.545 217.499 218.298 219.284 215.806C221.069 213.214 222.16 209.874 222.557 205.786C223.053 201.698 223.301 197.461 223.301 193.074V2.39286H274.179V195.167C274.179 219.096 269.022 237.242 258.708 249.605C248.393 261.868 232.326 268 210.507 268Z" fill="#FDF9EE"/>
</svg>
