<svg width="67" height="67" viewBox="0 0 67 67" fill="none" xmlns="http://www.w3.org/2000/svg">
<path d="M33.5 2C27.2699 2 21.1797 3.84744 15.9995 7.30871C10.8194 10.77 6.78197 15.6896 4.39781 21.4455C2.01365 27.2013 1.38984 33.5349 2.60528 39.6453C3.82071 45.7557 6.82079 51.3685 11.2261 55.7738C15.6315 60.1792 21.2443 63.1793 27.3547 64.3947C33.4651 65.6102 39.7987 64.9864 45.5545 62.6022C51.3104 60.218 56.23 56.1806 59.6913 51.0005C63.1526 45.8203 65 39.7301 65 33.5C65 25.1457 61.6813 17.1335 55.7739 11.2261C49.8665 5.31874 41.8543 2 33.5 2ZM33.5 2C27.69 2 23 16 23 33.5C23 51 27.69 65 33.5 65C39.31 65 44 51 44 33.5C44 16 39.31 2 33.5 2ZM58.7 52.3999C54.2562 48.6681 48.93 46.1376 43.23 45.0499C36.8192 43.6465 30.1807 43.6465 23.77 45.0499C18.0699 46.1376 12.7437 48.6681 8.29997 52.3999M58.7 14.5999C54.2562 18.3318 48.93 20.8623 43.23 21.9499C40.036 22.6619 36.7723 23.014 33.5 22.9999C30.2276 23.014 26.964 22.6619 23.77 21.9499C18.0699 20.8623 12.7437 18.3318 8.29997 14.5999" stroke="#FFF2DC" stroke-width="4" stroke-linecap="round" stroke-linejoin="round"/>
</svg>
